<?xml version="1.0" encoding="utf-8"?>
<!-- Generator: Adobe Illustrator 23.0.1, SVG Export Plug-In . SVG Version: 6.00 Build 0)  -->
<svg version="1.1" id="Layer_1" xmlns="http://www.w3.org/2000/svg" xmlns:xlink="http://www.w3.org/1999/xlink" x="0px" y="0px"
	 viewBox="0 0 97.33 133.33" style="enable-background:new 0 0 97.33 133.33;" xml:space="preserve">
<style type="text/css">
	.st0{clip-path:url(#SVGID_2_);}
	.st1{clip-path:url(#SVGID_4_);}
	.st2{clip-path:url(#SVGID_6_);}
	.st3{clip-path:url(#SVGID_8_);}
	.st4{fill:#FFFFFF;}
</style>
<g>
	<defs>
		<rect id="SVGID_1_" width="97.33" height="133.33"/>
	</defs>
	<clipPath id="SVGID_2_">
		<use xlink:href="#SVGID_1_"  style="overflow:visible;"/>
	</clipPath>
	<g class="st0">
		<g>
			<defs>
				
					<rect id="SVGID_3_" x="-107.04" y="-25.6" transform="matrix(0.7257 -0.688 0.688 0.7257 -83.7145 7.8289)" width="150" height="269"/>
			</defs>
			<clipPath id="SVGID_4_">
				<use xlink:href="#SVGID_3_"  style="overflow:visible;"/>
			</clipPath>
			<g class="st1">
				<g>
					<defs>
						
							<rect id="SVGID_5_" x="-107.04" y="-25.6" transform="matrix(0.7257 -0.688 0.688 0.7257 -83.7145 7.8289)" width="150" height="269"/>
					</defs>
					<clipPath id="SVGID_6_">
						<use xlink:href="#SVGID_5_"  style="overflow:visible;"/>
					</clipPath>
					<g class="st2">
						<g>
							<defs>
								
									<rect id="SVGID_7_" x="-107.03" y="-25.41" transform="matrix(0.7257 -0.688 0.688 0.7257 -83.8398 7.6837)" width="149.49" height="268.78"/>
							</defs>
							<clipPath id="SVGID_8_">
								<use xlink:href="#SVGID_7_"  style="overflow:visible;"/>
							</clipPath>
							<g class="st3">
								<path class="st4" d="M-6.19,98.07c-0.01,0.15,0.03,0.34,0.02,0.49c0,0.08,0.04,0.11,0.07,0.16c0.23,1.18,0.55,2.37,0.9,3.52
									c0.28,0.99,0.67,1.95,1.57,2.51c0.26,0.2,0.54-0.21,0.35-0.41c-1.63-1.72-1.71-4.23-2.53-6.34
									C-5.84,97.81-6.22,97.8-6.19,98.07z M-52.23,80.83c-2.83,4.98-5.89,9.73-10.28,13.53c-0.51,0.41,0.2,1.15,0.67,0.7
									c4.55-3.8,7.27-8.81,10.03-13.95C-51.66,80.81-52.07,80.54-52.23,80.83z M-67.33,99.82c-0.37-0.39-0.98-0.41-1.36-0.04
									c-0.04,0.04-0.12,0.11-0.16,0.15c-0.35,0.33-0.41,0.98-0.04,1.37c0.11,0.11,0.26,0.2,0.38,0.23
									c-0.04,0.04-0.08,0.08-0.08,0.08c-0.35,0.33-0.36,0.86-0.03,1.21c0.26,0.27,0.68,0.32,1.02,0.14
									c0.26,0.43,0.82,0.63,1.24,0.38c0.04-0.04,0.16-0.07,0.19-0.11c0.43-0.26,0.59-0.78,0.38-1.24
									c-0.21-0.46-0.74-0.56-1.17-0.38c-0.04-0.11-0.11-0.19-0.18-0.27s-0.15-0.16-0.26-0.2l0.04-0.04
									C-67.02,100.85-66.96,100.21-67.33,99.82z M-68.07,106c-0.06-0.46-0.28-0.77-0.7-0.97l-0.04-0.04
									c-0.38-0.16-0.8,0.09-1.04,0.39c-0.08,0.15-0.12,0.27-0.16,0.38c0,0,0,0,0,0.07l-0.04,0.04c-0.38-0.16-0.79-0.14-1.1,0.16
									c-0.39,0.37-0.45,1.02-0.04,1.37c0.22,0.23,0.53,0.32,0.79,0.29c0.04,0.04,0.04,0.04,0.07,0.08
									c0.26,0.27,0.71,0.36,1.1,0.22c0.11-0.04,0.19-0.03,0.27-0.11c0.08-0.07,0.16-0.15,0.23-0.22c0.6,0.55,1.46-0.49,0.71-0.97
									c-0.11-0.04-0.19-0.05-0.27-0.05C-68.16,106.53-68.04,106.27-68.07,106z M-63.24,101.72
									C-63.24,101.72-63.28,101.76-63.24,101.72C-63.28,101.76-63.28,101.76-63.24,101.72
									C-63.28,101.76-63.24,101.72-63.24,101.72z M-63.2,103.09c-0.04-0.04-0.04-0.04-0.08-0.08
									C-63.31,103.05-63.28,103.08-63.2,103.09C-63.24,103.05-63.2,103.09-63.2,103.09z M-63.24,101.72
									c0.11-0.04,0.19-0.03,0.31-0.07c0.3,0.01,0.49,0.13,0.71,0.28c0.3,0.31,0.24,0.81-0.03,1.07c-0.23,0.22-0.57,0.25-0.88,0.09
									c-0.11-0.04-0.22-0.08-0.3-0.16c-0.66,0.55-1.59-0.2-1.39-0.91c-0.45-0.17-0.7-0.59-0.58-1.08
									c0.13-0.42,0.63-0.74,1.08-0.58c0.04-0.04,0.04-0.11,0.08-0.15c-0.07-0.31,0.02-0.61,0.1-0.91
									c0.16-0.38,0.51-0.63,0.89-0.47c0.19,0.04,0.38,0.24,0.48,0.43c0.53,0.24,0.93,0.74,0.76,1.35
									c-0.08,0.38-0.43,0.56-0.73,0.55C-62.89,101.46-63.05,101.61-63.24,101.72z M-65.59,98.54c-0.11-0.04-0.22-0.16-0.33-0.28
									c0,0-0.04,0.04-0.01,0.08c-0.04,0.04-0.04,0.11-0.08,0.15c0.11,0.04,0.15,0.08,0.22,0.16
									C-65.74,98.61-65.63,98.57-65.59,98.54z M-63.58,97.22c0.15,0.16,0.26,0.27,0.26,0.5c0.03,0.34-0.13,0.57-0.36,0.71
									c-0.08,0.07-0.16,0.07-0.27,0.1c-0.27,0.11-0.57,0.1-0.8-0.06c-0.04,0.04-0.04,0.04-0.11,0.04
									c-0.04,0.04-0.08-0.01-0.11,0.03c0.04,0.04,0.11,0.04,0.15,0.08c0.45,0.24,0.43,1-0.04,1.21c-0.04,0.04-0.11,0.04-0.15,0.07
									c-0.27,0.1-0.5,0.1-0.76-0.02c-0.2,0.41-0.74,0.55-1.15,0.35c-0.45-0.16-0.59-0.63-0.5-1.08c0-0.07,0.04-0.11,0-0.15
									c0.01-0.08,0.04-0.19,0.08-0.22c-0.34,0.03-0.65-0.14-0.86-0.44c-0.22-0.39-0.09-0.95,0.38-1.17
									c0.04-0.04,0.16-0.07,0.19-0.1c0.16-0.07,0.34-0.11,0.49-0.1c0.19-0.03,0.38,0.01,0.57,0.13c0.15,0.08,0.22,0.16,0.33,0.28
									c0.04,0.04,0.08,0.08,0.11,0.11c0.08-0.3,0.28-0.48,0.58-0.55c0.08,0,0.11-0.04,0.19-0.04c0.08,0.01,0.15,0.01,0.23,0.01
									c0.04-0.04,0.08-0.08,0.11-0.11C-64.47,96.44-63.71,96.61-63.58,97.22z M-69.34,96.69c0.54,0.02,1.01-0.51,0.83-1.01
									c0,0-0.04-0.04,0-0.07c-0.17-0.58-0.85-0.74-1.24-0.45l-0.04-0.04c-0.3-0.16-0.6-0.17-0.95-0.07
									c-0.39,0.07-0.66,0.48-0.56,0.9c0.1,0.34,0.51,0.7,0.9,0.56c0.16-0.07,0.27-0.11,0.42-0.18
									C-69.87,96.52-69.61,96.72-69.34,96.69z M-69.08,103.99c0.04-0.04,0.08-0.15,0.12-0.19c0.28-0.41,0.06-1.02-0.39-1.19
									c-0.3-0.16-0.57-0.05-0.84,0.13c-0.23-0.01-0.49,0.1-0.61,0.29c-0.04,0.04-0.04,0.11-0.08,0.15
									c-0.32,0.52,0.08,1.18,0.65,1.16c0.08,0.01,0.15,0.01,0.19-0.03C-69.63,104.44-69.28,104.33-69.08,103.99z M-63.81,105.96
									c0.22,0.16,0.37,0.39,0.32,0.66c-0.06,0.72-0.72,1.28-1.43,0.92c-0.26-0.13-0.33-0.43-0.29-0.69
									c-0.04-0.04-0.07-0.01-0.11-0.04c-0.65-0.13-0.69-1.13-0.11-1.38c0.04-0.04,0.08-0.07,0.11-0.03
									c-0.03-0.27,0.09-0.53,0.36-0.71c0.04-0.19,0.16-0.3,0.35-0.41s0.38-0.14,0.61-0.14c0.08,0.01,0.15,0.01,0.27,0.05
									c0.08-0.23,0.28-0.41,0.51-0.48c0.46-0.14,0.91,0.25,0.93,0.74c-0.05,0.42-0.25,0.76-0.67,0.86
									c-0.16,0.07-0.31-0.01-0.46-0.09c-0.04,0.04-0.08,0.08-0.08,0.15c-0.04,0.04-0.08,0.08-0.11,0.11
									C-63.69,105.7-63.73,105.81-63.81,105.96z M-71.51,98.15c-0.04,0.04,0,0.08-0.04,0.11C-71.51,98.23-71.51,98.23-71.51,98.15
									C-71.47,98.19-71.47,98.19-71.51,98.15z M-75.01,103.84l0.04-0.04c0,0-0.04,0.04-0.07,0L-75.01,103.84
									C-74.97,103.88-75.01,103.84-75.01,103.84z M-72.98,107.77c0-0.08,0-0.16,0-0.16c-0.04,0.04-0.08,0.08-0.15,0.07
									c0.07,0.08,0.15,0.23,0.22,0.31C-72.95,107.89-72.98,107.84-72.98,107.77z M-79.73,87.21c1.48,1.33,2.87,2.24,4.52,3.13
									c-1.24-1.7-2.34-3.56-3.51-5.26c-1.68-2.48-3.48-4.92-4.7-7.69c-1.32-3.04-2.2-5.76-5.08-7.7
									c-2.24-1.51-4.78-2.07-7.47-1.95c1.2,0.57,2.12,1.77,2.61,3.15c1.49,3.99-0.07,8.21,3.42,11.57c1.85,1.8,3.9,1.93,6.32,2.45
									C-81.89,85.25-80.96,86.08-79.73,87.21z M-68.44,109.98c0.11,0.04,0.23,0.08,0.3,0.16c0.19,0.05,0.38,0.16,0.52,0.4
									c1.19,2.35,1.13,4.86,0.45,7.35c-0.55,1.93-1.43,3.72-2.13,5.57c-0.54,1.54-0.89,3.2-1.61,4.71
									c-0.6,1.31-1.58,2.31-2.3,3.59c-1.04,1.8-0.59,3.67-1.44,5.44c-0.72,1.42-1.96,2.3-2.65,3.84
									c-1.49,3.27,1.19,5.39,3.89,6.68c0.3,0.16,0.06,0.53-0.2,0.48c-2.57-0.6-4.84-2.22-5.3-4.97c-0.2-1.14,0.05-2.05,0.54-3.1
									c0.44-0.86,1.1-1.56,1.63-2.35c0.91-1.39,1.05-2.56,1.28-4.04c0.23-1.55,0.91-2.56,1.82-3.86c1.3-1.91,1.89-3.79,2.59-5.94
									c1.33-4.07,3.79-8.11,2.19-12.45c-2.55,3.01-4.52,5.47-5.23,9.56c-0.45,2.65-0.6,5.31-1.54,7.83
									c-1.84,4.78-5.97,8.85-10.67,10.85c-0.27,0.11-0.52-0.24-0.29-0.39c2.65-2.29,5.36-4.27,7.45-7.14
									c2.05-2.83,2.74-5.93,3.18-9.31c0.53-4.05,1.64-8.81,4.94-11.5c-0.53-0.09-1.06-0.26-1.54-0.54
									c-1.82,1.28-3.22,3.79-4.29,5.47c-1.15,1.76-2.15,3.59-3.07,5.43c-1.77,3.68-2.57,8.15-5.06,11.39
									c-0.16,0.22-0.49,0.03-0.33-0.2c1.66-2.62,2.32-5.76,3.46-8.61c0.81-1.96,1.66-3.88,2.7-5.74c1.2-2.25,3.26-6.57,5.85-8.36
									c-0.15-0.16-0.26-0.28-0.37-0.47c-0.36-0.54-0.73-1.16-1.09-1.85c-3.45,5.12-7.27,9.99-10.64,15.19
									c-0.16,0.3-0.57,0.02-0.45-0.24c2.73-5.48,6.31-11.39,10.76-15.68c-0.15-0.31-0.33-0.66-0.43-1
									c-2.13,1.42-4.47,2.39-6.45,3.97c-1.36,1.14-2.5,2.44-3.68,3.78c-2.28,2.68-4.41,5.66-7.43,7.56
									c-0.19,0.11-0.41-0.2-0.26-0.35c3.11-2.73,5.48-5.86,8.19-8.94c2.7-3.01,5.79-4.67,9.16-6.83c0.04-0.04,0.04-0.04,0.07,0.01
									c-0.28-0.77-0.57-1.54-0.73-2.27c-3.03,0.64-6.13,3.15-8.5,4.94c-0.31,0.22-0.68-0.17-0.41-0.43
									c2.41-1.91,5.49-4.83,8.66-5.4c-0.03-0.19-0.07-0.39-0.1-0.57c-0.12,0.11-0.31,0.15-0.5,0.18c-3.81,0.28-7.56,1.4-10.3,4.21
									c-1.84,1.89-2.97,4.45-5.32,5.79c-1.55,0.87-3.42,1.16-5.16,0.73c-2.98-0.72-4.98-4.23-8.35-3.41
									c-0.34,0.1-0.44-0.4-0.1-0.5c2.15-0.78,3.72,0.18,5.52,1.36c1.76,1.15,3.63,2.19,5.78,1.56c2.26-0.67,3.53-2.76,4.8-4.55
									c2.05-2.83,4.49-4.71,7.45-5.81c-3.01,0.19-6.02,0.53-9.01,1.2c-0.23,0.07-0.3-0.31-0.1-0.34
									c4.68-1.63,10.36-2.34,15.42-2.1c0.13-0.56,0.3-1.17,0.54-1.69c-1.64,0.15-3.11-0.24-4.81-0.55
									c-2.49-0.45-4.96-0.7-7.55-0.78c-4.97-0.09-9.86,0.77-14.79,1.43c-0.19,0.03-0.3-0.31-0.1-0.34
									c4.43-0.8,8.85-1.36,13.35-1.62c4.83-0.21,9.3,0.67,14.04,1.06c0.04,0.04,0.08,0,0.11,0.04c0.04-0.04,0.04-0.11,0.08-0.15
									c-3.27-1.27-6.38-2.98-9.73-4.18c-3.61-1.31-7.35-2.29-11.09-3.11c-0.3-0.08-0.18-0.49,0.13-0.49
									c3.97,0.68,7.86,1.66,11.67,2.94c3.05,1.03,6.56,2.22,9.36,4.01l0.04-0.04c0.08-0.15,0.2-0.34,0.28-0.48
									c-4.28-3.5-10.31-5.33-15.47-7.03c-5.09-1.62-10.34-2.86-15.65-3.61c-0.27-0.04-0.29-0.46,0.01-0.46
									c5.53,0.68,10.98,1.81,16.33,3.48c5.17,1.62,11.08,3.49,15.36,6.91c0.16-0.15,0.28-0.26,0.43-0.41
									c-3.13-2.44-6.07-4.92-9.63-6.8c-0.26-0.12-0.03-0.49,0.24-0.38c3.6,1.69,7.31,3.81,10.05,6.77
									c0.39-0.22,0.81-0.4,1.27-0.46c-2.34-2.08-5.44-2.84-7.78-4.99c-2.15-1.96-3.13-2.29-5.81-2.85
									c-1.25-0.3-2.42-0.67-3.46-1.39c-2.21-1.39-3.78-3.68-4.28-6.23c-0.71-3.48,1.09-10.96-4.67-10.47
									c-0.42,0.03-0.44-0.61-0.06-0.68c0.54-0.14,1.07-0.13,1.52-0.04c4.6-1.32,9.83,0.76,12.46,4.7
									c2.05,3.02,3.06,6.58,5.15,9.64c2.23,3.29,4.99,6.52,6.8,10.07c0,0,0,0,0.04,0.04c0.74,0.55,1.38,1.14,1.89,2.07
									c0.4,0.66-0.57,1.28-1.05,0.77c-0.04-0.04-0.11-0.12-0.15-0.16c-1.3,0.34-2.08,1.09-2.57,2.06c0.08,0,0.08,0,0.15,0
									c0.15,0.01,0.27,0.05,0.34,0.05c-0.15-0.31-0.09-0.72,0.18-0.98c0.31-0.3,0.84-0.29,1.14,0.03s0.28,0.84-0.03,1.14
									c-0.27,0.26-0.62,0.29-0.92,0.13c0.07,0.15,0.11,0.27,0.1,0.42c0.15,0,0.27,0.04,0.41,0.13c0.04-0.11,0.08-0.15,0.16-0.22
									c0.19-0.19,0.43-0.26,0.69-0.21c0.08-0.15,0.24-0.3,0.43-0.41c0.27-0.1,0.61,0.02,0.83,0.25c0.22,0.23,0.25,0.58,0.09,0.8
									c0.07,0,0.11-0.04,0.19-0.03c0.34,0.05,0.57,0.28,0.64,0.59c0.03,0.11,0.03,0.19,0.03,0.34c0.04-0.11,0.12-0.19,0.2-0.26
									s0.16-0.15,0.23-0.22c0.82-0.78,2.04,0.51,1.22,1.29c-0.08,0.07-0.16,0.15-0.23,0.22c-0.19,0.19-0.42,0.26-0.65,0.25
									c-0.01,0.23-0.09,0.53-0.29,0.71c-0.11,0.11-0.19,0.19-0.31,0.3c-0.39,0.37-0.96,0.32-1.29-0.03
									c-0.3-0.31-0.32-0.81-0.08-1.18c-0.11-0.04-0.19-0.04-0.26-0.12c-0.3-0.24-0.4-0.66-0.24-0.96c-0.31,0.3-0.77,0.29-1.1,0.08
									c-0.12,0.19-0.32,0.37-0.51,0.41c-0.08-0.01-0.11,0.03-0.15-0.01c-0.39,0.07-0.8-0.14-0.94-0.52
									c-0.03-0.11-0.07-0.23-0.06-0.3c-0.15-0.08-0.27-0.13-0.38-0.24c-0.04,0.11-0.04,0.19-0.08,0.3
									c-0.01,0.08-0.04,0.11-0.04,0.19c0.26-0.03,0.56,0.13,0.71,0.36c0.18,0.34,0.06,0.76-0.33,0.97
									c-0.08,0.08-0.16,0.07-0.23,0.15c0.11,0.19,0.22,0.46,0.17,0.72c-0.05,0.49-0.44,0.86-0.93,0.81
									c-0.01,0.08-0.01,0.15-0.01,0.23c0.35-0.33,0.89-0.4,1.26-0.08c0.08-0.22,0.16-0.45,0.32-0.6c0.04-0.04,0.16-0.07,0.19-0.11
									c0.17-0.45,0.59-0.7,1.04-0.54c0.42,0.13,0.74,0.63,0.54,1.04c-0.04,0.04-0.04,0.11-0.08,0.15
									c-0.04,0.11-0.12,0.26-0.24,0.37c0,0.08-0.04,0.11-0.08,0.23c-0.09,0.45-0.48,0.74-0.93,0.73
									c-0.16-0.01-0.34-0.05-0.45-0.16c0,0,0.04,0.04-0.01,0.07c0,0.15-0.04,0.34-0.13,0.49c0.34,0.05,0.64,0.21,0.71,0.59
									c0.04,0.11,0.07,0.23,0.07,0.3c0.1,0.57-0.3,1.09-0.91,1.08h-0.07c0.04,0.11,0.15,0.23,0.18,0.35
									c0.27-0.11,0.61-0.14,0.88,0.14c0.22,0.23,0.41,0.43,0.51,0.7c0.11,0.19,0.1,0.42,0.1,0.65l0.04-0.04
									c0.35-0.26,0.88,0.06,1.02,0.44c0.07,0.38-0.17,0.76-0.52,0.86c-0.23,0.07-0.49-0.05-0.64-0.21
									c0.33,0.43,0.66,0.78,1.07,1.13c0.11-0.11,0.19-0.18,0.35-0.26c0.04-0.04,0.04-0.04,0.07,0.01c0.19-0.04,0.49-0.03,0.64,0.2
									c0.08,0.08,0.15,0.16,0.15,0.23c0.11,0.19,0.15,0.31,0.1,0.5c0.45,0.08,0.94,0.14,1.48,0.07c-0.11-0.04-0.27-0.12-0.38-0.23
									c-0.59-0.4-0.42-1.31,0.27-1.52c0.34-0.1,0.76,0.02,0.98,0.33c0.29,0.39,0.32,0.89-0.03,1.22
									C-68.17,109.88-68.32,109.95-68.44,109.98z M-67.73,96.13c0.45,0.16,0.99-0.13,1.01-0.66c0.01-0.07,0.01-0.07,0.01-0.15
									c0.01-0.3-0.25-0.58-0.55-0.66c0.04-0.04,0.08-0.15,0.12-0.18c0.16-0.15,0.23-0.38,0.17-0.6c-0.07-0.31-0.36-0.54-0.71-0.59
									c-0.53-0.01-0.92,0.43-0.97,0.93c-0.05,0.49,0.32,0.73,0.66,0.78C-68.28,95.31-68.26,95.88-67.73,96.13z M-66.35,104.38
									c0.02-0.54-0.28-0.85-0.81-0.86c-0.72,0.02-1.16,0.88-0.65,1.43S-66.41,105.09-66.35,104.38z M-72.39,105.51
									c0.37,0.39,1.02,0.44,1.44,0.04c0.39-0.37,0.45-1.09,0.04-1.44c-0.37-0.39-1.02-0.45-1.45-0.04
									C-72.7,104.39-72.76,105.11-72.39,105.51z M-30.67,7.8c-0.32-0.58-0.69-1.2-1.21-1.74c-1.07-1.13-3.35-2.59-4.78-3.4
									c-3.1-1.79-5.51,1.22-8.28,2.44c1.03,0.07,2.09,0.17,2.91,0.72c0.45,0.32,0.89,0.78,1.26,1.25
									c-0.06-0.61,0.07-1.25,0.24-1.78c0.04-0.19,0.42-0.18,0.38,0.09c-0.05,0.49-0.03,0.98,0.04,1.44
									c0.07,0.31,0.17,0.65,0.32,0.96c0.3-0.07,0.57-0.1,0.88-0.09c0.89-0.55,1.71-1.24,1.89-2.31c0.04-0.19,0.39-0.14,0.34,0.05
									c-0.14,0.87-0.62,1.69-1.28,2.32c0.16,0.01,0.34-0.03,0.49-0.03c0.61-0.14,1.23-0.42,1.84-0.48c1.26-0.16,2.19,0.59,3,1.45
									C-32.04,8.15-31.35,7.86-30.67,7.8z M-37.05,12.01c0.32-0.6,0.64-1.2,0.89-1.88c0.12-0.33,0.61-0.21,0.53,0.17
									c-0.13,0.72-0.38,1.47-0.74,2.1c0.47-0.67,0.98-1.3,1.6-1.74c0.47-0.52,1.02-1.11,1.6-1.59c-0.41-0.43-0.85-0.82-1.42-1.03
									c-1.02-0.37-1.56,0.07-2.38,0.55c-0.77,0.43-1.65,0.6-2.48,0.35c0.29,0.46,0.58,0.85,0.95,1.24
									C-37.93,10.77-37.45,11.35-37.05,12.01z M-40.94,42.51c-0.19,0.18-0.43,0.4-0.7,0.59c-0.39,0.22-0.65,0.02-0.83-0.25
									c0,0-0.04-0.04-0.07-0.08c-0.33-0.35-0.7-0.67-1.08-0.83c0.04,0.04,0.03,0.11,0.11,0.19c0.47,3.85,0.17,7.83-0.01,11.71
									c-0.01,0.3-0.42,0.26-0.45-0.01c-0.13-3.81,0.09-7.72-0.46-11.49c-0.03-0.27,0.17-0.45,0.32-0.53
									c-0.16,0-0.38-0.01-0.57,0.03c-0.08-0.01-0.16,0.07-0.23,0.07c-0.05,0.27-0.32,0.38-0.54,0.36
									c-0.08,0.08-0.16,0.15-0.2,0.27c0.17,0.8-0.08,1.78-0.1,2.54c0.01,1.18,0.16,2.44,0.47,3.55c0.03,0.19-0.23,0.3-0.31,0.15
									c-0.47-1.11-0.74-2.19-0.9-3.37c-0.06-0.54-0.12-1.22-0.06-1.86c-0.23,0.15-0.49,0.03-0.6-0.17
									c-0.1,2.24,0.26,4.57,0.84,6.75c0.35,1.3,0.85,2.53,1.42,3.77c0.11,0.27,1.27,2.35,0.93,2.38c0,0,0,0,0.08,0
									c1.51-1.21,1.91-4.63,2.03-6.22c0.13-2.05,0.11-4.26-0.14-6.24c-0.06-0.46,0.55-0.59,0.69-0.13
									c0.07,0.31,0.17,0.57,0.24,0.88C-41.09,43.76-40.99,43.15-40.94,42.51z M-24.53,37.24c-3.49,0.06-6.43,1.73-8.89,4.06
									c0.19-0.11,0.42-0.18,0.65-0.25c1.03-0.32,2.17-0.13,3.27-0.14c1.48,0,3.05-0.15,4.54-0.38c0.19-0.03,0.22,0.23,0.07,0.31
									c-1.65,0.6-3.22,0.98-5.01,1.05c-1.22,0.04-2.31-0.1-3.43,0.52c-0.78,0.44-1.4,1.1-1.91,1.81c1.27-0.46,2.64-0.65,4.12-0.65
									c2.63-0.04,9.46,1.77,11.2-0.69c0.16-0.22,0.49-0.02,0.34,0.2c-1.31,1.98-3.69,1.57-5.82,1.52
									c-3.57-0.09-6.76-0.33-9.98,0.8c3.01-0.18,6.18,2.15,8.92,3.47c2.33,1.13,4.14,1.47,6.39-0.06c2.09-1.39,3.8-2.79,3.49-5.6
									c-0.22-1.72-0.56-3.17,0.01-4.76C-18.98,37.46-22.02,37.16-24.53,37.24z M-40.47,49.25c0.08-0.15,0.16-0.3,0.28-0.49
									c-0.11,0.04-0.19,0.04-0.3-0.01C-40.43,48.91-40.43,49.06-40.47,49.25z M-33.11,111.15c3.3,4.57,6.42,8.8,10.93,12.31
									c1.86,1.42,3.73,2.76,5.35,4.47c2.07,2.11,3.91,4.44,6.34,6.14c3.99,2.73,8.06,5.61,12.26,8.08
									c2.77,1.67,5.74,2.78,8.68,3.99c-0.91-1.51-1.86-3.05-2.77-4.56c-2.67-0.95-5.19-2.19-7.42-3.92
									c-3.5-2.76-6.21-6.63-9.09-9.97c-0.11-0.12-0.07-0.31,0.01-0.38c-0.27-0.05-0.29-0.54,0.02-0.61
									c2.1-0.36,3.92-1.42,5.88-2.16c-0.04-0.04-0.04-0.04-0.07-0.08c-0.11-0.12-0.03-0.27,0.13-0.34
									c-0.21-0.84-0.75-1.8-1.04-2.49c-0.32-0.81-0.68-1.66-1-2.46c-0.11-0.05-0.22-0.16-0.3-0.31c-0.43-1.08-0.81-2.19-1.17-3.27
									c-0.66-1.01-1.31-2.09-2.01-3.13c-0.01,0.07-0.08,0.15-0.16,0.22c0.26,0.2,0.02,0.65-0.32,0.53
									c-0.04,0.04-0.11,0.11-0.16,0.15c-0.77,0.44-1,0.51-1.83,0.18c-0.94-0.37-1.76-1.15-2.77-1.52
									c-0.91-0.33-1.89-0.43-2.8-0.76c-2.94-1.07-5.66-3.01-7.34-5.64C-25.97,108.45-29.48,110.45-33.11,111.15z M-13.78,109.04
									c-1.89-0.51-4.39-2.21-6.1-0.96c1.27,0.94,2.62,1.74,4.32,2.28c1.05,0.33,2.15,0.47,3.17,0.92
									c0.64,0.28,1.45,1.06,2.29,1.16C-11.6,111.57-12.71,110.33-13.78,109.04z M-23.21,104.88c0.96,1.09,1.96,2.07,3,2.93
									c0.78-0.66,1.73-0.76,2.68-0.54c0.76,0.17,1.55,0.46,2.3,0.71c0.22,0.08,0.49,0.13,0.71,0.21c-0.07-0.08-0.11-0.12-0.18-0.2
									c-1.03-1.32-2.14-2.49-3.25-3.66c-0.57,0.1-1.18,0.16-1.79,0.22c-0.88,0.09-2.09,0.06-2.68,0.84
									c-0.12,0.19-0.46-0.01-0.34-0.2c0.52-0.71,1.2-0.92,2.01-1.01c0.76-0.14,1.53-0.27,2.25-0.36c-0.99-1.05-2.03-2.07-3.03-3.2
									c-0.07-0.08,0.04-0.19,0.12-0.11c1.46,0.83,2.68,1.97,3.83,3.18c0.04-0.04,0.08,0.01,0.11-0.03
									c0.23,0.01,0.3,0.23,0.22,0.39c1.29,1.44,2.51,2.96,3.8,4.4c-1.57-2.21-2.72-4.75-3.53-7.32c-0.07-0.23,0.28-0.33,0.35-0.1
									c1.69,3.58,2.96,7.11,5.89,9.97c0.04,0.04,0.08,0.07,0.04,0.11c0.19,0.11,0.37,0.31,0.56,0.43
									c-3.58-5.49-5.39-11.78-11.18-15.47c0.47,0.96,0.94,1.92,1.44,2.93c0.65,1.31,1.17,3.04,2.44,3.91
									c0.15,0.08-0.01,0.3-0.16,0.22c-1.09-0.68-1.52-1.76-2.13-2.87c-0.58-1.08-1.19-2.2-1.78-3.28
									c-0.02,2.09,0.08,4.3-0.89,6.25C-22.58,103.83-22.9,104.35-23.21,104.88z M-21.36,95.19c1.46,0.76,2.89,1.71,4.15,2.81
									c0.31-0.15,0.61-0.21,0.92-0.44c0.31-0.22,0.47-0.59,0.78-0.74c0.04-0.04,0.11-0.03,0.11-0.03
									c-0.03-0.11-0.1-0.27-0.06-0.39c0.57-2.76,0.1-5.13-0.8-7.32c0.09,2.28,0.22,4.68-0.26,6.91c-0.05,0.34-0.54,0.21-0.53-0.09
									c0.03-2.47,0.47-4.9,0.46-7.33c0-0.07,0.04-0.11,0.04-0.11c-0.86-1.85-1.96-3.63-3.05-5.48c0.23,1.1,0.44,2.18,0.56,3.24
									c0.25,1.91-0.06,3.76,0.11,5.67c0.03,0.34-0.43,0.33-0.53,0.06c-0.53-1.72,0.03-3.8-0.15-5.63
									c-0.15-1.56-0.42-3.09-0.64-4.66c-0.25-0.5-0.51-1.01-0.72-1.54c-1.07-2.46-2.62-4.4-4.55-6.2
									c1.54,3.58,2.54,7.29,3.08,11.15c0.59,0.55,0.99,1.21,1.2,2.05c0.13,0.69,0.19,1.45,0.24,2.21c1.3,2.62,2.75,5.17,4.67,7.49
									c0.22,0.31-0.17,0.68-0.43,0.41c-0.55-0.59-1.1-1.25-1.58-1.91c-0.68-0.17-1.19-0.72-1.76-1.15
									c-0.37-0.31-0.71-0.59-1.04-0.94C-21.25,93.98-21.31,94.63-21.36,95.19z M-21.18,92.72c0.48,0.43,1.04,0.86,1.56,1.26
									c0.15,0.08,0.26,0.2,0.41,0.28c-0.7-1.05-1.28-2.13-1.85-3.2C-21.07,91.59-21.13,92.16-21.18,92.72z M-30.43,77.43
									c0.48,0.35,0.93,0.82,1.38,1.29c0.59,0.47,1.23,0.91,1.86,1.34c0.34,0.2,0.75,0.4,1.09,0.6c-0.61-1.12-1.27-2.2-1.93-3.28
									c0,0.07-0.04,0.19-0.19,0.18c-0.8-0.06-1.51-0.65-2.14-1.16c-0.48-0.36-0.85-0.75-1.26-1.18c0.36,0.69,0.69,1.35,1.13,1.97
									C-30.46,77.31-30.43,77.35-30.43,77.43z M-32.17,74.1c0.08,0.01,0.11,0.05,0.15,0.08c0.63,0.66,1.34,1.25,2.08,1.81
									c0.45,0.31,0.93,0.52,1.34,0.87c-0.11-0.19-0.14-0.39-0.21-0.54c-1.53-2.4-3.18-4.77-4.86-7.17
									c-0.11-0.04-0.22-0.16-0.34-0.2C-33.4,70.61-32.88,72.42-32.17,74.1z M-32.32,69.89c1.18,1.47,2.24,3.06,3.3,4.65
									c0.01-0.22-0.06-0.45-0.06-0.68c-0.09-0.88-0.22-1.72-0.28-2.56C-30.33,70.81-31.34,70.36-32.32,69.89z M-28.29,77.03
									c0,0,0.04,0.04,0.07,0.08C-28.25,77.06-28.25,77.06-28.29,77.03z M-24.58,83.43c-0.03-0.04-0.03-0.04-0.03-0.11
									c-0.29-0.61-0.61-1.19-0.94-1.77c-0.53-0.09-1.09-0.38-1.62-0.69c0.78,0.9,1.55,1.79,2.48,2.46
									C-24.73,83.35-24.66,83.43-24.58,83.43z M-26.21,73.28c-0.85-0.74-1.79-1.34-2.72-1.78c0.13,0.84,0.22,1.64,0.39,2.44
									c0.13,0.69,0.38,1.34,0.47,2.07c1.14,1.82,2.22,3.67,3.23,5.59c0.47,0.89,0.94,1.78,1.34,2.66c0.07,0.08,0.19,0.12,0.26,0.2
									c-0.58-3.74-1.55-7.42-2.82-11.03C-26.14,73.35-26.18,73.32-26.21,73.28z M-13.3,100.96c-0.1-0.49-0.13-0.99-0.15-1.49
									c-0.08,0-0.11-0.04-0.19-0.04c-0.48-0.28-0.55-0.81-0.69-1.35c-0.1-0.34-0.17-0.65-0.28-0.99
									c-0.11,0.04-0.23,0.07-0.38,0.07c0,0,0.04,0.04-0.01,0.07c-0.02,0.68-0.79,1.27-1.52,1.52c1,0.97,1.88,2.14,2.61,3.38
									c0.84,1.43,1.33,2.96,2.05,4.43c0.01-0.15,0.05-0.34,0.05-0.49C-12.48,104.4-13.04,102.71-13.3,100.96z M-10.64,106.58
									c1,2.39,2.39,4.63,3.73,6.91c-1.57-6.58-1.17-13.26,1.33-19.85c0.13-0.34,0.65-0.17,0.53,0.17
									c-1.19,3.35-1.81,6.83-1.91,10.33c0.07,0,0.15,0.08,0.15,0.16c0.13,1.14,0.36,2.26,0.75,3.29c0.32,0.96,0.86,1.77,1.22,2.69
									c0.29-0.87,0.58-1.73,0.91-2.56c1.15-3.32,2.16-6.64,2.7-10.04c-0.68-0.24-1.32-0.6-1.91-1.08
									c-0.26-0.2-1.48-1.71-1.71-1.56c-0.27,0.18-0.48-0.28-0.26-0.43c0.46-0.29,0.83,0.1,1.17,0.45c0.81,0.94,1.67,1.6,2.76,2.05
									c0.19-1.59,0.31-3.19,0.24-4.74c-1.57,0.3-3.28,0.29-4.7,1.05c-0.04,0.11-0.2,0.18-0.27,0.18c-0.08,0.07-0.2,0.11-0.31,0.22
									c-0.04,0.04-0.04,0.04-0.04,0.04C-6.99,98.39-10.4,101.91-10.64,106.58z M-6.15,92.25c0.53-1.39,1.1-2.9,1.76-4.32
									c0-0.08,0.04-0.19,0.08-0.23c0.28-0.56,0.53-1.16,0.81-1.72c-0.04-0.04-0.04-0.04-0.04-0.11
									c-0.99-3.94-1.38-8.02-1.23-12.09c-1.33,2.67-2.31,5.45-2.69,8.33c0.01,2.66,0.34,5.52,1.78,7.35
									c0.29,0.39-0.21,0.86-0.55,0.52c-0.52-0.55-0.92-1.28-1.16-2.01C-7.1,89.38-6.72,90.79-6.15,92.25z M-0.81,67.27
									c-0.08,0.07-0.08,0.15-0.16,0.22c0.15,0.01,0.22,0.08,0.3,0.24c0.29,3.43,1.08,6.76,1.44,10.19
									c0.28-0.48,0.52-0.94,0.8-1.42c-0.07-0.08-0.11-0.27,0.05-0.34c0.08-0.07,0.19-0.18,0.27-0.26
									c0.36-0.71,0.72-1.35,1.08-2.06c0.04-0.11,0.08-0.15,0.12-0.27c-0.04-0.04-0.11-0.04-0.11-0.11
									c-0.61-1.5-0.64-3.33-0.71-4.96c-0.1-1.83-0.05-3.65,0.3-5.46C1.36,64.39,0.22,65.77-0.81,67.27z M2.81,62.72
									c0.07,0.01,0.15,0.08,0.15,0.16c-0.51,3.3-0.03,6.69,0.46,10.02c0.92-1.84,1.77-3.68,2.58-5.56c0,0,0,0-0.04-0.04
									c0.01-0.08,0.08-0.15,0.08-0.22c-0.04-0.04-0.04-0.04-0.07-0.08c-0.58-1.01-0.62-2.45-0.7-3.64
									c-0.08-1.26,0.03-2.47,0.21-3.68C4.61,60.71,3.71,61.72,2.81,62.72z M6.93,57.93c-0.35,0.41-0.71,0.89-1.06,1.3l0.04,0.04
									c-0.15,1.32-0.15,2.66-0.03,4.03c0.09,1.03,0.41,1.99,0.53,2.98c1.75-4.32,3.08-8.78,3.93-13.43
									c0.01-0.16,0.27-0.11,0.27,0.04c-0.39,2.88-1.03,5.71-1.86,8.43c1.33-1.41,2.7-2.78,4.03-4.19c0.11-0.11,0.34,0.05,0.26,0.2
									c-1.11,1.65-2.64,3.31-4.27,4.48c-0.04,0.04-0.11,0.04-0.15,0c-0.42,1.35-0.91,2.71-1.4,4.07c0.62-0.44,1.43-0.84,1.9-1.2
									c1.79-1.47,3.32-3.15,4.77-4.97l0.04-0.04c-0.6-3.14-2.35-5.99-2.87-9.13C10.47,53.39,8.58,55.92,6.93,57.93z M13.87,60.09
									c-0.94,1.19-5.97,7.21-7.23,7.22c-0.61,1.54-1.26,3.05-1.98,4.55c-0.44,0.94-0.89,1.88-1.37,2.78
									c3.97-3.47,7.56-7.03,10.83-11.23C14.16,62.26,14.07,61.16,13.87,60.09z M-2.91,84.89c1.04-2.03,2.12-4.01,3.2-6
									c-1.17-3.41-1.29-7.45-1.42-11.02c-1.07,1.53-2.06,3.14-2.94,4.79C-4.25,76.75-3.83,80.79-2.91,84.89z M14.23,63.75
									c-3.13,4.67-7.05,8.97-11.58,12.31c-1.93,3.75-3.96,7.39-5.73,11.21c4.8-1.66,9.01-4.32,12.64-7.91
									c0.5-1.59,0.73-3.21,1.39-4.72c0.16-0.38,0.36-0.79,0.52-1.16C7.9,77.3,3.92,81.23-0.78,83.54c-0.2,0.11-0.42-0.2-0.26-0.35
									c4.43-3.68,9.11-6.79,13.15-10.98c0.84-1.54,1.6-3,1.88-4.9C14.09,66.1,14.16,64.92,14.23,63.75z M9.07,80.57
									c0.08-0.23,0.16-0.45,0.21-0.64c-3.56,3.82-7.85,6.56-12.84,8.17c-0.4,0.9-0.81,1.8-1.18,2.74
									c3.22-1.05,6.05-2.99,9.34-3.82c0.07,0,0.15,0.01,0.19,0.04C6.55,85.18,8.09,83.05,9.07,80.57z M4.4,87.52
									c-3.34,1.01-5.87,3.49-9.39,4.08c-0.12,0.26-0.2,0.56-0.29,0.86c1.11-0.46,2.19-0.66,3.52-0.9
									C0.77,91.03,2.64,89.33,4.4,87.52z M3.34,89.77c-0.9,0.85-1.86,1.63-2.9,2.09c-0.35,0.18-0.73,0.24-1.11,0.39
									c0.14,1.71,0.14,3.43-0.06,5.09c0.04,0.11,0.03,0.27-0.05,0.34c-0.2,1.82-0.55,3.64-1.02,5.49c2.03-2,4.1-3.89,6.05-5.96
									c0.08-0.07,0.16-0.07,0.19-0.03c-0.22-1.64-0.6-3.29-0.82-5l-0.01,0.07c-0.96,2.03-2.16,3.97-3.68,5.65
									c-0.16,0.15-0.42,0.03-0.45-0.17c-0.07-0.31-0.07-0.31,0.05-0.57c0.04-0.11,0.23-0.15,0.31,0.01
									c1.33-1.64,2.48-3.24,3.44-5.11c0.08-0.15,0.27-0.11,0.34,0.05C3.54,91.29,3.4,90.53,3.34,89.77z M4.51,97.4
									c-2.04,2.3-4.15,4.53-6.38,6.64c-0.04,0.04-0.07,0.08-0.15,0.07c-0.04,0.19-0.08,0.3-0.13,0.49
									c-0.34,1.21-0.79,2.38-1.2,3.58c0-0.08,0.04-0.11,0.15-0.15c2.9-1.63,5.53-3.31,7.65-5.92c0.08-0.07,0.27,0.05,0.19,0.12
									c-2.05,2.6-4.51,4.94-7.58,6.22c-0.23,0.07-0.41-0.13-0.37-0.31c-0.58,1.73-1.2,3.5-1.36,5.28
									c3.08-1.51,5.84-3.53,8.26-5.97c0.17-0.53,0.37-1.09,0.49-1.58C5.01,102.85,4.93,100.11,4.51,97.4z M2.14,110.68
									c0.4-0.75,0.8-1.57,1.09-2.44c-2.31,2.41-4.95,4.39-7.99,5.86c-0.07,1.1,0.02,2.13,0.33,3.24c0.53-1.17,1.46-1.9,2.62-2.79
									C-0.32,113.4,1.15,112.44,2.14,110.68z M-5.05,110.98c-0.04-0.04-0.07,0-0.11-0.04c-0.89-0.86-1.43-2.2-1.69-3.58
									c0.17,2.21,0.56,4.5,1.19,6.65C-5.6,112.98-5.38,111.97-5.05,110.98z M-10.25,109.18c-0.32-0.66-0.72-1.31-1.01-2.01
									c-0.08-0.01-0.19-0.04-0.27-0.05C-11.13,107.86-10.69,108.56-10.25,109.18z M-0.93,124.71c-0.31,0.07-0.61,0.14-0.92,0.2
									c3.08,2.7,6.2,5.83,8.65,9.2c0.27,0.12,0.56,0.28,0.83,0.4c0.07,0,0.11-0.03,0.19-0.03c0.26-0.03,0.49,0.13,0.52,0.32
									c0.26,0.12,0.6,0.24,0.86,0.36c1.17,0.45,2.33,0.82,3.51,1.2c-4-4.06-7.57-8.22-12.2-11.77
									C0.06,124.58-0.43,124.6-0.93,124.71z M1.43,124.62c4.36,3.27,8.9,7.04,12.13,11.46c0.04-0.04,0.04-0.04,0.08-0.07
									c0.27-0.26,0.65,0.05,0.56,0.35c-0.04,0.11-0.12,0.26-0.16,0.38c1.02,0.29,2.04,0.51,3.14,0.73
									c-1.78-1.64-3.24-3.96-4.83-5.72c-1.41-1.56-2.89-3.11-4.41-4.56C5.77,126.06,3.86,124.83,1.43,124.62z M9.67,127.99
									c0.81,0.78,1.63,1.56,2.45,2.34c0.92,0.97,1.89,1.99,2.77,3.01c0.59,0.7,2.53,3.68,3.43,3.78c0.34,0.05,0.45,0.47,0.17,0.65
									c0.83,0.17,1.63,0.31,2.5,0.45c-2.89-2.89-4.92-6.59-8-9.3c-0.95-0.29-1.97-0.35-2.91-0.72
									C9.93,128.11,9.78,128.04,9.67,127.99z M18.32,132.97c-1.19-1.09-2.37-2.57-3.79-3.44c2.9,2.73,5.2,6.03,7.94,8.84
									c0.87,0.14,1.7,0.24,2.54,0.41C22.61,137.05,20.43,134.97,18.32,132.97z M17.21,121.51c0.06-0.88,0.08-1.71,0.07-2.58
									c-1.45-2.55-2.98-5.03-4.97-7.28c-0.15-0.16,0.08-0.38,0.23-0.22c1.78,1.72,3.47,3.67,4.75,5.79
									c-0.01-1.18-0.01-2.43-0.02-3.61c-0.07,0-0.15-0.08-0.18-0.19c-1.62-3.51-3.63-6.71-6.13-9.67
									c-0.79,2.68-1.32,5.4-0.83,8.19c0.07,0.38,0.17,0.8,0.23,1.19c0.08,0,0.15,0,0.19,0.04
									C13.22,115.73,15.32,118.41,17.21,121.51z M11.42,102.19c-0.13,0.41-0.24,0.76-0.33,1.13c0,0,0.04,0.04,0.07,0.08
									c2.44,2.65,4.49,5.52,6.12,8.72c-0.06-2.02-0.13-4.04-0.11-6.05c-0.07-0.08-0.15-0.16-0.06-0.31c0-0.07,0.08-0.15,0.08-0.22
									c0,0,0,0,0.01-0.08c-0.08,0-0.15-0.01-0.23-0.08c-1.58-2.06-3.04-4.15-4.66-6.17C11.96,100.19,11.71,101.17,11.42,102.19z
									 M13.88,94.23c-0.04,0.04-0.04,0.11-0.04,0.11c0.04-0.04,0.11-0.04,0.19,0.04c1.37,1.44,2.58,3.11,3.17,5.07
									c0.11,0.27-0.35,0.41-0.46,0.14c-0.86-1.77-1.73-3.46-3.02-4.98c-0.04-0.04-0.04-0.04,0-0.07
									c-0.53,1.32-0.95,2.67-1.32,4.07c1.78,1.72,3.51,3.78,4.7,5.98c0.04-1.52,0.08-3.04,0.2-4.56c-0.11-0.04-0.26-0.2-0.1-0.34
									c0.04-0.11,0.12-0.19,0.2-0.27c0.16-1.63,0.35-3.3,0.66-4.92c0.05-0.27,0.46-0.14,0.42,0.13c0,0-0.04,0.04,0,0.07
									c0.52-0.94,1.19-1.87,1.82-2.76c-0.46-1.27-0.92-2.54-1.35-3.77C17.1,90.14,14.97,91.41,13.88,94.23z M17.99,110.84
									c1.6-3.22,3.4-6.33,5.79-9.05c-0.31-1.19-0.7-2.3-1.08-3.41c-2.11,2.07-3.77,4.46-4.87,7.21
									C17.86,107.34,17.93,109.13,17.99,110.84z M17.98,98.56c1.02-1.27,2.38-2.33,3.58-3.26c-0.39-1.04-0.78-2.07-1.14-3.07
									c-0.56,1.05-1.12,2.1-1.83,3.07c-0.08,0.07-0.16,0.07-0.23,0.07C18.22,96.4,18.08,97.5,17.98,98.56z M17.79,104.07
									c1.13-2.33,2.74-4.38,4.77-6.07c-0.28-0.84-0.57-1.61-0.89-2.42c-0.67,0.63-1.37,1.3-1.99,1.96
									c-0.63,0.67-1.14,1.38-1.8,2.01C17.83,101.06,17.8,102.58,17.79,104.07z M24.33,104.17c-0.14-0.61-0.31-1.27-0.48-1.91
									c-2.44,3.05-4.13,6.5-5.82,10.03c0.08,1.33,0.12,2.63,0.12,3.96c1.6-3.15,3.73-5.91,6.42-8.31c0.08-0.07,0.23-0.07,0.3,0.01
									C24.8,106.61,24.6,105.31,24.33,104.17z M26.91,134.31c0.61,1.27,1.45,2.47,2.46,3.07c0.47-0.67,0.91-1.31,1.27-2.02
									c-1.37-0.04-2.18-2.3-2.72-3.34c-0.87-1.55-1.55-3.12-2.16-4.77C25.85,129.68,26.25,132.05,26.91,134.31z M25.93,124.05
									c-0.05,0.65-0.11,1.29-0.13,1.9c0.57,1.38,1.18,2.73,1.87,4.08c0.32,0.66,2.19,4.73,3.22,4.57c0.07,0,0.07,0,0.15,0.01
									c0.08-0.15,0.13-0.34,0.2-0.49c0.21-0.79,0.39-1.63,0.41-2.46c-1.35-0.79-2.14-2.33-2.98-3.61
									c-1.02-1.7-1.88-3.47-2.59-5.32C25.99,123.18,25.94,123.6,25.93,124.05z M26.21,121.93c1.36,3.08,3.06,6.28,5.43,8.78
									c0.03-1.06-0.06-2.17-0.1-3.23c-0.16,0.15-0.46,0.14-0.57-0.13c-1.55-3.12-2.49-6.3-3.17-9.67
									C27.09,118.95,26.52,120.38,26.21,121.93z M29.47,115.29c-0.59,0.7-1.14,1.45-1.58,2.16c0.08,0,0.19-0.03,0.23,0.08
									c0.75,3.14,2,6.17,3.41,9.06c0-0.08,0-0.08,0.01-0.15c-0.03-1.83-0.28-3.81-0.38-5.79c-0.08,0.23-0.42,0.26-0.49-0.05
									c-0.41-1.83-0.67-3.67-0.96-5.54C29.59,115.18,29.55,115.21,29.47,115.29z M33.94,114.46c-0.48,2.54-1.16,5.03-1.87,7.48
									c0,0,0.04,0.04,0,0.08c-0.04,0.03-0.04,0.11-0.08,0.15c0.05,1.07,0.1,2.13,0.15,3.2c1.55-2.35,2.56-4.95,3.06-7.71
									c0-0.15,0.27-0.1,0.27,0.05c-0.39,3.03-1.38,5.82-3.04,8.44c-0.08,0.07-0.16,0.15-0.23,0.15c0.02,0.49,0.05,1.06,0.07,1.56
									c1.76-2.04,3.6-4.08,5.26-6.24c0.04-0.04,0.04-0.04,0.04-0.04C36.56,119.02,34.98,116.88,33.94,114.46z M38.38,123.51
									c-0.17-0.57-0.35-1.15-0.6-1.72c-1.73,2.39-3.47,4.7-5.43,6.93c0,0,0.04,0.04,0,0.07c0.05,0.84,0.07,1.71,0.05,2.55
									l0.03,0.04c0.08,0.08,0.11,0.19,0.07,0.31c1.89-2.23,4.03-4.27,5.88-6.54c0.08-0.07,0.23-0.07,0.31,0.01
									C38.61,124.62,38.52,124.05,38.38,123.51z M38.67,125.38c-1.89,2.39-3.78,4.92-6.08,6.95c-0.08,0.07-0.19,0.11-0.27,0.03
									c-0.06,0.65-0.19,1.36-0.36,2.05c-0.33,1.05-0.89,1.95-1.48,2.81c2.34-1.04,4.66-2.27,6.86-3.69c0-0.07,0.04-0.11,0.04-0.19
									c0.3-1.32,0.68-2.72,0.95-4.08c-1.39,2.21-3.64,5.23-6.28,5.73c-0.19,0.03-0.3-0.24-0.1-0.35c2.47-1.53,4.58-3.38,6.2-5.8
									c0.08-0.07,0.19-0.11,0.27-0.03C38.61,127.66,38.71,126.53,38.67,125.38z M28.94,138.16c-0.3-0.16-0.56-0.35-0.82-0.63
									c0.15,0.39,0.36,0.77,0.54,1.12C28.7,138.54,28.82,138.35,28.94,138.16z M37.26,133.9c-2.17,1.54-4.44,2.81-6.91,3.96
									c0.26,0.12,0.25,0.58-0.06,0.57c-0.23-0.01-0.42,0.03-0.68-0.02c-0.2,0.33-0.36,0.64-0.52,1.01l0.08,0.01
									c0.11-0.11,0.31-0.15,0.42-0.03c1.67-0.03,3.49,0.09,4.96-0.78C36.44,137.56,36.87,135.75,37.26,133.9z M19.86,139.21
									c-0.94,0.89-2.65,1.18-3.76,1.42c-1.42,0.3-2.83,0.53-4.24,0.69c1.81,0.43,3.74,0.74,5.56,0.94
									c0.42,0.05,0.8,0.06,1.14,0.03c1.73-0.68,3.31-1.58,4.9-2.49C22.32,139.63,21.11,139.44,19.86,139.21z M24.74,139.92
									c-1.08,0.81-2.28,1.49-3.55,2.03c1.68-0.41,3.22-1.13,4.96-1.88C25.69,140.05,25.2,140.01,24.74,139.92z M4.85,138.85
									c0.98,0.48,1.99,0.93,3.05,1.33c0.76,0.25,1.51,0.5,2.3,0.71c1.11-0.24,2.29-0.47,3.4-0.71c1.49-0.3,3.44-0.52,4.9-1.23
									c-1.85-0.4-3.67-0.82-5.52-1.37c-0.81,0.4-1.84,0.48-2.53,0.62C8.63,138.54,6.72,138.71,4.85,138.85z M0.59,136.08
									c1.08,0.83,2.16,1.58,3.36,2.22c1.56-0.15,3.13-0.38,4.7-0.68c0.95-0.16,1.98-0.25,2.94-0.57
									c-0.75-0.24-1.46-0.53-2.18-0.81c-0.53-0.24-1.05-0.41-1.54-0.69c0.04,0.04,0.07,0.08,0.11,0.11
									c0.18,0.27-0.24,0.6-0.46,0.36c-0.15-0.16-0.34-0.35-0.48-0.51C4.93,136.12,2.71,136.21,0.59,136.08z M-8.3,127.25
									c-0.04,0.04-0.08,0-0.11,0.03c0,0,0,0,0.04,0.04c1.59,1.76,3.1,3.43,4.73,5.07c1.23-0.35,2.57-0.66,3.86-0.69
									c-2.73-1.56-5.47-3.11-8.36-4.22C-8.22,127.33-8.26,127.29-8.3,127.25z M-7.65,127.15c2.83,0.88,5.45,2.23,8.04,3.64
									c-0.55-0.66-1.07-1.36-1.66-1.98c-0.96-1.01-2.04-1.99-3.12-2.9C-5.42,126.38-6.5,126.88-7.65,127.15z M-0.3,135.37
									c2.09-0.06,4.15-0.31,6.25-0.59c-1.54-0.77-3.04-1.64-4.53-2.52c-0.04,0.04-0.12,0.11-0.19,0.11
									c-1.41,0.23-2.86,0.27-4.23,0.53C-2.16,133.8-1.23,134.62-0.3,135.37z M-3.89,125.66c2.02,1.49,4.47,3.39,5.44,5.66
									c1.05,0.56,2.02,1.12,3.03,1.64c-2.36-2.65-4.61-5.33-7.01-7.94C-2.89,125.22-3.39,125.48-3.89,125.66z M29.67,140.65
									c-0.41-0.05-0.79-0.13-1.14-0.18c-0.07-0.01-0.15-0.01-0.23-0.01c-0.04,0.04-0.07,0.07-0.11,0.11
									c-5.85,4.29-12.6,3.43-19.2,1.39c-0.11-0.04-0.22-0.08-0.3-0.08c0.55,0.74,1.1,1.55,1.61,2.33
									c0.52,0.77,1.14,1.51,1.34,2.43c1.32,0.53,2.56,1.06,3.83,1.63c0.08,0,0.15,0.08,0.19,0.12c0.23,0.08,0.53,0.17,0.76,0.24
									c0.84-0.2,1.76-0.41,2.6-0.46c0.57-0.09,1.22-0.11,1.74,0.05c0.56,0.2,1.08,0.75,1.53,1.14c0.64,0.51,1.23,0.98,1.36,1.82
									c0.04,0.19-0.01,0.38-0.13,0.49v0.08c0.37,0.16,0.75,0.32,1.13,0.48c3.16,1.3,6.74,2.35,9.78,3.99
									c2.45,0.56,4.91,1.27,7.33,1.79c0.19,0.04,0.45,0.09,0.64,0.13c-0.61-1.12-0.85-2.38-1.35-3.46
									c-0.32-0.73-0.8-1.31-1.2-1.97c-1.19-1.1-2.41-2.08-3.64-3.14C33.27,147.03,31.48,143.9,29.67,140.65z M43.54,156.54
									c0.11,0.19,0.26,0.35,0.41,0.51C43.8,156.89,43.65,156.73,43.54,156.54z M-17.66,74.72c1.05,1.81,2.15,3.59,3.24,5.37
									c0.1-1.14,0.1-2.24,0.09-3.42c0.01-0.07-0.03-0.11,0.01-0.22c0,0,0,0,0.04-0.04c-0.02-0.8-0.04-1.52-0.05-2.32
									c-2.23-3.44-3.76-7.47-4.48-11.53c-0.34,1.59-0.54,3.18-0.51,4.85C-19.35,69.89-18.58,72.34-17.66,74.72z M-14.67,52.48
									c-0.84,1.54-1.64,3.04-2.33,4.65c0.63,3.48,1.68,6.78,2.93,10.04c0.1-0.99,0.17-1.94,0.3-2.88
									c0.09-0.61,0.19-1.21,0.28-1.82C-14.24,59.27-15.25,55.7-14.67,52.48z M-12.79,63.07c0.07,0.23,0.1,0.49,0.14,0.69
									c0.07,0.23-0.08,0.38-0.28,0.41c-0.01,0.15-0.05,0.26-0.05,0.42c1.49-3.19,3.73-6.06,6.27-8.39c0,0,0,0,0.04-0.04
									c-0.05-1.06-0.17-2.13-0.37-3.2c-2.37,2.03-4.19,4.49-5.29,7.46c-0.04,0.11-0.12,0.19-0.19,0.18
									C-12.59,61.47-12.65,62.27-12.79,63.07z M-6.57,56.66c-2.9,3.11-4.81,6.48-6.55,10.35c-0.06,0.8-0.12,1.59-0.14,2.43
									c0.07,0.15,0.15,0.3,0.18,0.49c0,0,0.04,0.04,0,0.08c1.41-2.96,3.95-5.45,6.43-7.43C-6.6,60.6-6.51,58.59-6.57,56.66z
									 M-6.7,63.15c0-0.07,0.01-0.15,0.01-0.23c-2.89,2.89-5.28,5.6-6.64,9.56l-0.04,0.04c-0.01,0.46,0.02,0.88,0.01,1.33
									c1.4-2.51,3.73-4.65,5.94-6.23c0.04-0.04,0.08,0,0.11-0.04C-6.94,66.19-6.71,64.71-6.7,63.15z M-13.27,76.93
									c1.05-2.26,3.43-4.36,4.9-5.54c0.04-0.04,0.08,0,0.12-0.04c0.33-1.13,0.63-2.22,0.89-3.36c-2.41,1.91-4.88,4.62-5.94,7.56
									c0.03,0.42,0.02,0.8,0.01,1.25C-13.31,76.89-13.31,76.89-13.27,76.93z M-13.29,70.43c0.04-0.04,0.04-0.11,0.04-0.11
									l-0.04,0.04L-13.29,70.43z M-18.61,62.15c1.04,3.76,2.43,7.1,4.21,10.45c0.03-1.22,0.06-2.43,0.14-3.69
									c-1.58-3.54-2.51-7.33-3.05-11.18c-0.61,1.39-1.1,2.82-1.48,4.3C-18.69,61.99-18.61,62.07-18.61,62.15z M-8.88,73.51
									c0.17-0.53,0.33-1.06,0.46-1.55c-2.29,1.95-4.47,4.97-4.73,7.97c-0.04,0.11-0.05,0.19-0.16,0.22
									c-0.06,0.87-0.19,1.67-0.45,2.49C-11.15,80.18-9.89,77.06-8.88,73.51z M-14.55,80.96c-0.52-0.62-0.96-1.24-1.43-1.9
									c0.42,1.15,0.81,2.34,1.12,3.53C-14.73,82.02-14.65,81.49-14.55,80.96z M52.27,142.93c1.84,0.93,3.76,1.78,5.59,2.7
									c-4.67-3.05-9.01-5.83-14.99-6.52c-0.23,0.07-0.42,0.18-0.61,0.21C45.89,139.87,49.08,141.36,52.27,142.93z M55.8,141.66
									c-0.3-0.31-0.63-0.59-0.93-0.82c1.07,1.13,2.07,2.33,3.06,3.46c0.27,0.2,0.56,0.43,0.82,0.63
									C57.76,143.8,56.84,142.67,55.8,141.66z M59.98,141.54c0.86,1.93,2.15,3.44,3.44,4.89c-0.14-0.61-0.27-1.22-0.48-1.84
									c-0.04,0.04-0.08,0-0.11-0.04c-0.76-0.17-1.23-0.76-1.68-1.38c-0.51-0.7-0.95-1.4-1.43-2.13
									C59.8,141.19,59.91,141.39,59.98,141.54z M58.22,136.24c1.31,0.91,2.45,2.34,3.48,3.52c0.33,0.35-0.17,0.83-0.51,0.48
									c-0.85-0.9-1.89-1.84-2.66-2.89c0.24,0.88,0.52,1.8,0.84,2.69c0.08-0.07,0.23-0.07,0.3,0.01c0.52,0.7,1.07,1.36,1.61,2.1
									c0.48,0.58,0.84,1.2,1.48,1.64c-0.82-3.45-1.68-6.93-2.92-10.19c0,0-0.04-0.04-0.08-0.01c-1.11-0.86-2.19-1.77-3.19-2.74
									c0.25,0.51,0.43,1,0.57,1.54C57.57,133.6,57.92,134.91,58.22,136.24z M52.05,122.62c1.08,2.23,2.58,4.36,3.82,6.6
									c1.15,1.06,2.3,2.04,3.49,3.06c-0.26-0.58-0.51-1.15-0.79-1.69c-0.29-0.54-0.55-1.04-0.88-1.54
									c-0.04-0.04-0.04-0.11-0.07-0.16c-0.14-0.23-0.33-0.51-0.43-0.77c-0.08,0-0.15-0.01-0.22-0.08
									C55.07,126.35,53.6,124.41,52.05,122.62z M58.06,128.18c0.55,0.89,1.09,1.85,1.56,2.81c0-0.07,0-0.07,0.01-0.15
									c0.01-0.45,0.02-0.91-0.01-1.33c-0.05-1.07-0.17-2.14-0.37-3.2c-0.44-1.95-1.19-3.83-1.94-5.72
									c-0.56-0.43-1.16-0.83-1.83-1.23C57.46,121.93,57.34,125.23,58.06,128.18z M58.46,121.65c-0.19-0.19-0.38-0.31-0.56-0.51
									c0.97,2.04,1.83,4.12,2.19,6.37c0.16,1.11,0.7,3.63,0.1,4.79c0.54,1.2,1,2.46,1.42,3.69c0.31-3.11,0.43-6.19,0.06-9.31
									c-0.03-0.27,0.39-0.37,0.42-0.1c0.44,3.58,0.57,7.31-0.02,10.83c0.21,0.77,0.45,1.57,0.66,2.34
									c0.73-3.06,1.39-6.43,1.05-9.44c0-0.08,0.04-0.11,0.08-0.15C62.77,126.97,60.91,123.99,58.46,121.65z M64.24,131.42
									c0.34,3.02-0.47,6.53-1.16,9.48c0.1,0.34,0.17,0.65,0.23,1.03c0.24-0.45,0.41-0.9,0.61-1.39c0.33-0.83,0.5-1.66,0.71-2.53
									c0.01-0.08,0.12-0.11,0.19-0.11C64.85,135.74,64.76,133.6,64.24,131.42z M64.72,139.34c-0.22,1.17-0.56,2.46-1.19,3.43
									c0.31,1.34,0.65,2.64,0.96,3.98C64.36,144.28,64.54,141.81,64.72,139.34z M61.28,147.28c0.11,0.04,0.19,0.12,0.3,0.16
									C61.5,147.36,61.39,147.24,61.28,147.28C61.28,147.2,61.28,147.2,61.28,147.28z M53.56,141.41
									c0.04,0.04,0.04,0.11,0.03,0.19c0.79,0.44,1.57,0.88,2.32,1.35c-1.26-1.18-2.52-2.35-3.63-3.6
									c-0.98-0.41-1.99-0.7-3.06-0.88C50.81,139.28,52.34,140.27,53.56,141.41z M44.36,138.65c2.54,0.26,5.07,0.97,7.43,2.06
									c-1.38-0.84-2.77-1.59-4.19-2.4C46.54,138.29,45.47,138.42,44.36,138.65z M31.21,175.48c-0.7,0.51-1.36,1.06-2.02,1.62
									c3.5-0.14,7.19-0.3,10.55,0.66c0.07,0,0.11,0.04,0.15,0.08c0.51-0.41,0.97-0.78,1.47-1.18c-3.23-1.3-6.6-1.81-10.08-1.18
									C31.29,175.48,31.25,175.52,31.21,175.48z M35.17,180.91c1.35-0.76,2.63-1.6,3.91-2.52c-3.49-0.32-6.94-0.68-10.47-0.81
									c-0.9,0.85-1.72,1.78-2.54,2.71c1.38-0.27,2.74-0.31,4.11-0.34c1.9-0.1,3.77-0.24,5.64-0.39c0.34-0.03,0.48,0.51,0.17,0.65
									c-1.39,0.65-3.05,0.45-4.54,0.45c-1.86,0.06-4.06-0.15-5.86,0.22c-0.79,0.97-1.57,2.01-2.29,2.98
									c1.38-0.42,2.64-0.58,4.05-0.73c1.41-0.15,2.86-0.49,4.27-0.65C32.86,182.14,34.02,181.56,35.17,180.91z M24.03,185.48
									c1.38-0.49,2.84-0.98,4.22-1.48c-1.64,0.07-3.31,0.02-4.88,0.4c-0.11,0.04-0.19-0.04-0.22-0.16
									c-0.39,0.53-0.71,1.05-1.1,1.57c0.07,0,0.19-0.03,0.27-0.03C22.84,185.64,23.42,185.54,24.03,185.48z M25.26,186.31
									c-1.38,0.42-2.75,0.69-4.05,0.73c-0.07,0-0.07,0-0.11-0.04c-4.62,0.83-9.24,1.81-13.88,2.79c4.37,4.15,11.4,3.34,16.9,2.2
									c2.79-0.57,5.03-1.88,7.16-3.46c-7.4,2.5-15.55,2.74-23.17,1.89c-0.22-0.01-0.22-0.39,0.01-0.38
									c8.99,0.73,17.33-1.1,25.8-3.57c0.47-0.37,0.97-0.7,1.44-1.07c-0.5,0.1-0.99,0.13-1.53,0.11
									C31.05,185.78,28.16,185.93,25.26,186.31z M-5.45,153.21C-5.45,153.21-5.42,153.26-5.45,153.21
									C-5.42,153.26-5.42,153.26-5.45,153.21C-5.42,153.26-5.42,153.26-5.45,153.21z M-20.55,167.45
									c-0.32,0.45-0.63,0.89-0.87,1.34c0.66,0.93,1.12,2.12,1.58,3.23C-19.91,170.55-20.21,169.06-20.55,167.45z M-19.86,173.17
									c-0.69-1.27-1.41-2.58-1.8-3.93c-0.28,0.49-0.48,0.98-0.68,1.46c0.59,1.88,1.34,3.77,1.67,5.67
									C-20.22,175.29-19.97,174.23-19.86,173.17z M-23.28,180.19c0.24-1.94,0.02-3.73-0.39-5.56c-0.2,0.64-0.42,1.36-0.66,2.03
									c-0.04,0.19-0.16,0.38-0.2,0.57c0.25,0.58,0.19,1.38,0.25,1.98c0.06,0.68,0,1.41-0.06,2.05
									C-23.98,180.93-23.64,180.6-23.28,180.19z M-25.59,177.13c-0.39,0.22-0.81,0.4-1.2,0.61c-0.81,0.47-1.63,1.02-2.36,1.57
									c-0.01,0.38-0.02,0.83-0.03,1.21c0.65-0.25,1.3-0.49,1.96-0.82c0.31-0.14,0.58-0.32,0.93-0.51
									C-26.09,178.48-25.84,177.8-25.59,177.13z M-25.02,178.51C-25.06,178.55-25.06,178.55-25.02,178.51
									C-25.03,178.59-25.03,178.59-25.02,178.51C-25.03,178.59-25.02,178.51-25.02,178.51z M-29.3,181.97
									c0.46-0.14,0.92-0.28,1.38-0.49c0.27-0.11,0.46-0.29,0.73-0.47c0.16-0.3,0.29-0.64,0.41-0.98
									c-0.15,0.07-0.27,0.11-0.38,0.14c-0.69,0.29-1.35,0.54-2.07,0.71C-29.24,181.32-29.25,181.63-29.3,181.97z M-29.87,186.29
									c1.02-0.96,2.14-1.88,3.19-2.8c-0.04-0.04-0.07-0.08-0.04-0.11c0.02-0.53,0.15-1.1,0.23-1.63c0.01-0.08,0.04-0.19,0.05-0.34
									c-0.64,1.13-1.35,2.24-2.14,3.29c-0.16,0.22-0.49,0.03-0.38-0.24c0.48-0.82,0.92-1.69,1.32-2.51
									c-0.58,0.25-1.19,0.39-1.68,0.49C-29.34,183.72-29.49,185.05-29.87,186.29z M-24.81,181.79c0.06-0.88,0.05-1.75-0.08-2.59
									c-0.04-0.04,0.01-0.08-0.04-0.11c-0.16,0.15-0.31,0.3-0.5,0.41c-0.13,0.26-0.2,0.48-0.36,0.71
									c0.04,0.04,0.04,0.04,0.07,0.08c0.14,0.46-0.06,1.03-0.15,1.48c-0.09,0.45-0.18,0.91-0.34,1.36
									C-25.74,182.59-25.28,182.23-24.81,181.79z M-29.13,178.63c0.54-0.52,1.16-0.95,1.86-1.39c0.62-0.36,1.28-0.84,1.96-0.97
									c0.17-0.45,0.29-0.94,0.42-1.44c-0.61,0.21-1.27,0.46-1.89,0.75s-1.54,0.64-2.16,1.08
									C-29.02,177.26-29.11,177.94-29.13,178.63z M-28.13,173.9c-0.24,0.6-0.49,1.2-0.62,1.85c0.39-0.3,0.89-0.47,1.27-0.69
									c0.89-0.47,1.85-0.86,2.81-1.18c0.09-0.38,0.21-0.72,0.3-1.09c0.08-0.23,0.13-0.49,0.21-0.72
									c-0.31,0.07-0.65,0.17-0.99,0.28c-0.92,0.28-1.84,0.71-2.66,1.19c-0.04,0.04-0.08-0.01-0.11,0.04
									C-27.97,173.68-28.05,173.75-28.13,173.9z M-21.11,177.09c-0.25-1.91-1.2-3.6-1.64-5.48c-0.2,0.64-0.45,1.32-0.66,1.96
									c0.79,1.84,0.89,3.97,0.6,5.95c0.55-0.67,1.03-1.34,1.5-2.09C-21.19,177.32-21.15,177.2-21.11,177.09z M-27.3,172.59
									c1.01-0.66,2.24-1.31,3.42-1.47c0.25-0.83,0.54-1.62,0.94-2.37C-24.42,169.93-26.12,171.03-27.3,172.59z M-33.64,178.02
									c-1.2,0.84-2.17,1.69-3.08,2.77c0.9,1.81,1.03,4.06,0.86,6.22C-34.79,184.14-34.63,180.95-33.64,178.02z M-36.74,188.88
									c0.04-0.11,0.12-0.26,0.2-0.33c0.07-1.03,0.09-2.09,0.08-3.12c-0.07-1.41-0.42-2.71-0.65-4.05
									c-0.43,0.56-0.79,1.2-1.15,1.91c-0.12,0.19-0.2,0.42-0.36,0.64l0.04,0.04c0.92,2.46,0.39,5.26-0.21,7.83
									C-38.05,190.86-37.34,189.89-36.74,188.88z M-42.53,194.81c1.11-0.61,2.16-1.39,3.02-2.28c0.27-1.29,0.45-2.57,0.6-3.82
									c0.15-1.4,0.03-2.7-0.08-4.07c-0.72,1.43-1.44,2.78-2.28,4.16c0.14,2.1-0.54,4.36-1.54,6.2
									C-42.76,194.88-42.64,194.84-42.53,194.81z M-50.7,195.96c-0.07-0.15-0.06-0.38,0.17-0.45c1.57-0.53,2.92-1.29,4.13-2.29
									c-0.19,0.03-0.38,0.07-0.57,0.1c-0.57,0.1-1.07,0.12-1.64,0.07c-0.07,0-0.15-0.08-0.15-0.15c-0.94,1.04-2.1,1.99-3.49,2.72
									C-51.72,195.97-51.23,195.95-50.7,195.96z M-47.72,195.58c0.58-0.4,1.05-0.92,1.48-1.48c-1.13,0.77-2.36,1.42-3.74,1.84
									c0.76,0.02,1.48,0,2.24-0.06C-47.84,195.84-47.84,195.69-47.72,195.58z M-45.86,188.48c-0.36,0.86-0.77,1.69-1.24,2.44
									c0.65-0.02,1.29-0.04,1.9-0.18c0.58-0.1,1.08-0.43,1.65-0.6c0.44-0.56,0.83-1.16,1.23-1.76c-0.31,0.14-0.58,0.25-0.81,0.32
									c-0.84,0.28-1.76,0.26-2.55-0.1C-45.79,188.64-45.86,188.56-45.86,188.48z M-45.62,192.48c0.39-0.37,0.82-0.78,1.17-1.19
									c-0.95,0.24-2.02,0.21-2.81,0.08c0,0-0.04-0.04-0.08,0c-0.4,0.6-0.79,1.19-1.3,1.75c0.53-0.06,1.07-0.13,1.6-0.26
									c0.42-0.1,0.85-0.36,1.31-0.42C-45.66,192.44-45.62,192.48-45.62,192.48z M-43.49,195.2c0.56-1.05,1.05-2.1,1.34-3.27
									c0.21-0.8,0.27-1.59,0.33-2.39c-0.04,0.04-0.04,0.04-0.08,0.07c-0.87,1.27-1.89,2.39-2.98,3.42
									c-0.49,1.2-1.31,2.13-2.4,2.86C-45.98,195.86-44.68,195.67-43.49,195.2z M-45.73,188.22c0.04-0.04,0.11-0.04,0.15,0
									c0.86,0.29,1.78,0.17,2.63-0.27c0.46-0.21,0.97-0.62,1.43-0.83c0.32-0.53,0.64-1.13,0.92-1.69
									c-0.38,0.14-0.76,0.21-1.07,0.28c-1.03,0.16-2.09,0.06-3.08-0.05c-0.12,0.27-0.2,0.49-0.29,0.79
									C-45.29,187.06-45.49,187.62-45.73,188.22z M-39.04,182.32c-1.15,0.5-2.71,0.35-3.88-0.03c-0.63,0.82-1.19,1.79-1.68,2.92
									c0.88,0.06,1.74,0.12,2.63-0.05c0.73-0.09,1.27-0.46,1.89-0.74c0.08-0.23,0.24-0.45,0.32-0.68
									C-39.52,183.29-39.28,182.77-39.04,182.32z M-42.6,181.84c0.53,0.09,1.02,0.14,1.59,0.11c0.8-0.02,1.49-0.38,2.29-0.47
									c0.04-0.04,0.08,0,0.15,0.01c0.4-0.75,0.84-1.46,1.35-2.17c-0.34-0.05-0.68-0.24-0.94-0.29c-0.3-0.08-0.64-0.13-1.02-0.14
									C-40.57,179.69-41.66,180.65-42.6,181.84z M-32.99,176.43c-1.95,0.52-3.76,1.12-5.3,1.91c0.42,0.05,1.06,0.18,1.43,0.42
									c1.02-1.19,2.22-2.03,3.74-2.15C-33.03,176.55-33.03,176.47-32.99,176.43z M-20.95,155.54c-0.07-0.08-0.18-0.12-0.26-0.28
									c-0.52-0.77-1.06-1.51-1.66-2.21c0.04,0.11,0.03,0.27-0.08,0.38c-1.3,1.53-3.15,2.69-5.04,3.59
									C-25.22,157.36-22.59,157.09-20.95,155.54z M-30.63,157.83c-0.95-0.21-1.81-0.51-2.53-0.79c-0.57-0.21-1.09-0.45-1.62-0.69
									c0,0-0.04,0.04-0.07,0c-0.57,0.02-1.14,0.05-1.71,0.07c2.7,1.29,5.21,2.69,6.74,5.39c0.98,0.1,2.01,0.32,2.98,0.57
									c-0.39-0.96-1.32-1.94-1.91-2.64C-29.37,159.08-29.96,158.45-30.63,157.83z M-26.95,163.9c-0.38-0.09-0.72-0.21-1.06-0.26
									c-0.17,0.68-0.76,1.39-1.16,1.98c-0.95,1.57-1.94,3.1-2.94,4.56C-29.52,168.92-27.42,166.93-26.95,163.9z M-39.61,172.57
									c2.21-0.4,4.74-1.01,6.97-2.02c0.6-1.17,1.2-2.25,1.84-3.38c0.36-0.71,1.77-2.42,2.03-3.63c-0.83-0.18-1.66-0.28-2.46-0.33
									c-2.15,3.52-4.98,7.17-8.61,9.43C-39.77,172.57-39.69,172.57-39.61,172.57z M-46.2,172.96c1.6-1.52,2.71-3.46,4.39-4.9
									c1.87-1.7,3.82-3.4,5.83-4.94c-1.21,0.04-2.44,0.23-3.7,0.4c-2.45,2.18-4.57,4.7-7.14,6.77c-1.28,1.07-2.96,2.66-4.71,2.84
									C-49.64,173.56-48.15,173.03-46.2,172.96z M-52.25,172.92c0.01-0.08,0.04-0.11,0.16-0.15c4.44-0.95,7.46-5.96,10.85-9.03
									c-1.64,0.3-3.32,0.63-5.08,0.97c0.04,0.04,0.04,0.04,0.04,0.11c-0.23,1.71-1.79,2.88-3.04,3.99
									c-1.56,1.4-3.22,2.46-5.03,3.44C-53.68,172.5-52.96,172.71-52.25,172.92z M-68.53,167.31c1.21,0.11,2.39,0.41,3.56,0.78
									c-0.04-0.11-0.04-0.19,0.04-0.27c0.39-0.37,0.85-0.66,1.32-1.03c-0.34,0.03-0.69,0.06-1.03,0.09
									c-0.34,0.03-0.36-0.54-0.06-0.61c0.84-0.21,1.72-0.3,2.59-0.39c0.04-0.04,0.08,0.01,0.11-0.03c0.04-0.04,0.08,0,0.15,0
									c0.69-0.06,1.33-0.08,1.98-0.1c-1.54-0.68-3.11-1.56-4.71-1.76c-0.11,0.11-0.31,0.22-0.43,0.33
									C-66.3,165.28-67.18,166.7-68.53,167.31z M-60.88,161.63c2.4,1.13,4.81,2.18,7.25,3.19c0.11,0.04,0.19,0.12,0.22,0.23
									c1.15-0.2,2.29-0.47,3.44-0.74c-2.4-1.43-4.82-2.9-7.26-4.38C-58.45,160.43-59.69,161.01-60.88,161.63z M-60.8,169.84
									c0.79,0.36,1.61,0.69,2.44,1.02c2.36-1.57,4.92-3.18,6.94-5.18c-1.45,0.27-2.9,0.45-4.35,0.65c-0.04,0.04,0,0.07-0.08,0.07
									c-0.78,0.67-1.7,1.09-2.55,1.68C-59.13,168.7-59.98,169.29-60.8,169.84z M-58.41,165.65c1.33-0.08,2.67-0.16,3.96-0.35
									c-2.36-1.01-4.69-2.14-6.98-3.38c-0.93,0.51-1.81,1.06-2.67,1.64c0.68,0.17,1.32,0.45,1.99,0.7
									c1.2,0.48,2.45,0.86,3.65,1.35L-58.41,165.65z M-63.05,167.16c-0.54,0.36-1.08,0.73-1.66,1.06
									c0.94,0.36,1.88,0.73,2.78,1.14c0.23,0.08,0.42,0.2,0.6,0.24c0.7-0.59,1.44-1.14,2.25-1.69c0.69-0.44,1.4-1.03,2.13-1.5
									c-1.83,0.18-3.61,0.17-5.44,0.27C-62.58,166.86-62.81,167.01-63.05,167.16z M-55.04,172.08c3.17-1.97,5.79-4.45,8.22-7.27
									c-1.07,0.2-2.18,0.44-3.25,0.64c-0.56,1.13-1.57,1.78-2.69,2.47c-1.7,1.1-3.48,2.04-5.14,3.09
									C-56.96,171.39-56.02,171.75-55.04,172.08z M-56.49,159.69c2.55,1.14,5.1,2.65,7.22,4.33c0.04,0.04,0.08,0.08,0.11,0.12
									c1.07-0.28,2.1-0.52,3.21-0.75c-2.46-1.74-5.05-3.29-7.75-4.66c-0.38,0.15-0.72,0.24-1.11,0.39
									C-55.42,159.26-55.96,159.47-56.49,159.69z M-53.12,158.48c2.82,1.33,5.52,2.84,8.05,4.67c0.19-0.04,0.42-0.11,0.61-0.14
									c1.42-0.3,2.79-0.57,4.17-0.84c-1.46-0.91-3.08-1.3-4.7-2.06c-1.72-0.81-3.21-1.99-5.03-2.42
									C-51.01,157.9-52.05,158.21-53.12,158.48z M-34.19,161.57c-1.53-0.99-3.03-1.71-4.8-2.41c-1.69-0.61-3.27-1.34-4.77-2.37
									c-1.83,0.18-3.62,0.4-5.42,0.77c1.4,0.38,2.59,1.1,3.94,1.74c1.95,0.96,4.42,1.15,6.01,2.75
									C-37.54,161.79-35.86,161.6-34.19,161.57z M-40.88,172.72c2.09-1.31,3.7-3.43,5.42-5.14c1.33-1.33,2.09-3.1,3.31-4.47
									c-0.95-0.07-1.86-0.09-2.78-0.04c0,0.07-0.04,0.19-0.12,0.26c-1.99,1.89-4.2,3.54-6.34,5.34c-1.59,1.29-2.74,2.97-4.26,4.33
									C-43.96,172.91-42.4,172.91-40.88,172.72z M-34.03,158.46c-1.08-0.75-2.24-1.35-3.45-1.99c-1.86,0.06-3.73,0.13-5.52,0.27
									c3.15,1.76,7.66,1.99,10.02,4.87c0.68,0.02,1.36,0.04,2.05,0.13C-31.84,160.53-32.69,159.33-34.03,158.46z M-36.32,154.56
									c0.3,0.16,0.64,0.28,1.02,0.44c3.04-1.48,5.9-3,8.79-4.71c-0.07-0.16-0.18-0.27-0.33-0.43c-0.64-0.36-1.31-0.68-1.99-0.93
									c-0.65,0.25-1.26,0.39-1.92,0.64c-0.99,0.35-1.92,0.86-2.92,1.29c-1.73,0.68-3.57,1.16-5.4,1.49
									c-0.38,0.06-0.48-0.51-0.14-0.54c1.98-0.41,3.94-1,5.83-1.9c1.11-0.54,2.27-0.89,3.38-1.35c-0.3-0.08-0.64-0.2-0.98-0.25
									c-0.08,0.07-0.16,0.07-0.27,0.03c-0.11-0.04-0.26-0.12-0.38-0.16c-0.27-0.04-0.57-0.13-0.83-0.17
									c-0.53-0.09-1.06-0.18-1.52-0.27c-0.04,0.11-0.08,0.23-0.16,0.3c-2.86,1.97-6.47,1.84-9.69,2.74
									C-41.35,152.15-38.8,153.35-36.32,154.56z M-45.37,147.36c2.03-0.36,3.94-1.07,6-1.17c-0.94-0.37-1.92-0.85-2.89-1.41
									C-43.08,145.79-44.14,146.71-45.37,147.36z M-40.76,142.69c-0.36,0.64-0.76,1.23-1.15,1.76c1.62,0.69,3.09,1.3,4.59,1.72
									c-0.85-0.97-1.66-2.06-2.39-3.14C-40.05,142.98-40.39,142.85-40.76,142.69z M-44.31,150.35c3.11-1.24,6.49-1.27,9.43-2.86
									c-0.45-0.09-0.94-0.21-1.4-0.3c-0.07-0.01-0.15-0.01-0.22-0.08c-0.76-0.17-1.51-0.42-2.22-0.7
									c0.03,0.19-0.01,0.38-0.24,0.45c-2.56,0.5-5.36,1.3-8.02,1.23c-0.16,0.07-0.35,0.1-0.5,0.18
									C-46.48,149.01-45.43,149.72-44.31,150.35C-44.35,150.39-44.35,150.39-44.31,150.35z M-39.21,143.16
									c0.96,1.16,1.92,2.26,2.91,3.38c0.95,0.22,1.97,0.43,2.99,0.58h0.08c-1.49-1.1-2.71-2.54-3.73-4.02
									c-0.04-0.04-0.04-0.11,0.01-0.15c-0.27,0.03-0.5,0.1-0.72,0.09C-38.22,143.1-38.76,143.17-39.21,143.16z M-32.96,142.33
									c1.96,2.29,4.61,4.07,6.37,6.55c1.12,0.57,2.13,1.24,3.14,1.98c-1.1-2.95-3.57-5.64-5.52-8.09
									c-0.11-0.04-0.23-0.08-0.31-0.08C-30.6,142.32-31.78,142.25-32.96,142.33z M-23.59,146.34c-1.68-1.15-2.79-2.47-4.52-3.28
									c1.36,1.67,2.8,3.34,4.08,5.09c0.81,1.09,1.5,2.29,1.66,3.62c0.81,0.78,1.55,1.64,2.25,2.53c0.04-0.04,0.08-0.15,0.12-0.19
									c-0.7-2.45-0.88-5.54-2.89-7.26c-0.08-0.08-0.07-0.16-0.07-0.23C-23.18,146.55-23.38,146.5-23.59,146.34z M-21.83,147.04
									c-0.15-0.08-0.26-0.12-0.38-0.16c1.41,1.41,2.41,3.94,2.69,6.04C-18.89,150.77-19.84,148.27-21.83,147.04z M-28.62,148
									C-28.58,147.96-28.58,147.96-28.62,148c0.11-0.04,0.19-0.04,0.27-0.03c-1.63-1.87-3.48-3.59-5.06-5.57
									c-1.06,0.13-2.14,0.32-3.24,0.48c1.44,1.82,3.23,3.09,5.09,4.43C-30.55,147.45-29.6,147.67-28.62,148z M-28.9,156.93
									c1.97-1.13,3.64-2.57,5.51-3.96c0.11-0.11,0.27-0.11,0.38-0.07c-0.85-0.9-1.78-1.72-2.79-2.4l-0.04,0.04
									c-2.42,2.22-5.8,3.57-8.87,4.71C-33.02,155.94-30.94,156.57-28.9,156.93z M-10.44,37.81c0.98-1.23,1.43-2.32,1.42-3.5
									c-0.61,0.06-1.26,0.08-1.79,0.07c-1.26,0.01-2.51-0.22-3.76-0.44c-0.3-0.08-0.25-0.57,0.09-0.53
									c1.17,0.15,2.35,0.06,3.54-0.02c0.53-0.06,1.18-0.23,1.79-0.3c-0.14-0.61-0.38-1.34-0.7-2.07
									c-0.61-1.42-1.41-2.81-2.09-4.16c-0.18-0.34-0.36-0.69-0.55-1.04c-0.47,0.52-1.42,0.46-2.18,0.59
									c-1.41,0.31-2.72,0.8-3.99,1.49c-0.35,0.18-0.56-0.29-0.26-0.51c1.74-1.21,3.9-2.21,6.07-2.34
									c-0.46-0.96-0.94-1.93-1.41-2.89c-0.39-0.89-1.07-2.61-1.82-3.09c-0.86-0.52-3.1-0.69-4.29-0.31
									c-0.17,0.6-1.16,0.58-1.33-0.07c-0.34-1.3-0.29-2.17-1.05-3.22c-1.01,2.06-2.43,3.93-3.66,5.83
									c-0.16,0.3-0.65,0.02-0.49-0.28c1.2-2.1,2.32-4.19,3.44-6.3c-0.71-0.59-1.4-0.45-2.49-0.67c-1.52-0.27-2.75-0.95-3.86-2.04
									c-0.3-0.31,0.14-0.87,0.47-0.6c1.27,0.95,2.44,1.24,3.8,1.43c-0.18-0.42-0.28-0.92-0.57-1.31
									c-0.73-1.08-1.49-1.03-2.43-1.47c-1.09-0.53-1.87-1.19-3.14-0.73c-0.31,0.14-0.61,0.29-0.93,0.51
									c0.46,0.01,0.91,0.18,1.36,0.42c0.45,0.24,0.28,1.07-0.29,1.02c-4.78-0.66-5.82,7.22-6.78,10.28
									c-1.08,3.4-3.86,6.32-3.84,9.86c0.07,0.16,0.15,0.31,0.26,0.5s0.03,0.42-0.17,0.53c0.03,0.27,0.1,0.57,0.2,0.84
									c0.04,0.12,0.04,0.19-0.04,0.27c0.61,1.42,1.06,2.92,1.32,4.52c0.1,0.5,0.16,1.03,0.19,1.53c0.38-1.24,0.83-2.41,1.31-3.54
									c1.82-4.02,4.72-7.59,4.66-12.2c-0.03-0.19,0.27-0.18,0.31,0.01c0.14,3.43-1.16,6.35-2.57,9.4
									c-1.73,3.64-2.73,6.96-3.29,10.67c1.37-2.93,3.3-5.58,5.72-7.72c2.18-1.92,4.39-3.42,6.08-5.77
									c1.66-2.31,3.06-4.82,4.38-7.33c0.04-0.11,0.27-0.03,0.22,0.08c-1.74,4.1-3.69,8.54-7.19,11.48
									c-3.77,3.21-6.55,6.29-8.49,10.49c1.62-2.35,3.69-4.31,6.02-6.07c3.22-2.46,6.63-4.88,10.47-6.22
									c0.16-0.07,0.3,0.23,0.15,0.31c-1.96,0.82-3.74,1.99-5.49,3.28c2.31-0.85,4.78-0.82,7.16-0.57
									c1.26,0.15,2.58,0.22,3.79,0.55c1.7,0.47,3.29,1.92,5.2,1.51c0.73-0.17,1.12,0.86,0.46,1.19c-1.73,0.9-2.9,0.3-4.55-0.51
									c-0.53,2.72,1.26,5.47,0.2,8.1c-0.73,1.81-3.2,3.03-4.78,3.94c-2.04,1.13-3.59,0.74-5.58-0.19
									c-1.72-0.81-3.41-1.72-5.18-2.49c-2.63-1.14-4.03-1.52-6.5-0.14c-0.23,0.15-0.46,0.06-0.61-0.02
									c-0.67,1.08-1.27,2.09-1.83,3.15c-0.04,0.04-0.12,0.11-0.16,0.15c-0.05,0.27-0.05,0.49-0.1,0.76
									c-0.32,1.93-0.93,4.95-2.85,5.89c0.06,0.76-0.16,1.55-0.21,2.28c-0.03,0.99-0.13,2.05-0.61,2.95
									c-0.04,0.11-0.08,0.15-0.16,0.22c1.01,2.08,0.64,4.58,1.77,6.63c1.19,2.2,2.88,3.27,3.19,5.94c0.18,1.68-0.02,3.42-0.4,5.05
									c-0.21,0.87-0.5,1.58-0.94,2.22c0,0.15-0.05,0.34-0.2,0.49c-2.31,2.71-3.73,6.06-6.2,8.62c-0.43,0.48-0.9,0.92-1.44,1.36
									c3.57-1.46,7.19-2.89,10.89-3.44c0.27-0.03,0.37,0.32,0.1,0.43c-5.17,1.34-9.78,4.45-14.98,5.6
									c-0.61,0.29-1.19,0.54-1.84,0.71c-0.04,0.04-0.07-0.01-0.15-0.01c-0.16,0.15-0.31,0.3-0.47,0.44
									c-0.85,0.66-1.9,1.2-2.93,1.52c7.16-0.42,14.31-0.53,21.24-2.74c0.27-0.1,0.41,0.35,0.1,0.42
									c-7.48,2.58-15.53,3.46-23.47,3.52c3.47,2.56,9.14,2.22,13.04,1.41c0.23-0.07,0.3,0.31,0.1,0.34
									c-3.79,1.08-9.14,1.92-12.84-0.19c0.21,0.46,0.35,0.92,0.3,1.41c0.04,0.04,0,0.08,0.04,0.11c0.11-0.03,0.23,0.01,0.38,0.09
									c3.07,1.68,6.22,2.18,9.65,1.74c1.98-0.25,4.09-0.99,6.02-0.22c1.24,0.53,1.98,1.31,3.41,1.65
									c0.98,0.26,1.93,0.32,2.87,0.77c1.2,0.56,2.13,1.54,2.82,2.66c0.08-0.07,0.16-0.07,0.27-0.1c4.05-0.65,7.98-2.83,10.06-6.5
									c0.16-0.3,0.32-0.6,0.44-0.94c-1.51,0.83-3.48,0.85-5.19,1c-2.21,0.24-4.58,0.64-6.73,0.01c-0.3-0.08-0.18-0.49,0.13-0.49
									c2.08,0.32,4.34-0.19,6.44-0.47c1.86-0.22,3.92-0.24,5.55-1.26c0.04-0.04,0.11-0.03,0.15-0.07c0.6-2.72,0.28-6.04,0.34-8.62
									c0.04-1.37,0.14-2.51-0.02-3.61c-1.34,0.54-2.8,0.72-4.21,1.03c-2.22,0.47-4.18,1.37-6.15,2.49
									c-0.19,0.11-0.34-0.2-0.15-0.31c1.66-0.98,3.29-2.01,5.17-2.6c1.69-0.56,3.45-0.97,5.17-1.49
									c-0.28-0.84-0.76-1.66-1.65-2.52c-1-0.98-2.2-1.69-3.16-2.79c-0.15-0.16-0.3-0.31-0.41-0.5c-1.8,0.59-3.65,1.23-5.48,1.86
									c-0.27,0.1-0.38-0.31-0.14-0.46c1.51-0.99,3.28-1.78,5.07-2.15c-0.92-1.2-1.83-2.56-3.07-3.31
									c-3.14-1.91-5.19,0.93-6.47,3.4c-0.2,0.33-0.72,0.09-0.64-0.29c1.08-3.32,3.63-6.25,7.08-4.71
									c-1.23-2.39-1.84-5.15-2.65-7.64c-0.07-0.31,0.2-0.49,0.43-0.41c0.08-0.15,0.2-0.19,0.34-0.11l0.04,0.04
									c0.12-0.04,0.19-0.03,0.27,0.05s0.11,0.11,0.19,0.19c2.4,1.36,4.77,2.14,6.93,3.72c0.04-0.04,0.12-0.11,0.15,0.01
									c0.04,0.04,0.07,0.16,0.11,0.19c0.3,0.24,0.6,0.47,0.9,0.71c2.15,1.96,3.58,3.79,4.89,6.18c0.08,0,0.11,0.04,0.11,0.11
									c0,0.08,0.04,0.12,0.04,0.19c0.18,0.35,0.36,0.69,0.54,1.04c2.67,5.39,6.56,9.26,5.48,15.54c0.25,0.51,0.51,0.93,0.8,1.39
									c0.04-1.44,0.16-2.89-0.04-4.33c-0.27-2.86-0.98-5.73-1.59-8.56c-0.35,0.26-0.72-0.21-0.59-0.55
									c-0.07-0.08-0.15-0.16-0.15-0.31c-1.09-5.92-4.87-11.31-4.55-17.46c0.3-5.47,3.05-10.22,5.83-14.79l0.01-0.07
									c0-0.08,0.04-0.11,0.08-0.08c0.2-0.33,0.36-0.64,0.56-0.97c0.04-0.11,0.23,0.01,0.19,0.12c-0.16,0.3-0.36,0.64-0.52,0.94
									v0.08c-0.55,2-0.11,3.95,0.3,5.94c0.2,0.99,0.4,2.06,0.6,3.06c0.85-4.96,2.2-9.79,3.92-14.53c0.08-0.15,0.31-0.07,0.27,0.04
									c-1.29,4.04-2.31,8.11-3.03,12.28c1.24-2.29,2.92-4.26,5.06-5.83c-0.54-2.53-1.54-4.83-1.63-7.42
									c-1.7,1.03-3.26,2.51-4.18,4.27c-0.04,0.04-0.08-0.01-0.04-0.04c0.96-2.03,2.26-3.55,4.19-4.64l0.04-0.04
									c0-0.08,0-0.08,0.01-0.15c0.01-0.3,0.43-0.26,0.45,0.01c0.29,3.73,1.86,7.2,2.14,10.93c0.29,3.51,0.48,7.54-0.06,11.03
									c-0.96,6.32-2.75,13.42-7.92,17.51c0,0,0,0,0.04,0.04c0.57,2.64,1.38,5.29,1.77,7.96c0.32,2.36-0.16,4.67-0.11,6.99
									c0.07,1.86,0.44,3.59,1.01,5.28c1.05-3.73,3.94-6.85,4.66-10.79c-0.03-0.12-0.03-0.19,0.05-0.27
									c0.04-0.11,0.01-0.22,0.05-0.34c-0.11-0.04-0.22-0.08-0.3-0.23c-2.9-6.66-1.71-14.23,1.87-20.37
									c0.2-0.33,0.4-0.67,0.56-0.97c0-0.08,0-0.16,0.01-0.23c0.01-0.15,0.12-0.19,0.23-0.22c2.02-3.18,4.34-6.19,6.81-8.98
									c3.3-3.71,7.69-7.51,8.25-12.78c0.04-0.04,0.01-0.08,0.04-0.11c0-0.08-0.03-0.19,0.01-0.31c0.01-0.22,0.39-0.22,0.38,0.01
									c0.29,4.91,3.53,8.88,3.73,13.79c0.1,2.13,0.04,4.48-0.48,6.6c-0.63,2.38-2.28,4.16-3.1,6.49c-0.7,2.07-0.95,4.16-1.91,6.19
									c-1.01,2.06-2.35,3.93-3.92,5.64c-0.55,0.59-1.09,1.19-1.68,1.82c0,0,0.04,0.04,0,0.07c0.58,5.38,2.73,10.3,1.33,15.7
									c-0.68,2.64-1.56,5.78-3.4,7.89c-1.81,2.01-4.38,2.96-5.85,5.32c0.11,0.27-0.02,0.53-0.24,0.68
									c0.47,1.04,0.93,2.08,1.36,3.07c0.29,0.62,0.76,1.35,0.93,2.08c0.88-0.32,1.76-0.56,2.75-0.61
									c1.79-0.14,3.27,0.24,4.66,0.85c0.08-0.08,0.19-0.04,0.27,0.04c0.07,0.08,0.15,0.16,0.26,0.2c0.97,0.48,1.99,1.01,3.04,1.57
									c1.88,0.96,3.81,1.05,5.66,1.9c1.16,0.53,2.01,1.5,2.94,2.4c2.89,2.81,6.09,5.26,9.06,7.92c-1.47-1.79-2.48-3.94-3.72-5.88
									c-1.53-2.47-3.92-4.14-5.26-6.72c-0.31,0.15-0.68-0.02-0.71-0.36c-1.01-0.75-1.73-2.06-2.35-3.1
									c-0.18-0.27,0.24-0.6,0.47-0.37c0.63,0.74,1.26,1.48,1.88,2.22c0.04,0.04,0.07,0.08,0.11,0.11c0.05-0.57,0.1-1.14,0.16-1.71
									c-1.07-1.13-1.76-2.63-2.64-3.95c-1.17-1.7-2.5-3.26-3.94-4.78c0.63,2.15,1.71,4.15,2.88,6.08c0.41,0.66-0.64,1.2-1.04,0.54
									c-3.47-5.53-4.46-10.88-2.47-17.14c1-3.17,1.99-6.41,3.33-9.46c1.3-2.93,3.46-4.17,5.53-6.28c0,0-0.04-0.04,0.01-0.07
									c-0.14-0.54,0.71-0.9,0.92-0.36c2.53,6.19,5.51,13.07,6.16,19.79c0.29,3.27-0.21,6.57-0.94,9.78
									c-0.61,2.8-1.7,5.47-4.36,6.8c-0.23,0.15-0.49-0.2-0.29-0.39c3.82-3.39,4.97-9.6,4.66-15.01c0,0,0,0-0.04,0.04
									c-2.73,2.82-4.87,5.95-6.64,9.41c0.03,0.42,0.02,0.88,0.01,1.26c0.07,0.15,0.14,0.31,0.21,0.46
									c0.84-1.54,1.83-2.99,2.86-4.41c0.11-0.18,0.42-0.02,0.3,0.16c-1.3,1.91-2.35,3.93-3.35,5.99L18.37,121
									c-0.07,1.18-0.14,2.35-0.21,3.53c0.22,0.01,0.08-0.07,0.35-0.26c0.23-0.15,0.27-0.18,0.57-0.18
									c0.34,0.05,0.41,0.43,0.14,0.61c-0.27,0.18-0.39,0.44-0.58,0.63c1.31,2.16,3.17,3.66,4.56,5.67
									c0.99,1.35,1.9,2.86,2.89,4.22c-1.05-3.37-1.53-6.92-1.2-10.48c0.21-2.43,0.78-4.89,1.97-7.06
									c1.48-2.81,4.45-4.52,5.67-7.45c0.08-0.22,0.46-0.14,0.42,0.13c-0.61,1.69-1.68,2.92-2.81,4.22
									c0.41,1.84,0.81,3.67,1.18,5.55c-0.12-2.7-0.05-5.44,0.82-7.81c0.08-0.15,0.27-0.1,0.22,0.08
									c-0.82,2.49-0.41,5.28-0.24,7.86c0.63-2.15,1.21-4.27,1.77-6.42c0.04-0.04,0.04-0.04,0.04-0.04
									c-0.43-1.15-0.78-2.38-0.82-3.67c-0.03-0.42,0.54-0.36,0.61,0.02c0.38,4.23,3.27,7.35,5.03,11.01
									c1.19,2.51,1.43,4.87,0.97,7.59c-0.5,2.99-0.73,7.66-3.07,9.88c-1.6,1.52-3.82,1.99-5.98,1.89
									c0.88,1.47,1.78,2.98,2.73,4.37c1.46,2.09,3.48,3.44,5.45,5.05c2.83,2.28,6.56,5.19,8.37,8.36c0.11,0.19,0.1,0.42,0.06,0.53
									c2.49,0.45,4.99,0.82,7.49,1.27c4.28,0.76,8.46,1.9,12.61,3.15c4,1.17,8.11,2.08,12.08,3.36c0.65-0.24,1.34-0.38,1.98-0.4
									c-3.23-2.79-5.61-6.39-8.88-9.21c-2.49-2.16-4.94-4.35-6.77-7.06c0,0,0,0-0.04-0.04c-0.04,0.04-0.08-0.01-0.11,0.03
									c-0.12,0.11-0.2,0.19-0.35,0.1c-7.79-3.13-14.97-8.99-23.45-10.28c-0.42-0.05-0.4-0.73,0.02-0.69l0.08,0.01
									c-0.04-0.12-0.03-0.27,0.13-0.34c1.73-0.82,3.6-1.27,5.43-1.38c1.48-0.07,2.93,0.11,4.35,0.61
									c0.04-0.04,0.12-0.03,0.23,0.01c0.04,0.04,0.04,0.04,0.08,0.07c0.3,0.09,0.56,0.21,0.82,0.33c2.15,0.93,3.7,2.42,5.33,4.14
									c0.74,0.78,1.48,1.48,2.3,2.19c-1.96-3.32-2.96-7.42-3.85-10.94c-0.48-1.84-1.35-3.61-2.29-5.38
									c-0.04-0.04-0.07-0.08-0.04-0.11c-2.17-3.94-4.7-7.77-4.11-12.32c0.05-0.34,0.58-0.32,0.53,0.02
									c-0.25,2.23,0.27,4.27,1.13,6.19c0.04-0.11,0.19-0.18,0.31-0.07c1.11,1.17,2.3,2.27,3.37,3.4c-0.98-1.58-1.93-3.13-2.8-4.75
									c-0.94-0.59-1.63-1.64-1.98-2.64c-0.07-0.16,0.2-0.26,0.27-0.11c0.33,0.58,0.69,1.05,1.1,1.4c-0.4-0.89-0.71-1.77-0.99-2.69
									c-0.03-0.19,0.24-0.3,0.31-0.15c0.57,1.31,1.22,2.62,1.95,3.85l0.04,0.04c0.07,0.07,0.15,0.16,0.15,0.23
									c1.13,1.97,2.36,3.9,3.61,5.84c-0.35-2.64-0.47-5.34-2.28-7.47c-0.07-0.08-0.03-0.11-0.03-0.19
									c-1.54-0.92-2.99-1.83-4.17-3.15c-0.22-0.23,0.13-0.57,0.35-0.33c2.52,2.5,6.06,3.58,8.61,6.2c2.11,2.15,3.72,4.7,4.82,7.51
									c2.53,6.49,0.26,13.08,1.57,19.7c0.03,0.04,0.07,0.08,0.15,0.08c0.38,0.24,0.29,0.69,0.05,0.92
									c2.21,2.8,4.96,4.99,7.79,7.28c3.13,2.52,5.82,5.36,8.8,8.03c0.41,0.35,0.35,0.84,0.04,1.14c0.99,0.1,1.97,0.43,2.91,0.88
									c1.84,0.85,3.38,1.54,5.39,1.93c1.74,0.35,3.56,0.63,5.25,1.24c0.91,0.33,0.72,1.69-0.27,1.67
									c-5.7-0.07-10.42-2.71-15.71-4.07c-0.08,0.07-0.19,0.11-0.3,0.07c-2.59,0.08-5.17-0.36-7.66-1.04c0,0,0,0-0.04,0.04
									c-1.94,1.55-5.29,3.17-7.88,2.95c-0.23-0.01-0.38-0.16-0.48-0.35c0,0-0.04,0.04-0.07-0.01c-2.99,0.99-6.23-0.09-9.33,0.55
									c-0.27,0.03-0.45-0.17-0.44-0.4c-0.42,0.03-0.77,0.06-1.15,0.13c0.15,0.23,0.06,0.61-0.24,0.68
									c-3.32,0.56-4.28,5.02-5.72,7.64c-1.08,1.99-2.36,3.13-4.36,4.15c-0.31,0.14-0.49-0.28-0.22-0.46
									c3.68-2.45,4.52-5.47,6.33-9.34c0.44-0.86,0.88-1.57,1.54-2.05c-1.57,0.45-3.1,0.94-4.71,1.13
									c-1.71,0.22-3.46,0.32-5.18,0.47c0.27,0.04,0.45,0.09,0.72,0.13c1.02,0.22,2.35,0.29,3.13,1.11
									c0.37,0.39-0.21,0.95-0.58,0.56c-0.67-0.7-2.45-0.86-3.39-1.08c-0.6-0.17-1.25-0.3-1.85-0.39c-0.34,0.03-0.69,0.13-0.99,0.2
									c-1.88,0.44-3.6,1.2-5.15,2.22c3.36-0.6,6.73-0.32,9.85,1.1c0.08-0.08,0.19-0.11,0.27-0.11c0.04-0.04,0.12-0.11,0.16-0.15
									c0.89-0.77,1.71-1.55,2.57-2.29c0.04-0.19,0.09-0.38,0.21-0.56c0.12-0.27,0.46-0.29,0.6-0.06c0.78-0.59,1.59-1.14,2.52-1.49
									c0.15-0.07,0.26,0.12,0.11,0.19c-0.96,0.47-1.85,1.02-2.64,1.68c-0.27,2.84-1.32,5.56-2.8,7.99
									c-0.16,0.3-0.65,0.02-0.45-0.24c0.76-1.31,1.29-2.63,1.63-4.14c0.21-0.87,0.35-1.82,0.6-2.72c-0.74,0.7-1.48,1.41-2.22,2.18
									c-0.01,0.08-0.04,0.11-0.04,0.19c-1.21,2.7-2.84,5.21-5.21,7.01c-0.23,0.14-0.49-0.13-0.26-0.28
									c1.71-1.55,2.83-3.5,3.95-5.45c-1.36,1.15-2.8,2.14-4.31,3.12c0.15,0.01,0.26,0.27,0.18,0.42
									c-0.48,0.97-1.53,1.74-2.39,2.33c-0.43,0.33-1.17,1.03-1.72,0.52c-0.07-0.08,0.01-0.15,0.08-0.15
									c0.68,0.02,1.58-1.06,2.06-1.58c0.39-0.37,0.78-0.81,1.17-1.18c-0.5,0.33-1.04,0.61-1.58,0.91
									c-1.61,0.87-3.43,1.85-5.35,2.71c0.34-0.03,0.61-0.06,0.95-0.09c3.23-0.18,6.08,0.01,9.02-1.66
									c0.39-0.22,0.76,0.32,0.44,0.61c-0.04,0.04-0.04,0.04-0.08,0.08c-0.01,0.07-0.04,0.11-0.12,0.19
									c-4.79,4.32-10.16,8.66-16.71,9.4c-5.65,0.61-11.96,0.9-16.29-3.51c-0.26-0.27,0.05-0.65,0.35-0.56
									c4.5-1.82,9.69-2.59,14.54-3.41c0.04-0.04,0-0.08,0.04-0.11c3.45-5.34,7.64-11.32,13.9-13.55c0.49-0.17,1.03-0.31,1.57-0.45
									c0.04-0.04,0.12-0.11,0.19-0.11c0.08,0,0.08,0,0.16,0c2.67-0.61,5.41-0.61,8.16-0.99c3.02-0.42,5.91-1.9,8.98-1.85
									c0.42-0.03,0.56,0.36,0.44,0.7c3.32-0.56,6.87,0.45,9.92-1.33c1.24-0.73,2.29-1.57,3.48-2.27
									c-0.19-0.04-0.34-0.13-0.53-0.17c-4.15-1.17-8.34-2.39-12.58-3.19c-4.27-0.83-8.56-1.37-12.83-2.28
									c-2.34-0.52-4.6-1.34-6.82-2.19c-0.08-0.01-0.08-0.01-0.15-0.01c-1.52-0.19-3.03-0.61-4.57-1.15
									c-0.11,0.11-0.23,0.15-0.38,0.15c-0.46-0.02-0.81,0.24-1.26,0.16c-0.34-0.05-0.6-0.17-0.86-0.36
									c-0.9-0.56-1.83-1.31-2.53-2.05l-0.04-0.04c-0.68-0.32-1.31-0.61-2.03-0.89c-1.72-0.73-3.38-1.46-5.03-2.27
									c-0.04,0.19-0.16,0.38-0.39,0.45c-3.07,1.06-6.18,0.52-9.29,0.44c0,0.07-0.08,0.15-0.19,0.18c-2.38,0.7-5.25,0.09-7.72,0.29
									c-2.48,0.2-4.86,1.05-7.3,1.21c-0.47,0.44-0.93,0.81-1.47,1.18c-1.59,1.14-3.57,1.16-4.94,2.61
									c-0.04,0.04-0.04,0.04-0.08,0.07c-0.05,0.34-0.09,0.68-0.1,0.98c0.02,0.72,0.08,1.41,0.17,2.14
									c0.08,1.26-0.03,2.7-1.05,3.58c-0.19,0.18-0.6-0.09-0.41-0.35c1.06-1.38,0.92-3.02,0.73-4.69c-0.03-0.5-0.13-0.99-0.11-1.53
									c-1.14,1.22-2.34,2.3-3.47,3.52c-1.02,1.04-1.74,2.54-2.8,3.54c0.04,0.04,0.04,0.11,0.07,0.16
									c0.38-0.07,0.67,0.47,0.36,0.84c1.28,3.38,1.59,7.23,0.06,10.53c-2.03,4.51-6.71,7.69-10.58,10.48
									c-0.12,0.11-0.27,0.03-0.34-0.05c-0.15-0.01-0.3-0.08-0.26-0.28c0.29-2.58,0.78-5.11,0.78-7.77
									c0.01-1.86-0.1-3.31,0.52-5.08c-0.71,0.74-1.52,1.44-2.33,1.99c-0.39,1.7-1.16,3.31-1.62,5.01c-0.38,1.4-0.46,2.88-0.8,4.32
									c-0.44,2.27-1.64,4.29-3.05,6.07c-4.05,5.18-9.27,5.46-15.46,5.1c-0.42-0.05-0.4-0.58,0.02-0.61
									c-0.22-0.08-0.26-0.43-0.02-0.57c3.37-2.3,5.07-5.03,6.24-8.88c0.66-2.04,1.29-4.04,2.63-5.75
									c2.64-3.39,7.03-5.32,11.25-5.48l0.08,0.01c0.11-0.04,0.23-0.07,0.34-0.03c0.98-0.92,2.07-1.81,2.96-2.81
									c0.4-0.45,0.79-0.89,1.21-1.22c1.85-2.42,4.63-4.02,6.75-6.4c0.04-0.04,0.08-0.07,0.11-0.11c0.16-0.23,0.46-0.3,0.69-0.14
									c0.94-1.04,1.81-2.31,2.71-3.31c1.09-1.19,2.12-2.53,3.26-3.75c-0.53-0.02-1.14-0.19-1.59-0.28
									c-1.25-0.3-2.48-1.13-3.77-1.24c-0.07,0-0.07,0-0.11-0.04c0.04,0.19-0.01,0.38-0.2,0.57c-2.19,2.15-5.99,2.2-9.28,1.54
									c0.78,0.74,1.56,1.56,2.26,2.38c0.55,0.66,1.26,1.33,1.31,2.16c0.34,0.2,0.36,0.7,0.2,0.99c0,0.08,0.03,0.12-0.01,0.16
									c-1.35,9.2-13.43,10.14-20.73,10.47c-1.56,0.07-3.21,0.75-4.77,0.44c-0.98-0.18-2.03-0.89-3.01-1.22
									c-1.17-0.37-2.3-0.63-3.47-1.08c-4.29-1.71-8.02-4.24-12.8-4.53c-0.34-0.05-0.45-0.39-0.25-0.58
									c-0.15-0.16-0.1-0.42,0.13-0.49c2.33-0.43,3.48-2.19,5.19-3.51c1.17-0.96,2.48-1.68,3.76-2.37
									c1.11-0.62,2.23-1.16,3.39-1.66c0.01-0.15,0.12-0.26,0.23-0.22c0.04,0.04,0.08,0,0.11,0.04c1.46-0.65,2.92-1.22,4.42-1.67
									c4.95-1.58,10.53-2.8,15.88-2.47c-1.2-0.64-2.4-1.35-3.59-1.99c-2.55-1.36-5.18-2.65-7.37-4.49
									c-1.84,0.64-3.39,1.43-5.16,2.3c-1.01,0.51-2.07,0.78-3.22,0.83c-3.19,0.07-5.42-1.9-8.29-2.58
									c-2.38-0.56-4.59,1.17-6.92-0.03c-0.56-0.28-0.05-1.07,0.48-0.82c0.97,0.48,1.97,0.28,3.04,0.01
									c-1.73-1.91-1.44-5.74-1.34-8.14c0.05-3.39,0.64-6.68,1.52-9.96c0.08-0.22,0.46-0.14,0.38,0.09
									c-0.64,2.68-0.98,5.45-1.06,8.18c-0.07,2.66-0.42,7.14,1.24,9.27c0.07,0.08,0.1,0.19,0.1,0.27c0.81-0.24,1.65-0.45,2.44-0.4
									c2.2,0.21,4.1,1.82,6.26,2.22c3.55,0.7,5.36-1.53,8.43-2.59c1.46-0.49,2.72-0.96,3.92-1.49c-1.77-0.61-2.94-2.4-4.04-3.87
									c-1.8-2.37-3.21-4.95-3.7-7.9c-0.07-0.31,0.43-0.41,0.46-0.14c0.58,2.56,1.85,4.54,3.47,6.56c1.26,1.56,2.93,4.26,5.17,4.51
									c0.07,0,0.07,0,0.11,0.04c1.28-0.84,2.41-1.99,3.26-3.76c0.48-0.9,1.71-0.22,1.54,0.69c2.79,0.84,7.06-0.99,9.98-0.57
									c0.27,0.04,0.49,0.05,0.72,0.13c0.04-0.04,0.19-0.03,0.22,0.08c2.57,0.6,4.13,2.09,6.37,3.52c2.24,1.43,3.88,1.43,4.64,4.42
									c0.52,2.03,0.43,4.04-0.83,5.68c0.03,0.12-0.05,0.19-0.16,0.22c-0.08,0.07-0.08,0.15-0.16,0.22
									c0.8-0.24,1.89,0.51,2.56,0.76c0.72,0.28,1.51,0.49,2.27,0.52c0.49-0.03,0.92-0.13,1.41-0.08l0.04-0.04
									c0.16-0.22,0.54-0.14,0.53,0.17c0,0.08-0.04,0.11-0.01,0.15c0.9-0.85,1.74-0.9,3.01-1.59c1.73-0.91,3.04-2.66,4.52-3.91
									c0.35-0.33,0.91,0.1,0.67,0.55c-0.12,0.18-0.24,0.37-0.35,0.56c3.38-1.13,7.22-1.36,10.76-1.54
									c2.24-0.13,4.36,0.23,6.57,0.44c1.7,0.16,3.31-0.18,4.99-0.36c-1.02-0.52-1.99-1-2.96-1.56c-4.83-1.42-9.71-3.68-13.97-6.3
									c-2.29-1.39-4.33-3.08-6.57-4.51c-2.17-1.35-4.58-2.33-6.66-3.9c-2.13-1.54-3.74-3.64-5.52-5.51
									c-2.07-2.18-4.54-3.84-6.69-5.88c-3.26-3.05-5.9-7-8.27-10.83c0.33,1.76,0.14,3.43,0.2,5.29c0.08,2.66,1.46,4.98,0.97,7.67
									c-0.36,2.27-1.52,4.26-2.67,6.17c-1.79,2.95-3.47,5.95-5.3,8.87c-0.28,0.41-0.91,0.05-0.67-0.4c1.41-2.74,2.96-5.4,4.4-8.09
									c1.2-2.25,2.67-4.6,2.85-7.22c0.01-0.23,0.02-0.45,0.02-0.68c-2.95-2.09-5.29-4.17-8.95-5.07c-0.27-0.05-0.17-0.5,0.09-0.45
									c3.49,0.32,6.11,1.98,8.68,4.07c-0.31-1.49-0.88-2.88-0.95-4.44c-0.06-2.01,0.18-3.95-0.27-5.82c0,0,0,0-0.04-0.04
									c-2.64-0.98-5.63-1.25-8.35-0.45c-0.31,0.07-0.41-0.35-0.1-0.5c2.73-0.95,5.43-1.07,8.14-0.16
									c-0.14-0.31-0.29-0.62-0.43-0.93c-1.6-2.7-3.74-2.3-6.19-3.24c-1.16-0.45-2.16-1.5-3.49-1.65
									c-1.25-0.15-2.79,0.42-4.05,0.58c-3.58,0.44-7.34,0.15-10.4-1.91c-0.04,0.04-0.04,0.11-0.08,0.15
									c-0.24,0.38-0.7,0.52-0.98,0.85c-0.19,0.26-0.31,0.53-0.4,0.75c2.13,1.47,3.67,3.48,5.41,5.39
									c2.44,2.73,5.39,4.74,8.77,6.05c0.23,0.08,0.14,0.46-0.08,0.38c-6.26-2.06-9.71-6.72-14.43-10.83
									c-0.2,0.48-0.52,0.93-0.87,1.27c1.82,2.94,2.18,6.75,3.73,9.87c2.13,4.28,4.74,8.91,8.31,12.13
									c0.19,0.19-0.13,0.49-0.31,0.29c-3.46-2.94-5.82-6.77-8.04-10.67c-0.95-1.63-1.77-3.35-2.41-5.12
									c-0.71-2-1.03-3.98-2.05-5.83c-0.23,0.15-0.43,0.26-0.66,0.32c0.49,1.54,0.37,3.28,0.44,4.92c0.11,2.78,0.39,5.48,1.99,7.81
									c0.15,0.23-0.2,0.49-0.35,0.26c-1.44-1.83-2.18-3.79-2.5-6.07c-0.29-2.1-0.64-4.51-0.51-6.63c-0.11,0.03-0.19,0.03-0.3,0.07
									c-0.04,0.04-0.08,0.15-0.12,0.18c-0.31,0.3-0.58,0.33-0.99,0.28c-0.16,0.07-0.31,0.22-0.43,0.33
									c-0.31,0.3-0.8-0.14-0.6-0.47c0.12-0.26,0.28-0.41,0.36-0.56c0,0,0,0-0.04-0.04c0.01-0.23,0.05-0.49,0.2-0.64
									c-0.04-0.04-0.07-0.01-0.11-0.04c-0.53-0.09-0.63-0.82-0.31-1.19c0.04-0.04,0.08-0.07,0.12-0.11
									c0.43-0.41,1.15-0.2,1.28,0.41c0.03,0.19-0.01,0.38-0.05,0.49c0.11,0.04,0.22,0.08,0.34,0.12c0.04,0.04,0.07,0.08,0.11,0.12
									c0.54-0.21,1.08-0.43,1.46-0.72c0.08-0.15,0.2-0.26,0.35-0.33c0.19-0.18,0.31-0.37,0.43-0.63
									c-0.11-0.12-0.18-0.28-0.22-0.39c-0.07-0.23,0.02-0.46,0.14-0.65c0,0,0.04-0.04,0-0.08l0.04-0.04
									c0.16-0.22,0.39-0.37,0.66-0.4c0.08-0.22,0.2-0.49,0.44-0.71c0.51-0.64,0.86-1.12,1.15-1.83l0.01-0.07
									c-0.77,0.51-1.73-0.58-0.99-1.28c0.23-0.22,0.54-0.29,0.8-0.17c-0.07-0.23-0.15-0.39-0.21-0.61
									c-0.18-0.19-0.37-0.31-0.56-0.51c-0.41-0.43,0.06-0.95,0.52-0.86c0.04-0.04,0.04-0.04,0.08-0.07
									c0.04-0.11,0.08-0.22,0.12-0.27c-0.34,0.03-0.76-0.17-0.78-0.67c-0.06-0.53-1.74-1.76-2.11-2.22
									c-0.33-0.43-0.4-0.89-0.61-1.35c-0.04-0.04-0.04-0.04-0.04-0.11c-0.08,0.07-0.16,0.15-0.27,0.1c-0.08,0-0.15,0-0.23-0.01
									c-0.65-0.05-0.4-0.89,0.02-0.83c-0.48-0.58-1.12-0.71-2.11-0.74c-0.91-0.03-1.83,0.1-2.71,0.34
									c-0.5,0.18-0.82-0.63-0.32-0.88c0.19-0.11,0.42-0.18,0.69-0.29c-0.13-3.66-1.73-6.44-2.97-9.78
									c-0.92-2.46-1.46-4.91-1.63-7.49c-0.03-0.27,0.43-0.33,0.46-0.06c0.43,3.81,2.09,7.28,3.67,10.74
									c0.94,2,1.87,4.15,1.39,6.38c0.8-0.17,1.71-0.22,2.59-0.08c-0.38-5.86-0.56-11.77-0.64-17.62
									c-0.1-4.87-0.97-10.71,0.68-15.38c0.08-0.23,0.42-0.1,0.34,0.12c-0.83,2.64-0.49,5.66-0.41,8.4c0.04,2.7,0.08,5.4,0.2,8.1
									c0.2,5.52,0.51,11.08,0.85,16.6c0-0.07,0-0.07,0.01-0.15c2.56-6.2,4.44-12.58,5.41-19.2c0.01-0.23,0.39-0.22,0.38,0.01
									c-0.74,6.71-2.29,13.21-4.85,19.49c-0.08,0.15-0.16,0.22-0.27,0.26c0.19,0.12,0.33,0.2,0.48,0.35
									c0.45,0.39,0.29,0.54,0.58,1.01c0.65,1.23,0.57,1.39,1.58,2.06c0.86,0.59,1.3,1.14,1.31,2.16c2.12-1.12,4.36-1.25,5.76-3.53
									c1.04-1.72,1.61-3.31,3.21-4.67c0.31-0.29,0.76,0.17,0.48,0.51c-1.3,1.6-1.66,3.64-2.65,5.25c2.52-1.72,5.07-3.17,6.77-5.82
									c0.71-1.05,1.28-2.1,1.83-3.15c-1.27,0.69-2.62,1.38-3.97,2.21c-0.43,0.26-0.94-0.29-0.7-0.74
									c1.98-3.15,6.43-3.14,7.79-6.94c0.78-2.15,1.05-5.37-0.07-7.42c-0.76-1.43-1.99-2.33-2.63-3.87
									c-0.29-0.77-0.42-1.54-0.51-2.33c-1.19,3.2-3.09,6.04-4.09,9.28c-0.08,0.3-0.57,0.18-0.49-0.13
									c0.94-3.78,2.89-7.03,4.16-10.68c0.04-0.11,0.08-0.15,0.16-0.22c-0.47-2.22-1.76-3.96-3.2-5.71
									c-0.81-1.01-1.63-1.79-2.56-2.31c-0.41,2.39-2.41,4.65-3.97,6.43c-0.16,0.23-0.53-0.09-0.38-0.31
									c0.75-1.01,1.35-2.09,1.99-3.14c0.6-1.08,1.01-2.29,1.76-3.3c-0.86-0.44-1.92-0.7-3.13-0.73c-2.13-0.14-4.26,0.04-6.43,0.02
									c-0.53-0.01-0.47-0.73,0.02-0.76c4.88-0.25,9.35-1.23,13.02,2.48c0.74,0.78,1.55,1.64,2.25,2.53
									c0.13-0.49,0.3-1.02,0.5-1.51c0.2-0.56,0.33-1.2,0.58-1.81c-0.07-0.08-0.15-0.16-0.22-0.23c-2.1-3.63-2.92-7.38-2.81-11.41
									c-0.08,0-0.15,0-0.22-0.08c-0.15-0.08-0.3-0.16-0.45-0.24c-0.11-0.04-0.26-0.04-0.38-0.16c-3.86-1.81-7.9-3.33-12.05-4.2
									c-4.99-1.05-9.47,0.02-14.36,1.03c-0.3,0.07-0.41-0.35-0.1-0.5c4.6-1.4,9.42-2.26,14.22-1.48
									c3.48,0.55,6.91,1.59,10.22,2.97c-1.33-1.41-2.7-2.77-4.27-3.88c-2.35-1.7-5.15-2.38-7.9-3.17
									c-5.2-1.51-10.13-3.81-14.44-7.19c-0.19-0.12,0.01-0.45,0.2-0.34c5.54,3.34,11.22,5.35,17.33,7.19
									c5.06,1.51,8.31,4.86,11.86,8.6c0.15,0.08,0.26,0.12,0.41,0.2c0.01-0.23,0.01-0.46,0.09-0.68
									c-0.23,0.07-0.57-0.05-0.64-0.36c-1.31-5.28-4.56-8.79-6.94-13.49c-1.66-3.23-2.26-6.6-0.91-10.02
									c0.08-0.22,0.46-0.14,0.38,0.08c-2.78,8.79,7.33,14.38,8.38,22.43c0.08-0.08,0.19-0.04,0.27-0.04
									c0.13-0.56,0.71-1.05,1.33-1.33c-0.92-4.17-3.48-7.81-3.06-12.21c0.01-0.3,0.5-0.33,0.45,0.02
									c-0.22,4.29,2.53,7.82,3.41,11.88c0.19-0.03,0.38-0.07,0.54-0.06c0.76-0.06,1.74,0.28,2.21,0.93
									c1.58-2.01-0.27-6.85-1.17-8.81c-0.71-1.61-1.74-3.09-2.34-4.74c-1.46-3.73,0.81-10.24-3.47-12.41
									c-0.3-0.16-0.06-0.61,0.24-0.53c2.11,0.67,3.25,2.18,3.61,4.35c0.57,3.1,0.11,5.82,1.25,8.74
									c-0.23-1.11-0.28-2.25-0.33-3.39c0.03-3.95,0.4-7.71-0.64-11.61c-0.07-0.23,0.28-0.26,0.34-0.11
									c0.84,2.69,1.31,5.28,1.27,8.06c0,2.89-0.11,5.58,0.77,8.23c0.14-0.95,0.43-1.89,0.8-2.83c0.69-1.77,1.72-3.41,2.34-5.26
									c0.45-1.32,0.53-2.72,0.87-4.08c0.21-0.87,0.59-2.04,1.15-3.16c-0.7-2.07-2.33-3.71-3.77-5.39
									c-1.55-1.79-3.24-2.41-5.52-2.77c-0.6-0.09-1.21-0.26-1.81-0.43c0.01,1.26-0.07,2.51,0.17,3.77
									c0.03,0.27-0.31,0.38-0.42,0.1c-0.42-1.3-0.76-2.76-0.54-4.08c-1.92-0.7-3.72-1.73-5.44-2.77c-0.41-0.28-0.02-0.88,0.4-0.68
									c2.1,1.05,4.2,2.17,6.51,2.65c4.05-0.65,7.03-5.4,11.36-4.03c1.55,0.46,2.6,1.97,3.92,2.81c0.82,0.55,1.61,0.84,2.23,1.66
									c0.7,0.89,0.96,2.49,2.24,2.83c0.42,0.13,0.56,0.51,0.51,0.85c0.11,0.04,0.27,0.12,0.38,0.16c0.57,0.21,1.09,0.3,1.58,0.73
									c1.08,0.83,1.27,2.2,2.08,3.21c0.42,0.05,0.83,0.18,1.24,0.45c1.39,0.91,1.72,2.67,1.9,4.27c4.11-3.08,7.5,4,9.02,6.93
									c1.99,3.82,7.17,10.61,1.87,14.08C-10.09,39.03-10.8,38.29-10.44,37.81z M-73.36,9.1c2.47-2.56,2.81-5.63,6.94-6.58
									c3.1-0.71,6.14-0.48,9.2,0.02c0.53,0.09,1.01-0.66,0.41-0.97c-3.04-1.49-6.73-1.32-9.98-0.54c-4.55,1.06-5.01,4.02-7.16,7.6
									C-74.15,8.96-73.67,9.4-73.36,9.1z M-76.26,19.63c0.96-0.47,1.4-1.03,2.14-1.81c0.11-0.11,0.27-0.26,0.39-0.37
									c0.65,1.61,2.39,3.3,3.45,4.66c1.51,1.9,3.14,3.54,5.16,4.89c0.15,0.08,0.31-0.15,0.19-0.27c-1.59-1.37-3.04-2.82-4.33-4.48
									c-0.7-0.9-1.35-1.82-2.02-2.76c-0.26-0.35-1.77-2.1-1.68-2.48c0.04-0.11-0.03-0.27-0.1-0.34c1.4-1.26,2.28-1.27,4.83-1.47
									c1.91-0.18,2.69-1.15,4.42-1.9c2.89-1.26,5.21,1.35,7.81,2.15c1.85,0.55,3.57,0.25,5.12-0.93c0.51-0.41,0-1.33-0.61-1.12
									c-1.07,0.35-2.07,0.56-3.06,0.45c-0.49-1.46-0.53-2.91-0.79-4.43c-0.27-1.45-0.76-2.83-1.37-4.18
									c-0.07-0.15-0.38-0.08-0.31,0.15c0.64,1.77,1.05,3.6,1.15,5.51c0.05,0.99,0.1,1.9,0.34,2.86c-0.49-0.13-0.94-0.29-1.43-0.49
									c-0.97-0.48-1.91-1.07-2.92-1.45c-1.58-0.57-3.14-0.65-4.68,0.07c-0.46,0.22-0.89,0.55-1.28,0.84
									c-0.14-0.46-0.32-0.88-0.42-1.3c-0.24-0.8-0.49-1.69-0.66-2.49c-0.07-0.23-0.41-0.2-0.42,0.03c0.12,1.3,0.19,3.01,0.8,4.28
									c-0.31,0.22-0.62,0.36-1,0.43c-1.19,0.31-2.35-0.07-3.55,0.4c-1.11,0.39-1.89,1.13-2.64,1.91
									c-0.63-0.66-1.18-1.32-1.66-2.14c-0.14-0.31-0.44-0.69-0.54-1.04c-0.42-1.16,0.16-1.48,0.78-2.22
									c0.35-0.41-0.16-0.95-0.55-0.58c-1.05,0.84-1.39,1.97-0.89,3.2c0.5,1.23,1.22,2.7,2.38,3.38c-0.74,0.85-1.41,1.71-2.38,2.41
									C-77.01,19.23-76.72,19.84-76.26,19.63z M-84.28,41.01c-0.74-0.55-1.49-1.18-2.08-1.88c3.34-1.24,6.53-2.41,10.16-1.86
									c0.19,0.05,0.28-0.33,0.05-0.34c-1.82-0.35-3.68-0.44-5.51-0.26c-1.83,0.18-3.64,1.08-5.29,1.76
									c-0.26-0.43-0.47-0.89-0.65-1.39c-0.35-1.22-0.13-2.32-0.17-3.46c-0.03-0.49-0.17-0.95-0.16-1.41
									c0.01-1.48,0.8-2.75,1.37-4.1c0.16-0.45,0.33-0.98,0.45-1.47c0.22,0.16,0.41,0.28,0.6,0.4c0.71,0.44,1.5,0.72,2.33,0.98
									c0.3,0.08,0.46-0.37,0.13-0.49c-0.76-0.24-1.43-0.72-2.02-1.19c-0.26-0.2-0.52-0.47-0.74-0.7c0.21-0.8,0.5-1.51,1.08-2.14
									c1.69-1.89,4.42-1.82,6.69-2.56c0.73-0.25,0.72-1.35-0.15-1.41c-2.55-0.1-5.49,0.61-7.41,2.43
									c-0.74,0.7-1.33,1.48-1.66,2.46c-0.58,1.66-1.11,3.13-1.8,4.74c-0.36,0.79-0.42,1.28-0.29,2.12c0.18,1.6,0.71,3.4,0.97,5.01
									c0.47,2.45,1.83,3.96,3.81,5.35C-84.27,41.73-83.98,41.24-84.28,41.01z M-70.27,51.57c1-0.35,1.74-0.98,2.59-1.57
									c2.06-1.43,4.45-2.66,6.9-3.35c3.83-1.11,8.01,0.78,11.84,0.92c0.76,0.02,0.91-1.08,0.19-1.29
									c-2.91-0.88-6.5-1.54-9.54-1.55c-2.67,0.01-5.32,1.11-7.67,2.31c-3.28,1.7-5.87,4.74-9.85,2.82
									c-3.3-1.61-3.76-5.77-6.79-7.71c-0.41-0.28-0.89,0.32-0.55,0.67c2.48,2.31,3.07,6.05,5.91,7.95
									C-75.22,52.13-72.49,52.43-70.27,51.57z M-155.46,46.94c-0.08,0.08-0.12,0.11-0.16,0.15c-0.04,0.04-0.08,0.15-0.11,0.19
									c1.77,0.46,3.64,0.55,5.45,0.98c2.27,0.51,4.26,1.59,6.24,2.67c2.66,1.48,5.32,2.88,8.22,3.83
									c2.68,0.86,5.48,1.09,8.16,1.89c0.54-0.21,1.07-0.43,1.61-0.64c-3.49-0.32-6.93-2.39-10.02-3.69
									c-5.23-2.16-10.63-3.7-15.85-5.71c-0.22-0.08-0.14-0.46,0.13-0.41c4.87,1.31,9.73,2.92,14.47,4.64
									c4.48,1.6,8.49,3.8,13.28,4.16c0.85-0.51,1.59-1.14,2.26-1.92c0.11-0.11,0.23-0.3,0.35-0.41c-1.36-0.19-2.72-0.61-3.96-1.14
									c-1.54-0.61-3.26-1.95-5.01-1.69c-0.27,0.03-0.33-0.35-0.1-0.42c1.45-0.34,2.62,0.19,3.97,0.76
									c1.92,0.78,3.84,1.17,5.85,1.56c1.1-1.34,2.16-2.34,4.11-2.85c-0.38-0.16-0.79-0.29-1.13-0.41
									c-1.25-0.38-2.53-0.64-3.79-0.48c-0.27,0.03-0.37-0.39-0.1-0.42c1.19-0.23,2.52-0.24,3.84-0.01
									c-2.82-1.1-5.06-2.69-6.97-5.24c-0.04-0.04-0.07-0.08-0.11-0.12c-2.56-1.13-5.45-0.75-8.16-0.56
									c-3.09,0.26-6.14,0.71-9.16,1.28c-0.34,0.03-0.48-0.43-0.14-0.54c3.37-0.97,6.81-1.57,10.31-1.85
									c1.94-0.14,4-0.39,5.93,0.08c-0.73-0.85-1.51-1.68-2.41-2.23c-0.97-0.56-2.15-0.63-3.17-0.92c-0.53-0.17-1.02-0.3-1.47-0.54
									c-3.19,1.25-6.57,1.2-9.79,2.1c-2.68,0.77-4.4,2.7-6.65,4.16C-151.6,44.61-153.89,44.93-155.46,46.94z M-130.42,34.84
									c-1,0.35-1.85,0.71-2.77,0.99c0.19,0.04,0.3,0.16,0.38,0.32c1.21,0.41,2.38,0.56,3.7,1.01c1.24,0.45,2.36,1.39,3.29,2.29
									c1.67,1.53,2.86,3.72,4.77,4.95c1.34,0.88,2.93,1.38,4.43,2.02c-0.25-0.5-0.43-1-0.72-1.46c-0.94-1.63-2.52-2.66-4.01-3.6
									c-0.22-0.16-0.03-0.49,0.2-0.34c1.46,0.76,2.85,1.52,3.92,2.81c0.77,0.97,1.31,2.16,1.85,3.28l0.04,0.04
									c0.15,0.08,0.18,0.19,0.26,0.27c-0.43-2.1-0.88-4.2-1.62-6.24c-1.72-2.52-5.25-4.13-8.04-4.81
									c-0.23-0.08-0.15-0.39,0.12-0.34c1.93,0.47,4.61,1.19,6.63,2.53c-1.17-1.7-2.74-2.73-4.93-3.4
									C-125.35,34.25-127.89,33.99-130.42,34.84z M-113.7,46.31c0,0.08,0.03,0.19,0.03,0.27c0.68,0.02,1.47,0.3,2.08,0.47
									c1.06,0.26,2.16,0.47,3.21,0.73c0.27,0.05,0.18,0.42-0.05,0.42c-1.1-0.07-2.12-0.21-3.18-0.39
									c-0.6-0.09-1.33-0.15-1.93-0.32c0.03,0.34-0.17,0.6-0.44,0.71c0.04,0.04,0.04,0.04,0.04,0.11c0.8,0.14,1.55,0.31,2.34,0.44
									c1.52,0.19,3.07,0.42,4.59,0.61c0.19,0.05,0.18,0.35-0.01,0.31c-1.79-0.09-3.57-0.17-5.35-0.33
									c-0.57-0.05-1.21-0.03-1.85-0.17c-0.08,0.15-0.2,0.34-0.28,0.49c2.55-0.05,4.99,1.05,7.55,0.7
									c1.49-0.23,2.69-1.15,4.07-1.64c-0.68-0.17-1.36-0.27-2.04-0.51c-1.02-0.37-1.95-0.97-3.09-1.22
									C-109.9,46.56-111.89,46.74-113.7,46.31z M-114.95,47.72l0.01-0.07c-0.01,0.15-0.08,0.3-0.13,0.42
									c0.08-0.08,0.16-0.15,0.19-0.19C-114.92,47.84-114.92,47.76-114.95,47.72z M-118.8,54.99c-1.08,0.73-2.43,1.34-3.06,2.01
									c-0.19,0.18-0.53-0.09-0.33-0.28c0.63-0.9,1.41-1.33,2.29-1.88c1.13-0.77,1.68-1.44,2.31-2.64
									c0.08-0.15,0.23-0.15,0.39-0.07c0.52-1.01,0.96-2.03,1.45-2.93c-0.11-0.04-0.3-0.08-0.42-0.13
									c-0.01,0.08-0.04,0.19-0.12,0.19c-3.65,1.23-4.16,4.76-7.1,6.73c-1.78,1.17-4.06,2.44-6.31,2.88
									c0.41,0.28,0.78,0.59,1.34,0.87c1.88,0.81,5.58-1.14,7.24-2.2C-120.22,56.93-119.47,56.08-118.8,54.99z M-135.37,57.82
									c1.38-0.34,2.86-0.49,4.27-0.49c-0.53-0.09-1.06-0.18-1.59-0.34c-0.04,0.04-0.04,0.04-0.11,0.03
									c-1.49,0.23-3.16,0.03-4.59-0.23c-1.4-0.23-2.6-1.02-4-1.25c-0.26-0.04-0.25-0.42,0.01-0.38c1.37,0.04,2.65,0.68,3.97,0.83
									c0.61,0.09,1.22,0.04,1.83,0.05c-2.15-0.78-4.25-1.82-6.2-2.79c-0.87,0.02-1.82-0.2-2.65-0.38
									c-1.21-0.26-2.45-0.64-3.66-1.05c-0.19-0.04-0.1-0.34,0.08-0.3c1.09,0.22,2.23,0.48,3.33,0.62
									c0.34,0.05,0.68,0.09,1.02,0.15c-1.95-1.04-3.9-2.16-6.01-2.82c0.39,1.04,0.14,2.02,0.26,3.24c0.4,3.7,4.13,5.05,7.36,4.95
									c-0.15-0.31-0.29-0.69-0.35-1.07c-0.06-0.61,0.82-0.85,0.92-0.2C-140.71,59.7-137.47,58.34-135.37,57.82z M-157.53,47.5
									c-0.34-0.2-0.17-0.73,0.13-0.72c0.24-0.53,0.83-1.01,1.07-1.53c0.4-0.75,0.49-1.51,0.33-2.39c-0.1-0.34,0.47-0.6,0.61-0.21
									c0.32,0.81,0.45,1.72,0.39,2.6c0.94-0.81,2.13-1.28,3.44-1.93c0.46-0.21,0.85-0.51,1.28-0.76
									c-0.34-0.05-0.65-0.06-0.95-0.07c-0.65-0.05-1.29-0.03-1.94-0.17c-0.19-0.04-0.18-0.34,0.01-0.38
									c1.15-0.2,2.4-0.05,3.57,0.02c0.74-0.55,1.44-1.14,2.18-1.69c-0.72,0.02-1.41,0-2.13,0.02c-1.75,0.03-4.4-0.49-5.43,1.3
									c-0.32,0.53-1.07,0.05-0.82-0.48c0.72-1.42,2.21-1.65,3.65-1.61c1.86,0.09,3.72,0.18,5.58,0.19
									c0.35-0.26,0.73-0.47,1.13-0.69c3.32-1.81,7.23-1.9,10.8-2.83c-0.04-0.04-0.08-0.08-0.11-0.12c-0.07,0-0.11-0.04-0.11-0.11
									c-0.07-0.08-0.19-0.2-0.3-0.23c-0.22-0.23,0.09-0.61,0.39-0.45c0.19,0.12,0.38,0.24,0.6,0.32c2.26-0.44,4.2-1.98,6.64-2.15
									c2.25-0.13,4.9,0.17,7.01,0.98c4.22,1.64,5.83,6.69,6.67,11.02c2.13,0.13,4.37,0.15,6.41,0.74
									c1.36,0.42,2.56,1.13,3.95,1.44c0.83,0.17,1.55,0.23,2.3,0.7c0.04,0.04,0.04,0.04,0.04,0.04c0.3,0.01,0.48,0.28,0.44,0.55
									c8.2,0.52,16.71,4.82,23.28,9.63c1.26-1.41,2.69-2.7,4.21-3.92c3.42-2.72,6.11,0.35,9.82-0.27
									c0.95-0.17,1.33,1.32,0.38,1.49c-1.34,0.23-2.47,0.05-3.76-0.29c-1.85-0.46-3.09-0.77-4.52-0.01
									c0.15,0.08,0.22,0.23,0.18,0.42c-0.53,1.32-0.53,2.72-0.6,4.13c-0.04,1.59-0.01,3.19,0.18,4.8
									c-0.01,0.22-0.31,0.29-0.34,0.1c-0.26-1.83-0.47-3.7-0.54-5.57c-0.05-0.99-0.24-2.44,0.31-3.34
									c-0.15,0.15-0.31,0.22-0.46,0.37c-1.09,0.89-2.57,2.14-3.78,3.51c-0.08,0.22-0.24,0.45-0.47,0.52
									c-0.86,0.96-1.54,1.97-1.83,2.92c-0.62,2-0.57,4.47-0.67,6.56c-0.26,5.51,1.26,9.69,4.84,13.93
									c2.1,2.53,4.46,5.25,4.21,8.74c-0.01,0.22-0.39,0.29-0.46,0.06c-0.94-6.07-6.49-8.81-8.71-14.19
									c-1.64-3.99-1.52-8.63-1.14-12.84c0.21-2.13,0.98-3.97,2.09-5.61c-3.6-1.77-6.92-4.18-10.48-5.98
									c-4.02-2.05-7.85-3.59-12.2-4.51c-2.03,0.67-3.93,1.95-6.06,2.05c-2.32,0.13-5.39-0.45-7.49-1.27l-0.04-0.04
									c-1.04,1.87-2.04,3.71-2.96,5.63c-0.73,1.57-1.73,2.08-3.35,2.88c-1.69,0.79-4.13,2.21-5.99,2.2
									c-1.64-0.01-2.32-1.51-3.83-1.78c-0.08,0-0.11-0.04-0.11-0.04c-0.07,0-0.19,0.03-0.3-0.01c-0.46-0.02-0.59-0.63-0.21-0.84
									c0.19-0.11,0.39-0.22,0.62-0.29c-1.45,0.04-2.82,0.23-4.2,0.57c-1.19,0.31-2.39,1.01-3.64,1.08
									c-1.15,0.05-2.08-0.47-2.7-1.29c-1.99,0.4-5.09-0.06-6.61-1.51c-0.82-0.78-1.47-1.94-1.79-2.97
									c-0.45-1.49-0.1-3.08-0.91-4.47c-0.07-0.08-0.07-0.16-0.07-0.23c-0.03-0.04-0.07,0-0.11-0.04
									c-1.93-0.39-3.82-0.52-5.67-1.21c-0.34-0.05-0.6-0.17-0.75-0.4C-157.42,47.54-157.49,47.54-157.53,47.5z M-100.09,139.32
									c-4.32-0.65-8.25-2.99-10.7-6.59c-2.53-3.68-3.02-7.88-2.42-12.16c0.23-1.4,0.49-2.76,0.38-4.21
									c-0.08-1.26-0.58-2.56-0.47-3.85c0.12-1.59,0.92-2.86,2.08-3.9c0,0,0,0,0.04-0.04c-3.43-1.12-6.07-4.76-7.16-8.03
									c-0.77-2.38-0.67-4.92-1.09-7.41c-0.43-2.4-1.17-4.74-1.29-7.22c-0.23-4.22,1.53-8.63,5.09-11.04
									c2.13-1.43,4.38-1.63,6.85-1.98c3.32-0.48,5.54-2.44,7.77-4.77c0.78-0.82,1.96,0.43,1.18,1.24
									c-1.84,1.97-3.59,3.48-5.78,4.45c3.16,1.07,6.09,2.67,8.73,4.83c0.19,0.12-0.05,0.42-0.24,0.3
									c-1.82-1.38-3.66-2.53-5.88-3.31c-1.32-0.45-2.64-0.83-3.95-1.36c-0.58,0.17-1.22,0.35-1.88,0.45
									c-4.89,0.7-8.67,2.73-10.06,7.9c1.73,0.81,3.49,1.5,5.22,2.23c0.22,0.08,0.14,0.46-0.09,0.38
									c-0.97-0.33-1.95-0.66-2.97-1.03c-0.76-0.25-1.62-0.46-2.3-0.86c-0.14,0.88-0.23,1.78-0.22,2.66
									c0.73,1.24,4.31,2.44,5.32,2.88c1.58,0.65,3.24,1.23,4.82,1.88c0.23,0.08,0.14,0.39-0.08,0.3
									c-2.46-0.56-4.91-1.42-7.23-2.47c-0.64-0.29-1.96-0.74-2.78-1.37c0.23,2.74,0.92,5.57,0.99,8.24
									c0.04,1.45,0.22,2.97,0.6,4.46c0.6,0.24,1.2,0.56,1.88,0.73c0.8,0.21,1.67,0.35,2.51,0.3c0.34-0.03,0.29,0.46-0.02,0.53
									c-1.3,0.12-2.81,0-4.09-0.57c0.18,0.5,0.31,0.96,0.53,1.42c0.08-0.07,0.23-0.07,0.42-0.03c1.73,0.81,3.56,0.63,5.38,0.6
									c1.98-0.02,3.95,0.18,5.77-0.8c0.19-0.11,0.38,0.24,0.18,0.34c-1.78,1.02-3.68,0.97-5.66,1.07
									c-1.91,0.1-3.89,0.28-5.69-0.38c1.52,2.93,4.08,5.09,7.96,5.04c0.45,0.01,0.4,0.66-0.02,0.68c-0.76,0.06-1.48,0-2.2-0.21
									c0.04,0.11,0.03,0.27-0.05,0.34c-1.17,1.19-1.54,2.28-1.57,3.42c1.97-1.05,4.15-1.64,6.39-1.69c0.16,0,0.19,0.27,0.03,0.34
									c-2.25,0.36-4.4,1.06-6.37,2.26c0.09,0.88,0.26,1.83,0.38,2.9c0.11,1.6-0.16,3.19-0.36,4.78c-0.16,1.63-0.08,3.27,0.21,4.83
									c2.53-2.1,5.27-3.51,8.27-4.88c0.27-0.1,0.45,0.24,0.18,0.35c-2.93,1.59-5.71,3.27-8.21,5.48c0.59,2.1,1.6,4.11,3.08,5.82
									c0.04,0.04,0.04,0.04,0.07,0.08c1.32-1.03,2.72-2.06,3.96-3.17c0.23-0.22,0.57,0.13,0.33,0.35
									c-1.25,1.18-2.46,2.33-3.82,3.4c2.82,2.89,6.84,4.47,10.88,4.35c1.03-0.01,2.1-0.29,3.2-0.22c2.46-1.22,4.3-4.3,5.91-6.34
									c0.12-0.18,0.42-0.03,0.33,0.2c-1.19,1.87-2.38,3.74-3.79,5.38c-0.35,0.41-0.74,0.78-1.13,1.07
									c1.39,0.68,2.75,2.35,4.17,1.82c0.84-0.28,1.23,0.98,0.49,1.38c-1.28,0.77-2.41,0.43-3.56-0.4
									C-94.34,138.83-97.03,139.83-100.09,139.32"/>
							</g>
						</g>
					</g>
				</g>
			</g>
		</g>
	</g>
</g>
</svg>
