<?xml version="1.0" encoding="utf-8"?>
<!-- Generator: Adobe Illustrator 23.0.1, SVG Export Plug-In . SVG Version: 6.00 Build 0)  -->
<svg version="1.1" id="Layer_1" xmlns="http://www.w3.org/2000/svg" xmlns:xlink="http://www.w3.org/1999/xlink" x="0px" y="0px"
	 viewBox="0 0 138.67 206.67" style="enable-background:new 0 0 138.67 206.67;" xml:space="preserve">
<style type="text/css">
	.st0{clip-path:url(#SVGID_2_);}
	.st1{clip-path:url(#SVGID_4_);}
	.st2{clip-path:url(#SVGID_6_);}
	.st3{fill:#907D4F;}
</style>
<g>
	<defs>
		<rect id="SVGID_1_" width="138.67" height="206.67"/>
	</defs>
	<clipPath id="SVGID_2_">
		<use xlink:href="#SVGID_1_"  style="overflow:visible;"/>
	</clipPath>
	<g class="st0">
		<g>
			<defs>
				<rect id="SVGID_3_" x="-0.18" y="1.32" transform="matrix(0.997 -0.077 0.077 0.997 -12.6 7.955)" width="194" height="332"/>
			</defs>
			<clipPath id="SVGID_4_">
				<use xlink:href="#SVGID_3_"  style="overflow:visible;"/>
			</clipPath>
			<g class="st1">
				<g>
					<defs>
						<rect id="SVGID_5_" x="-0.18" y="1.32" transform="matrix(0.997 -0.077 0.077 0.997 -12.6 7.955)" width="194" height="332"/>
					</defs>
					<clipPath id="SVGID_6_">
						<use xlink:href="#SVGID_5_"  style="overflow:visible;"/>
					</clipPath>
					<g class="st2">
						<path class="st3" d="M179.27,112.37c0.13-0.08,0.21,0.18,0.08,0.26c-0.65,0.25-1.21,0.63-1.71,1.06
							c-0.5,0.38-0.85,0.93-1.3,1.3c-0.18,0.15-0.41-0.1-0.35-0.31c0.29-0.55,0.92-1.07,1.42-1.44
							C177.91,112.94,178.55,112.63,179.27,112.37z M140.69,96.06c-0.27-0.05-0.23-0.45,0.04-0.4c2.14,0.1,3.76-1.29,5.79-1.65
							c1.91-0.28,3.71,0.65,5.64,0.7c0.33-0.03,0.51,0.49,0.11,0.59c-2.21,0.57-4.2-1.01-6.55-0.36
							C143.9,95.35,142.57,96.31,140.69,96.06z M50.17,291.55c-0.76,3.98-2.33,7.7-3.16,11.68c-0.77,3.79-0.34,7.61-1.11,11.4
							c-0.84,3.79-2.55,7.51-3.86,11.14c-1.31,3.69-2.47,7.57-4.06,11.15c0.14,0.13,0.29,0.24,0.43,0.43
							c0.36,0.44-0.18,1.15-0.65,1.05c-0.95-0.2-1.8-0.93-2.57-1.47c-0.78-0.54-1.48-1.08-2.26-1.62c-0.23,0.48-1.04,0.28-0.89-0.27
							c1.3-5.62,2.72-11.25,4.22-16.82c-0.22-0.32-0.13-0.85,0.26-0.95c3.23-11.56,7.07-22.96,11.54-34.08
							c0.16-0.47,0.85-0.13,0.69,0.35c-4.27,11.1-7.98,22.36-11.23,33.72c0.67,0.02,1.33-0.04,1.91-0.21
							c0.45-0.17,0.7,0.54,0.26,0.71c-0.52,0.24-0.97,0.41-1.49,0.51c-0.32,0.09-0.66,0.12-0.99,0.08
							c-1.52,5.3-2.9,10.67-4.08,16.08c0.9,0.46,1.86,0.85,2.76,1.32c0.28,0.18,0.63,0.29,0.9,0.46c0.99-3.53,2.45-6.97,3.72-10.4
							c1.54-4.24,3.72-8.73,4.17-13.22c0.76-7.38,1.21-14.53,4.82-21.19C49.72,290.98,50.28,291.21,50.17,291.55z M163.78,149.48
							c0.04,0.46-0.62,0.58-0.79,0.19c-0.88-1.86-4.95-2.94-6.76-3.07c-1.2-0.11-2.58,0.2-3.94,0.64c0.34,0.11,0.61,0.22,0.78,0.54
							c0.23,0.39,0.17,0.45,0.14,0.99c-0.03,0.47,0,0.8-0.04,1.2c0.06-0.07,0.13-0.07,0.19-0.15c2.43-0.45,4.88-0.58,7.35-0.37
							c0.2,0.05,0.23,0.38-0.04,0.4c-2.46-0.01-4.91,0.18-7.27,0.63c-0.07,0.01-0.2,0.02-0.21-0.05c0.02,0.27,0.11,0.53,0.2,0.79
							c0.73,0.07,1.4,0.09,2.12-0.1c0.26-0.09,0.35,0.31,0.16,0.39c-0.65,0.19-1.38,0.31-2.04,0.29c0.07,0.13,0.08,0.26,0.16,0.39
							c0.47,0.16,1.2,0.11,1.54,0.08c0.73,0.01,1.4-0.04,2.12-0.1c0.33-0.03,0.3,0.44,0.04,0.46c-0.99,0.14-2.05,0.22-3.04,0.23
							c-0.07,0.01-0.2,0.02-0.27,0.02c0.24,0.52,0.35,1.04,0.06,1.59c-0.11,0.28-0.43,0.44-0.55,0.71c-0.05,0.2-0.03,0.41-0.08,0.61
							c0.33,0.04,0.73,0.01,1.2,0.04c3.11-0.17,5.48-2.22,7.66-4.25c0.25-0.22,0.6,0.09,0.43,0.36c-2.35,3.11-6.51,5.3-10.07,4.91
							c-0.13,0.07-0.26,0.02-0.4-0.04c-2.36-0.35-4.4-1.85-5.51-4.9c-0.18-0.58,0.59-0.98,0.9-0.47c1.35,2.03,2.68,3.65,4.85,4.21
							c0.3-0.48,0.58-1.17,0.69-1.45c0.22-0.55,0.05-1.14-0.19-1.65c0,0-0.01-0.06-0.07-0.06c-0.01-0.07-0.01-0.07-0.01-0.14
							c-0.08-0.19-0.23-0.45-0.32-0.64c-0.07-0.06-0.2-0.05-0.27-0.11c-0.2-0.05-0.17-0.45,0.1-0.41c-0.18-0.59-0.22-1.11-0.27-1.78
							c-0.03-0.4,0.11-1.07-0.3-1.31c-0.14-0.06-0.48-0.16-0.81-0.2c-1.29,0.56-2.43,1.32-3.23,2.18c-0.31,0.29-0.88-0.13-0.57-0.48
							c0.8-0.8,1.87-1.61,2.96-2.22c0.06-0.07,0.12-0.15,0.25-0.16l0.07-0.01c1.98-1.02,4.33-1.67,6.41-1.43
							C158.97,145.86,163.57,146.84,163.78,149.48z M167.4,102.52c-1.51-2.28-1.31-4.89-1.38-7.55c-0.01-1.8-0.62-4.6,0.39-6.15
							c1.01-1.6,4.21-3.18,5.89-3.84c1.22-0.49,2.34-0.71,3.03,0.49c0.16,0.26-0.15,0.61-0.43,0.37c-1.71-1.46-4.73,0.77-5.98,1.86
							c-1.93,1.68-2.15,3.16-2.1,5.48c0.04,1.33,0.01,2.66,0.04,3.99c0.5-0.44,1.05-0.15,1.67,0.07l0.07-0.01
							c-0.13-2.45,0.42-4.96,1.51-7.17c0.11-0.28,0.59-0.11,0.42,0.23c-0.95,2.33-1.31,4.56-1.25,7.08
							c0.27,0.05,0.54,0.09,0.74,0.14c0.07-0.01,0.07,0.06,0.14,0.06c-0.23-1.24,0.2-2.54,0.65-3.71c0.11-0.21,0.46-0.1,0.41,0.1
							c-0.37,1.3-0.2,2.55-0.3,3.89c0,0,0,0,0.01,0.07c0.35,0.17,0.69,0.34,1.02,0.18c0.64-0.31,0.91-1.07,1.73-0.8
							c0.07,0.06,0.14,0.06,0.21,0.11c1.01-2.47,2.08-4.88,3.16-7.36c0.11-0.21,0.46-0.1,0.41,0.1c-0.79,2.66-1.78,5.32-2.98,7.88
							c0.16,0.39,0.26,0.78,0.29,1.11c1.13-0.95,2.16-2.16,3.12-3.5c1.45-1.91,1.77-2.93,1.32-5.35c-0.11-0.59-1.24-6.56-3.43-3.99
							c-0.31,0.36-0.81-0.07-0.5-0.42c3.41-4.06,4.95,3.81,5.13,6.12c0.17,2.25-1.92,4.47-3.26,6.1c-1.45,1.84-3.36,3.85-5.9,3.71
							c-0.4-0.04-0.58-0.62-0.12-0.72c1.23-0.36,2.27-0.84,3.21-1.51c-0.14-0.06-0.21-0.11-0.22-0.31s-0.03-0.4-0.11-0.59
							c-0.2,0.02-0.41-0.17-0.36-0.44c-0.14-0.05-0.28-0.11-0.48-0.16c-0.12,0.14-0.31,0.29-0.43,0.43
							c-0.12,0.15-0.25,0.22-0.37,0.36c-0.32,0.22-0.64,0.32-0.98,0.21c-0.89-0.2-1.27-0.9-2.27-0.96
							c-0.07,0.01-1.54-0.15-1.48-0.28c-0.12,0.21-0.31,0.29-0.52,0.24c0.11,1.39,0.41,2.69,1.04,3.97
							C168.2,102.58,167.62,102.83,167.4,102.52z M183.89,115.34c-1.7,1.2-6.42,3.89-8.18,1.77c0,0,0.01,0.06-0.06,0.07
							c-1.42,1.38-3.38,1.86-5.21,2.27c-1.51,0.32-2.81,0.61-4.16,1.32c-0.7,0.32-1.28,0.7-2.06,0.82c-0.46,0.1-0.45-0.63-0.05-0.66
							c1.83-0.34,3.47-1.59,5.3-2c2.15-0.5,3.89-1.3,5.96-2.06c0.06-0.01,0.13-0.01,0.13-0.01c-0.01-0.14,0.05-0.27,0.17-0.41
							c-0.01-0.14,0.05-0.21,0.18-0.28c2.56-1.33,5.08-2.26,7.32-4.22c0.12-0.15,0.41,0.1,0.21,0.25c-1.86,1.74-4.24,3.58-6.78,4.31
							c1.73,0.93,5.31-1.01,6.71-1.85c2.54-1.53,4.96-3.77,4.18-7.04c-0.09-0.33,0.36-0.49,0.45-0.17
							C189.37,110.59,186.22,113.7,183.89,115.34z M178.33,107.19c3.2-2.44,6.13-3.27,9.45-0.73c0.42,0.3-0.13,0.88-0.55,0.64
							c-2.81-1.91-5.49-1.31-8.07,0.63c-1.51,1.11-3.42,3.13-3.79,5.15c1.51-2.05,3.92-3.49,6.34-4.02c0.2-0.02,0.29,0.24,0.09,0.33
							c-2.93,0.82-4.79,2.56-6.47,4.95c0.02,0.27,0.11,0.59,0.27,0.84c0.16,0.32-0.23,0.48-0.51,0.38c0,0,0.01,0.06-0.06,0.07
							c-1.55,1.39-3.63,2.08-5.49,2.95c-1.6,0.72-3.2,1.65-4.97,1.05c-0.34-0.1-0.19-0.71,0.15-0.67l-0.01-0.07
							c0.28-1.62,0.61-3.31,1.16-4.81c0.43-1.3,1.28-2.36,1.57-3.71c0.65-2.78,1.05-5.33,2.73-7.66c0.3-0.49,1.01,0.06,0.77,0.54
							c-0.8,1.72-1.67,3.32-2.2,5.09c-0.26,1.02-0.3,2.15-0.69,3.18c-0.33,0.82-0.94,1.54-1.34,2.36c-0.81,1.59-1.21,3.35-1.54,5.11
							l0.01,0.06c1.75,0.27,3.59-0.81,5.21-1.46c1.55-0.66,3.1-1.17,4.49-2.15c-0.07-0.13-0.22-0.31-0.3-0.44
							c-0.07-0.06-0.15-0.12-0.09-0.26C173.57,111.81,176.51,108.59,178.33,107.19z M146.52,152.61c-4.45,0.08-9.56,0.14-13.53,2.24
							c0.08,0.13,0.09,0.33-0.1,0.47c-5.86,4.18-9.51,10.38-14.94,14.92c-0.06,0.07-0.13,0.07-0.13,0.07
							c-0.8,0.8-1.54,1.65-2.34,2.45c-0.55,0.57-1.1,1.21-1.8,1.73c0.02,0.2-0.04,0.33-0.3,0.42c-0.2,0.02-0.4,0.09-0.52,0.17
							c0,0-0.07,0.01-0.06,0.07c-0.06,0.01-0.13,0.08-0.19,0.08c-2.84,1.08-4.88,3.96-7.13,5.93c-2.17,1.96-4.48,4.01-7.02,5.53
							c1.57,0.48,3.14,0.96,4.63,1.37c2.45,0.74,4.71,1.57,6.27,3.65c0.23,0.38-0.27,0.82-0.56,0.51c-2.79-2.51-6.1-3.19-9.63-4.04
							c-3.45-0.8-6.94-1.99-10.49-2.32c-3.88-0.3-6.55,1.38-9.96,2.77c-2.78,1.08-5.73,1.65-8.64,1.87
							c-0.53,0.04-0.73-0.81-0.2-0.92c4.12-0.92,7.78-1.8,11.56-3.62c2.24-1.1,4.27-1.53,6.53-1.5c2.26-1.84,5.05-1.79,7.63-2.92
							c3.86-1.63,5.49-4.75,7.14-8.34c0.51-1.17,1.24-1.96,1.83-3c1.18-2.02,1.3-3.82,1.06-6.07c-0.13-1.59-0.31-3.17-0.7-4.73
							c-1.64,2.06-4.78,2.7-6.84,4.32c-0.19,0.15-0.48-0.17-0.29-0.31c0.99-0.94,2.14-1.56,3.29-2.18c1.28-0.7,2.41-1.52,3.54-2.4
							c0.06-0.07,0.13-0.08,0.13-0.08c-0.57-2.22-1.53-4.34-3.2-6.14c-0.36-0.44,0.18-1.08,0.55-0.65c2.46,2.6,3.51,5.78,4.04,9.27
							c0.02,0.2,0.03,0.4,0.11,0.59c0.12-1.01,0.3-2.09,0.62-3.11c0.9-2.99,1.55-5.77,1.91-8.93c-0.63,0.45-1.34,0.7-2.21,0.7
							c-0.33,0.03-0.48-0.3-0.44-0.56c-0.07,0.01-0.2,0.02-0.27-0.05c0.14,0.06,0.21,0.18,0.23,0.38c-0.14,0.81-0.34,1.62-0.41,2.43
							c-0.14,0.81-0.14,1.67-0.28,2.42c-0.09,0.54-0.96,0.47-0.94-0.06c-0.06-1.66,0.39-3.56,1.01-5.07
							c0.05-0.14,0.18-0.21,0.31-0.22c-0.96-0.32-1.31-1.49-1.71-2.4c-0.82-2.06-1.79-4.25-1.7-6.45c0.03-0.46,0.63-0.51,0.73-0.05
							c0.57,3.01,1.41,6.14,3.51,8.44c0.07,0.06,0.08,0.13,0.08,0.19c0.13-0.01,0.2-0.02,0.32-0.09c-1.54-2.68-2.18-5.89-1.62-8.92
							c0.05-0.2,0.45-0.23,0.4,0.04c-0.16,3.07,0.39,5.82,1.99,8.49c0.01,0.06,0.01,0.06,0.01,0.13c0.39-0.16,0.7-0.39,0.95-0.6
							c0.31-2.02,0.9-3.93,0.67-6.04c-0.02-0.27,0.38-0.3,0.4-0.03c0.24,1.44,0.43,3.03,0.15,4.51c1.81-3.27,1.39-8.76,1.1-11.59
							c-0.01-0.07-0.01-0.13-0.01-0.13c-5.93,1.59-9.27,9.23-16.31,6.71c-3.08-1.09-3.79-2.5-7.57-2.34
							c-1.66,0.06-3.17,0.25-4.79-0.03c-3.7-0.58-7.36-2.36-10.63-4.17c-0.28-0.11-0.04-0.53,0.17-0.42
							c4.27,1.87,8.63,4.13,13.4,3.89c3.38-0.13,4.82-0.51,7.87,1.12c8.6,4.66,10.9-5.3,18.32-5.67c0.46-0.04,0.51,0.56,0.12,0.72
							c0.07,0.06,0.07,0.06,0.08,0.13c1.13,3.37,0.88,11.38-2.63,14.23c0.77,3.01-0.21,5.94-0.98,8.86
							c-0.63,2.18-1.14,4.21-1.23,6.48c-0.1,1.34,0.03,2.13-0.47,3.36c-0.06,0.14-0.12,0.21-0.19,0.22
							c-0.21,0.68-0.43,1.29-0.85,1.92c-0.95,1.47-1.68,3.19-2.49,4.79c0.07-0.01,0.06-0.07,0.13-0.08
							c5.67-3.23,10.57-7.01,15.13-11.68c3.14-3.23,6.31-6.08,10.21-8.23c0.95-2.27,2.26-4.3,4.13-5.97
							c2.05-1.89,4.45-2.67,6.2-4.94c1.64-2.06,3.15-3.97,5.01-5.84c2.04-2.02,3.59-4.33,5.42-6.41c0.24-0.29,0.49-0.51,0.81-0.73
							c1.05-0.21,1.8-0.8,2.27-1.7c0.42-0.63,0.9-1.27,1.38-1.91c2.11-2.76,3.5-5.52,5.06-8.57c2.71-5.33,7.16-9.8,8.69-15.7
							c0.05-0.27,0.45-0.17,0.41,0.1c-1.35,5.76-5.02,9.96-7.82,14.97c-1.05,1.94-1.74,4.13-2.94,5.94
							c-1.48,2.38-3.76,4.75-5.66,6.82c-3.49,3.86-7.39,7.76-10.58,11.93c-1.76,2.27-2.39,3.51-4.8,5.03
							c-3.24,1.98-5.37,4.54-6.76,8.04c-0.22,0.61-1.04,0.34-1.15-0.18c-4.43,2.87-7.89,6.33-11.51,10.27
							c-3.68,4.07-8.17,7.08-13.02,9.65c-0.45,0.23-0.81-0.14-0.84-0.47c-0.86,1.73-1.8,3.4-3.23,4.71
							c-3.04,2.82-6.9,2.79-10.36,4.39c0.46,0.03,1.01,0.13,1.54,0.21c0.61,0.09,1.22,0.23,1.83,0.39c-0.01-0.07-0.01-0.13-0.02-0.2
							c0.12-1.01,1.07-1.68,1.97-2.08c0.39-0.16,0.63,0.42,0.31,0.64c-0.63,0.45-0.7,1.26-0.91,1.94c0,0,0,0,0.01,0.06
							c1.29,0.3,2.58,0.67,3.87,1.03c-0.08-0.19-0.1-0.39,0.09-0.54c2.86-2.55,5.95-4.78,8.81-7.4c1.73-1.59,3.26-3.38,5.46-4.15
							c0.59-0.98,1.59-1.79,2.46-2.58c0.81-0.73,1.55-1.45,2.36-2.18c0.05-0.14,0.11-0.28,0.23-0.42c5.38-4.41,9.3-10.5,15.12-14.34
							c-0.21-0.18-0.23-0.52,0.02-0.67c3.82-2.16,9.95-2.96,14.2-2.09C146.82,152.13,146.86,152.66,146.52,152.61z M163.72,122.08
							c-4.34,4.99-8.83,9.73-12.74,15.02c-1.99,2.68-4.59,4.34-6.79,6.78c-2.08,2.29-3.96,4.76-5.98,7.05
							c2.95,0.3,5.56-0.36,8.49-1.19c0.26-0.09,0.42,0.36,0.17,0.45c-1.69,0.53-3.43,1.2-5.13,1.59c-1.57,0.32-3.12,0.1-4.67-0.17
							c-0.54-0.09-0.34-0.91,0.14-0.81c0.14,0.06,0.27,0.05,0.4,0.04c2.06-2.68,4.1-5.44,6.44-7.94c2.09-2.22,4.56-3.81,6.43-6.35
							c3.84-5.35,7.69-10.64,12.59-15.21C163.37,120.98,164.15,121.58,163.72,122.08z M74.05,37.56c-0.8-4.33,7.12-5.07,9.89-4.56
							c0.21,0.05,0.16,0.32-0.04,0.34c-2.39,0.05-9.53,0.54-8.98,4.22C75.02,38.02,74.16,38.08,74.05,37.56z M122.32,2.9
							c-0.21-0.11,0.03-0.46,0.24-0.35c1.79,0.8,3.73,1.91,4.35,3.85c0.18,0.59-0.72,0.92-0.9,0.34
							C125.41,4.92,123.86,3.91,122.32,2.9z M101.94,137.77c0.53-0.11,0.59,0.75,0.07,0.86c-2.17,0.37-3.82-0.31-5.69-1.35
							c-1.04-0.58-2.04-1.51-3.21-1.89c-1.7-0.53-2.53-0.07-4.12-0.01c-2.53-0.01-4.83-1.36-7.26-1.83
							c-3.51-0.66-6.65-0.02-9.88,1.3c-0.33,0.09-0.56-0.36-0.24-0.52c4.4-2.47,9.02-2.03,13.66-0.59c2.18,0.69,3.76,0.51,6.02,0.46
							c0.4-0.03,0.8,0.07,1.21,0.1C96.08,135.03,97.94,138.47,101.94,137.77z M44.57,111.47c-0.6-0.95-0.84-1.33-0.53-2.49
							c0.1-0.47,0.78-0.32,0.74,0.15c-0.21,1.61,2.03,3.04,2.79,4.31c0.76,1.2,0.88,2.72,1.77,3.92c1.26,1.7,3.28,2.74,4.91,4.15
							c1.2,0.11,2.38,0.68,3.59,0.92c1.22,0.24,2.49,0.4,3.76,0.44c0.2-0.02,0.16,0.32-0.04,0.34c-1.93-0.05-4.39-0.06-6.31-0.78
							c0.07,0.06,0.08,0.13,0.15,0.12c2.27,2.69,3.97,5.81,7.34,7.21c3.37,1.41,7.2,1.04,10.7,0.7c0.2-0.02,0.33,0.04,0.48,0.17
							c1.96-1.35,4.57-1.95,6.46-3.36c2.77-2.08,6.74-3.11,9.77-1.02c0.28,0.24,0.05,0.66-0.29,0.62c-1.68-0.27-3.19-0.82-4.96-0.55
							c-2.3,0.38-3.46,1.73-5.37,2.81c-1.85,1.01-3.9,1.17-5.48,2.22c-0.05,0.2-0.23,0.35-0.5,0.37c-0.56,0.51-1.05,1.08-1.45,1.97
							c-0.11,0.21-0.45,0.1-0.41-0.1c0.21-0.68,0.56-1.31,0.99-1.8c-3.31,0.26-6.75,0.45-9.91-0.77c-3.29-1.21-5.22-3.85-7.29-6.55
							c-1.41-1.89-2.84-3.24-4.68-4.63c-1.2-0.91-2.06-1.7-2.7-3.11c-0.56-1.22-0.77-2.14-1.59-3.34
							C46.09,113.08,44.88,111.98,44.57,111.47z M43.97,106.26c0.33-2.62,1.19-5.34,3.6-6.8c1.27-0.76,2.72-0.94,4.15-1.39
							c1.82-0.6,3.47-1.53,5.29-2.14c3.1-1.1,6.37-1.03,9.52,0.06c3.76,1.24,6.65,4.34,10.62,4.9c0.27,0.05,0.17,0.39-0.1,0.41
							c-5.9-0.61-10.02-5.68-16.42-4.98c-3.1,0.31-5.55,2.16-8.48,3.05c-0.26,0.09-0.58,0.18-0.85,0.2c2.22,0.36,4.35,1.2,6.4,1.97
							c2.05,0.7,5.97,1.53,7.37,3.22c0.07,0.06,0.02,0.19-0.05,0.2c-0.06,0.01-0.06,0.07-0.13,0.08c-0.07,0.01-0.13,0.01-0.2,0.02
							l-0.07-0.06c-0.14-0.12,0.04-0.33,0.18-0.21c-0.85-0.73-3.15-1.22-4.25-1.67c-1.37-0.49-2.74-0.99-4.1-1.42
							c-2.38-0.68-4.76-1.36-7.23-1.57c-0.52,0.17-1.1,0.42-1.54,0.72c-0.88,0.67-1.35,1.5-1.74,2.4c2.76,0.39,5.53,0.97,8.23,1.49
							c0.27,0.05,0.17,0.45-0.1,0.41c-2.76-0.39-5.64-0.69-8.41-1.21c-0.26,0.88-0.46,1.76-0.66,2.58
							C44.91,107.25,43.9,107,43.97,106.26z M79.2,99.15c0.07-0.01,0.07-0.01,0.14-0.01C79.34,99.14,79.27,99.15,79.2,99.15z
							 M81.13,101.59c4.19-0.06,6.33,3.64,7.92,7.04c0.16,0.26,0.54,0.09,0.39-0.16c-0.24-0.58-0.56-1.22-0.88-1.93
							c1.57,2.21,3.25,4.2,5.15,6.39c1.98,2.31,3.5,4.79,4.89,7.34c-2.59-3.46-5.01-7.13-8.42-9.93c-0.03-0.33-0.24-0.65-0.59-0.82
							c-0.21-0.12-0.54-0.09-0.8,0.06c-0.2,0.02-0.33,0.09-0.45,0.23c-0.3,0.42-0.39,0.96-0.03,1.4c0.3,0.38,0.77,0.41,1.15,0.18
							c0.13-0.07,0.26-0.15,0.38-0.29c4.03,3.94,6.51,10.2,10.61,14.21c-5.03-1.41-10.09-4.88-13.03-8.57
							C84.12,112.8,82.73,106.86,81.13,101.59z M101.11,114.08c-3.95-4.68-7.01-9.77-9.69-15.28c0.13-0.14,0.24-0.35,0.22-0.61
							c-0.01-0.13-0.02-0.27-0.1-0.39c-0.01-0.13-0.08-0.26-0.16-0.32c-0.16-0.32-0.63-0.42-0.95-0.32
							c0.06-0.07,0.05-0.14,0.11-0.21c0.14-4.2-1.24-8.35-0.49-12.4c0.16,0.26,0.37,0.44,0.64,0.48c0.14,0.13,0.34,0.17,0.55,0.22
							c2.78,6.64,5.6,13.14,8.31,19.78c0.99,2.45,2.04,4.9,2.9,7.43c0.13,0.85,0.26,1.64,0.39,2.49c0.02,0.27,0.29,0.31,0.48,0.23
							c0.29,1.11,0.5,2.16,0.72,3.27C103.19,116.92,102.29,115.53,101.11,114.08z M110.19,123.96c0.36-0.43,0.73-0.85,1.1-1.28
							c0.08,0.13,0.28,0.18,0.41,0.17c-0.05,0.27,0.31,0.51,0.62,0.29c0.19-0.15,0.31-0.36,0.49-0.51l0.01,0.07
							c-0.05,0.27,0.11,0.52,0.25,0.65c-0.54,0.77-1.15,1.55-1.82,2.2c-0.07,0.01-0.13,0.07-0.19,0.15
							c-0.13,0.08-0.19,0.15-0.31,0.29c-1.01,0.81-2.3,1.24-3.61,1.54c0.23-0.42,0.53-0.91,0.77-1.32
							C108.71,125.47,109.52,124.74,110.19,123.96z M113.53,122.37c-0.01-0.06-0.01-0.06-0.01-0.06L113.53,122.37z M98.8,127.17
							c-1.93,0.02-3.88-0.23-5.71-0.69c-0.02-0.27-0.17-0.45-0.31-0.64c-0.01-0.07-0.07-0.06-0.14-0.06
							c1.63,0.34,3.36,0.47,5.22,0.4c0.14-0.01,0.19-0.08,0.26-0.16c0.96,0.4,1.79,0.8,2.61,1.13
							C100.13,127.13,99.46,127.18,98.8,127.17z M91.71,126.65C91.77,126.65,91.64,126.66,91.71,126.65z M92.08,122.9
							c1.33,0.9,2.72,1.65,4.23,2.27c-0.73-0.07-1.47-0.15-2.21-0.22C93.39,124.26,92.73,123.58,92.08,122.9z M122.31,91.49
							c0.26-0.09,0.51-0.37,0.34-0.76c-2.01-3.5-1.61-7.85-1.84-11.76c-0.19-3.38-0.45-6.75-0.65-10.13c0.2,0.05,0.41,0.1,0.59-0.05
							c0.06-0.07,0.13-0.08,0.19-0.15c0.69,8.06,1.84,16.15,2.2,24.24c-0.13,0.07-0.26,0.08-0.32,0.16
							C122.66,92.53,122.55,92.01,122.31,91.49z M117.42,61.68c0.2,0.05,0.47,0.03,0.67,0.08c-0.03,1.33,0.35,2.83,0.71,4.07
							c0.08,0.26,0.54,0.16,0.52-0.11c-0.2-0.85-0.32-1.64-0.46-2.49c-0.04-0.46-0.07-0.99-0.11-1.45c0.6,0.02,1.2,0.04,1.79-0.01
							c0.14-0.01,0.2-0.02,0.26-0.08c-0.19,1.01-0.24,2.08-0.42,3.09c-0.05,0.27,0.36,0.38,0.4,0.1c0.31-1.16,0.68-2.38,0.79-3.58
							c0.72-0.13,1.37-0.31,1.95-0.62c-0.3,1.35-0.72,2.71-1.36,3.9c-0.57,1.18-1.57,2.12-2.21,3.23
							C117.93,66.63,117.46,64,117.42,61.68z M109.03,55.54c-0.22-0.32-0.38-0.64-0.54-0.89c-0.01-0.07-0.02-0.2-0.08-0.26
							c-0.01-0.07-0.07-0.06-0.08-0.13c-1.26-2.5-1.74-5.39-3.9-7.42c-1.22-1.17-2.85-1.64-4.19-2.6c-2.18-1.56-3.35-3.73-4.4-6.11
							c-1.39-3.29-5.09-9.98-3.34-13.91c0.19-0.08,0.38-0.29,0.3-0.49c0.47-0.77,1.22-1.36,2.25-1.83c0.39-0.16,0.15-0.68-0.18-0.59
							c-1.04,0.35-1.79,0.88-2.35,1.45c-1.17-3.97,0.94-8.52,2.4-12.09c1.22-3.09,3.35-5.71,4.44-8.79
							c1.21,0.97,2.42,1.14,3.97,1.48c2.77,0.59,5.5,1.44,8.12,2.64c5.51,2.5,8.43,5.8,10.84,11.2c-2.15,6.62-2.92,13.86-3.93,20.59
							c-0.23-0.38-0.45-0.7-0.68-1.08c0.13-0.08,0.25-0.22,0.16-0.48c-1.55-4.6-2.03-9.09-2.8-13.82c-0.54-3.61-2.33-6.14-4.61-8.89
							c-0.15-0.19-0.46,0.04-0.31,0.22c3.03,3.96,4.03,7.47,4.61,12.35c0.36,2.9,0.71,5.8,1.66,8.52c-0.38-0.64-0.77-1.33-1.16-2.04
							c-1.65-3.26-3.57-5.78-6.72-7.73c-0.2-0.11-0.48-0.29-0.69-0.41c-1.33-2.63-2.86-5.17-3.94-7.94
							c-0.09-0.33-0.61-0.15-0.52,0.17c0.77,2.2,1.63,4.73,2.86,6.9c-2.78-1.52-6.14-2.85-8.91-2.57c-0.4,0.03-0.35,0.63,0.05,0.66
							c3.6,0.18,7.93,2.71,10.88,4.74c3.38,2.33,4.94,5.34,6.8,8.85c1.94,3.57,3.84,6.62,5.01,10.59c0.62,2.01,1.11,4.04,1.47,6.14
							c0.03,0.4,0.06,0.8,0.16,1.19l0.01,0.06c0.24,2.18,0.28,4.38-0.09,6.53c-0.05,0.14,0.02,0.27,0.03,0.33
							c-0.19,0.08-0.44,0.23-0.64,0.31c-0.07,0.01-0.13,0.08-0.19,0.15c-0.06,0.01-0.06,0.01-0.14-0.06
							c-0.59,0.05-1.2,0.03-1.8,0.01c-0.28-1.04-0.67-1.81-1.21-2.83c-1.32-2.49-1.49-4.6-2.03-7.29c-0.75-3.6-2.4-6.86-4.1-10.06
							c-0.08-0.19-0.47-0.03-0.39,0.17c2.04,3.97,3.86,7.82,4.21,12.31c0.24,3.11,1.77,4.85,2.85,7.69
							c-0.67-0.08-1.34-0.16-2.02-0.31c-1.14-1.78-2.27-3.55-3.35-5.4c-1.31-2.3-1.36-4.75-2.41-7.07
							c-1.44-3.21-4.15-5.53-6.84-7.65c-0.21-0.19-0.52,0.17-0.3,0.35c1.77,1.39,3.55,2.92,4.89,4.74c1.85,2.45,1.95,4.51,2.83,7.3
							c0.8,2.66,2.59,5.12,4.1,7.53C112.49,59.06,110.46,57.69,109.03,55.54z M96.14,47.96c-3.1-3.16-5.95-6.4-8.17-10.15
							c-2.44-4-3.72-7.7-4.15-12.39c-0.39-4.16-0.17-8.3-0.23-12.48c1.2,4.3,5.3,7.44,7.52,11.26c0.08,0.2,0.22,0.25,0.35,0.24
							c-0.7,2.05-0.31,4.61,0.4,6.82c1.48,4.54,3.09,10.73,7.05,13.82c0.78,0.6,1.67,1,2.51,1.47c2.22,1.29,3.26,2.6,4.31,4.98
							c0.16,0.32,0.32,0.71,0.41,1.03c-0.98-0.72-2.09-1.23-3.27-1.88c-3.39-1.73-5.75-3.81-7.98-6.9
							c-1.86-2.58-3.73-5.23-5.41-7.96c-2.06-3.43-2.81-7.1-3.58-11.03c-0.02-0.2-0.42-0.23-0.4,0.03c0.88,7.11,3.72,12.02,7.7,17.9
							c1.66,2.46,3.44,4.85,5.84,6.67c2.47,1.87,5.41,2.84,7.76,4.92c0.01,0.07,0.08,0.13,0.08,0.19
							C103.02,52.74,99.24,51.11,96.14,47.96z M87.36,42.84c-1.84-0.65-3.75-1.17-5.71-1.61c2.24-0.18,4.58-0.89,6.76-0.32
							c0.07-0.01,0.14-0.01,0.2-0.02c1.11,1.51,2.22,2.89,3.39,4.26C90.47,44.34,89,43.39,87.36,42.84z M135.41,39.73
							c1.32-0.97,2.48-2.32,3.58-3.54c1.41-1.57,2.68-3.27,3.88-4.96c0.11-0.2-0.1-0.39-0.29-0.24c-1.21,1.56-2.48,3.11-3.9,4.63
							c0,0,0,0-0.06,0.07c2.56-3.92,4.26-8.58,4.77-13.27c0,0,0.01,0.07,0.07,0.06c3.57,2.32,4.33,5.19,3.75,8.09
							c-1.41,2.44-2.97,4.62-5.08,6.52c-1.93,1.74-4.23,2.85-6.3,4.48c-1.76,1.4-3.28,3.24-4.59,5.2c0.5-1.3,1.14-2.55,1.84-3.73
							C133.71,41.79,134.55,40.73,135.41,39.73z M141.09,40.09c-3.64,3.74-7.15,8.2-11.58,11.07c1.38-2.04,2.68-4.07,4.13-6.04
							c1.63-2.19,3.58-3.6,5.79-5.1c2.65-1.86,4.94-4.1,6.8-6.71C144.95,35.8,142.94,38.22,141.09,40.09z M78.42,99.28
							c0.15,0.19,0.42,0.3,0.62,0.28s0.39-0.09,0.59-0.18c0.92,4.12,2.36,8.27,3.8,12.21c1.02,2.84,2.14,5.29,4.17,7.53
							c-5.38-4.11-11.55-7.42-17.23-10.44c-0.14-0.13-0.32,0.16-0.11,0.28c4.38,2.45,8.59,5.32,12.61,8.27
							c3.31,2.4,6.26,5.23,9.57,7.64c-1.61-0.21-3.17-0.55-4.74-1.16c-2.74-1.12-5.43-2.31-8.3-3.22
							c-6.56-2.22-13.35-4.02-19.98-5.57c-0.27-0.04-0.37,0.36-0.1,0.47c7.4,1.89,14.64,3.53,21.77,6.3
							c3.92,1.56,7.37,3.22,11.22,4.06c-0.13,0.01-0.26,0.08-0.39,0.16l-0.06,0.01c-0.54-0.03-0.95,0.54-0.92,1.01
							c-0.03,0.53,0.41,0.96,0.88,1.06c0.54,0.09,0.98-0.21,1.15-0.62c1.78,0.66,3.68,1.11,5.55,1.23
							c-1.09,1.41-1.96,3.01-2.51,4.58c-0.06,0.14,0.09,0.33,0.22,0.25c0.27-0.02,0.53-0.04,0.73-0.05c0.2-0.02,0.17-0.35-0.03-0.33
							c-0.14,0.01-0.27-0.05-0.4-0.04c0.47-0.83,0.8-1.66,1.34-2.43c0.41-0.69,0.89-1.33,1.38-1.97c1.6,0.08,3.26-0.05,4.82-0.44
							c0.14,0.06,0.28,0.11,0.47,0.17c-0.04,0.33,0.26,0.71,0.65,0.61c0.26-0.09,0.52-0.18,0.71-0.19c0.09,1.19,0.39,2.43,0.6,3.55
							c0.01,0.13,0.28,0.11,0.27-0.02c-0.23-1.24-0.26-2.44-0.29-3.7c1.63-0.46,3.39-0.93,4.63-2.02c0.13-0.07,0.18-0.21,0.31-0.29
							c2.29-0.45,4.63-1.22,7-0.61c1.83,0.46,3.49,1.33,5.38,1.52c0.13-0.01,0.24-0.22,0.05-0.27c-2.16-0.3-3.97-1.49-6.07-1.93
							c-1.82-0.39-3.72-0.04-5.56,0.36c0.49-0.57,0.9-1.27,1.32-1.9c0.26-0.08,0.51-0.24,0.76-0.46c0.19-0.08,0.38-0.23,0.43-0.49
							c0.05-0.27-0.04-0.53-0.19-0.72l0.06-0.07c0.11-0.21-0.16-0.32-0.28-0.18l-0.06,0.07c-0.07,0.01-0.14-0.06-0.14-0.06
							c2.63-2.93,5.16-5.52,9.06-6.69c2.08-0.63,4.32-0.86,6.5-1.03c0.93-0.07,1.8-0.07,2.72-0.08c1.23,0.37,1.61,0.28,1.19-0.16
							c0.47,0.09,0.94,0.19,1.41,0.22c0.4,0.03,0.49-0.57,0.15-0.61c-4.24-0.73-8.81-0.45-12.91,0.8c-1.89,0.54-3.48,1.46-4.92,2.64
							c0.11-0.21,0.3-0.42,0.41-0.69c0.89-1.47,1.63-3.05,2.79-4.34c1.53-1.72,3.72-2.68,5.84-3.65c0.19-0.08,0.1-0.41-0.09-0.33
							c-2.91,1.16-5.4,2.48-7.26,5.09c-1.62,2.32-3.17,4.57-4.8,6.82c-0.36,0.43-0.8,0.8-1.17,1.22c-0.19,0.15-0.17,0.34-0.16,0.54
							c-0.3,0.43-0.6,0.84-0.91,1.2c0.04-0.27,0.15-0.61,0.2-0.88c2.71-3.67,4.77-8.02,6.52-12.08c1.52-3.57,2.94-5.88,7.03-7.13
							c3.58-1.08,7.22-1.22,10.93-0.65c0.2,0.05,0.24-0.29,0.04-0.34c-4.11-0.74-10.19-1.01-14.19,1.36c0.48-0.7,0.95-1.41,1.43-2.1
							c0.14,0.05,0.27,0.04,0.46-0.04c0.52-0.17,0.6-0.84,0.43-1.3c-0.08-0.19-0.3-0.44-0.57-0.48c-0.54-0.09-0.99,0.08-1.36,0.51
							c-0.37,0.36-0.07,0.87,0.28,0.97l0.07,0.06c-3.17,3.77-5.56,8.01-7.89,12.31c-0.65,1.18-1.27,2.49-1.91,3.81
							c1.33-5.22,2.8-10.32,5-15.42c0.11-0.28-0.23-0.45-0.35-0.17c-2.94,5.81-5.6,12.67-6.56,19.26c-0.58,1.05-1.3,2.03-2.04,2.89
							c2.11-4.55,3.67-9.33,4.42-14.31c0.44-2.9,0.61-5.77,0.53-8.63c2.51-2.85,5.8-5.03,9.49-6.25c0.13-0.01,0.27-0.02,0.32-0.09
							c1.76-0.54,3.59-0.88,5.45-0.95c2.65-0.14,4.76,0.5,7.39,0.03c2.43-0.45,4.64-1.16,7.17-1.09c3.8,0.1,7.8,1.06,9.36,4.93
							c0.65,1.55,1.46,3.41,1.85,4.98c0.38,1.5,0.27,2.64-0.11,3.67c-0.94-0.06-1.92,0.15-2.85,0.15c-1.13,0.02-2.33,0.05-3.45,0.07
							c-0.27,0.02-0.23,0.41,0.03,0.39c1.26,0.04,2.46,0.08,3.73,0.11c0.8,0,1.6,0.07,2.31-0.18c-1.1,2.08-3.54,3.27-5.7,4.56
							c-2.42,1.45-7.2,4.88-10.15,2.98c-0.56-0.36-1.3,0.36-0.73,0.85c1.15,1.04,2.41,1.14,3.66,0.91
							c-0.12,0.21-0.16,0.48,0.05,0.66c1.58,1.54,0.32,4.1-1.12,6.21c-1.66-0.8-3.43-1.33-5.29-1.32c-2.39,0.05-4.74-0.23-7.14-0.24
							c-0.26,0.02-0.23,0.35,0.03,0.4c2.01,0.11,3.97,0.63,5.97,0.6c2.19-0.04,3.96,0.49,6.01,1.13c-0.53,0.84-1.08,1.55-1.37,2.1
							c-1.7,2.92-3.42,5.58-6.48,7.28c-5.42,3.08-11.96,2.72-18.04,2.46c-0.26,0.02-0.23,0.42-0.03,0.4
							c7.51,0.82,16.13,1.35,21.94-4.42c2.59-2.59,4.69-6.48,6.44-9.67c1.11-2.02,1.42-4.04-0.31-5.77l-0.07-0.06
							c0.91-0.27,1.81-0.73,2.7-1.14c3.27-1.65,6.72-3.45,9.53-5.79c2.07-1.69,2.99-3.43,1.93-6.01c-0.66-1.68-1.44-3.08-1.97-4.84
							c-0.44-1.36-0.94-2.72-1.9-3.84c-5.22-5.65-14.79-1.18-21.08-1.69c-2.6-0.2-5.18,0.07-7.58,0.85
							c-1.22-8.15-1.66-16.36-2.63-24.54c1.71-1.93,2.46-5.18,2.47-7.57l-0.01-0.07c2.41-1.58,3.68-4.87,4.73-7.61
							c0.14,0.05,0.33,0.04,0.53-0.04c3.38-1.99,5.88-4.85,8.52-7.71c2.83-3.01,5.99-5.98,8.32-9.42
							c3.09-4.69,3.26-11.22-2.41-13.91c-0.14-0.06-0.2-0.05-0.27,0.02c0.56-6.5-1.15-13.08-5.97-17.83
							c-0.22-0.25-0.59,0.11-0.37,0.36c1.79,2.45,3.69,4.7,4.65,7.62c1.04,3.11,0.96,6.44,0.48,9.67
							c-0.76,5.58-2.53,11.11-6.05,15.51c-2.79,3.47-4.96,6.36-6.7,10.56c-1.67,4.19-2.89,9.07-6.61,11.69
							c0.08-0.74,0.16-1.48,0.16-2.21c0.16,0.26,0.56,0.35,0.67,0.02c1.52-3.58,3.24-7.17,4.34-10.91
							c1.22-4.08,0.95-8.45,2.57-12.44c0.11-0.21-0.23-0.38-0.35-0.17c-1.47,3.31-1.6,6.77-2.33,10.22
							c-0.98,4.46-3.19,8.69-4.86,12.88c0.02-2.33-0.22-4.57-0.73-6.86c0.67-5.9,2.4-11.22,4.27-17.09
							c1.82-5.73,1.65-13.9,6.17-18.23c0.19-0.15-0.1-0.46-0.29-0.31c-4.61,4.02-4.46,11.12-6.1,16.64
							c-1.54,5.04-4.05,10.42-4.83,15.87c-0.01-0.07-0.01-0.07-0.01-0.14c-0.71-2.4-1.39-5.01-2.55-7.18
							c-0.08-0.13-0.15-0.19-0.16-0.32c0.2-0.08,0.39-0.16,0.43-0.49c1.15-6.74,1.52-14.02,3.53-20.63c0.33-0.02,0.71-0.32,0.54-0.7
							c-0.07-0.13-0.08-0.26-0.16-0.39c0.21-0.68,0.43-1.3,0.71-1.98c1.28-3.16,3.19-6.04,4.96-8.9c0.47-0.77,0.94-1.6,1.48-2.38
							c0.96-1.4,2.79-2.67,4.69-2.16c0.89,0.27,1.15,1.1,2.17,1.3c0.33,0.04,0.43-0.43,0.09-0.54c-2.39-0.74-3.1-3.15-5.83-1.41
							c-1.27,0.83-2.06,2.56-2.84,3.74c-1.24,1.96-2.56,3.92-3.66,6.01c-0.52,0.97-0.98,1.93-1.43,2.97
							c-0.01-1.8-0.15-3.71-0.41-5.35c-0.02-0.2-0.35-0.24-0.34-0.04c-0.17,2.14-0.17,4.73,0.2,6.83c-0.05,0.2-0.17,0.42-0.22,0.61
							c-1.35-2.82-2.87-5.3-5.28-7.24c0.06-0.07,0.05-0.2,0.04-0.33c-0.27-0.91,1.28-2.43,1.83-2.94c0.86-0.86,1.81-1.54,2.82-2.21
							c0.13-0.07-0.02-0.2-0.15-0.19c-1.28,0.7-2.55,1.4-3.67,2.41c-0.68,0.65-1.6,1.59-1.79,2.6c-0.35-0.24-0.64-0.48-0.98-0.66
							c-2.3-1.35-4.72-2.49-7.24-3.3c-2.94-0.97-6.15-1.19-8.85-2.64c-0.21-0.12-0.4,0.03-0.44,0.23c-0.07,0.01-0.13,0.08-0.19,0.15
							c-2.43,6.38-9.32,13.69-7.35,21.05c-2.41-3.67-5.94-6.26-7.08-10.76c-0.11-0.52-0.96-0.32-0.92,0.21
							c0.01,0.06,0.02,0.2,0.09,0.26c-0.14-0.06-0.27,0.02-0.32,0.16c-1.69,8.24-1.24,18.32,3.5,25.47
							c0.07,0.06,0.07,0.13,0.15,0.19c-0.54-0.09-1.21-0.1-1.8-0.06c-1.27-0.04-5.88,0.52-6.13-0.93c-0.01-0.13-0.21-0.11-0.2,0.02
							c0.03,0.33,0.05,0.66,0.08,1.06c0.01,0.07,0.08,0.13,0.14,0.13c2.69,0.32,6.23-0.35,8.65,0.86c0.16,0.26,0.38,0.51,0.53,0.76
							c-1.22-0.38-2.45,0.12-3.77,0.29c-3.43,0.4-5.98,0.07-9.04-1.56c-0.28-0.18-0.57,0.31-0.3,0.49c1.48,1.02,3.08,1.96,4.89,2.15
							l0.07-0.01c0.01,0.07,0.07,0.13,0.15,0.19c2.53,0.94,5.31,1.52,7.85,2.59c1.92,0.78,3.5,2.26,5.53,2.7
							c0.06-0.01,0.13-0.01,0.2-0.02c3.76,3.83,8.11,6.89,13.52,8.86c0.2,0.05,0.4,0.04,0.52-0.1c0.46,0.83,0.93,1.66,1.65,2.4
							c2.03,2.17,4.71,3.3,7.54,3.74c-0.03,2.27,0.32,6.77,2.82,7.23c0.27,4.37,0.34,8.76,0.55,13.13c0.09,1.99,0.18,3.97,0.52,5.81
							c-0.69-1.15-1.43-2.15-2.23-3.16c-1.03-1.25-2.23-2.22-3.39-3.33c-1.88-1.92-2.72-4.18-3.65-6.7
							c-0.83-2.13-1.86-4.31-3.95-5.48c-2.64-1.46-5.01,0.65-7.73-0.2c-0.27-0.05-0.31,0.29-0.1,0.41c0.55,0.29,1.1,0.45,1.64,0.47
							c1.03,3.84,2.05,7.63,2.49,11.58c0.02,0.2,0.28,0.18,0.27-0.02c-0.23-3.84-0.81-7.92-2.23-11.6c1.92-0.15,3.77-1.22,5.96,0.47
							c2.69,2.05,2.92,5.89,4.46,8.7c1.01,1.85,2.43,3.07,3.94,4.55c2.95,2.9,4.07,6.27,5.76,9.93c-2.89,1.29-5.54,3.22-7.54,5.7
							c-0.16-3.78-0.58-7.54-1.01-11.36c0.22-0.61-0.1-1.39-0.84-1.4c-0.2,0.02-0.33,0.03-0.4,0.03c-0.13,0.01-0.19,0.08-0.32,0.09
							c-0.13,0.08-0.19,0.08-0.32,0.22c-0.12,0.15-0.24,0.29-0.36,0.43c-0.29,0.55,0.21,1.04,0.75,1.07
							c0.07,0.06,0.07,0.06,0.14,0.13c0.14,0.06,0.34,0.1,0.47,0.09c0.46,6.82,1.15,13.15,0.02,20.02
							c-0.99,6.06-3.08,11.74-5.92,17.16c-0.07,0.01-0.06,0.07-0.13,0.07c-0.02-0.27-0.03-0.46-0.05-0.72
							c0.56-3.04,1.53-5.97,2.23-8.96c2.93-7.74,2.54-17.02,0.28-24.76c-0.08-0.2-0.41-0.1-0.33,0.09c1.38,5.81,1.46,11.2,0.76,16.7
							c-0.04-2.26-0.35-4.49-0.98-6.64c0.06-0.07,0.19-0.08,0.26-0.15c0.8-0.8-0.35-1.97-1.21-1.84c-0.59,0.05-1.02,0.61-0.84,1.2
							c0.1,0.39,0.37,0.5,0.65,0.61c0.07,0.06,0.15,0.12,0.21,0.18c0.07,0.06,0.2,0.05,0.27,0.05l0.07-0.01
							c0.46,4.22,0.97,8.3,0.5,12.53c-0.3,1.22-0.6,2.51-0.9,3.79c-0.06,0.14,0.02,0.2,0.15,0.26c-0.41,1.56-0.9,3.06-1.31,4.56
							c-0.61-6.2-1.35-12.33-1.96-18.54c-0.36-3.83-0.14-7.04,1.45-10.56c0.96-2.13,2.08-4.08,2.57-6.38
							c0.32-0.09,0.5-0.38,0.54-0.77c-0.01-0.14-0.01-0.14,0.05-0.28c0.14-0.74-0.9-1.26-1.31-0.63c-0.24,0.35-0.28,0.69-0.25,1.08
							c0.02,0.27,0.17,0.46,0.31,0.58c-0.92,2.8-2.46,5.24-3.58,7.99c-1,2.54-1.19,5.15-0.98,7.86c0.26,3.37,0.58,6.74,0.92,10.17
							c-0.18-0.65-0.43-1.3-0.61-1.95c-0.63-10.66-2.18-21.38-3.53-31.92c-0.02-0.27-0.42-0.23-0.4,0.03
							c0.71,9.19,1.3,18.52,2.41,27.75c-0.17-0.39-0.33-0.84-0.49-1.23c-2.88-7.09-6.14-13.96-9.4-20.89
							c0.19-0.15,0.3-0.42,0.28-0.69c-0.02-0.26-0.05-0.59-0.13-0.85c-0.1-0.39-0.51-0.56-0.91-0.59c-0.2,0.02-0.4,0.03-0.66,0.11
							c0.17-0.41,0.27-0.82,0.51-1.23c0.68-1.52,1.38-2.83,1.78-4.46c0.8-3.39,0.89-7.52,5.28-8.32c0.33-0.09,0.35-0.63-0.04-0.6
							c-5.62,0.44-5.32,7.86-7.15,11.66c-2.58,5.32-2.51,11.37-1,17.17c0.08,0.19,0.22,0.25,0.35,0.24
							c-0.13,0.08-0.18,0.21-0.24,0.29c-0.06,0.07-0.13,0.14-0.19,0.21c-0.06,0.14-0.11,0.28-0.09,0.48
							c0.01,0.06,0.01,0.06,0.01,0.13c0.04,0.53,0.61,1.02,1.13,0.84c1.76,4.65,4.36,9.1,7.4,13.06c1.48,1.95,3.42,3.73,4.64,5.83
							c1.15,1.91,1.52,4.14,1.89,6.31c-3.3-4.87-4.53-11.22-9.7-14.55c0.03-0.53-0.35-1.17-0.96-1.19c-0.93-0.06-1.51,1.11-0.92,1.8
							c0.21,0.26,0.49,0.36,0.88,0.27c0.07-0.01,0.14-0.01,0.2-0.08c0.06-0.01,0.13-0.01,0.2-0.02c0.13-0.08,0.26-0.09,0.32-0.16
							c1.35,1.16,2.77,2.24,3.75,3.77c1.14,1.84,1.84,3.98,2.66,5.98c0.83,2.06,1.8,4.32,3.32,5.93c-0.2,0.02-0.34-0.04-0.54-0.03
							c-0.36-0.31-0.71-0.61-1.07-0.98c-1.78-4.06-4.29-8.12-7.06-11.36c-3.59-4.31-7.66-7.92-9.93-13.13
							c0.05-0.14,0.11-0.28,0.17-0.42c0.17-0.41,0-0.86-0.41-1.03c-0.21-0.18-0.49-0.29-0.82-0.2c-0.78,0.19-1.1,1.21-0.79,1.85
							c0.17,0.46,0.86,0.8,1.3,0.43c0.06-0.07,0.19-0.15,0.25-0.22c0.4,0.9,0.8,1.74,1.26,2.56c-1.47-1.81-3.31-3.2-5.66-2.69
							c-0.06,0.01-0.13,0.01-0.13,0.08c-0.26-0.71-0.44-1.43-0.69-2.07c-0.01-0.14-0.08-0.19-0.15-0.19
							c0.11-0.28,0.08-0.61-0.07-0.93c-0.38-0.64-1.39-0.69-1.73,0c-0.12,0.21-0.1,0.41,0.04,0.59
							C78.24,98.69,78.27,99.02,78.42,99.28z M109.42,193.26c1.93,2.58,3.58,5.91,3.24,9.2c-0.35,3.22-2.99,5.22-5.68,6.62
							c-3.39,1.73-7.19,2.42-10.86,3.17c-2.49,0.53-5.46,1.63-8.09,1.16c-1.56,2.98-3.27,5.91-5.11,8.71
							c-1.96,3.01-4.54,5.74-6.22,8.93c-1.52,2.78-2.14,5.95-3.58,8.72c-1.45,2.84-3.45,5.32-5.04,8.04
							c-7.55,12.42-9.76,26.89-16.28,39.83c-0.34,0.69-1.45,0.18-1.1-0.52c6.24-13.05,8.8-27.35,16.35-39.77
							c1.71-2.86,3.83-5.55,5.33-8.53c1.38-2.83,2.07-5.95,3.72-8.67c1.47-2.44,3.44-4.52,5.13-6.84c2.35-3.18,4.42-6.53,6.35-9.94
							c-0.54-0.16-1.09-0.38-1.58-0.68c-0.41-0.23-0.28-1.04,0.27-0.82c4.84,1.49,11.72-0.71,16.41-2c2.6-0.73,6.69-2.05,8.22-4.56
							c0.41-0.7,0.69-1.39,0.84-2.06c-1.61,0.66-3.42-0.4-4.81-1.16c-0.27-0.11-0.04-0.46,0.17-0.41c0.76,0.27,1.57,0.48,2.32,0.68
							c0.81,0.14,1.54,0.08,2.33,0.09c0.07-0.01,0.07-0.01,0.14-0.01c0.12-1.01,0.04-2-0.1-2.98c-0.06,0.07-0.19,0.08-0.33,0.02
							c-5.02-1.27-10.1-1.68-15.32-1.14c-0.33,0.03-0.37-0.51-0.04-0.53c5.26-0.81,10.33-0.6,15.49,0.73
							c-0.47-1.76-1.4-3.42-2.31-4.88C108.89,193.23,109.27,193,109.42,193.26z M43.33,229.69c0.71-0.26,1.36-0.44,2.09-0.49
							c-0.15-0.13-0.16-0.26-0.1-0.46c1.96-3.01,3.61-5.73,4.96-9.03c0.05-0.2,0.45-0.1,0.34,0.11c-0.81,3.26-2.4,6.77-4.67,9.27
							c2.18-0.17,4.33,0.07,6.51-0.17c4.09-0.44,6.31-2.68,9.54-4.79c0.38-0.23,0.81,0.14,0.64,0.55c-1.2,2.55-4.14,4.11-6.73,4.97
							c-4.21,1.39-8.29-0.49-12.46,0.56C43.18,230.36,42.94,229.79,43.33,229.69z M53.8,195.63c-0.28-0.11-0.61-0.15-0.89-0.27
							c0.13-0.01,0.2-0.02,0.33-0.03C53.39,195.39,53.59,195.51,53.8,195.63z M40.51,170.85c0,0,0.07-0.01,0.13-0.08
							C40.58,170.84,40.51,170.85,40.51,170.85z M61.13,187.08c0.02,1.13,0.04,2.32,0.13,3.45c0.01,0.07,0.02,0.2,0.03,0.33
							c-0.36-1.24-0.66-2.55-0.9-3.86C60.59,187.12,60.86,187.17,61.13,187.08z M61.49,182.46c-0.1,0.41-0.2,0.88-0.3,1.29
							c-0.04-0.46-0.15-0.98-0.18-1.45C61.17,182.48,61.37,182.54,61.49,182.46z M66.84,169.88c0.01,0.06,0.01,0.13,0.02,0.2
							c-0.26,0.09-0.44,0.3-0.49,0.57c-0.24,0.35-0.2,0.89,0.03,1.2l0.07,0.06c-0.13,4.4-0.45,8.81-1.04,13.25
							c-0.41,3.29-0.76,6.64-2.04,9.73c0.15-1.47-0.3-3.04-0.61-4.47c-0.24-1.38-0.48-2.76-0.65-4.15c0.06-0.07,0.11-0.2,0.17-0.34
							c1.8-7.65,3.71-15.71,3.9-23.65C66.52,164.78,66.78,167.35,66.84,169.88z M70.75,213.54c1.48,3.74,2.06,7.69,3.22,11.53
							c-0.59,1.04-1.38,1.97-2.24,2.9c-0.01-0.07-0.01-0.07-0.01-0.14c-2.29-4.68-2.6-9.64-3.59-14.62c-0.1-0.46-0.2-0.85-0.3-1.31
							c-0.26-3.31-1.57-6.53-3.81-9.68c0.07-0.01,0.07-0.01,0.13-0.01c0.4-0.1,0.57-0.38,0.55-0.71l0.06-0.01
							c0.01,0.07,0.02,0.2,0.09,0.26C67.2,205.49,69.1,209.47,70.75,213.54z M63.11,195.64c-0.07-0.06-0.08-0.13-0.15-0.13
							c0.07-0.01,0.19-0.08,0.26-0.15C63.16,195.43,63.17,195.57,63.11,195.64z M63.81,198.58c-0.06,0.14-0.17,0.34-0.23,0.48
							c-0.88-0.2-1.78-0.59-2.55-1.07c0.41,0.04,0.74,0.08,1.14,0.11c0.15,0.19,0.35,0.31,0.62,0.22c0.45-0.17,0.83-0.4,1.22-0.56
							C63.96,198.03,63.92,198.3,63.81,198.58z M59.77,197.89c0.06-0.01,0.06-0.01,0.13-0.01c0.01,0.07,0.01,0.14,0.02,0.2
							l0.01,0.07C59.84,198.08,59.84,198.02,59.77,197.89z M31.42,177.07C31.41,177,31.34,177.01,31.42,177.07z M51.39,162.69
							C51.39,162.69,51.32,162.69,51.39,162.69c-0.07,0.01-0.07-0.06-0.07-0.06C51.32,162.69,51.32,162.69,51.39,162.69z
							 M34.99,203.6c-2.01,2.42-4.53,5.07-5.56,8.08c-1.14,3.28-0.14,7.66,0.05,10.97c0.2,2.58,0.31,4.83,2.56,6.45
							c2.4,1.81,5.66,1.83,8.49,1.47c0.73-0.06,0.65-1.11-0.08-1.13c-1.27-0.04-2.66,0.07-3.99-0.03c0.07-0.01,0.06-0.07,0.06-0.14
							c0.85-1.93,1.64-3.72,3.04-5.36c0.18-0.21-0.1-0.45-0.28-0.24c-1.55,1.45-2.94,3.29-3.52,5.33c-0.06,0.14,0.02,0.27,0.09,0.33
							c-1.74-0.2-3.32-0.81-4.44-2.32c-1.56-2.14-1.19-5.96-1.39-8.47c-0.26-3.37-1.04-6.51,1.13-9.46
							c1.39-1.91,3.24-3.65,4.76-5.56c0.05-0.14,0.11-0.21,0.04-0.34c0.2-0.08,0.33-0.09,0.52-0.17c5.55-2.22,10.78-4.29,16.67-5.54
							c0.2-0.02,0.31-0.23,0.36-0.43c0.48,0.16,0.95,0.26,1.43,0.42c-4.44,2.01-9.24,4.38-12.07,8.25
							c-0.18,0.28,0.18,0.59,0.35,0.31c3.27-4.24,8.73-5.8,13.4-8.22c0.41,0.1,0.81,0.14,1.21,0.17c-2.43,3.05-5.17,5.39-8.02,8.07
							c-3.35,3.11-4.23,6.38-5.84,10.56c-0.11,0.28,0.3,0.44,0.42,0.17c1.14-2.41,1.8-5.06,3.43-7.24c1.32-1.83,3.14-3.31,4.89-4.77
							c2.13-1.76,4.65-3.55,5.99-6.05l0.01,0.06c-1.96,3.08-3.43,6.45-4.97,9.76c-0.11,0.28,0.3,0.45,0.42,0.23
							c1.63-3.05,3.47-5.92,5.09-8.97c0.76,1.14,2.03,2.17,3.38,2.4c0.01,0.07,0.01,0.14,0.08,0.2c0.63,1.21,1.38,2.35,2.01,3.57
							c0.84,2.2,1.6,4.4,2.18,6.68c0.16,3.78-1.59,7.04-3.55,10.05c-0.24,0.35,0.32,0.7,0.63,0.42c1.94-2.41,3.08-4.9,3.56-7.39
							c0.01,0.2,0.09,0.39,0.11,0.59c0.58,4.08,1.1,8.16,2.79,11.95c0.09,0.26,0.36,0.38,0.56,0.36c-0.86,0.93-1.66,1.79-2.31,2.84
							c-1.77,2.99-3.11,6.29-4.46,9.46c-2.66,6.13-4.34,12.77-7.19,18.84c-3.33,6.84-6.91,13.84-9.35,21.07
							c-0.2,0.75,0.7,1.28,1.11,0.52c0.58-1.11,1.15-2.29,1.72-3.46c0,0,0.01,0.06,0.07,0.06c0.42,0.23,0.87,0.07,1.33-0.03
							c0.52-0.11,1.11-0.22,1.64-0.26c0.46-0.1,0.41-0.77-0.06-0.73c-0.59,0.11-1.18,0.16-1.77,0.27c-0.33,0.03-0.66,0.05-0.98,0.21
							c2.63-5.59,4.91-11.42,7.53-17.01c0.97-2.07,1.74-4.13,2.51-6.24c0,0,0,0,0.07-0.01c0.33,0.04,0.52-0.11,0.79-0.19
							c0.32-0.16,0.58-0.24,0.9-0.41c0.39-0.16,0.15-0.67-0.18-0.58c-0.32,0.09-0.59,0.18-0.91,0.34c-0.13,0.08-0.26,0.08-0.39,0.16
							c1.4-4.23,2.67-8.52,4.48-12.59c0.12-0.2,0.17-0.41,0.28-0.69c0.29,0.25,0.81,0.21,1.21,0.11c0.59-0.04,1.24-0.23,1.82-0.47
							c0.32-0.16,0.21-0.68-0.11-0.59c-0.59,0.11-1.19,0.16-1.72,0.2c-0.26,0.02-0.6-0.02-0.85,0.07c1.13-2.55,2.19-5.16,3.67-7.54
							c1.42-2.3,3.76-3.88,5.11-6.18c0.07-0.01,0.2-0.02,0.27-0.02c0.46-0.04,0.92-0.14,1.32-0.17c0.46-0.04,0.41-0.7-0.05-0.66
							c-0.2,0.02-0.4,0.03-0.59,0.05c-0.01-0.07,0.05-0.14,0.05-0.14c-0.02-0.33-0.04-0.59-0.07-0.93c1.14-2.42,2.39-4.44,4.07-6.7
							c1.33-1.77,2.4-3.44,2.62-5.66c-0.02-0.2-0.22-0.32-0.34-0.11c-1.13,2.68-2.76,4.8-4.51,7.07c-0.85,1.06-1.49,2.18-2.01,3.28
							c-0.69-4.6-2.56-9.11-5.01-13.25c1.62,0.34,3.34,0.28,4.9,0.62c2.64,0.53,5.11,1.6,7.74,2.13c0.41,0.1,0.49-0.51,0.09-0.6
							c-2.44-0.61-4.78-1.63-7.17-2.44c-2.11-0.7-4.43-0.52-6.55-1.22c-1.29-2.03-2.63-3.92-4.04-5.74
							c-0.01-0.07-0.07-0.06-0.07-0.06c0.12-0.14,0.24-0.35,0.35-0.56c0.23,0.38,0.77,0.47,1.3,0.43c1.73,0.07,3.39,0.01,5.13,0.07
							c0.4,0.04,0.35-0.56-0.05-0.59c-1.01-0.06-2.01-0.11-3.01-0.17c-0.54-0.03-2.46,0.06-2.83-0.45
							c-0.07-0.06-0.14-0.12-0.21-0.11c-0.01-0.07,0.06-0.14,0.05-0.2c0.16-0.54,0.38-1.1,0.47-1.7c1.85,0.66,3.86,0.1,5.84-0.18
							c1.97-0.28,3.93-0.77,5.95-0.4c2.23,0.43,4.45,1.59,6.57,2.42c0.21,0.05,0.32-0.22,0.11-0.28c-2.41-1.08-5.06-2.67-7.74-2.93
							c-3.62-0.39-7.09,1.21-10.66,0.56c-0.01-0.06-0.01-0.06-0.01-0.13c-0.02-0.27-0.14-0.85-0.43-1.3
							c0.42-0.57,0.83-1.2,1.18-1.89c1.07,0.05,2.04-0.29,3.21-0.65c2.85-0.95,5.71-0.91,8.52,0.01c0.27,0.04,0.37-0.36,0.17-0.41
							c-1.79-0.73-3.61-1.12-5.53-0.97c-1.93,0.08-3.97,1.17-5.96,1.26c1.43-3.04,2.52-6.11,4.3-8.91c0.2-0.02,0.39-0.1,0.58-0.24
							c0.06-0.07,0.13-0.15,0.19-0.15c0.26-0.08,0.51-0.3,0.63-0.51c0.24-0.35,0.34-0.82,0.17-1.21c-0.08-0.26-0.3-0.51-0.64-0.55
							c-0.6-0.02-1.06,0.08-1.48,0.58c-0.36,0.42-0.52,0.97-0.35,1.48c0.08,0.13,0.09,0.26,0.22,0.32
							c-1.33,1.77-2.38,3.65-3.29,5.64c-0.57,1.18-1.02,2.34-1.6,3.39c-0.07,0.01-0.14,0.01-0.14-0.06c-0.4-0.1-0.62,0.58-0.21,0.68
							c-0.47,0.77-0.95,1.47-1.57,2.05c0.4-0.9,0.65-1.85,0.91-2.86c0.13-0.08,0.26-0.16,0.38-0.36c1.14-2.48,2.07-5.08,2.86-7.67
							c1.32-1.83,2.86-3.48,4.67-4.95c3.13-2.57,10.02-8.16,14.16-7.08c0.14,0.06,0.24-0.22,0.11-0.28
							c-1.84-0.66-3.28-0.21-5.01,0.65c-3.2,1.58-6.38,3.48-9.2,5.7c-1.45,1.11-2.74,2.34-3.91,3.63c0.32-1.09,0.76-2.25,1.2-3.42
							c0.11-0.21,0.23-0.35,0.42-0.56c2.12-2.69,5.06-4.25,7.55-6.44c2.37-2.05,3.75-4.88,6.26-6.87c2.94-2.35,8.13-5.81,12.1-4.33
							c0.2,0.05,0.38-0.23,0.17-0.34c-5.78-2.42-13.18,4.15-16.46,8.26c-2.6,3.26-6.46,5.02-9.28,8.1c0.3-1.22,0.47-2.43,0.39-3.56
							c0,0,0.07-0.01,0.06-0.07c0.4-0.03,0.71-0.26,0.94-0.68c0.17-0.34,0.14-0.74,0.05-1.06c-0.02-0.27-0.11-0.53-0.32-0.71
							c-0.37-0.51-1.04-0.52-1.47-0.09c-0.06,0.07-0.11,0.21-0.18,0.28c-0.13,0.08-0.25,0.22-0.36,0.43
							c-0.29,0.56-0.17,1.28,0.33,1.7c0.07,0.06,0.15,0.13,0.28,0.18c0,1.73-0.52,3.64-1.17,5.48c-1.38,2.04-2.4,4.24-3.35,6.58
							c0.34-4.15,0.48-8.35,0.43-12.47c0.14-0.01,0.27-0.02,0.32-0.16c0.13-0.14,0.17-0.34,0.29-0.55c0,0,0,0,0.07-0.01
							c0.06-0.07,0.12-0.15,0.11-0.21c0.25-0.22,0.35-0.63,0.26-0.95c-0.01-0.07-0.01-0.07-0.01-0.07c2.11-2.76,4.3-5.45,6.48-8.15
							c0.98-1.14,1.94-2.48,3.28-3.24c1.21-0.76,2.46-0.86,3.68-1.48c2.63-1.33,4.29-3.85,7.06-5.07c3.6-1.61,7.59-1.65,11.28-0.41
							c0.61,0.22,1.08-0.68,0.46-0.96c-5.56-2.17-11.53-1.17-16.09,2.64c-1.94,1.61-3.59,2.6-5.84,3.64
							c-1.03,0.48-1.84,1.14-2.65,1.86c-2.97,2.89-5.54,6.75-7.85,10.26l-0.01-0.07c-0.22-3.77-0.65-7.53-1.6-11.18
							c-0.01-0.13-0.08-0.19-0.21-0.18c-0.04-0.59-0.09-1.19-0.14-1.85c0.26-0.15,0.43-0.43,0.47-0.77
							c-0.01-0.14-0.02-0.27,0.04-0.33c0.05-0.21,0.1-0.41,0.09-0.61c-0.04-0.46-0.33-0.84-0.68-1.01
							c-2.05-4.1-4.34-7.91-8.13-10.55c-1.62-1.14-3.34-1.87-4.9-3.15c-0.92-0.73-1.66-1.67-2.65-2.39
							c-1.61-1.14-2.91-1.51-4.81-1.09c-0.39,0.1-0.21,0.68,0.12,0.66c0.13-0.01,0.27-0.02,0.4-0.03c0.23,2.18,1.44,4.02,2.2,6.08
							c1.18,3.17,1.37,6.55,1.56,9.86c0.02,0.2,0.34,0.17,0.33-0.03c-0.08-2.79-0.1-5.65-0.78-8.39c-0.6-2.61-1.91-4.98-2.64-7.52
							c2.61,0.27,4.17,2.27,6.16,3.92c1.42,1.15,3.07,1.89,4.55,2.97c3.38,2.33,5.83,5.8,7.33,9.61c-1.09,0.55-0.81,2.46,0.3,2.97
							c0.14,0.06,0.27,0.11,0.34,0.11c-0.46,7.82-1.6,15.35-3.22,22.93c1.03-8.19-1.51-16.97-4.09-24.63
							c-0.09-0.26-0.55-0.16-0.45,0.17c2.36,9.07,4.46,17.35,3.46,26.74c-1.51-12.72-5.09-25.42-10.18-37.13
							c0.32-0.09,0.58-0.18,0.77-0.46c0.91-1.07-0.27-2.57-1.51-2.21c-0.52,0.18-0.95,0.6-1.04,1.15c-0.09,0.54,0.21,1.05,0.7,1.28
							c0.07,0.06,0.07,0.06,0.14,0.12c2.18,6.68,4.88,13.19,6.6,20.05c1.15,4.5,1.77,9.04,2.39,13.65
							c-0.09-0.32-0.19-0.72-0.28-1.04c-1.33-5.15-3.18-10.13-5.86-14.71c-0.01-0.06,0.06-0.14,0.05-0.27
							c-0.01-0.14-0.02-0.2-0.02-0.27c0.05-0.2-0.04-0.46-0.18-0.65c-0.22-0.25-0.43-0.43-0.77-0.54c-0.34-0.11-0.66,0.11-0.91,0.33
							c-0.38,0.36-0.41,0.83-0.23,1.28c0.02,0.2,0.1,0.46,0.18,0.65c0.16,0.32,0.63,0.35,0.95,0.19c0.13-0.01,0.2-0.02,0.33-0.03
							c3.1,5.68,5.03,11.65,6.24,17.94c0.44,2.23,0.61,4.54,0.93,6.85c-0.27-0.85-0.53-1.69-0.8-2.54
							c-1.23-3.9-2.59-7.78-4.02-11.59c-2.69-7.31-5.84-14.45-9.11-21.51c0.38-0.23,0.61-0.65,0.58-1.05c0,0,0,0-0.01-0.06
							c0.16-0.55-0.02-1.13-0.51-1.42c-0.56-0.36-1.28-0.23-1.71,0.26c0,0,0,0,0.01,0.07c-0.13,0.08-0.19,0.15-0.25,0.22
							c-0.06,0.07-0.12,0.14-0.11,0.28c0,0,0.01,0.06-0.06,0.07c-0.11,0.28-0.1,0.47,0.06,0.8c0.08,0.19,0.23,0.38,0.44,0.49
							c0.22,0.25,0.44,0.5,0.78,0.54c2.44,8.32,6.44,16.33,9.34,24.48c1.44,4.02,2.75,8.04,4.13,12.12
							c0.08,0.19,0.16,0.39,0.24,0.65c-0.21-0.18-0.49-0.43-0.71-0.61c-2.02-4.7-4.76-9.08-6.78-13.78
							c-2.19-5.08-3.8-10.42-4.43-15.95c-0.02-0.27-0.48-0.23-0.4,0.03c0.82,9.71,4.72,19.79,9.96,28.23
							c-5.57-5.02-10.78-10.41-14.43-17.11c0.09-0.54-0.29-1.18-0.89-1.27c-0.28-0.11-0.61-0.15-0.8,0.06
							c-0.56,0.44-0.76,1.32-0.12,1.88c0.36,0.3,0.89,0.33,1.34,0.09c2.73,5.18,6.12,9.51,9.96,13.53
							c-1.21-0.97-2.48-1.94-3.63-2.98c-3.71-3.24-7.24-6.82-10.9-10.2c-0.12-3.25-0.7-6.46-0.63-9.8c0.09-4,0.66-7.83,1.83-11.58
							c1.65-5.31,7.29-8.08,7.5-13.95c0.04-0.33-0.56-0.35-0.6-0.02c-0.67,4.24-3.39,6.11-5.73,9.35c-1.51,2.05-2.17,4.56-2.78,6.99
							c-1.32,5.36-2.34,11.89-1.18,17.52c-1.65-1.47-3.28-2.88-4.97-4.14c0.44-0.36,0.58-1.04,0.21-1.55
							c-0.22-0.31-0.64-0.48-1.04-0.52c0,0,0,0-0.06,0.01c-0.95-0.19-1.4,0.91-1.07,1.61c0.24,0.52,0.73,0.81,1.26,0.77
							c1.24,1.43,2.54,2.8,3.84,4.09c-3.79,1.76-8.15,1.29-12.25,2.41c-3.39,0.93-7.46,0.71-10.67,2.22c-1.35,0.64-2.2,1.7-3.4,2.52
							c-1.2,0.83-2.72,0.94-3.85,1.9c-1.69,1.39-2.3,3.83-2.2,5.96c0.03,0.4,0.63,0.41,0.73,0.01c0.32-1.89,0.49-3.96,2.05-5.28
							c0.44-0.37,1.09-0.55,1.81-0.74c0.07,0.13,0.21,0.25,0.41,0.23c2.58-0.2,5.23-0.27,7.86,0.19c0.2,0.05,0.31-0.29,0.04-0.33
							c-2.03-0.44-3.98-0.76-6.05-0.73c0.07-0.01,0.13-0.08,0.13-0.08c1.15-0.69,1.86-1.74,3.15-2.37c1.8-0.8,3.86-0.77,5.77-1.05
							c3.16-0.44,6.04-1.86,9.21-2.17c3.3-0.32,5.43-0.29,8.25-1.7c4.24,4.06,8.73,7.97,12.96,11.97c2.51,2.4,5.39,4.31,7.83,6.71
							c1.66,1.6,3.13,3.42,4.71,4.96c-4.52-1.71-7.88-4.65-11.56-7.62c0.32-0.16,0.49-0.44,0.46-0.9c-0.02-0.2-0.03-0.4-0.04-0.53
							c0.17-0.35,0.14-0.81-0.21-1.05c-0.64-0.48-1.38-0.56-2.07-0.1c-0.56,0.45-0.77,1.19-0.46,1.83c0.24,0.45,0.65,0.68,1.06,0.71
							c0.07,0.06,0.21,0.12,0.28,0.18c0.07-0.01,0.07-0.01,0.14,0.05c2.04,2.31,4.15,4.54,6.61,6.28c-0.2-0.05-0.41-0.1-0.55-0.22
							c-2.91-1.51-5.59-3.49-7.92-5.24c-4.45-3.38-8.35-7.33-12.31-11.29c-0.07-0.06-0.14-0.12-0.14-0.12
							c-0.09-0.32-0.32-0.64-0.6-0.95c-0.01-0.07-0.07-0.06-0.08-0.13c-0.72-0.68-1.71,0.2-1.92,0.95s0.18,1.52,1,1.72
							c0.47,0.1,0.99-0.08,1.3-0.43c3.53,3.52,7.06,7.04,10.83,10.2c-0.28-0.11-0.54-0.16-0.75-0.28c-2.8-0.91-5.47-2.83-8.42-3.07
							c-0.2,0.02-0.31,0.29-0.04,0.33c2.68,0.26,5.17,2.4,7.7,3.33c1.78,0.67,3.3,1.41,4.83,2.22c0.21,0.18,0.43,0.36,0.64,0.48
							c0.49,0.36,0.99,0.72,1.48,1.08c-1.15-0.24-2.29-0.35-3.43-0.53c-3.76-0.44-7.78,0.06-11.43-0.72
							c-3.71-0.71-6.44-3.29-9.99-4.55c-2.67-0.99-5.42-1.31-8.26-1.03c-0.27,0.02-0.23,0.48,0.04,0.46
							c3.98-0.04,7.58,0.81,11.06,2.8c2.51,1.47,4.68,2.9,7.57,3.34c3.37,0.54,6.8,0.21,10.16,0.61c2.29,0.29,4.52,0.79,6.81,1.2
							c0.21,0.12,0.35,0.24,0.56,0.36c-1.68-0.27-3.32-0.81-4.99-0.88c-1.99-0.05-4.09,0.45-6.06,0.8
							c-4.07,0.71-7.92,1.67-11.79,3.23c-0.19,0.08-0.1,0.41,0.16,0.39c4.21-1.39,8.61-2.13,13.02-2.86
							c1.71-0.27,3.35-0.46,5.03-0.39c-0.06,0.07-0.05,0.2-0.11,0.27c0.01,0.07,0.01,0.14,0.02,0.2c-0.18,0.28-0.29,0.56-0.27,0.89
							c0.05,0.66,0.56,1.22,1.17,1.31c0.67,0.08,1.31-0.23,1.6-0.85c0.11-0.21,0.1-0.41,0.15-0.68c0.88,0.13,1.76,0.33,2.57,0.6
							c-3.66,0.82-7.24,1.76-10.79,3.23c-4.7,2.03-9.57,4.33-14.82,3.6c-2.55-0.33-4.96-1.34-7.35-2.16
							c-2.53-0.87-5.3-1.39-7.36-3.16c-1.42-1.22-2.53-2.6-4.01-3.75c-2.69-2.05-5.46-3.5-5.95-7.26c-0.03-0.46-0.83-0.4-0.79,0.06
							c0.63,4.67,5.03,6.46,8.05,9.48c1.58,1.61,2.61,2.86,4.75,3.83c2.76,1.24,5.76,2.21,8.63,3.19
							C26.81,205.23,30.78,204.98,34.99,203.6"/>
					</g>
				</g>
			</g>
		</g>
	</g>
</g>
</svg>
