<?xml version="1.0" encoding="utf-8"?>
<!-- Generator: Adobe Illustrator 23.0.1, SVG Export Plug-In . SVG Version: 6.00 Build 0)  -->
<svg version="1.1" id="Layer_1" xmlns="http://www.w3.org/2000/svg" xmlns:xlink="http://www.w3.org/1999/xlink" x="0px" y="0px"
	 viewBox="0 0 150.67 118.67" style="enable-background:new 0 0 150.67 118.67;" xml:space="preserve">
<style type="text/css">
	.st0{clip-path:url(#SVGID_2_);}
	.st1{clip-path:url(#SVGID_4_);}
	.st2{clip-path:url(#SVGID_6_);}
	.st3{clip-path:url(#SVGID_8_);}
	.st4{fill:#DCD8D0;}
</style>
<g>
	<defs>
		<rect id="SVGID_1_" width="150.67" height="118.67"/>
	</defs>
	<clipPath id="SVGID_2_">
		<use xlink:href="#SVGID_1_"  style="overflow:visible;"/>
	</clipPath>
	<g class="st0">
		<g>
			<defs>
				
					<rect id="SVGID_3_" x="-62.66" y="-120.55" transform="matrix(0.523 -0.8523 0.8523 0.523 -6.0041 17.1671)" width="150" height="269"/>
			</defs>
			<clipPath id="SVGID_4_">
				<use xlink:href="#SVGID_3_"  style="overflow:visible;"/>
			</clipPath>
			<g class="st1">
				<g>
					<defs>
						
							<rect id="SVGID_5_" x="-62.66" y="-120.55" transform="matrix(0.523 -0.8523 0.8523 0.523 -6.0041 17.1671)" width="150" height="269"/>
					</defs>
					<clipPath id="SVGID_6_">
						<use xlink:href="#SVGID_5_"  style="overflow:visible;"/>
					</clipPath>
					<g class="st2">
						<g>
							<defs>
								
									<rect id="SVGID_7_" x="-62.19" y="-120.59" transform="matrix(0.523 -0.8523 0.8523 0.523 -5.7773 17.2809)" width="149.49" height="268.78"/>
							</defs>
							<clipPath id="SVGID_8_">
								<use xlink:href="#SVGID_7_"  style="overflow:visible;"/>
							</clipPath>
							<g class="st3">
								<path class="st4" d="M-9.83,31.1c-0.04-0.15-0.11-0.32-0.15-0.47c-0.02-0.07-0.06-0.1-0.11-0.13
									c-0.53-1.08-1.14-2.15-1.78-3.17c-0.53-0.89-1.15-1.72-2.17-2.03c-0.3-0.12-0.46,0.35-0.23,0.49
									c2.02,1.23,2.75,3.64,4.09,5.47C-10.1,31.44-9.73,31.35-9.83,31.1z M39.09,35.83c1.45-5.54,3.17-10.92,6.44-15.72
									c0.39-0.52-0.48-1.06-0.82-0.51c-3.42,4.84-4.74,10.4-6.08,16.07C38.55,36.01,39.02,36.17,39.09,35.83z M48.78,13.59
									c0.46,0.28,1.05,0.14,1.33-0.32c0.03-0.05,0.09-0.14,0.11-0.19c0.26-0.41,0.14-1.05-0.32-1.33
									c-0.14-0.08-0.3-0.13-0.42-0.14c0.03-0.04,0.06-0.09,0.06-0.09c0.25-0.41,0.13-0.93-0.29-1.18
									c-0.32-0.2-0.73-0.14-1.02,0.13c-0.36-0.34-0.96-0.4-1.3-0.04c-0.03,0.05-0.13,0.11-0.16,0.16
									c-0.34,0.36-0.37,0.91-0.04,1.3c0.33,0.39,0.86,0.34,1.22,0.06c0.06,0.1,0.16,0.16,0.25,0.21c0.09,0.06,0.18,0.11,0.3,0.13
									l-0.03,0.04C48.21,12.67,48.32,13.31,48.78,13.59z M47.89,7.43c0.18,0.43,0.47,0.67,0.92,0.76l0.05,0.03
									c0.4,0.06,0.74-0.3,0.9-0.65c0.04-0.17,0.05-0.29,0.06-0.41c0,0,0,0-0.02-0.07l0.03-0.05c0.41,0.06,0.8-0.07,1.03-0.44
									c0.28-0.45,0.17-1.09-0.32-1.33C50.26,5.1,49.95,5.1,49.7,5.2c-0.04-0.03-0.04-0.03-0.09-0.06
									c-0.32-0.2-0.78-0.16-1.12,0.07c-0.1,0.06-0.17,0.08-0.23,0.17c-0.06,0.09-0.11,0.19-0.17,0.28
									c-0.72-0.38-1.29,0.85-0.44,1.12c0.12,0.01,0.19-0.01,0.27-0.03C47.84,6.9,47.79,7.18,47.89,7.43z M44.33,12.81
									C44.33,12.81,44.36,12.77,44.33,12.81C44.36,12.77,44.36,12.77,44.33,12.81C44.36,12.77,44.33,12.81,44.33,12.81z
									 M43.94,11.5c0.05,0.03,0.05,0.03,0.09,0.06C44.06,11.51,44.02,11.48,43.94,11.5C43.98,11.53,43.94,11.5,43.94,11.5z
									 M44.33,12.81c-0.1,0.06-0.18,0.08-0.28,0.15c-0.3,0.07-0.51,0.01-0.76-0.09c-0.37-0.22-0.45-0.71-0.25-1.04
									c0.17-0.28,0.49-0.39,0.82-0.31c0.12,0.01,0.24,0.02,0.33,0.07c0.49-0.7,1.59-0.22,1.57,0.53c0.48,0.04,0.84,0.39,0.84,0.89
									c-0.01,0.44-0.41,0.89-0.89,0.84c-0.03,0.04-0.01,0.11-0.04,0.16c0.15,0.28,0.15,0.59,0.14,0.91
									c-0.06,0.41-0.33,0.74-0.73,0.68c-0.19,0.01-0.42-0.13-0.58-0.29c-0.57-0.1-1.09-0.48-1.08-1.1
									c-0.02-0.39,0.27-0.65,0.57-0.72C44.06,13.15,44.17,12.97,44.33,12.81z M47.42,15.28c0.12,0.01,0.26,0.09,0.4,0.18
									c0,0,0.03-0.05-0.02-0.07c0.03-0.05,0.01-0.12,0.04-0.17c-0.12-0.01-0.17-0.04-0.26-0.09
									C47.55,15.17,47.45,15.23,47.42,15.28z M45.82,17.07c-0.18-0.11-0.32-0.19-0.37-0.42c-0.12-0.32-0.03-0.58,0.16-0.78
									c0.06-0.09,0.13-0.11,0.23-0.17c0.23-0.17,0.53-0.24,0.78-0.15c0.03-0.05,0.03-0.05,0.1-0.06c0.03-0.05,0.07-0.02,0.1-0.06
									c-0.05-0.03-0.12-0.01-0.17-0.04c-0.5-0.11-0.68-0.85-0.28-1.18c0.03-0.05,0.1-0.06,0.13-0.11
									c0.23-0.17,0.46-0.22,0.74-0.18c0.09-0.45,0.57-0.72,1.02-0.63c0.48,0.04,0.73,0.45,0.77,0.91
									c0.02,0.07-0.01,0.12,0.04,0.15c0.02,0.07,0.01,0.19-0.02,0.24c0.32-0.12,0.66-0.04,0.95,0.2c0.31,0.31,0.33,0.9-0.06,1.22
									c-0.03,0.05-0.13,0.11-0.16,0.16c-0.13,0.11-0.31,0.19-0.45,0.22c-0.18,0.08-0.37,0.09-0.58,0.02
									c-0.17-0.04-0.26-0.09-0.4-0.18c-0.05-0.03-0.09-0.06-0.14-0.08c-0.01,0.31-0.15,0.54-0.42,0.69
									c-0.08,0.02-0.1,0.06-0.18,0.08c-0.08,0.02-0.15,0.04-0.22,0.05c-0.03,0.05-0.06,0.09-0.08,0.14
									C46.89,17.6,46.11,17.63,45.82,17.07z M51.53,16.09c-0.52,0.13-0.83,0.75-0.54,1.18c0,0,0.05,0.03,0.02,0.08
									c0.32,0.51,1.02,0.49,1.32,0.11l0.05,0.03c0.33,0.08,0.63,0.01,0.93-0.18c0.35-0.17,0.51-0.64,0.31-1.02
									c-0.19-0.3-0.68-0.54-1.01-0.3c-0.14,0.11-0.23,0.17-0.36,0.28C52.08,16.12,51.78,15.99,51.53,16.09z M49.39,9.1
									c-0.03,0.05-0.04,0.17-0.07,0.21c-0.16,0.46,0.2,1.01,0.68,1.05c0.33,0.07,0.57-0.1,0.78-0.34
									c0.22-0.05,0.45-0.22,0.52-0.44c0.03-0.05,0.01-0.12,0.04-0.17c0.17-0.59-0.39-1.12-0.93-0.95
									c-0.08,0.02-0.15,0.04-0.18,0.08C49.8,8.54,49.49,8.73,49.39,9.1z M43.79,8.57c-0.26-0.09-0.46-0.28-0.48-0.55
									c-0.13-0.71,0.36-1.42,1.15-1.26c0.28,0.05,0.43,0.33,0.45,0.6c0.05,0.03,0.08-0.02,0.12,0.01c0.66-0.04,0.96,0.91,0.47,1.3
									c-0.03,0.05-0.06,0.09-0.1,0.07c0.1,0.24,0.05,0.53-0.16,0.78c0.01,0.19-0.08,0.33-0.24,0.48
									c-0.16,0.16-0.33,0.24-0.55,0.29c-0.08,0.02-0.15,0.04-0.27,0.02c-0.02,0.24-0.16,0.47-0.36,0.6
									c-0.41,0.26-0.94-0.01-1.09-0.48c-0.06-0.42,0.05-0.79,0.43-1c0.13-0.11,0.3-0.07,0.46-0.03c0.03-0.05,0.05-0.09,0.04-0.17
									c0.03-0.04,0.06-0.09,0.08-0.14C43.73,8.85,43.74,8.73,43.79,8.57z M53.24,14.12c0.03-0.05-0.02-0.07,0.01-0.12
									C53.22,14.05,53.22,14.05,53.24,14.12C53.2,14.09,53.2,14.09,53.24,14.12z M55.15,7.72l-0.03,0.05c0,0,0.03-0.05,0.07-0.02
									L55.15,7.72C55.1,7.69,55.15,7.72,55.15,7.72z M52.18,4.45c0.02,0.07,0.04,0.15,0.04,0.15c0.03-0.05,0.06-0.09,0.13-0.11
									c-0.09-0.05-0.2-0.18-0.29-0.24C52.11,4.34,52.16,4.38,52.18,4.45z M64.02,22.56c-1.78-0.9-3.35-1.43-5.17-1.85
									c1.65,1.32,3.18,2.83,4.75,4.18c2.27,1.96,4.64,3.85,6.53,6.21c2.07,2.59,3.62,4.99,6.9,6.13c2.55,0.88,5.15,0.76,7.72-0.05
									c-1.31-0.23-2.51-1.16-3.34-2.36c-2.47-3.47-2.06-7.95-6.3-10.3c-2.26-1.26-4.27-0.85-6.74-0.73
									C66.6,23.9,65.49,23.34,64.02,22.56z M47.22,3.48c-0.12-0.01-0.24-0.02-0.33-0.07c-0.19,0.01-0.4-0.06-0.6-0.24
									c-1.76-1.96-2.34-4.41-2.34-6.98c0.03-2,0.42-3.97,0.61-5.93c0.12-1.63,0.03-3.33,0.33-4.96c0.24-1.43,0.93-2.65,1.3-4.06
									c0.54-2.01-0.38-3.7-0.02-5.63c0.33-1.56,1.3-2.73,1.57-4.4c0.6-3.54-2.54-4.9-5.48-5.45c-0.33-0.07-0.2-0.49,0.07-0.52
									c2.64-0.08,5.26,0.89,6.41,3.43c0.48,1.05,0.47,1.99,0.28,3.14c-0.2,0.95-0.66,1.8-0.96,2.69c-0.53,1.57-0.36,2.74-0.2,4.23
									c0.18,1.56-0.21,2.71-0.76,4.2c-0.77,2.18-0.84,4.15-0.96,6.41c-0.23,4.27-1.57,8.81,1.1,12.59
									c1.68-3.57,2.95-6.45,2.58-10.58c-0.25-2.67-0.8-5.28-0.54-7.96c0.54-5.09,3.48-10.09,7.49-13.24
									c0.23-0.18,0.57,0.1,0.39,0.3c-1.96,2.9-4.07,5.51-5.35,8.82c-1.25,3.27-1.11,6.44-0.66,9.81c0.54,4.05,0.69,8.94-1.8,12.39
									c0.54-0.05,1.09-0.03,1.63,0.11c1.43-1.71,2.13-4.49,2.73-6.4c0.66-1.99,1.15-4.03,1.56-6.04
									c0.76-4.01,0.38-8.53,1.94-12.31c0.09-0.26,0.47-0.15,0.38,0.11c-0.93,2.96-0.75,6.16-1.11,9.21
									c-0.28,2.1-0.6,4.17-1.12,6.25c-0.58,2.48-1.45,7.18-3.49,9.59c0.18,0.11,0.32,0.2,0.48,0.35c0.49,0.43,1.01,0.93,1.53,1.51
									c2.01-5.83,4.43-11.54,6.34-17.43c0.07-0.33,0.54-0.17,0.49,0.11c-1.22,6-3.15,12.64-6.34,17.93
									c0.22,0.26,0.48,0.55,0.68,0.85c1.69-1.93,3.7-3.46,5.2-5.51c1.02-1.45,1.79-3.01,2.57-4.6c1.51-3.18,2.8-6.61,5.22-9.22
									c0.16-0.16,0.45,0.09,0.34,0.27c-2.3,3.44-3.78,7.08-5.59,10.76c-1.83,3.61-4.39,6.02-7.08,8.96
									c-0.03,0.05-0.03,0.05-0.07,0.02c0.47,0.67,0.95,1.33,1.3,1.99c2.76-1.4,5.11-4.63,6.93-6.97c0.24-0.29,0.7-0.01,0.5,0.31
									c-1.83,2.47-4.05,6.09-6.97,7.45c0.08,0.18,0.16,0.35,0.24,0.53c0.08-0.14,0.26-0.22,0.44-0.3c3.6-1.26,6.95-3.3,8.86-6.73
									c1.29-2.3,1.72-5.06,3.65-6.97c1.27-1.24,3-2.01,4.79-2.05c3.07-0.07,5.91,2.81,8.95,1.14c0.3-0.19,0.53,0.27,0.22,0.45
									c-1.88,1.31-3.64,0.8-5.68,0.11c-1.99-0.66-4.07-1.18-5.98-0.02c-2.02,1.22-2.7,3.58-3.46,5.64
									c-1.25,3.27-3.13,5.71-5.7,7.54c2.85-0.96,5.68-2.06,8.39-3.49c0.2-0.13,0.36,0.23,0.19,0.31
									c-4.1,2.78-9.41,4.95-14.35,6.02c0.03,0.58,0.02,1.21-0.08,1.78c1.54-0.56,3.07-0.57,4.79-0.71
									c2.53-0.21,4.97-0.6,7.49-1.21c4.83-1.19,9.33-3.29,13.92-5.21c0.17-0.08,0.36,0.22,0.19,0.31
									c-4.07,1.91-8.2,3.6-12.47,5.02c-4.62,1.45-9.16,1.76-13.84,2.6c-0.04-0.03-0.07,0.02-0.12-0.01
									c-0.03,0.05-0.01,0.12-0.04,0.17c3.49,0.38,6.94,1.23,10.48,1.51c3.83,0.33,7.69,0.31,11.52,0.14c0.31,0,0.3,0.43,0.01,0.51
									c-4.02,0.38-8.03,0.44-12.03,0.19c-3.21-0.21-6.91-0.46-10.08-1.46l-0.03,0.05c-0.04,0.17-0.1,0.38-0.14,0.54
									c5.04,2.27,11.34,2.48,16.77,2.79c5.33,0.24,10.73,0.09,16.05-0.56c0.27-0.02,0.4,0.38,0.1,0.45
									c-5.52,0.77-11.07,1.09-16.68,0.86c-5.41-0.23-11.61-0.51-16.63-2.7c-0.11,0.18-0.19,0.32-0.31,0.5
									c3.65,1.55,7.13,3.18,11.06,4.07c0.29,0.05,0.15,0.47-0.13,0.42c-3.92-0.7-8.05-1.78-11.46-3.94
									c-0.32,0.31-0.68,0.59-1.1,0.78c2.8,1.4,5.99,1.34,8.8,2.81c2.59,1.33,3.62,1.4,6.36,1.26c1.28-0.04,2.51,0.02,3.7,0.44
									c2.49,0.77,4.6,2.57,5.75,4.91c1.58,3.18,1.78,10.87,7.21,8.91c0.4-0.14,0.58,0.48,0.23,0.65c-0.48,0.27-1,0.4-1.46,0.43
									c-4.1,2.46-9.69,1.81-13.25-1.32c-2.76-2.39-4.66-5.57-7.46-7.98c-3.01-2.6-6.51-5.01-9.18-7.96c0,0,0,0-0.04-0.03
									c-0.86-0.34-1.63-0.74-2.35-1.51c-0.56-0.53,0.22-1.38,0.81-1.02c0.05,0.03,0.14,0.08,0.18,0.11
									c1.17-0.67,1.73-1.59,1.94-2.66c-0.07,0.02-0.07,0.02-0.15,0.04c-0.15,0.03-0.27,0.02-0.34,0.04
									c0.22,0.26,0.28,0.67,0.08,0.99c-0.22,0.37-0.74,0.49-1.11,0.27c-0.36-0.22-0.49-0.74-0.27-1.11
									c0.2-0.32,0.52-0.44,0.85-0.36c-0.11-0.13-0.18-0.23-0.21-0.38c-0.15,0.04-0.27,0.03-0.43-0.01
									c-0.02,0.11-0.04,0.16-0.1,0.26c-0.14,0.23-0.34,0.35-0.61,0.38c-0.04,0.17-0.15,0.35-0.31,0.51
									c-0.23,0.17-0.59,0.14-0.87-0.03c-0.28-0.17-0.39-0.49-0.3-0.75c-0.07,0.02-0.1,0.06-0.18,0.08
									c-0.34,0.05-0.61-0.13-0.76-0.4c-0.06-0.1-0.08-0.18-0.11-0.32c-0.01,0.12-0.07,0.21-0.13,0.3
									c-0.05,0.09-0.11,0.18-0.17,0.28c-0.59,0.96-2.1,0.03-1.52-0.93c0.06-0.09,0.11-0.19,0.17-0.28
									c0.14-0.23,0.34-0.36,0.57-0.41c-0.06-0.22-0.05-0.54,0.09-0.77c0.09-0.14,0.14-0.23,0.22-0.36
									c0.28-0.46,0.84-0.55,1.26-0.3c0.36,0.22,0.52,0.7,0.39,1.12c0.11,0.01,0.19-0.01,0.28,0.05c0.35,0.16,0.56,0.53,0.48,0.86
									c0.22-0.36,0.67-0.47,1.04-0.37c0.07-0.21,0.21-0.44,0.39-0.52c0.07-0.02,0.1-0.06,0.15-0.03c0.35-0.17,0.8-0.08,1.04,0.26
									c0.06,0.1,0.13,0.2,0.15,0.28c0.16,0.04,0.28,0.05,0.42,0.13c0.02-0.12-0.01-0.19,0.01-0.31c-0.02-0.07,0.01-0.12-0.01-0.19
									c-0.25,0.1-0.58,0.02-0.78-0.17c-0.27-0.29-0.26-0.72,0.06-1.03c0.06-0.09,0.13-0.11,0.19-0.2
									c-0.16-0.16-0.33-0.39-0.35-0.66c-0.08-0.49,0.2-0.95,0.69-1.02c-0.02-0.08-0.04-0.15-0.05-0.22
									c-0.25,0.41-0.76,0.61-1.19,0.4c-0.02,0.24-0.04,0.48-0.16,0.66c-0.03,0.05-0.13,0.11-0.16,0.16
									c-0.04,0.48-0.39,0.83-0.86,0.79c-0.43-0.01-0.88-0.41-0.8-0.86c0.03-0.04,0.02-0.12,0.04-0.17
									c0.01-0.12,0.05-0.28,0.14-0.42c-0.02-0.08,0.01-0.13,0.02-0.24c-0.03-0.46,0.27-0.84,0.71-0.95
									c0.15-0.04,0.34-0.04,0.48,0.04c0,0-0.05-0.03-0.02-0.07c-0.03-0.15-0.04-0.34,0-0.51c-0.34,0.04-0.68-0.03-0.84-0.39
									c-0.06-0.1-0.13-0.2-0.14-0.28c-0.24-0.53,0-1.14,0.59-1.28l0.08-0.02c-0.07-0.1-0.2-0.18-0.27-0.29
									c-0.23,0.17-0.56,0.29-0.88,0.09c-0.27-0.17-0.5-0.31-0.67-0.54c-0.16-0.16-0.21-0.38-0.27-0.6l-0.03,0.05
									c-0.27,0.34-0.86,0.17-1.09-0.17c-0.16-0.35-0.03-0.78,0.28-0.97c0.2-0.13,0.49-0.07,0.67,0.04
									c-0.43-0.33-0.84-0.58-1.33-0.81c-0.08,0.14-0.14,0.23-0.27,0.34c-0.03,0.04-0.03,0.04-0.07,0.02
									C50,3.68,49.7,3.75,49.51,3.56c-0.09-0.05-0.19-0.11-0.2-0.18c-0.16-0.16-0.22-0.26-0.22-0.46
									c-0.46,0.04-0.95,0.11-1.45,0.31c0.12,0.01,0.29,0.05,0.43,0.13c0.68,0.23,0.74,1.15,0.13,1.53
									c-0.31,0.19-0.74,0.18-1.03-0.06c-0.39-0.3-0.54-0.77-0.29-1.18C46.98,3.66,47.11,3.55,47.22,3.48z M50.11,17.06
									c-0.48-0.04-0.93,0.38-0.8,0.9c0.02,0.07,0.02,0.07,0.04,0.15c0.07,0.3,0.39,0.49,0.7,0.5c-0.03,0.04-0.04,0.16-0.07,0.21
									c-0.11,0.18-0.13,0.42-0.01,0.63c0.15,0.28,0.49,0.43,0.84,0.39c0.52-0.12,0.78-0.65,0.7-1.14
									c-0.08-0.49-0.5-0.63-0.84-0.58C50.85,17.7,50.69,17.16,50.11,17.06z M46.65,9.44c0.13,0.52,0.49,0.74,1.01,0.62
									c0.69-0.2,0.9-1.15,0.26-1.55C47.27,8.13,46.52,8.73,46.65,9.44z M52.19,6.79c-0.45-0.28-1.09-0.17-1.4,0.33
									c-0.28,0.46-0.15,1.17,0.33,1.41c0.46,0.28,1.1,0.17,1.41-0.34C52.78,7.78,52.65,7.07,52.19,6.79z M37.16,111.96
									c0.47,0.47,0.98,0.98,1.62,1.38c1.33,0.81,3.91,1.64,5.49,2.04c3.46,0.93,5-2.6,7.36-4.5c-1.01,0.2-2.06,0.38-3,0.05
									c-0.52-0.19-1.06-0.52-1.54-0.88c0.21,0.57,0.25,1.23,0.23,1.78c0.01,0.19-0.36,0.28-0.39,0.02
									c-0.08-0.49-0.23-0.96-0.41-1.39c-0.15-0.28-0.34-0.58-0.56-0.85c-0.28,0.15-0.53,0.25-0.82,0.32
									c-0.72,0.76-1.32,1.65-1.22,2.72c0.01,0.19-0.33,0.23-0.34,0.04c-0.09-0.88,0.16-1.8,0.64-2.58
									c-0.15,0.04-0.32,0.12-0.47,0.16c-0.56,0.29-1.08,0.72-1.65,0.94c-1.18,0.47-2.27-0.01-3.28-0.63
									C38.4,111.27,37.81,111.72,37.16,111.96z M42.24,106.25c-0.15,0.66-0.31,1.32-0.37,2.04c-0.03,0.36-0.54,0.36-0.55-0.03
									c-0.06-0.73-0.02-1.52,0.17-2.23c-0.28,0.78-0.61,1.52-1.1,2.1c-0.32,0.62-0.69,1.34-1.14,1.95
									c0.51,0.31,1.04,0.57,1.64,0.63c1.08,0.09,1.49-0.47,2.15-1.14c0.63-0.62,1.44-1.01,2.3-0.98c-0.4-0.38-0.79-0.67-1.24-0.95
									C43.41,107.22,42.8,106.78,42.24,106.25z M38.11,75.78c0.14-0.23,0.31-0.5,0.53-0.75c0.31-0.31,0.61-0.19,0.86,0.03
									c0,0,0.05,0.03,0.09,0.06c0.42,0.26,0.85,0.46,1.26,0.52c-0.05-0.03-0.06-0.1-0.16-0.16c-1.45-3.6-2.19-7.52-3.02-11.31
									c-0.07-0.29,0.34-0.35,0.44-0.1c1.1,3.64,1.91,7.47,3.41,10.98c0.1,0.25-0.04,0.48-0.17,0.59c0.15-0.04,0.37-0.09,0.55-0.17
									c0.07-0.02,0.13-0.11,0.2-0.13c-0.02-0.27,0.21-0.44,0.43-0.49c0.06-0.09,0.11-0.19,0.12-0.31
									c-0.37-0.73-0.38-1.74-0.56-2.48c-0.31-1.14-0.79-2.31-1.38-3.31c-0.08-0.17,0.15-0.34,0.26-0.21
									c0.74,0.95,1.28,1.92,1.74,3.02c0.2,0.5,0.43,1.15,0.55,1.79c0.18-0.2,0.47-0.16,0.63,0.01c-0.48-2.19-1.43-4.35-2.56-6.31
									c-0.67-1.17-1.47-2.22-2.35-3.27c-0.17-0.23-1.83-1.95-1.51-2.06c0,0,0,0-0.07,0.02c-1.15,1.56-0.65,4.96-0.35,6.53
									c0.4,2.02,0.99,4.14,1.74,5.99c0.18,0.43-0.38,0.71-0.63,0.31c-0.15-0.28-0.32-0.51-0.46-0.79
									C37.93,74.53,37.99,75.14,38.11,75.78z M23.62,85.11c3.36-0.96,5.77-3.33,7.54-6.22c-0.16,0.15-0.36,0.28-0.57,0.41
									c-0.92,0.57-2.06,0.69-3.13,0.98c-1.43,0.38-2.91,0.93-4.29,1.53c-0.17,0.08-0.27-0.17-0.14-0.28
									c1.44-1.01,2.85-1.78,4.57-2.31c1.16-0.35,2.26-0.5,3.18-1.39c0.64-0.62,1.07-1.43,1.38-2.24
									c-1.11,0.77-2.39,1.31-3.82,1.69c-2.52,0.72-9.59,0.73-10.64,3.57c-0.09,0.26-0.47,0.15-0.38-0.11
									c0.75-2.25,3.16-2.47,5.23-2.97c3.47-0.83,6.61-1.43,9.43-3.35c-2.86,0.96-6.52-0.47-9.51-1.05
									c-2.54-0.48-4.39-0.35-6.16,1.71c-1.66,1.89-2.95,3.68-1.93,6.32c0.66,1.6,1.36,2.92,1.22,4.59
									C18.2,86.33,21.21,85.84,23.62,85.11z M35.92,69.39c-0.04,0.17-0.08,0.33-0.15,0.54c0.1-0.06,0.18-0.08,0.3-0.07
									C35.96,69.72,35.92,69.58,35.92,69.39z M12.79,11.49C8.42,7.93,4.31,4.65-0.95,2.44c-2.17-0.89-4.31-1.7-6.33-2.94
									c-2.55-1.5-4.93-3.28-7.71-4.29c-4.56-1.6-9.24-3.34-13.93-4.64c-3.1-0.9-6.27-1.2-9.41-1.61c1.27,1.22,2.58,2.47,3.85,3.69
									c2.83,0.22,5.58,0.78,8.19,1.87c4.09,1.76,7.71,4.8,11.36,7.29c0.14,0.08,0.14,0.28,0.09,0.37
									c0.27-0.03,0.42,0.45,0.14,0.59c-1.94,0.89-3.42,2.38-5.11,3.61c0.05,0.03,0.05,0.03,0.09,0.05
									c0.14,0.09,0.09,0.25-0.03,0.36c0.41,0.76,1.19,1.55,1.65,2.15c0.52,0.7,1.08,1.42,1.6,2.12c0.12,0.01,0.26,0.09,0.37,0.22
									c0.69,0.93,1.35,1.91,1.97,2.85c0.9,0.8,1.81,1.68,2.75,2.51c-0.02-0.08,0.04-0.17,0.09-0.26c-0.3-0.13-0.19-0.62,0.17-0.59
									c0.03-0.04,0.09-0.14,0.11-0.18c0.63-0.62,0.84-0.74,1.72-0.65c1.01,0.11,1.99,0.66,3.07,0.75c0.96,0.08,1.94-0.07,2.9,0.01
									c3.11,0.27,6.24,1.44,8.55,3.54C6.59,15.95,9.47,13.11,12.79,11.49z M-5.34,18.53c1.95,0,4.81,1,6.14-0.65
									c-1.46-0.59-2.97-1.01-4.76-1.09c-1.1-0.05-2.2,0.09-3.3-0.07c-0.69-0.11-1.68-0.65-2.51-0.53
									C-8.09,16.65-6.7,17.57-5.34,18.53z M4.85,20.12c-1.21-0.81-2.43-1.49-3.66-2.06c-0.58,0.84-1.47,1.18-2.44,1.21
									c-0.78,0.03-1.61-0.05-2.41-0.09c-0.24-0.02-0.51,0-0.75-0.02c0.09,0.06,0.14,0.09,0.23,0.14c1.34,1.01,2.71,1.85,4.09,2.7
									c0.53-0.24,1.1-0.46,1.67-0.67c0.83-0.32,2.01-0.6,2.38-1.51c0.07-0.21,0.44-0.1,0.38,0.1c-0.32,0.82-0.93,1.2-1.68,1.49
									c-0.7,0.33-1.41,0.65-2.08,0.93c1.24,0.76,2.5,1.47,3.76,2.3c0.09,0.06,0.01,0.19-0.08,0.14c-1.63-0.43-3.1-1.21-4.52-2.08
									c-0.03,0.05-0.08,0.02-0.1,0.06c-0.22,0.05-0.35-0.15-0.31-0.32c-1.63-1.06-3.19-2.21-4.81-3.26
									c2.09,1.72,3.86,3.88,5.3,6.15c0.13,0.2-0.18,0.4-0.31,0.19c-2.56-3.02-4.7-6.1-8.27-8.1c-0.05-0.03-0.09-0.06-0.06-0.1
									c-0.21-0.06-0.44-0.2-0.65-0.27c4.88,4.38,8.25,9.98,14.8,12.05c-0.7-0.81-1.4-1.61-2.15-2.45
									c-0.96-1.1-1.92-2.63-3.37-3.14c-0.16-0.04-0.07-0.3,0.09-0.26c1.22,0.37,1.92,1.3,2.8,2.22c0.84,0.9,1.72,1.82,2.57,2.71
									c-0.53-2.03-1.19-4.13-0.76-6.27C4.51,21.29,4.68,20.71,4.85,20.12z M5.56,29.95c-1.61-0.36-3.22-0.91-4.73-1.65
									c-0.26,0.22-0.54,0.36-0.78,0.66c-0.24,0.29-0.3,0.7-0.56,0.92c-0.03,0.05-0.1,0.06-0.1,0.06c0.06,0.1,0.17,0.23,0.16,0.35
									c0.17,2.81,1.23,4.98,2.66,6.87c-0.68-2.18-1.42-4.47-1.54-6.75c-0.04-0.34,0.46-0.34,0.54-0.05
									c0.61,2.4,0.81,4.85,1.45,7.2c0.02,0.07-0.01,0.11-0.01,0.11c1.31,1.56,2.83,3,4.36,4.51c-0.52-1.01-0.98-1.99-1.38-2.99
									c-0.74-1.78-0.92-3.65-1.58-5.44c-0.11-0.33,0.33-0.43,0.5-0.2c0.95,1.53,0.96,3.68,1.6,5.4c0.55,1.47,1.2,2.88,1.82,4.33
									c0.38,0.42,0.75,0.84,1.09,1.3c1.68,2.1,3.67,3.58,6,4.82c-2.41-3.06-4.34-6.39-5.86-9.97c-0.71-0.38-1.27-0.91-1.69-1.67
									c-0.31-0.63-0.56-1.35-0.81-2.07c-1.93-2.2-3.99-4.28-6.45-6.04c-0.29-0.24-0.01-0.7,0.31-0.51
									c0.69,0.42,1.39,0.92,2.02,1.43c0.7-0.01,1.34,0.39,1.99,0.66c0.44,0.21,0.83,0.39,1.25,0.64
									C5.77,31.15,5.66,30.52,5.56,29.95z M6.03,32.38c-0.57-0.29-1.23-0.56-1.83-0.81c-0.17-0.04-0.3-0.12-0.47-0.16
									c0.94,0.83,1.78,1.72,2.62,2.62C6.22,33.51,6.13,32.94,6.03,32.38z M18.92,44.77c-0.56-0.22-1.11-0.56-1.66-0.9
									c-0.7-0.3-1.42-0.55-2.15-0.81c-0.38-0.1-0.83-0.19-1.21-0.3c0.89,0.92,1.8,1.8,2.71,2.67c-0.02-0.07-0.01-0.19,0.14-0.23
									c0.79-0.15,1.62,0.24,2.36,0.57c0.56,0.22,1.02,0.5,1.52,0.81c-0.53-0.58-1.01-1.13-1.6-1.61
									C18.98,44.87,18.94,44.84,18.92,44.77z M21.46,47.53c-0.07,0.02-0.12-0.02-0.17-0.04c-0.78-0.48-1.61-0.86-2.48-1.2
									c-0.52-0.19-1.04-0.26-1.53-0.49c0.16,0.16,0.24,0.33,0.35,0.46c2.1,1.92,4.3,3.78,6.55,5.66c0.12,0.01,0.26,0.09,0.38,0.1
									C23.55,50.58,22.58,48.97,21.46,47.53z M22.7,51.56c-1.52-1.12-2.95-2.38-4.39-3.64c0.06,0.22,0.18,0.42,0.23,0.65
									c0.32,0.82,0.66,1.6,0.93,2.4C20.54,51.18,21.63,51.35,22.7,51.56z M16.96,45.71c0,0-0.05-0.03-0.09-0.06
									C16.91,45.68,16.91,45.68,16.96,45.71z M11.72,40.48c0.05,0.03,0.05,0.03,0.06,0.1c0.44,0.52,0.9,0.99,1.37,1.47
									c0.53-0.05,1.15,0.08,1.74,0.25c-0.98-0.67-1.96-1.33-3.04-1.73C11.89,40.52,11.79,40.46,11.72,40.48z M15.92,49.86
									c1.02,0.5,2.07,0.83,3.09,1.02c-0.34-0.78-0.64-1.53-1.01-2.26c-0.3-0.63-0.71-1.19-0.99-1.87
									c-1.56-1.46-3.09-2.97-4.57-4.57c-0.68-0.74-1.36-1.47-1.97-2.22c-0.09-0.06-0.21-0.07-0.31-0.13
									c1.53,3.46,3.42,6.77,5.58,9.92C15.83,49.81,15.88,49.84,15.92,49.86z M-3.71,26.46c0.23,0.46,0.38,0.93,0.53,1.4
									c0.07-0.02,0.12,0.01,0.19-0.01c0.54,0.15,0.74,0.65,1.02,1.13c0.19,0.31,0.33,0.59,0.53,0.9c0.1-0.07,0.2-0.13,0.35-0.17
									c0,0-0.05-0.03-0.02-0.07c-0.16-0.67,0.44-1.43,1.08-1.86c-1.22-0.69-2.37-1.58-3.4-2.59c-1.18-1.17-2.05-2.52-3.13-3.74
									c0.04,0.15,0.04,0.34,0.08,0.49C-5.4,23.35-4.42,24.84-3.71,26.46z M-7.74,21.72c-1.58-2.04-3.5-3.85-5.39-5.7
									c3.22,5.95,4.56,12.51,3.85,19.52c-0.03,0.36-0.58,0.34-0.55-0.02c0.28-3.55-0.02-7.07-0.83-10.47
									c-0.07,0.02-0.17-0.04-0.18-0.11c-0.42-1.07-0.93-2.08-1.58-2.98c-0.55-0.85-1.29-1.49-1.88-2.29
									c-0.05,0.91-0.11,1.82-0.21,2.71c-0.26,3.5-0.36,6.96-0.02,10.4c0.72,0.06,1.43,0.24,2.13,0.55
									c0.3,0.13,1.87,1.27,2.06,1.07c0.21-0.24,0.54,0.15,0.35,0.35c-0.38,0.4-0.83,0.12-1.24-0.13c-1.03-0.7-2.03-1.12-3.19-1.27
									c0.22,1.59,0.52,3.16,0.99,4.65c1.44-0.7,3.09-1.14,4.27-2.24c0.01-0.12,0.14-0.23,0.21-0.24c0.06-0.09,0.16-0.16,0.24-0.29
									c0.03-0.05,0.03-0.05,0.03-0.05C-9.14,30.58-6.76,26.3-7.74,21.72z M-8.36,36.72c-0.16,1.48-0.32,3.09-0.58,4.64
									c0.02,0.07,0.01,0.19-0.02,0.24c-0.13,0.61-0.21,1.26-0.33,1.88c0.05,0.03,0.05,0.03,0.06,0.1
									c1.98,3.55,3.41,7.39,4.32,11.35c0.59-2.92,0.82-5.86,0.44-8.74c-0.69-2.57-1.76-5.24-3.62-6.64
									c-0.38-0.3-0.02-0.9,0.4-0.65c0.64,0.4,1.21,1,1.64,1.64C-6.71,39.26-7.44,37.99-8.36,36.72z M-7.06,62.24
									c0.05-0.09,0.04-0.16,0.09-0.26c-0.15,0.04-0.24-0.02-0.35-0.15c-1.17-3.24-2.79-6.25-4.03-9.47
									c-0.14,0.54-0.26,1.04-0.41,1.58c0.09,0.06,0.18,0.23,0.05,0.34c-0.06,0.09-0.14,0.23-0.2,0.32
									c-0.16,0.78-0.35,1.48-0.51,2.27c-0.01,0.12-0.04,0.16-0.05,0.28c0.05,0.03,0.12,0.01,0.14,0.09
									c0.97,1.29,1.47,3.05,1.96,4.61c0.57,1.73,0.99,3.51,1.13,5.35C-8.42,65.58-7.67,63.95-7.06,62.24z M-9.39,67.57
									c-0.07,0.02-0.17-0.04-0.18-0.11c-0.36-3.31-1.7-6.47-3.03-9.55c-0.42,2.02-0.76,4.01-1.06,6.04c0,0,0,0,0.05,0.03
									c0.02,0.08-0.04,0.17-0.02,0.24c0.05,0.03,0.05,0.03,0.09,0.06c0.82,0.82,1.23,2.2,1.61,3.33c0.41,1.19,0.61,2.39,0.75,3.61
									C-10.61,69.97-9.99,68.77-9.39,67.57z M-12.13,73.27c0.23-0.48,0.45-1.05,0.69-1.53l-0.05-0.03c-0.2-1.32-0.54-2.6-1.01-3.9
									c-0.35-0.97-0.9-1.82-1.28-2.74c-0.57,4.64-0.71,9.28-0.32,13.99c0.04,0.15-0.23,0.18-0.27,0.03
									c-0.38-2.88-0.49-5.78-0.39-8.62c-0.92,1.7-1.89,3.38-2.81,5.09c-0.08,0.14-0.34,0.04-0.3-0.13
									c0.65-1.88,1.69-3.88,2.96-5.44c0.03-0.05,0.1-0.06,0.15-0.03c0.05-1.42,0.18-2.86,0.3-4.3c-0.48,0.59-1.17,1.18-1.52,1.66
									c-1.34,1.89-2.39,3.89-3.32,6.03l-0.03,0.05c1.39,2.87,3.82,5.18,5.14,8.07C-14.37,78.57-13.2,75.64-12.13,73.27z
									 M-19.39,72.97c0.6-1.4,3.9-8.52,5.11-8.84c0.19-1.65,0.43-3.27,0.74-4.91c0.18-1.02,0.37-2.04,0.6-3.04
									c-2.94,4.38-5.49,8.74-7.56,13.65C-20.22,70.95-19.85,71.99-19.39,72.97z M-9.59,44.68c-0.48,2.23-1.01,4.43-1.54,6.63
									c2.01,2.99,3.17,6.86,4.22,10.28c0.64-1.75,1.18-3.56,1.6-5.39C-6.19,52.19-7.65,48.4-9.59,44.68z M-20.68,69.53
									c1.81-5.32,4.48-10.49,8-14.89c0.89-4.12,1.92-8.16,2.64-12.32c-4.2,2.84-7.59,6.51-10.17,10.92
									c-0.07,1.66,0.13,3.29-0.11,4.91c-0.06,0.41-0.15,0.85-0.2,1.26c2.45-4.61,5.28-9.43,9.22-12.88
									c0.16-0.15,0.45,0.09,0.34,0.27c-3.33,4.71-7.05,8.92-9.85,14.01c-0.41,1.7-0.77,3.31-0.55,5.21
									C-21.15,67.22-20.92,68.38-20.68,69.53z M-20.04,51.95c-0.02,0.24-0.04,0.48-0.04,0.67c2.45-4.61,5.89-8.36,10.29-11.21
									c0.16-0.98,0.31-1.95,0.42-2.96c-2.84,1.85-5.07,4.46-8.03,6.11c-0.07,0.02-0.15,0.03-0.19,0.01
									C-18.8,46.84-19.74,49.3-20.04,51.95z M-17.33,44.03c2.96-1.84,4.77-4.9,8.01-6.38c0.05-0.28,0.05-0.6,0.05-0.91
									c-0.95,0.74-1.93,1.21-3.17,1.78C-14.73,39.7-16.1,41.82-17.33,44.03z M-16.9,41.58c0.65-1.06,1.39-2.05,2.27-2.77
									c0.29-0.27,0.64-0.43,0.97-0.66c-0.58-1.62-1.02-3.28-1.26-4.94c-0.06-0.1-0.09-0.25-0.04-0.34
									c-0.28-1.81-0.41-3.66-0.43-5.56c-1.44,2.45-2.95,4.81-4.3,7.32c-0.06,0.09-0.13,0.11-0.18,0.08
									c0.64,1.53,1.43,3.02,2.08,4.62l-0.02-0.07c0.41-2.21,1.06-4.4,2.1-6.41c0.11-0.18,0.4-0.13,0.48,0.04
									c0.14,0.28,0.14,0.28,0.09,0.56c-0.01,0.12-0.19,0.2-0.3,0.07c-0.86,1.93-1.56,3.77-2,5.83c-0.04,0.17-0.23,0.17-0.34,0.04
									C-17.47,40.16-17.15,40.86-16.9,41.58z M-20,34.51c1.38-2.76,2.84-5.45,4.44-8.06c0.03-0.04,0.06-0.09,0.13-0.1
									c-0.01-0.2,0.01-0.32-0.01-0.51c0.02-1.25,0.15-2.49,0.23-3.77c0.02,0.07-0.01,0.12-0.11,0.18
									c-2.38,2.33-4.48,4.63-5.85,7.69c-0.06,0.09-0.27,0.03-0.21-0.07c1.3-3.05,3.07-5.93,5.71-7.97c0.2-0.13,0.43,0.01,0.44,0.2
									c0.11-1.82,0.25-3.69-0.06-5.45c-2.58,2.26-4.72,4.92-6.43,7.91c-0.03,0.55-0.08,1.15-0.07,1.66
									C-21.89,29.38-21.1,32-20,34.51z M-21.15,21.07c-0.19,0.83-0.36,1.73-0.42,2.64c1.6-2.93,3.64-5.52,6.2-7.73
									c-0.22-1.08-0.57-2.06-1.16-3.05c-0.21,1.26-0.92,2.21-1.81,3.36C-19.46,17.81-20.64,19.11-21.15,21.07z M-14.27,18.91
									c0.04,0.03,0.07-0.02,0.11,0.02c1.08,0.6,1.95,1.76,2.56,3.02c-0.73-2.09-1.71-4.2-2.87-6.11
									C-14.26,16.84-14.21,17.88-14.27,18.91z M-8.79,19.32c0.48,0.55,1.04,1.08,1.49,1.67c0.08-0.02,0.2-0.01,0.27-0.02
									C-7.59,20.36-8.2,19.8-8.79,19.32z M-21.8,6.72c0.28-0.14,0.55-0.29,0.83-0.43c-3.68-1.82-7.49-4.03-10.74-6.65
									c-0.29-0.05-0.61-0.13-0.9-0.18c-0.07,0.02-0.1,0.06-0.18,0.08c-0.24,0.1-0.51,0.01-0.59-0.17
									c-0.28-0.05-0.65-0.08-0.93-0.13c-1.24-0.13-2.47-0.19-3.69-0.25c4.91,2.89,9.44,5.98,14.82,8.21
									C-22.73,7.1-22.26,6.95-21.8,6.72z M-24.06,7.42c-5.06-2.03-10.42-4.5-14.68-7.94c-0.03,0.05-0.03,0.05-0.06,0.09
									c-0.2,0.32-0.64,0.11-0.64-0.2c0.02-0.11,0.05-0.28,0.06-0.4c-1.06-0.02-2.1,0.04-3.22,0.1c2.15,1.13,4.16,2.99,6.14,4.28
									c1.76,1.14,3.59,2.27,5.44,3.27C-28.62,7.15-26.46,7.84-24.06,7.42z M-32.89,6.29c-0.99-0.55-1.98-1.09-2.97-1.63
									c-1.15-0.7-2.34-1.44-3.45-2.19c-0.75-0.52-3.39-2.9-4.3-2.76c-0.34,0.04-0.55-0.34-0.33-0.58
									c-0.85,0.05-1.65,0.12-2.53,0.21c3.54,2.05,6.46,5.1,10.14,6.92c0.99,0.04,1.99-0.17,3-0.06
									C-33.17,6.24-33.01,6.28-32.89,6.29z M-42.53,3.72c1.43,0.75,2.95,1.87,4.55,2.35c-3.5-1.9-6.58-4.48-9.96-6.49
									c-0.88,0.09-1.71,0.21-2.55,0.26C-47.74,0.9-45.09,2.33-42.53,3.72z M-38.51,14.52c0.17,0.86,0.36,1.67,0.6,2.51
									c2.06,2.09,4.18,4.08,6.69,5.74c0.18,0.11,0.01,0.39-0.17,0.28c-2.16-1.2-4.3-2.64-6.08-4.36c0.31,1.14,0.64,2.35,0.95,3.48
									c0.08-0.02,0.17,0.04,0.23,0.14c2.47,2.96,5.24,5.55,8.42,7.76c0.08-2.79-0.11-5.56-1.32-8.13
									c-0.16-0.35-0.37-0.73-0.53-1.08c-0.08,0.02-0.15,0.03-0.2,0.01C-33.16,19.06-35.87,17.01-38.51,14.52z M-27.91,31.67
									c0.02-0.43,0.05-0.79,0.03-1.18c0,0-0.05-0.03-0.09-0.06c-3.04-1.93-5.77-4.17-8.16-6.84c0.58,1.93,1.16,3.86,1.67,5.82
									c0.09,0.05,0.18,0.11,0.14,0.28c0.02,0.07-0.04,0.17-0.02,0.24c0,0,0,0,0.02,0.07c0.07-0.02,0.15-0.03,0.24,0.02
									c2.06,1.58,4.02,3.22,6.1,4.76C-27.92,33.74-27.93,32.73-27.91,31.67z M-28.22,39.99c0.03-0.05,0.01-0.12,0.01-0.12
									c-0.03,0.05-0.1,0.06-0.19,0.01c-1.7-1.04-3.3-2.33-4.38-4.07c-0.18-0.23,0.23-0.49,0.41-0.26c1.3,1.49,2.57,2.9,4.21,4.03
									c0.05,0.03,0.05,0.03,0.02,0.08c0.17-1.41,0.22-2.83,0.22-4.28c-2.16-1.2-4.37-2.74-6.09-4.56
									c0.35,1.48,0.71,2.96,0.99,4.45c0.12,0.01,0.3,0.13,0.19,0.31c-0.01,0.12-0.06,0.21-0.12,0.3c0.27,1.62,0.51,3.28,0.64,4.93
									c0.02,0.27-0.41,0.25-0.43-0.02c0,0,0.03-0.05-0.02-0.07c-0.26,1.04-0.67,2.11-1.05,3.14c0.77,1.1,1.55,2.21,2.27,3.29
									C-30.28,44.79-28.55,43.01-28.22,39.99z M-36.49,25.02c-0.72,3.53-1.65,7-3.26,10.23c0.61,1.07,1.27,2.04,1.93,3.02
									c1.5-2.55,2.48-5.29,2.84-8.22C-35.46,28.36-35.99,26.65-36.49,25.02z M-33.31,36.88c-0.66,1.48-1.69,2.86-2.62,4.07
									c0.65,0.9,1.29,1.8,1.89,2.67c0.27-1.16,0.54-2.32,0.97-3.44c0.06-0.09,0.14-0.11,0.2-0.13
									C-32.98,39.03-33.13,37.93-33.31,36.88z M-34.55,31.51c-0.48,2.54-1.51,4.94-3.03,7.1c0.49,0.74,0.96,1.41,1.48,2.1
									c0.48-0.78,0.98-1.6,1.42-2.41c0.43-0.81,0.74-1.63,1.22-2.41C-33.82,34.42-34.17,32.94-34.55,31.51z M-40.89,33.1
									c0.29,0.55,0.63,1.14,0.96,1.72c1.57-3.58,2.31-7.35,3.03-11.19c-0.42-1.27-0.8-2.51-1.14-3.79
									c-0.73,3.46-2.08,6.67-4.05,9.69c-0.06,0.09-0.2,0.13-0.3,0.07C-41.97,30.86-41.45,32.06-40.89,33.1z M-51.18,4.65
									c-0.92-1.07-2.04-2.01-3.17-2.33c-0.29,0.78-0.54,1.5-0.71,2.28c1.33-0.32,2.7,1.66,3.5,2.53c1.24,1.27,2.3,2.61,3.31,4.05
									C-48.96,8.85-49.95,6.67-51.18,4.65z M-47.58,14.31c-0.11-0.64-0.23-1.28-0.37-1.87c-0.91-1.19-1.85-2.33-2.86-3.46
									c-0.48-0.55-3.34-4.01-4.3-3.58c-0.07,0.02-0.07,0.02-0.15,0.04c-0.04,0.17-0.03,0.36-0.07,0.53c0,0.82,0.05,1.67,0.24,2.48
									c1.51,0.42,2.68,1.7,3.82,2.72c1.43,1.38,2.72,2.86,3.89,4.46C-47.41,15.16-47.47,14.74-47.58,14.31z M-47.31,16.43
									c-2.11-2.62-4.58-5.27-7.52-7.07c0.25,1.04,0.61,2.08,0.94,3.1c0.11-0.18,0.41-0.26,0.58-0.02c2.3,2.61,4.04,5.44,5.55,8.52
									C-47.39,19.53-47.2,18.01-47.31,16.43z M-48.73,23.69c0.39-0.84,0.73-1.7,0.96-2.5c-0.07,0.02-0.17,0.08-0.24-0.02
									c-1.54-2.83-3.53-5.45-5.64-7.87c0.02,0.07,0.02,0.07,0.04,0.15c0.5,1.76,1.26,3.61,1.86,5.49
									c0.02-0.24,0.34-0.36,0.48-0.08c0.87,1.67,1.59,3.37,2.36,5.1C-48.82,23.82-48.79,23.78-48.73,23.69z M-52.84,25.65
									c-0.18-2.57-0.18-5.16-0.13-7.71c0,0-0.05-0.03-0.02-0.07c0.03-0.05,0.01-0.12,0.04-0.17c-0.32-1.02-0.64-2.03-0.96-3.05
									c-0.89,2.68-1.2,5.45-0.96,8.24c0.04,0.15-0.23,0.17-0.27,0.03c-0.41-3.03-0.18-5.97,0.76-8.93
									c0.06-0.09,0.11-0.18,0.19-0.2c-0.15-0.47-0.32-1.02-0.47-1.49c-1.18,2.43-2.43,4.88-3.47,7.4
									c-0.03,0.05-0.03,0.05-0.03,0.05C-56.54,21.92-54.47,23.57-52.84,25.65z M-59.46,18.05c0.32,0.51,0.64,1.02,1.03,1.52
									c1.06-2.76,2.14-5.44,3.46-8.1c0,0-0.05-0.03-0.02-0.07c-0.27-0.8-0.51-1.64-0.7-2.45l-0.05-0.03
									c-0.09-0.06-0.16-0.16-0.14-0.28c-1.24,2.64-2.79,5.16-3.99,7.83c-0.06,0.09-0.2,0.13-0.3,0.07
									C-59.98,17.04-59.73,17.57-59.46,18.05z M-60.23,16.32c1.21-2.79,2.38-5.73,4.07-8.29c0.06-0.09,0.16-0.15,0.25-0.1
									c-0.11-0.64-0.17-1.36-0.18-2.06c0.05-1.11,0.35-2.12,0.7-3.1c-1.99,1.61-3.91,3.4-5.68,5.34c0.02,0.07-0.01,0.12,0.01,0.19
									c0.05,1.35,0.05,2.8,0.14,4.19c0.77-2.49,2.16-5.99,4.58-7.16c0.18-0.08,0.35,0.15,0.19,0.31
									c-1.99,2.12-3.55,4.44-4.49,7.21c-0.05,0.09-0.16,0.16-0.25,0.1C-60.76,14.1-60.57,15.22-60.23,16.32z M-54.14,1.45
									c0.33,0.08,0.64,0.2,0.95,0.4c-0.23-0.33-0.54-0.65-0.81-0.94C-54,1.03-54.07,1.24-54.14,1.45z M-61.07,7.72
									c1.7-2.05,3.57-3.86,5.65-5.61c-0.29-0.05-0.39-0.49-0.1-0.56c0.22-0.06,0.4-0.14,0.67-0.16c0.1-0.38,0.18-0.71,0.24-1.11
									l-0.08,0.02c-0.08,0.14-0.26,0.22-0.4,0.14c-1.61,0.46-3.4,0.81-4.59,2.04C-61.23,3.97-61.18,5.84-61.07,7.72z M-45.64-1.91
									c0.68-1.1,2.26-1.83,3.27-2.34c1.29-0.66,2.59-1.24,3.92-1.76c-1.86,0.06-3.81,0.25-5.62,0.53
									c-0.42,0.06-0.79,0.15-1.11,0.27c-1.49,1.1-2.79,2.39-4.08,3.67C-48.12-1.67-46.91-1.8-45.64-1.91z M-50.54-1.32
									c0.84-1.06,1.82-2.04,2.91-2.89c-1.52,0.83-2.82,1.93-4.3,3.1C-51.49-1.21-51-1.29-50.54-1.32z M-31.05-5.44
									c-1.07-0.21-2.16-0.38-3.29-0.5c-0.79-0.05-1.58-0.09-2.41-0.09c-1.01,0.52-2.09,1.05-3.1,1.57
									c-1.36,0.68-3.18,1.39-4.41,2.46c1.89-0.1,3.76-0.16,5.68-0.11c0.68-0.59,1.65-0.94,2.28-1.25
									C-34.61-4.16-32.81-4.82-31.05-5.44z M-26.21-3.86c-1.26-0.52-2.5-0.96-3.82-1.28c-1.47,0.55-2.93,1.17-4.36,1.87
									c-0.88,0.41-1.85,0.76-2.7,1.31c0.79,0.05,1.56,0.14,2.32,0.22c0.57,0.1,1.12,0.13,1.66,0.27
									c-0.04-0.03-0.09-0.05-0.14-0.08c-0.24-0.21,0.08-0.64,0.35-0.47c0.19,0.11,0.42,0.26,0.6,0.36
									C-30.41-2.78-28.3-3.44-26.21-3.86z M-15.34,2.36c0.03-0.05,0.07-0.02,0.1-0.06c0,0,0,0-0.04-0.03
									c-1.99-1.29-3.89-2.51-5.89-3.68c-1.09,0.66-2.31,1.3-3.55,1.67c3.05,0.8,6.09,1.59,9.17,1.91
									C-15.44,2.31-15.39,2.34-15.34,2.36z M-15.95,2.63c-2.95-0.11-5.84-0.75-8.7-1.43c0.7,0.49,1.38,1.04,2.11,1.49
									c1.19,0.73,2.48,1.4,3.76,1.99C-17.9,3.95-16.98,3.19-15.95,2.63z M-25.17-3.41c-2.01,0.6-3.93,1.37-5.89,2.19
									c1.68,0.34,3.35,0.8,5.03,1.26c0.03-0.04,0.08-0.14,0.16-0.16c1.3-0.58,2.69-0.99,3.95-1.61
									C-22.96-2.38-24.08-2.93-25.17-3.41z M-19.2,5.05c-2.33-0.93-5.19-2.12-6.72-4.06c-1.16-0.27-2.24-0.56-3.35-0.8
									c2.97,1.94,5.83,3.95,8.83,5.85C-20.05,5.72-19.64,5.34-19.2,5.05z M-55.48-0.76c0.41-0.06,0.8-0.08,1.14-0.12
									c0.07-0.02,0.15-0.04,0.22-0.05c0.03-0.05,0.06-0.09,0.08-0.14c4.55-5.66,11.29-6.57,18.19-6.31
									c0.12,0.01,0.24,0.02,0.31,0.01C-36.26-7.95-37-8.59-37.69-9.2c-0.7-0.62-1.49-1.17-1.93-2c-1.41-0.18-2.74-0.36-4.13-0.58
									c-0.07,0.02-0.17-0.04-0.21-0.07c-0.24-0.02-0.56-0.03-0.79-0.05c-0.76,0.42-1.59,0.85-2.39,1.13
									c-0.53,0.24-1.15,0.43-1.7,0.4c-0.6-0.05-1.24-0.44-1.78-0.71c-0.74-0.33-1.44-0.63-1.78-1.41
									c-0.08-0.18-0.09-0.37-0.01-0.51l-0.02-0.07c-0.4-0.06-0.81-0.12-1.21-0.18c-3.39-0.44-7.12-0.52-10.47-1.32
									c-2.52,0.09-5.07,0.04-7.55,0.17c-0.19,0.01-0.46,0.03-0.65,0.04c0.89,0.92,1.43,2.08,2.2,2.99
									c0.51,0.62,1.11,1.06,1.67,1.59C-67-9.03-65.56-8.4-64.1-7.69C-60.61-5.98-58.08-3.43-55.48-0.76z M-72.99-12.52
									c-0.16-0.16-0.34-0.27-0.52-0.39C-73.33-12.79-73.15-12.68-72.99-12.52z M7.28,50.68c-1.48-1.48-3-2.92-4.52-4.35
									c0.19,1.13,0.48,2.19,0.8,3.33c0.02,0.07,0.06,0.1,0.05,0.22c0,0,0,0-0.03,0.05c0.22,0.77,0.43,1.46,0.65,2.23
									c3.04,2.75,5.56,6.25,7.31,9.97c-0.07-1.63-0.3-3.21-0.76-4.82C10.17,54.92,8.8,52.74,7.28,50.68z M10.15,72.94
									c0.41-1.7,0.8-3.36,1.05-5.1c-1.51-3.19-3.38-6.1-5.42-8.94c0.16,0.98,0.34,1.91,0.45,2.86c0.07,0.61,0.14,1.22,0.2,1.83
									C7.98,66.5,9.88,69.68,10.15,72.94z M5.59,63.2c-0.13-0.2-0.23-0.45-0.31-0.63c-0.13-0.2-0.02-0.39,0.16-0.47
									c-0.04-0.15-0.03-0.27-0.06-0.42c-0.61,3.47-2.04,6.82-3.89,9.72c0,0,0,0-0.03,0.05c0.32,1.02,0.72,2.02,1.19,3
									c1.77-2.57,2.88-5.42,3.18-8.58c0.01-0.12,0.07-0.21,0.14-0.23C5.82,64.79,5.67,64.01,5.59,63.2z M1.24,71.01
									c1.99-3.76,2.97-7.51,3.65-11.7c-0.15-0.79-0.3-1.57-0.49-2.39c-0.11-0.13-0.22-0.26-0.3-0.44c0,0-0.05-0.03-0.02-0.07
									c-0.59,3.23-2.41,6.28-4.29,8.84C0.25,67.18,0.68,69.15,1.24,71.01z M-0.3,64.69c0.02,0.07,0.04,0.15,0.05,0.22
									c2.04-3.54,3.65-6.78,3.94-10.95l0.03-0.05c-0.1-0.44-0.24-0.84-0.34-1.28c-0.7,2.79-2.41,5.46-4.13,7.55
									c-0.03,0.05-0.07,0.02-0.1,0.07C-0.86,61.7-0.7,63.19-0.3,64.69z M2.47,49.69c-0.43,2.45-2.18,5.09-3.3,6.61
									c-0.03,0.05-0.07,0.02-0.1,0.07c-0.03,1.18-0.03,2.31,0.02,3.47c1.83-2.47,3.51-5.72,3.78-8.84
									c-0.14-0.4-0.22-0.77-0.33-1.21C2.52,49.71,2.52,49.71,2.47,49.69z M4.17,55.96c-0.03,0.05-0.01,0.12-0.01,0.12l0.03-0.04
									L4.17,55.96z M11.46,62.58c-1.98-3.35-4.19-6.22-6.77-9.01c0.28,1.18,0.57,2.36,0.82,3.59c2.44,3.02,4.31,6.43,5.83,10.02
									c0.23-1.5,0.34-3.01,0.32-4.53C11.57,62.71,11.48,62.65,11.46,62.58z M-0.88,54.13c-0.02,0.55-0.05,1.1-0.04,1.61
									c1.71-2.48,3.03-5.96,2.51-8.93c0.01-0.12-0.01-0.19,0.09-0.26c-0.17-0.86-0.24-1.66-0.21-2.53
									C-0.41,47.09-0.82,50.44-0.88,54.13z M2.67,45.46c0.66,0.46,1.24,0.95,1.88,1.46c-0.71-1.01-1.39-2.05-1.99-3.11
									C2.57,44.39,2.62,44.92,2.67,45.46z M-77.91,2.89c-2.02-0.42-4.08-0.74-6.1-1.16c5.3,1.73,10.21,3.3,16.17,2.42
									c0.2-0.13,0.36-0.28,0.54-0.36C-70.95,4.19-74.42,3.57-77.91,2.89z M-80.98,5.03c0.36,0.22,0.76,0.4,1.11,0.55
									c-1.33-0.81-2.6-1.72-3.86-2.55c-0.3-0.13-0.65-0.28-0.95-0.4C-83.43,3.46-82.25,4.32-80.98,5.03z M-85,6.22
									c-1.33-1.64-2.97-2.77-4.59-3.82c0.29,0.55,0.58,1.11,0.94,1.65c0.03-0.05,0.07-0.02,0.12,0.01
									c0.78-0.03,1.39,0.41,1.97,0.9c0.68,0.55,1.28,1.1,1.93,1.69C-84.73,6.52-84.89,6.35-85,6.22z M-81.93,10.89
									c-1.49-0.54-2.97-1.64-4.27-2.49c-0.42-0.26-0.05-0.85,0.36-0.6c1.05,0.65,2.3,1.29,3.31,2.1c-0.46-0.79-0.97-1.6-1.51-2.38
									c-0.06,0.09-0.2,0.13-0.3,0.07c-0.68-0.54-1.38-1.03-2.1-1.6c-0.61-0.44-1.13-0.94-1.85-1.2c1.68,3.11,3.41,6.26,5.46,9.09
									c0,0,0.05,0.03,0.07-0.02c1.31,0.55,2.58,1.14,3.8,1.82c-0.37-0.42-0.67-0.85-0.94-1.33
									C-80.62,13.27-81.29,12.1-81.93,10.89z M-72.44,22.44c-1.63-1.88-3.63-3.55-5.4-5.39c-1.39-0.72-2.75-1.37-4.17-2.05
									c0.39,0.49,0.79,0.99,1.2,1.43c0.42,0.45,0.79,0.87,1.24,1.27c0.05,0.03,0.07,0.1,0.11,0.13c0.2,0.19,0.45,0.41,0.63,0.64
									c0.07-0.02,0.15-0.04,0.23,0.02C-76.32,19.62-74.4,21.11-72.44,22.44z M-79.68,18.63c-0.76-0.72-1.54-1.51-2.23-2.32
									c0.02,0.07,0.02,0.07,0.03,0.15c0.11,0.44,0.21,0.89,0.35,1.28c0.32,1.02,0.71,2.02,1.19,3c0.93,1.77,2.14,3.4,3.35,5.02
									c0.66,0.27,1.33,0.5,2.09,0.71C-77.49,24.52-78.22,21.29-79.68,18.63z M-78.39,25.04c0.23,0.14,0.44,0.21,0.67,0.35
									c-1.47-1.72-2.83-3.51-3.76-5.59c-0.44-1.03-1.62-3.32-1.34-4.6c-0.83-1.02-1.6-2.12-2.33-3.19
									c0.51,3.08,1.19,6.08,2.35,9.01c0.1,0.25-0.28,0.46-0.38,0.21c-1.35-3.35-2.44-6.92-2.78-10.47
									c-0.4-0.69-0.84-1.4-1.24-2.09c0.08,3.15,0.32,6.57,1.43,9.39c0.02,0.07-0.01,0.12-0.04,0.17
									C-83.92,21.01-81.35,23.41-78.39,25.04z M-86.5,17.1c-1.1-2.82-1.22-6.43-1.32-9.46c-0.19-0.3-0.34-0.58-0.5-0.93
									c-0.11,0.49-0.16,0.97-0.23,1.5c-0.1,0.89-0.05,1.73-0.03,2.63c0.02,0.08-0.09,0.14-0.16,0.16
									C-88.2,13.09-87.56,15.12-86.5,17.1z M-89.01,9.57c-0.09-1.19-0.09-2.52,0.27-3.62c-0.64-1.21-1.31-2.38-1.95-3.59
									C-89.93,4.71-89.47,7.14-89.01,9.57z M-87.73,1.02c-0.11-0.01-0.21-0.07-0.33-0.07C-87.97,0.99-87.83,1.08-87.73,1.02
									C-87.71,1.09-87.71,1.09-87.73,1.02z M-78.76,4.69c-0.05-0.03-0.06-0.1-0.08-0.18c-0.87-0.22-1.74-0.44-2.59-0.71
									c1.53,0.81,3.05,1.61,4.44,2.54c1.05,0.14,2.11,0.16,3.18,0.06C-75.55,6.03-77.29,5.47-78.76,4.69z M-69.16,4.97
									c-2.52,0.41-5.15,0.37-7.71-0.07c1.55,0.45,3.09,0.83,4.67,1.23C-71.17,5.88-70.17,5.49-69.16,4.97z M-65.98-34.01
									c0.54-0.68,1.03-1.39,1.53-2.09c-3.35,1.04-6.87,2.15-10.36,2.09c-0.07,0.02-0.12-0.01-0.17-0.04
									c-0.38,0.52-0.73,1-1.12,1.52c3.46,0.42,6.85,0.04,10.04-1.47C-66.06-33.99-66.03-34.04-65.98-34.01z M-71.22-38.23
									c-1.1,1.09-2.13,2.23-3.12,3.45c3.45-0.59,6.88-1.14,10.32-1.93c0.65-1.05,1.2-2.16,1.76-3.27
									c-1.26,0.61-2.57,1.01-3.89,1.4c-1.81,0.59-3.58,1.21-5.34,1.83c-0.32,0.12-0.6-0.36-0.33-0.58
									c1.17-0.98,2.83-1.22,4.27-1.61c1.78-0.54,3.96-0.91,5.6-1.73c0.51-1.14,1-2.35,1.44-3.47c-1.22,0.77-2.4,1.24-3.72,1.76
									c-1.32,0.51-2.64,1.22-3.96,1.73C-69.3-40.02-70.27-39.16-71.22-38.23z M-61.63-45.52c-1.21,0.83-2.49,1.69-3.7,2.52
									c1.56-0.49,3.19-0.88,4.61-1.65c0.1-0.07,0.19-0.01,0.26,0.09c0.24-0.61,0.42-1.2,0.66-1.8c-0.07,0.02-0.18,0.08-0.25,0.1
									C-60.53-45.98-61.06-45.74-61.63-45.52z M-63.04-46.01c1.22-0.76,2.48-1.38,3.72-1.75c0.07-0.02,0.07-0.02,0.12,0.01
									c4.25-1.99,8.46-4.14,12.68-6.28c-5.3-2.87-11.87-0.28-16.9,2.25c-2.55,1.28-4.37,3.12-6.02,5.19
									c6.51-4.33,14.31-6.67,21.89-7.82c0.22-0.06,0.31,0.31,0.09,0.37c-8.88,1.61-16.45,5.54-23.99,10.12
									c-0.35,0.47-0.76,0.93-1.11,1.4c0.45-0.23,0.93-0.38,1.44-0.51C-68.49-44-65.74-44.89-63.04-46.01z M-24.81-21.98
									C-24.81-21.98-24.85-22.01-24.81-21.98C-24.85-22.01-24.85-22.01-24.81-21.98C-24.85-22.01-24.85-22.01-24.81-21.98z
									 M-13.91-39.64c0.19-0.52,0.38-1.03,0.49-1.53c-0.88-0.73-1.64-1.76-2.37-2.71C-15.33-42.46-14.65-41.1-13.91-39.64z
									 M-16.05-44.98c0.99,1.05,2.03,2.13,2.75,3.32c0.15-0.54,0.21-1.06,0.29-1.59c-1.06-1.66-2.28-3.29-3.09-5.05
									C-16.25-47.13-16.22-46.04-16.05-44.98z M-14.57-52.65c0.27,1.93,0.94,3.6,1.81,5.27c0.03-0.67,0.05-1.42,0.11-2.14
									c-0.01-0.19,0.06-0.41,0.05-0.6c-0.4-0.49-0.54-1.28-0.76-1.85c-0.23-0.65-0.37-1.35-0.48-1.99
									C-14.08-53.55-14.33-53.14-14.57-52.65z M-11.54-50.29c0.32-0.31,0.68-0.59,0.99-0.91c0.66-0.67,1.3-1.41,1.88-2.13
									c-0.09-0.37-0.2-0.81-0.29-1.18c-0.56,0.41-1.13,0.82-1.68,1.3c-0.26,0.22-0.47,0.47-0.76,0.73
									C-11.41-51.73-11.47-51.01-11.54-50.29z M-12.45-51.48C-12.42-51.53-12.42-51.53-12.45-51.48
									C-12.47-51.55-12.47-51.55-12.45-51.48C-12.47-51.55-12.45-51.48-12.45-51.48z M-9.21-55.93c-0.41,0.26-0.82,0.51-1.21,0.84
									c-0.23,0.17-0.37,0.4-0.59,0.65c-0.07,0.33-0.1,0.69-0.14,1.05c0.13-0.11,0.23-0.17,0.33-0.23
									c0.59-0.46,1.16-0.86,1.82-1.22C-9.1-55.29-9.17-55.58-9.21-55.93z M-9.78-60.24c-0.73,1.19-1.58,2.37-2.36,3.53
									c0.05,0.03,0.09,0.06,0.07,0.1c0.13,0.52,0.15,1.1,0.19,1.64c0.02,0.07,0.01,0.19,0.04,0.34c0.33-1.25,0.73-2.52,1.22-3.73
									c0.09-0.26,0.47-0.15,0.42,0.14c-0.24,0.92-0.45,1.86-0.63,2.77c0.49-0.39,1.05-0.68,1.5-0.91
									C-9.62-57.63-9.82-58.95-9.78-60.24z M-13.51-54.59c0.17,0.86,0.41,1.7,0.75,2.48c0.05,0.03,0.02,0.07,0.06,0.1
									c0.11-0.18,0.23-0.36,0.39-0.52c0.05-0.29,0.07-0.53,0.16-0.78c-0.04-0.03-0.04-0.03-0.09-0.06
									c-0.26-0.41-0.2-1.01-0.23-1.47c-0.04-0.46-0.07-0.92-0.03-1.4C-12.81-55.61-13.17-55.14-13.51-54.59z M-8.51-52.66
									c-0.39,0.64-0.88,1.22-1.44,1.83c-0.5,0.52-1.02,1.15-1.65,1.45c-0.04,0.48-0.04,0.98-0.03,1.49
									c0.54-0.36,1.1-0.77,1.63-1.21c0.52-0.44,1.32-1.02,1.8-1.6C-8.27-51.31-8.35-51.99-8.51-52.66z M-8.26-47.83
									c0.08-0.65,0.16-1.29,0.13-1.94c-0.3,0.39-0.74,0.69-1.05,0.99c-0.73,0.68-1.56,1.31-2.41,1.86
									c0.01,0.39-0.02,0.74-0.01,1.14c-0.02,0.24,0.01,0.51-0.02,0.74c0.28-0.15,0.58-0.33,0.89-0.53
									c0.82-0.51,1.59-1.16,2.26-1.83c0.03-0.05,0.07-0.02,0.1-0.06C-8.35-47.57-8.29-47.67-8.26-47.83z M-15.86-49.1
									c0.74,1.78,2.09,3.18,3.01,4.87c0.03-0.67,0.09-1.39,0.13-2.06c-1.24-1.58-1.88-3.61-2.12-5.59
									c-0.36,0.79-0.65,1.56-0.91,2.41C-15.84-49.34-15.85-49.22-15.86-49.1z M-8.72-46.35c-0.8,0.9-1.83,1.84-2.93,2.31
									c-0.03,0.86-0.1,1.7-0.29,2.53C-10.82-43.04-9.46-44.54-8.72-46.35z M-3.99-53.23c0.94-1.12,1.66-2.19,2.26-3.47
									c-1.34-1.52-2.05-3.65-2.44-5.79C-4.47-59.45-3.8-56.32-3.99-53.23z M-3.81-64.53c-0.01,0.12-0.05,0.28-0.11,0.38
									c0.2,1.01,0.45,2.04,0.73,3.03c0.44,1.34,1.11,2.51,1.68,3.74c0.27-0.65,0.45-1.36,0.62-2.14c0.07-0.21,0.09-0.45,0.18-0.71
									l-0.05-0.03c-1.53-2.14-1.74-4.98-1.82-7.61C-3.06-66.78-3.49-65.66-3.81-64.53z M0.24-71.75c-0.92,0.89-1.73,1.9-2.33,2.98
									c0.08,1.31,0.23,2.6,0.41,3.85c0.22,1.4,0.67,2.61,1.14,3.91c0.33-1.56,0.67-3.05,1.12-4.61c-0.67-1.99-0.61-4.35-0.12-6.38
									C0.45-71.88,0.35-71.81,0.24-71.75z M7.84-74.97c0.11,0.13,0.16,0.35-0.05,0.48c-1.38,0.92-2.49,2-3.4,3.28
									c0.18-0.08,0.35-0.17,0.53-0.24c0.53-0.24,0.99-0.4,1.56-0.49c0.07-0.02,0.16,0.04,0.18,0.11c0.64-1.24,1.52-2.47,2.67-3.53
									C8.83-75.25,8.35-75.1,7.84-74.97z M5.06-73.84c-0.45,0.54-0.78,1.16-1.05,1.82c0.89-1.04,1.91-1.98,3.13-2.74
									c-0.74,0.18-1.43,0.38-2.15,0.64C5.11-74.13,5.15-73.98,5.06-73.84z M5.1-66.51c0.13-0.93,0.3-1.83,0.57-2.68
									c-0.62,0.19-1.24,0.38-1.79,0.67c-0.53,0.24-0.93,0.69-1.44,1.01c-0.27,0.66-0.5,1.33-0.73,2.02
									c0.26-0.22,0.49-0.39,0.7-0.52c0.74-0.49,1.63-0.7,2.48-0.55C4.98-66.64,5.08-66.58,5.1-66.51z M3.83-70.3
									c-0.28,0.46-0.59,0.96-0.82,1.45c0.86-0.48,1.9-0.73,2.7-0.8c0,0,0.05,0.03,0.07-0.02c0.23-0.68,0.46-1.36,0.81-2.03
									c-0.5,0.2-1,0.4-1.48,0.67c-0.38,0.21-0.72,0.57-1.15,0.74C3.88-70.28,3.83-70.3,3.83-70.3z M1.07-72.38
									c-0.27,1.16-0.47,2.3-0.45,3.51c0.01,0.82,0.15,1.6,0.3,2.39c0.03-0.05,0.03-0.05,0.06-0.09c0.51-1.45,1.21-2.79,1.99-4.07
									c0.16-1.29,0.71-2.4,1.57-3.39C3.31-73.66,2.1-73.14,1.07-72.38z M5.05-66.22c-0.03,0.05-0.1,0.06-0.15,0.04
									c-0.91-0.06-1.77,0.3-2.47,0.94c-0.39,0.33-0.77,0.85-1.16,1.18c-0.17,0.59-0.33,1.25-0.45,1.86
									c0.33-0.23,0.69-0.4,0.96-0.54c0.95-0.42,2.01-0.6,2.99-0.76c0.05-0.28,0.07-0.52,0.07-0.83
									C4.92-64.97,4.97-65.57,5.05-66.22z M0.1-58.78c0.99-0.78,2.53-1.04,3.76-0.98c0.4-0.95,0.68-2.04,0.86-3.26
									c-0.85,0.17-1.71,0.33-2.52,0.72c-0.68,0.28-1.1,0.77-1.63,1.21c-0.02,0.24-0.11,0.5-0.14,0.73
									C0.32-59.85,0.22-59.28,0.1-58.78z M3.67-59.24c-0.53,0.05-1.02,0.13-1.57,0.3c-0.77,0.22-1.34,0.76-2.09,1.05
									c-0.03,0.05-0.07,0.02-0.15,0.04c-0.19,0.83-0.43,1.63-0.74,2.45c0.34-0.05,0.72,0.06,0.98,0.04
									c0.31,0.01,0.66-0.04,1.03-0.13C2.26-56.64,3.06-57.85,3.67-59.24z M-4.21-51.54c1.75-1.01,3.34-2.05,4.62-3.21
									c-0.42,0.06-1.07,0.1-1.49-0.04c-0.68,1.42-1.63,2.54-3.07,3.04C-4.21-51.66-4.19-51.58-4.21-51.54z M-10.44-28.23
									c0.09,0.05,0.21,0.06,0.32,0.19c0.69,0.61,1.42,1.19,2.17,1.71c-0.06-0.1-0.1-0.26-0.01-0.39c0.85-1.81,2.34-3.42,3.94-4.77
									C-6.79-31.1-9.26-30.16-10.44-28.23z M-1.68-32.95c0.97-0.04,1.88,0.02,2.65,0.11c0.6,0.05,1.17,0.15,1.74,0.25
									c0,0,0.03-0.05,0.07-0.02c0.55-0.17,1.09-0.34,1.64-0.51c-2.95-0.55-5.73-1.25-7.91-3.46c-0.98,0.16-2.02,0.21-3.03,0.22
									c0.63,0.82,1.77,1.53,2.52,2.05C-3.22-33.83-2.49-33.39-1.68-32.95z M-6.8-37.86c0.39-0.01,0.74,0.02,1.08-0.02
									c-0.01-0.7,0.38-1.54,0.6-2.22c0.52-1.77,1.08-3.5,1.66-5.16C-5.63-43.38-7.14-40.91-6.8-37.86z M3.19-49.52
									c-2.04,0.96-4.32,2.21-6.21,3.76c-0.28,1.28-0.58,2.48-0.91,3.73c-0.17,0.78-1.09,2.8-1.03,4.04
									c0.85-0.05,1.68-0.17,2.46-0.32c1.17-3.95,2.96-8.21,5.89-11.33C3.33-49.55,3.26-49.53,3.19-49.52z M9.45-51.6
									c-1.15,1.88-1.73,4.05-2.97,5.87c-1.36,2.13-2.81,4.27-4.35,6.28c1.16-0.36,2.29-0.86,3.47-1.34
									c1.8-2.73,3.2-5.73,5.15-8.38c0.96-1.36,2.17-3.33,3.82-3.96C12.61-53.06,11.3-52.16,9.45-51.6z M15.3-53.12
									c0.02,0.08-0.01,0.12-0.11,0.18c-4.04,2.06-5.66,7.69-8.14,11.53c1.51-0.71,3.05-1.47,4.66-2.25
									c-0.04-0.03-0.04-0.03-0.06-0.1c-0.21-1.71,0.98-3.24,1.9-4.64c1.14-1.76,2.47-3.21,3.97-4.62
									C16.79-53.08,16.04-53.1,15.3-53.12z M32.47-51.92c-1.2,0.21-2.41,0.23-3.64,0.17c0.06,0.1,0.08,0.18,0.03,0.27
									c-0.28,0.46-0.66,0.86-1.01,1.33c0.33-0.11,0.65-0.23,0.97-0.35c0.32-0.11,0.49,0.43,0.21,0.57
									c-0.76,0.42-1.58,0.73-2.41,1.05c-0.03,0.05-0.07,0.02-0.1,0.06c-0.03,0.05-0.07,0.02-0.15,0.04
									c-0.65,0.23-1.27,0.42-1.89,0.61c1.67,0.26,3.41,0.7,5,0.48c0.08-0.14,0.24-0.29,0.33-0.43
									C30.85-49.38,31.32-50.98,32.47-51.92z M26.56-44.44c-2.61-0.47-5.21-0.86-7.83-1.21c-0.12-0.01-0.21-0.06-0.27-0.17
									c-1.06,0.49-2.09,1.05-3.14,1.61c2.69,0.77,5.42,1.56,8.15,2.35C24.52-42.67,25.56-43.54,26.56-44.44z M24.35-52.35
									c-0.85-0.15-1.74-0.25-2.62-0.35c-1.88,2.13-3.93,4.34-5.37,6.8c1.33-0.64,2.68-1.19,4.04-1.75
									c0.03-0.05-0.02-0.07,0.06-0.09c0.58-0.84,1.36-1.49,2.03-2.28C23.04-50.83,23.71-51.61,24.35-52.35z M23.13-47.68
									c-1.27,0.42-2.54,0.84-3.74,1.36c2.55,0.37,5.09,0.85,7.62,1.46c0.76-0.73,1.48-1.48,2.15-2.27
									c-0.7,0.01-1.39-0.1-2.11-0.16c-1.29-0.16-2.59-0.2-3.88-0.36L23.13-47.68z M27.22-50.34c0.43-0.49,0.85-0.99,1.33-1.45
									c-1-0.11-2.01-0.22-2.98-0.38c-0.24-0.02-0.45-0.09-0.65-0.08c-0.53,0.75-1.09,1.48-1.74,2.21
									c-0.56,0.6-1.08,1.36-1.67,2.01c1.72-0.65,3.45-1.1,5.19-1.67C26.84-49.94,27.03-50.15,27.22-50.34z M18.21-53.03
									c-2.55,2.72-4.44,5.79-6.06,9.15c0.98-0.47,1.99-0.98,2.97-1.45c0.26-1.23,1.06-2.13,1.96-3.09
									c1.36-1.5,2.83-2.86,4.17-4.32C20.24-52.86,19.24-52.97,18.21-53.03z M22.82-41.44c-2.76-0.43-5.61-1.23-8.1-2.32
									c-0.05-0.03-0.09-0.06-0.14-0.09c-0.96,0.54-1.9,1.04-2.91,1.56c2.83,1.04,5.72,1.88,8.69,2.49
									c0.33-0.23,0.64-0.42,0.97-0.66C21.9-40.75,22.36-41.09,22.82-41.44z M19.87-39.4c-3.06-0.56-6.06-1.32-8.98-2.42
									c-0.18,0.08-0.38,0.21-0.56,0.29c-1.29,0.66-2.55,1.28-3.81,1.89c1.65,0.51,3.31,0.46,5.07,0.78
									c1.88,0.33,3.62,1.09,5.48,1.04C17.99-38.29,18.91-38.86,19.87-39.4z M0.79-37.49c1.74,0.56,3.38,0.87,5.27,1.08
									c1.8,0.16,3.51,0.45,5.21,1.06c1.72-0.65,3.4-1.32,5.04-2.15c-1.45-0.01-2.79-0.39-4.26-0.66c-2.14-0.43-4.56,0.04-6.52-1.1
									C3.97-38.56,2.4-37.95,0.79-37.49z M4.36-49.99c-1.68,1.81-2.69,4.28-3.91,6.36c-0.94,1.63-1.22,3.54-2.04,5.18
									c0.93-0.18,1.82-0.4,2.69-0.68c-0.02-0.07-0.01-0.19,0.05-0.28c1.43-2.34,3.14-4.51,4.74-6.8c1.2-1.66,1.88-3.58,2.99-5.29
									C7.29-50.97,5.79-50.57,4.36-49.99z M1.44-34.44c1.24,0.45,2.52,0.72,3.84,1.04c1.79-0.55,3.57-1.09,5.27-1.69
									c-3.49-0.88-7.92,0.06-10.94-2.11c-0.66,0.16-1.33,0.32-2.01,0.41C-1.21-35.88-0.08-34.94,1.44-34.44z M4.66-31.27
									c-0.33-0.08-0.69-0.11-1.09-0.17c-2.56,2.21-4.92,4.42-7.28,6.82c0.11,0.14,0.24,0.22,0.43,0.33
									c0.71,0.19,1.45,0.32,2.17,0.39c0.56-0.41,1.12-0.7,1.69-1.11c0.87-0.6,1.64-1.33,2.49-2.01c1.49-1.1,3.15-2.04,4.83-2.83
									c0.35-0.17,0.59,0.36,0.27,0.48c-1.82,0.91-3.55,1.98-5.14,3.34c-0.94,0.81-1.96,1.44-2.92,2.18
									c0.31,0.01,0.67,0.03,1.01-0.01c0.06-0.09,0.13-0.11,0.25-0.1c0.12,0.01,0.29,0.05,0.41,0.06c0.27-0.02,0.58-0.02,0.85-0.04
									c0.54-0.05,1.07-0.1,1.53-0.14c0.01-0.12,0.02-0.24,0.08-0.33c2.26-2.65,5.78-3.46,8.65-5.16
									C10.15-30.23,7.37-30.74,4.66-31.27z M15.27-26.65c-1.86,0.88-3.54,2.05-5.49,2.68c1.01,0.11,2.07,0.32,3.16,0.61
									C13.46-24.54,14.24-25.7,15.27-26.65z M12.02-20.95c0.18-0.7,0.41-1.39,0.66-1.99c-1.74-0.25-3.31-0.46-4.88-0.47
									c1.07,0.72,2.14,1.56,3.12,2.42C11.26-21.04,11.61-21.01,12.02-20.95z M13.46-29.27c-2.68,2.01-5.94,2.91-8.36,5.21
									c0.46-0.03,0.97-0.04,1.43-0.07c0.07-0.02,0.15-0.04,0.24,0.02c0.78-0.03,1.57,0.02,2.33,0.1
									c-0.08-0.18-0.09-0.37,0.11-0.49c2.34-1.15,4.84-2.65,7.43-3.27c0.13-0.11,0.3-0.19,0.44-0.3
									C15.91-28.53,14.71-28.94,13.46-29.27C13.49-29.32,13.49-29.32,13.46-29.27z M10.41-20.99c-1.23-0.88-2.44-1.68-3.69-2.52
									c-0.97,0.04-2.01,0.09-3.04,0.22L3.6-23.28c1.73,0.68,3.28,1.76,4.65,2.91c0.05,0.03,0.06,0.1,0.04,0.15
									c0.25-0.1,0.45-0.23,0.68-0.28C9.46-20.69,9.96-20.89,10.41-20.99z M4.57-18.58c-2.48-1.71-5.5-2.74-7.84-4.69
									c-1.23-0.25-2.38-0.64-3.55-1.1c1.83,2.57,4.91,4.53,7.43,6.39c0.11,0.01,0.23,0.02,0.31,0C2.3-17.96,3.45-18.2,4.57-18.58z
									 M-5.51-20.04c1.92,0.67,3.33,1.66,5.21,1.99c-1.75-1.26-3.57-2.51-5.27-3.86c-1.06-0.84-2.04-1.82-2.53-3.07
									c-0.99-0.55-1.93-1.18-2.83-1.86c-0.03,0.05-0.04,0.17-0.07,0.21c1.3,2.19,2.28,5.12,4.67,6.27
									c0.09,0.05,0.11,0.13,0.13,0.2C-5.96-20.13-5.76-20.14-5.51-20.04z M-7.4-20.25c0.17,0.04,0.29,0.05,0.41,0.06
									c-1.72-0.99-3.34-3.18-4.16-5.14C-11.2-23.09-9.63-20.93-7.4-20.25z M-1.08-22.94C-1.11-22.89-1.11-22.89-1.08-22.94
									c-0.1,0.07-0.18,0.08-0.25,0.1c2.05,1.39,4.29,2.57,6.33,4.07c1-0.39,1.98-0.86,3.01-1.3c-1.86-1.4-3.92-2.15-6.07-2.97
									C0.92-22.91-0.05-22.87-1.08-22.94z M-3.12-31.63c-1.61,1.6-2.86,3.42-4.3,5.25c-0.08,0.14-0.23,0.17-0.35,0.16
									c1.05,0.65,2.16,1.2,3.31,1.59l0.03-0.05c1.76-2.77,4.68-4.95,7.35-6.84C1.11-31.74-1.06-31.81-3.12-31.63z M9.86,88.21
									c-0.63,1.44-0.78,2.61-0.47,3.74c0.57-0.21,1.19-0.4,1.71-0.53c1.21-0.33,2.47-0.44,3.74-0.54c0.31,0,0.39,0.49,0.05,0.54
									c-1.17,0.16-2.29,0.55-3.41,0.93c-0.5,0.2-1.08,0.53-1.66,0.75c0.29,0.55,0.71,1.2,1.21,1.82c0.96,1.22,2.09,2.35,3.1,3.48
									c0.27,0.29,0.53,0.57,0.8,0.86c0.32-0.63,1.25-0.81,1.95-1.14c1.29-0.66,2.42-1.47,3.47-2.47c0.29-0.27,0.61,0.13,0.38,0.42
									c-1.37,1.62-3.2,3.15-5.26,3.84c0.7,0.81,1.4,1.61,2.1,2.43c0.61,0.75,1.71,2.24,2.56,2.52c0.96,0.28,3.17-0.14,4.22-0.82
									c0.01-0.63,0.97-0.85,1.3-0.27c0.67,1.17,0.84,2.03,1.85,2.84c0.44-2.26,1.32-4.42,2.02-6.58c0.07-0.33,0.61-0.18,0.54,0.15
									c-0.61,2.33-1.16,4.65-1.69,6.97c0.83,0.38,1.46,0.08,2.58,0.01c1.54-0.14,2.9,0.2,4.26,0.97c0.36,0.22,0.09,0.88-0.3,0.7
									c-1.47-0.59-2.68-0.57-4.04-0.4c0.28,0.36,0.51,0.81,0.89,1.11c0.99,0.86,1.71,0.6,2.73,0.79c1.19,0.22,2.11,0.67,3.22-0.11
									c0.26-0.21,0.52-0.43,0.77-0.73c-0.44,0.11-0.92,0.07-1.42-0.05c-0.49-0.11-0.54-0.96,0.02-1.06
									c4.78-0.59,3.76-8.48,3.89-11.68c0.17-3.56,2.09-7.1,1.16-10.52c-0.11-0.13-0.22-0.26-0.38-0.42
									c-0.15-0.16-0.14-0.4,0.03-0.55c-0.1-0.25-0.24-0.53-0.42-0.76c-0.06-0.1-0.08-0.18-0.03-0.27
									c-0.95-1.21-1.78-2.54-2.45-4.02c-0.22-0.46-0.42-0.96-0.57-1.43c-0.04,1.3-0.18,2.54-0.35,3.76
									c-0.72,4.35-2.6,8.56-1.34,12.98c0.08,0.18-0.22,0.25-0.3,0.07c-1.02-3.28-0.53-6.44,0.05-9.74
									c0.73-3.96,0.84-7.43,0.42-11.16c-0.57,3.19-1.75,6.24-3.53,8.94c-1.61,2.42-3.35,4.44-4.39,7.15
									c-1.01,2.66-1.7,5.45-2.33,8.22c-0.01,0.12-0.26,0.1-0.24-0.02c0.63-4.41,1.35-9.2,3.97-12.95
									c2.82-4.08,4.71-7.77,5.49-12.34c-0.96,2.69-2.45,5.12-4.24,7.43c-2.47,3.21-5.14,6.43-8.51,8.72
									c-0.13,0.11-0.35-0.15-0.22-0.26c1.68-1.3,3.1-2.89,4.45-4.58c-2.01,1.42-4.4,2.03-6.77,2.4c-1.24,0.18-2.55,0.46-3.8,0.44
									c-1.76-0.01-3.68-0.99-5.42-0.11c-0.66,0.35-1.3-0.55-0.75-1.03c1.44-1.32,2.72-1.04,4.52-0.69
									c-0.19-2.77-2.63-4.96-2.29-7.78c0.24-1.93,2.31-3.76,3.6-5.04c1.69-1.61,3.28-1.65,5.44-1.26
									c1.88,0.33,3.74,0.78,5.65,1.07c2.83,0.42,4.28,0.42,6.31-1.55c0.18-0.2,0.42-0.18,0.59-0.14c0.37-1.22,0.69-2.35,0.96-3.51
									c0.03-0.05,0.08-0.14,0.11-0.18c-0.03-0.27-0.08-0.49-0.1-0.76c-0.19-1.94-0.39-5.03,1.23-6.43
									c-0.26-0.72-0.26-1.54-0.39-2.25c-0.23-0.96-0.4-2.02-0.17-3.01c0.01-0.12,0.04-0.17,0.09-0.26
									c-1.51-1.75-1.8-4.26-3.42-5.94c-1.72-1.81-3.63-2.41-4.61-4.91c-0.61-1.57-0.87-3.31-0.92-4.98
									c-0.02-0.9,0.07-1.66,0.33-2.39c-0.04-0.15-0.04-0.34,0.07-0.52c1.54-3.22,2.04-6.82,3.76-9.93
									c0.29-0.57,0.63-1.13,1.04-1.69c-3.07,2.34-6.19,4.65-9.63,6.14c-0.25,0.1-0.44-0.21-0.21-0.38
									c4.64-2.64,8.29-6.83,13.02-9.29c0.52-0.44,1.01-0.83,1.59-1.16c0.03-0.05,0.08-0.02,0.15-0.04
									c0.11-0.18,0.22-0.36,0.34-0.55c0.65-0.86,1.52-1.65,2.44-2.22c-6.81,2.26-13.69,4.21-19.82,8.15
									c-0.23,0.17-0.49-0.23-0.21-0.38c6.56-4.42,14.1-7.36,21.77-9.47c-4.02-1.58-9.41,0.22-12.96,2.01
									c-0.2,0.13-0.36-0.22-0.19-0.3c3.39-2.02,8.33-4.22,12.46-3.14c-0.33-0.39-0.58-0.8-0.66-1.29
									c-0.05-0.03-0.02-0.08-0.07-0.1c-0.1,0.06-0.22,0.05-0.39,0.02c-3.4-0.83-6.57-0.5-9.77,0.81c-1.85,0.76-3.7,2.02-5.75,1.77
									c-1.34-0.19-2.26-0.75-3.73-0.71c-1.02,0.01-1.95,0.19-2.97,0.01c-1.3-0.23-2.45-0.94-3.41-1.84
									c-0.05,0.09-0.13,0.11-0.23,0.17c-3.74,1.68-6.98,4.8-8.04,8.89c-0.07,0.33-0.15,0.66-0.18,1.02
									c1.23-1.2,3.14-1.73,4.76-2.31c2.07-0.81,4.26-1.8,6.49-1.76c0.32,0.01,0.3,0.44,0.01,0.51c-2.09,0.22-4.14,1.3-6.09,2.13
									c-1.75,0.69-3.73,1.24-5.03,2.65c-0.03,0.05-0.1,0.06-0.13,0.11c0.12,2.79,1.29,5.91,1.9,8.42
									c0.32,1.33,0.51,2.45,0.95,3.48c1.16-0.86,2.51-1.43,3.8-2.08c2.02-1.03,3.69-2.41,5.3-4.01c0.16-0.16,0.38,0.1,0.22,0.26
									c-1.35,1.38-2.66,2.79-4.32,3.85c-1.48,0.98-3.08,1.83-4.61,2.78c0.49,0.74,1.16,1.41,2.24,2.01
									c1.22,0.69,2.56,1.07,3.77,1.88c0.18,0.11,0.36,0.22,0.52,0.38c1.59-1.05,3.2-2.14,4.82-3.22c0.23-0.17,0.44,0.21,0.26,0.41
									c-1.2,1.34-2.71,2.56-4.35,3.39c1.2,0.92,2.43,1.99,3.82,2.41c3.53,1.03,4.78-2.24,5.38-4.96c0.1-0.38,0.68-0.28,0.69,0.11
									c-0.18,3.48-1.89,6.98-5.62,6.39c1.8,1.99,3.11,4.49,4.53,6.69c0.15,0.28-0.07,0.53-0.31,0.51
									c-0.04,0.17-0.14,0.23-0.31,0.19l-0.05-0.03c-0.1,0.06-0.17,0.08-0.27,0.03s-0.14-0.08-0.23-0.14
									c-2.67-0.69-5.16-0.83-7.66-1.8c-0.03,0.05-0.08,0.14-0.15,0.04c-0.05-0.03-0.11-0.13-0.16-0.16
									c-0.35-0.16-0.7-0.3-1.05-0.45c-2.58-1.33-4.44-2.73-6.32-4.7c-0.07,0.02-0.12-0.01-0.14-0.08
									c-0.02-0.07-0.07-0.1-0.08-0.18c-0.27-0.29-0.53-0.58-0.79-0.86c-3.97-4.52-8.73-7.25-9.32-13.6
									c-0.37-0.42-0.73-0.76-1.13-1.13c0.34,1.4,0.6,2.82,1.16,4.18c1,2.69,2.44,5.28,3.76,7.85c0.27-0.34,0.74,0.02,0.71,0.38
									c0.09,0.06,0.18,0.11,0.22,0.26c2.59,5.44,7.63,9.66,8.92,15.68c1.13,5.36-0.3,10.67-1.81,15.79l0.02,0.08
									c0.02,0.07-0.01,0.12-0.06,0.09c-0.1,0.38-0.18,0.71-0.29,1.09c-0.01,0.12-0.22,0.05-0.21-0.07
									c0.07-0.33,0.18-0.71,0.26-1.04L9.88,73.9c0.01-2.07-0.92-3.84-1.82-5.66c-0.45-0.91-0.93-1.89-1.38-2.8
									c0.45,5.01,0.41,10.03-0.03,15.05c-0.04,0.17-0.28,0.15-0.27,0.03c0.2-4.23,0.13-8.43-0.26-12.64
									c-0.6,2.53-1.72,4.87-3.38,6.95c1.17,2.3,2.74,4.27,3.49,6.74c1.38-1.43,2.5-3.26,2.94-5.2c0.03-0.05,0.07-0.02,0.05,0.03
									c-0.41,2.21-1.27,4.02-2.85,5.57l-0.03,0.05c0.02,0.07,0.02,0.07,0.04,0.15c0.07,0.3-0.34,0.36-0.44,0.11
									c-1.24-3.54-3.66-6.47-4.9-10.01c-1.19-3.31-2.42-7.16-2.79-10.67c-0.7-6.36-0.81-13.68,3.12-18.96c0,0,0,0-0.04-0.03
									c-1.24-2.4-2.7-4.75-3.77-7.23c-0.92-2.2-1.05-4.56-1.7-6.79c-0.55-1.78-1.35-3.35-2.33-4.83
									c-0.05,3.88-2.04,7.64-1.71,11.63c0.06,0.1,0.08,0.18,0.03,0.27C-8.17,35.78-8.1,35.88-8.11,36
									c0.12,0.01,0.23,0.02,0.35,0.15c4.52,5.68,5.33,13.3,3.46,20.16c-0.11,0.38-0.21,0.75-0.29,1.08
									c0.02,0.07,0.04,0.15,0.06,0.22c0.03,0.15-0.07,0.21-0.17,0.28C-5.84,61.48-7.3,65-8.97,68.33
									c-2.22,4.44-5.48,9.24-4.66,14.48c-0.03,0.05,0.02,0.07-0.01,0.12c0.02,0.07,0.08,0.18,0.07,0.3
									c0.05,0.22-0.32,0.31-0.37,0.09c-1.55-4.67-5.7-7.67-7.18-12.35c-0.65-2.03-1.19-4.32-1.24-6.5
									c-0.01-2.46,1.13-4.61,1.31-7.08c0.14-2.18-0.16-4.26,0.25-6.47c0.44-2.25,1.25-4.4,2.32-6.45
									c0.38-0.72,0.75-1.43,1.16-2.19c0,0-0.05-0.03-0.02-0.07c-1.95-5.05-5.3-9.24-5.34-14.82c-0.03-2.73,0.01-5.98,1.24-8.51
									c1.22-2.4,3.46-3.99,4.27-6.65c-0.17-0.23-0.13-0.52,0.06-0.72c-0.72-0.88-1.44-1.77-2.11-2.62
									c-0.43-0.52-1.08-1.11-1.44-1.77c-0.77,0.54-1.56,1-2.5,1.3c-1.69,0.6-3.21,0.61-4.71,0.39c-0.06,0.09-0.18,0.08-0.27,0.03
									c-0.09-0.06-0.18-0.11-0.3-0.12c-1.07-0.21-2.18-0.46-3.34-0.73c-2.06-0.44-3.95-0.03-5.95-0.37
									c-1.26-0.21-2.33-0.93-3.46-1.56c-3.52-1.97-7.24-3.5-10.81-5.31c1.89,1.35,3.42,3.17,5.11,4.72
									c2.12,1.99,4.86,2.98,6.82,5.13c0.26-0.22,0.67-0.16,0.78,0.16c1.17,0.46,2.21,1.54,3.07,2.39
									c0.25,0.21-0.08,0.65-0.35,0.47c-0.8-0.55-1.59-1.1-2.39-1.66c-0.04-0.03-0.09-0.05-0.14-0.08c0.1,0.56,0.19,1.13,0.29,1.69
									c1.33,0.81,2.38,2.09,3.56,3.13c1.57,1.34,3.26,2.51,5.05,3.6c-1.16-1.91-2.73-3.57-4.35-5.13
									c-0.56-0.53,0.31-1.32,0.86-0.8c4.78,4.45,7.13,9.36,6.82,15.92c-0.14,3.32-0.27,6.71-0.77,9.99
									c-0.49,3.17-2.27,4.92-3.72,7.49c0,0,0.05,0.03,0.02,0.07c0.27,0.48-0.45,1.05-0.8,0.58c-4.05-5.32-8.7-11.2-11.07-17.52
									c-1.13-3.09-1.49-6.4-1.62-9.69c-0.14-2.86,0.23-5.72,2.45-7.7c0.19-0.2,0.53,0.07,0.39,0.3
									c-2.81,4.27-2.32,10.56-0.61,15.7c0,0,0,0,0.03-0.05c1.92-3.43,3.17-7.01,3.98-10.8c-0.14-0.4-0.24-0.84-0.33-1.21
									c-0.11-0.13-0.22-0.26-0.33-0.39c-0.41,1.7-0.99,3.36-1.62,5c-0.06,0.21-0.4,0.14-0.33-0.08c0.77-2.18,1.25-4.4,1.69-6.66
									l0.03-0.05c-0.24-1.16-0.48-2.31-0.71-3.46c-0.22,0.05-0.06,0.09-0.27,0.34c-0.19,0.2-0.22,0.24-0.51,0.32
									c-0.34,0.04-0.51-0.31-0.29-0.56c0.22-0.24,0.27-0.53,0.41-0.76c-1.83-1.75-4.01-2.71-5.88-4.3
									c-1.31-1.06-2.58-2.28-3.89-3.33c1.89,2.99,3.27,6.29,3.88,9.82c0.42,2.4,0.52,4.92-0.08,7.32c-0.7,3.1-3.13,5.52-3.55,8.67
									c-0.02,0.24-0.41,0.26-0.43-0.01c0.16-1.8,0.86-3.26,1.63-4.8c-0.87-1.67-1.74-3.34-2.58-5.05
									c0.81,2.58,1.45,5.24,1.23,7.76c-0.04,0.17-0.23,0.17-0.24-0.02c0.15-2.61-0.97-5.2-1.8-7.66
									c-0.05,2.24-0.07,4.44-0.05,6.66c-0.03,0.05-0.03,0.05-0.03,0.05c0.71,1.01,1.36,2.1,1.74,3.33
									c0.14,0.4-0.43,0.49-0.59,0.15c-1.46-3.99-5.05-6.26-7.7-9.33c-1.8-2.11-2.64-4.33-2.91-7.08
									c-0.3-3.02-1.27-7.59,0.41-10.34c1.16-1.88,3.18-2.91,5.29-3.38c-1.22-1.19-2.49-2.41-3.77-3.52
									c-1.96-1.64-4.26-2.42-6.58-3.46c-3.32-1.47-7.67-3.32-10.24-5.91c-0.16-0.16-0.21-0.38-0.2-0.5
									c-2.53,0.21-5.04,0.51-7.57,0.72c-4.33,0.37-8.67,0.35-13,0.22c-4.17-0.1-8.38,0.09-12.54-0.13
									c-0.56,0.41-1.19,0.71-1.81,0.9c3.84,1.85,7.07,4.71,10.96,6.6c2.96,1.44,5.9,2.93,8.36,5.07c0,0,0,0,0.05,0.03
									c0.03-0.05,0.07-0.02,0.1-0.06c0.09-0.14,0.14-0.23,0.31-0.19c8.33,1.02,16.79,4.81,25.31,3.86
									c0.42-0.06,0.57,0.6,0.16,0.67l-0.07,0.02c0.06,0.1,0.09,0.25-0.04,0.36c-1.46,1.25-3.16,2.17-4.89,2.73
									c-1.42,0.46-2.85,0.65-4.36,0.54c-0.03,0.05-0.1,0.06-0.22,0.05c-0.05-0.03-0.05-0.03-0.09-0.06c-0.31,0-0.6-0.05-0.88-0.1
									c-2.31-0.35-4.2-1.38-6.22-2.62c-0.92-0.56-1.81-1.05-2.79-1.52c2.76,2.7,4.78,6.4,6.55,9.57c0.94,1.65,2.23,3.14,3.6,4.6
									c0.05,0.03,0.09,0.06,0.07,0.1c3.11,3.24,6.54,6.29,7.16,10.83c0.04,0.34-0.47,0.47-0.52,0.13
									c-0.34-2.22-1.36-4.05-2.69-5.69c-0.01,0.12-0.14,0.23-0.28,0.15c-1.38-0.84-2.81-1.59-4.14-2.41
									c1.36,1.28,2.68,2.53,3.94,3.86c1.06,0.33,1.99,1.17,2.59,2.04c0.11,0.13-0.12,0.3-0.23,0.17
									c-0.47-0.47-0.94-0.83-1.43-1.06c0.61,0.75,1.15,1.52,1.66,2.34c0.08,0.18-0.16,0.35-0.26,0.22
									c-0.9-1.11-1.86-2.21-2.89-3.22l-0.04-0.03c-0.09-0.06-0.19-0.11-0.2-0.19c-1.6-1.61-3.3-3.16-4.99-4.7
									c1.02,2.45,1.83,5.03,4.13,6.63c0.09,0.06,0.06,0.1,0.08,0.18c1.72,0.48,3.36,0.99,4.85,1.96c0.27,0.17,0.02,0.58-0.26,0.41
									c-3.08-1.76-6.78-1.89-9.93-3.76c-2.59-1.53-4.8-3.58-6.59-6.01c-4.12-5.62-3.64-12.57-6.61-18.62
									c-0.05-0.03-0.09-0.06-0.17-0.04c-0.42-0.13-0.45-0.59-0.29-0.87c-2.85-2.13-6.08-3.54-9.41-5.02
									c-3.67-1.62-7.02-3.67-10.58-5.48c-0.48-0.23-0.56-0.72-0.33-1.09c-0.98,0.16-2.02,0.09-3.04-0.1
									c-1.99-0.34-3.66-0.6-5.7-0.47c-1.77,0.11-3.59,0.31-5.39,0.16c-0.96-0.08-1.13-1.45-0.17-1.68
									c5.53-1.4,10.77-0.08,16.22-0.14c0.06-0.09,0.16-0.15,0.28-0.15c2.48-0.75,5.08-0.98,7.66-0.97c0,0,0,0,0.03-0.05
									c1.47-1.99,4.29-4.43,6.84-4.88c0.22-0.05,0.4,0.06,0.56,0.22c0,0,0.03-0.05,0.07-0.02c2.64-1.72,6.05-1.52,8.87-2.94
									c0.25-0.1,0.48,0.04,0.53,0.27c0.4-0.14,0.72-0.25,1.07-0.41c-0.2-0.19-0.21-0.58,0.06-0.72c3.07-1.4,2.84-5.95,3.55-8.86
									c0.53-2.2,1.47-3.64,3.15-5.13c0.26-0.22,0.54,0.15,0.32,0.39c-2.92,3.32-2.95,6.45-3.7,10.66
									c-0.2,0.95-0.44,1.74-0.95,2.38c1.4-0.84,2.75-1.71,4.25-2.31c1.6-0.65,3.27-1.21,4.89-1.79c-0.27,0.03-0.46,0.03-0.73,0.06
									c-1.04,0.05-2.34,0.33-3.3-0.27c-0.46-0.28-0.04-0.97,0.42-0.69c0.82,0.51,2.58,0.2,3.55,0.17c0.63,0.01,1.28-0.04,1.89-0.1
									c0.33-0.12,0.63-0.31,0.91-0.45c1.69-0.92,3.17-2.09,4.4-3.48c-3.09,1.45-6.43,2.05-9.8,1.49
									c-0.06,0.09-0.16,0.16-0.23,0.17c-0.03,0.05-0.08,0.14-0.11,0.18c-0.67,0.98-1.26,1.94-1.9,2.88
									c0.01,0.2,0.02,0.39-0.05,0.6c-0.05,0.29-0.37,0.4-0.57,0.21c-0.59,0.77-1.24,1.51-2.04,2.09
									c-0.13,0.11-0.29-0.05-0.16-0.16c0.81-0.7,1.53-1.46,2.1-2.3c-0.47-2.82-0.15-5.71,0.64-8.44c0.08-0.33,0.62-0.19,0.49,0.11
									c-0.39,1.46-0.56,2.87-0.51,4.42c0.02,0.89,0.13,1.84,0.12,2.78c0.54-0.87,1.07-1.74,1.58-2.68
									c-0.02-0.07,0.02-0.12-0.01-0.19c0.47-2.93,1.4-5.77,3.21-8.12c0.19-0.2,0.51-0.01,0.32,0.2c-1.26,1.94-1.83,4.11-2.41,6.28
									c1.02-1.46,2.15-2.78,3.35-4.13c-0.15,0.04-0.32-0.2-0.29-0.36c0.21-1.06,1.03-2.08,1.7-2.86c0.33-0.43,0.86-1.3,1.53-0.95
									c0.09,0.06,0.04,0.15-0.04,0.17c-0.67,0.16-1.26,1.43-1.58,2.06c-0.28,0.46-0.54,0.99-0.82,1.45
									c0.4-0.45,0.85-0.87,1.3-1.29c1.34-1.26,2.84-2.67,4.47-4.01c-0.33,0.12-0.58,0.22-0.9,0.33c-3.08,1.01-5.88,1.56-8.28,3.94
									c-0.31,0.31-0.81-0.12-0.58-0.48c0.03-0.05,0.03-0.05,0.06-0.09c-0.02-0.07,0.01-0.12,0.07-0.21
									c3.51-5.41,7.56-10.99,13.71-13.4c5.29-2.05,11.32-3.96,16.65-0.82c0.32,0.2,0.11,0.64-0.2,0.64
									c-3.87,2.92-8.69,5.02-13.16,7.06c-0.03,0.05,0.02,0.08-0.01,0.12c-1.95,6.06-4.45,12.91-9.92,16.68
									c-0.44,0.3-0.92,0.57-1.4,0.84c-0.03,0.04-0.08,0.14-0.16,0.15c-0.07,0.02-0.07,0.02-0.15,0.04
									c-2.43,1.29-5.07,1.99-7.63,3.08c-2.8,1.18-5.21,3.36-8.2,4.11c-0.4,0.14-0.64-0.2-0.6-0.56c-3.06,1.4-6.75,1.34-9.24,3.85
									c-1.01,1.02-1.8,2.11-2.78,3.09c0.19-0.01,0.36,0.03,0.55,0.03c4.32,0.06,8.67,0.15,12.97-0.18
									c4.34-0.3,8.62-0.89,12.98-1.11c2.4-0.1,4.79,0.1,7.16,0.36c0.07-0.02,0.07-0.02,0.15-0.04c1.52-0.2,3.08-0.19,4.71-0.07
									c0.08-0.14,0.18-0.2,0.33-0.24c0.44-0.1,0.71-0.44,1.18-0.47c0.34-0.05,0.63,0.01,0.93,0.13c1.01,0.31,2.1,0.79,2.97,1.32
									l0.05,0.03c0.73,0.14,1.43,0.24,2.19,0.34c1.86,0.26,3.65,0.53,5.45,0.89c-0.01-0.2,0.06-0.41,0.27-0.54
									c2.69-1.82,5.83-2.1,8.86-2.82c-0.02-0.07,0.04-0.17,0.14-0.23c2.11-1.29,5.05-1.44,7.39-2.28
									c2.34-0.83,4.42-2.27,6.73-3.06c0.34-0.55,0.69-1.03,1.12-1.52c1.24-1.51,3.15-2.04,4.1-3.79c0.03-0.05,0.03-0.05,0.05-0.09
									c-0.04-0.34-0.08-0.68-0.16-0.98c-0.2-0.69-0.44-1.34-0.72-2.02c-0.4-1.19-0.66-2.61,0.08-3.73
									c0.14-0.23,0.61-0.07,0.49,0.23c-0.67,1.61-0.11,3.16,0.51,4.72c0.15,0.47,0.38,0.93,0.5,1.45c0.78-1.48,1.67-2.82,2.45-4.3
									c0.71-1.27,1.02-2.9,1.78-4.14c-0.05-0.03-0.06-0.1-0.11-0.14c-0.35,0.17-0.77-0.28-0.57-0.72
									c-2.1-2.93-3.41-6.57-2.78-10.16c0.79-4.88,4.49-9.17,7.51-12.86c0.09-0.14,0.25-0.1,0.34-0.04c0.15-0.04,0.31,0,0.32,0.2
									c0.39,2.56,0.57,5.14,1.26,7.71c0.47,1.8,0.96,3.17,0.82,5.04c0.49-0.9,1.1-1.79,1.74-2.53c-0.06-1.74,0.26-3.5,0.27-5.26
									c0.01-1.45-0.3-2.9-0.34-4.38c-0.16-2.31,0.47-4.57,1.37-6.66c2.58-6.05,7.54-7.67,13.61-8.92
									c0.41-0.06,0.54,0.45,0.14,0.59c0.24,0.02,0.35,0.34,0.17,0.55c-2.66,3.1-3.6,6.18-3.73,10.19
									c-0.11,2.14-0.2,4.23-1.05,6.23c-1.67,3.96-5.41,6.96-9.45,8.2l-0.07,0.02c-0.1,0.06-0.2,0.13-0.32,0.11
									c-0.7,1.15-1.53,2.28-2.14,3.48c-0.27,0.54-0.53,1.07-0.85,1.49c-1.16,2.82-3.44,5.08-4.86,7.93
									c-0.03,0.05-0.06,0.09-0.08,0.14c-0.09,0.26-0.38,0.41-0.63,0.31c-0.64,1.25-1.15,2.7-1.77,3.9
									c-0.75,1.43-1.39,2.99-2.17,4.47c0.52-0.13,1.15-0.11,1.6-0.15c1.28-0.03,2.69,0.45,3.96,0.22
									c0.07-0.02,0.07-0.02,0.12,0.01c-0.08-0.18-0.09-0.37,0.05-0.6c1.56-2.64,5.22-3.67,8.57-3.89
									c-0.95-0.52-1.91-1.11-2.8-1.71c-0.7-0.5-1.56-0.96-1.83-1.76c-0.38-0.1-0.53-0.58-0.45-0.91c-0.02-0.07-0.06-0.1-0.04-0.15
									C-9.51-46.4,1.91-50.42,8.89-52.64c1.49-0.47,2.91-1.56,4.49-1.66c0.99-0.08,2.19,0.34,3.22,0.4
									c1.22,0.06,2.39,0.02,3.64,0.15c4.58,0.54,8.84,2.02,13.54,1.06c0.34-0.05,0.53,0.26,0.39,0.49
									c0.19,0.11,0.21,0.38,0.01,0.51c-2.14,1.02-2.8,3.01-4.1,4.73c-0.88,1.22-1.96,2.27-3.01,3.26
									c-0.92,0.89-1.86,1.7-2.84,2.48c0.04,0.15-0.05,0.29-0.17,0.28c-0.05-0.03-0.08,0.02-0.13-0.01c-1.24,1-2.51,1.93-3.83,2.76
									c-4.36,2.81-9.44,5.43-14.7,6.49c1.32,0.31,2.67,0.69,3.99,0.99c2.81,0.66,5.68,1.22,8.28,2.43
									c1.61-1.09,2.9-2.26,4.39-3.55c0.83-0.74,1.8-1.29,2.89-1.63c3.07-0.89,5.73,0.43,8.68,0.35c2.45-0.08,4.14-2.32,6.7-1.76
									c0.61,0.13,0.32,1.02-0.25,0.92c-1.07-0.22-1.98,0.23-2.94,0.78c2.17,1.39,2.88,5.17,3.4,7.51
									c0.83,3.28,1.11,6.61,1.11,10.01c-0.02,0.24-0.41,0.26-0.39,0.02c-0.08-2.76-0.46-5.52-1.1-8.18
									c-0.62-2.59-1.44-7.01-3.59-8.64c-0.09-0.05-0.16-0.16-0.17-0.23c-0.71,0.44-1.47,0.86-2.26,1.01
									c-2.18,0.36-4.43-0.7-6.61-0.53c-3.61,0.24-4.78,2.86-7.47,4.68c-1.28,0.86-2.39,1.63-3.4,2.46
									c1.87,0.14,3.46,1.56,4.91,2.69c2.35,1.82,4.39,3.95,5.62,6.67c0.15,0.28-0.31,0.51-0.41,0.26
									c-1.22-2.33-2.97-3.9-5.05-5.44c-1.61-1.18-3.93-3.35-6.16-3.02c-0.07,0.02-0.07,0.02-0.12-0.02
									c-1.02,1.15-1.81,2.55-2.18,4.47c-0.23,0.99-1.6,0.66-1.66-0.27c-2.91-0.08-6.56,2.79-9.49,3.14
									c-0.27,0.03-0.49,0.08-0.73,0.06c-0.03,0.05-0.18,0.08-0.24-0.02c-2.64,0.08-4.53-0.95-7.06-1.75
									c-2.54-0.8-4.11-0.38-5.62-3.07c-1.03-1.82-1.46-3.79-0.66-5.7c-0.07-0.1-0.01-0.2,0.09-0.26c0.06-0.09,0.04-0.17,0.09-0.26
									c-0.71,0.44-1.95-0.01-2.67-0.06c-0.77-0.09-1.58-0.09-2.32,0.08c-0.47,0.16-0.85,0.36-1.34,0.44l-0.03,0.05
									c-0.09,0.26-0.48,0.27-0.55-0.02c-0.02-0.08,0.01-0.12-0.04-0.15c-0.65,1.06-1.44,1.32-2.49,2.32
									c-1.44,1.32-2.24,3.35-3.35,4.94c-0.25,0.41-0.91,0.14-0.79-0.35c0.07-0.21,0.14-0.43,0.2-0.64
									c-2.97,1.96-6.63,3.19-10,4.27c-2.14,0.7-4.28,0.91-6.45,1.27c-1.69,0.29-3.16,1.03-4.73,1.64
									c1.11,0.24,2.18,0.45,3.27,0.74c5.03,0.13,10.33,1.05,15.13,2.47c2.57,0.76,4.98,1.86,7.52,2.66
									c2.44,0.74,5.02,1.07,7.44,2.05c2.45,0.93,4.56,2.54,6.76,3.89c2.56,1.57,5.38,2.54,7.98,3.95
									c3.94,2.1,7.51,5.24,10.79,8.32c-0.78-1.61-1.02-3.28-1.57-5.06C9.94,2.68,8.01,0.8,7.78-1.92
									C7.55-4.21,8.15-6.43,8.77-8.57c0.96-3.32,1.81-6.65,2.82-9.94c0.16-0.47,0.87-0.29,0.75,0.21
									c-0.65,3.01-1.46,5.97-2.15,8.95C9.61-6.85,8.8-4.2,9.3-1.62C9.35-1.4,9.41-1.18,9.46-0.95c3.39,1.26,6.19,2.66,9.96,2.58
									c0.27-0.03,0.3,0.44,0.03,0.46c-3.45,0.59-6.41-0.34-9.43-1.69c0.68,1.36,1.59,2.55,2.06,4.04
									c0.58,1.93,0.84,3.86,1.76,5.56c0,0,0,0,0.05,0.03c2.8,0.27,5.76-0.24,8.18-1.72c0.28-0.15,0.48,0.23,0.23,0.45
									c-2.39,1.63-4.97,2.44-7.82,2.27c0.22,0.26,0.44,0.52,0.66,0.78c2.24,2.2,4.21,1.26,6.81,1.53c1.24,0.14,2.48,0.89,3.8,0.69
									c1.24-0.18,2.58-1.13,3.76-1.6c3.35-1.35,7.05-2.04,10.55-0.84c0.03-0.05,0.01-0.12,0.04-0.17
									c0.13-0.42,0.54-0.68,0.72-1.07c0.13-0.3,0.17-0.59,0.19-0.83c-2.43-0.86-4.45-2.42-6.62-3.81c-3.06-2-6.43-3.19-10.04-3.57
									c-0.24-0.02-0.26-0.41-0.02-0.39c6.58,0.38,11.11,3.98,16.74,6.74c0.07-0.53,0.26-1.04,0.51-1.45
									c-2.52-2.37-3.85-5.96-6.16-8.57c-3.16-3.58-6.89-7.38-11.16-9.56c-0.23-0.14,0-0.51,0.23-0.36
									c4.1,1.95,7.38,5.03,10.53,8.22c1.33,1.32,2.58,2.78,3.65,4.32c1.2,1.74,2.03,3.58,3.49,5.1c0.19-0.2,0.34-0.35,0.55-0.48
									c-0.88-1.36-1.21-3.07-1.7-4.64c-0.83-2.65-1.79-5.2-3.95-7.03c-0.2-0.19,0.07-0.53,0.27-0.34
									c1.85,1.39,3.08,3.09,3.98,5.22c0.82,1.95,1.78,4.18,2.2,6.27c0.1-0.06,0.18-0.08,0.28-0.15c0.03-0.05,0.04-0.17,0.07-0.21
									c0.22-0.37,0.47-0.47,0.89-0.53c0.14-0.11,0.24-0.3,0.33-0.43c0.23-0.36,0.8-0.07,0.7,0.3c-0.05,0.29-0.16,0.47-0.2,0.64
									c0,0,0,0,0.04,0.03c0.06,0.22,0.08,0.49-0.03,0.67c0.05,0.03,0.07-0.02,0.12,0.01c0.54-0.05,0.81,0.63,0.61,1.07
									c-0.03,0.05-0.06,0.09-0.09,0.14c-0.31,0.51-1.05,0.49-1.34-0.07c-0.08-0.18-0.09-0.37-0.08-0.49
									c-0.12-0.01-0.24-0.02-0.36-0.03c-0.05-0.03-0.09-0.06-0.14-0.08c-0.46,0.34-0.93,0.69-1.23,1.07
									c-0.04,0.17-0.13,0.31-0.25,0.42c-0.14,0.23-0.21,0.44-0.26,0.72c0.14,0.08,0.25,0.21,0.31,0.32
									c0.13,0.2,0.1,0.44,0.04,0.65c0,0-0.03,0.05,0.02,0.08l-0.03,0.05c-0.09,0.26-0.28,0.46-0.53,0.55
									c-0.02,0.24-0.07,0.53-0.23,0.8c-0.33,0.74-0.55,1.3-0.64,2.07l0.02,0.07c0.62-0.69,1.83,0.11,1.29,0.98
									c-0.17,0.27-0.45,0.42-0.73,0.37c0.13,0.2,0.24,0.33,0.36,0.54c0.23,0.14,0.44,0.21,0.67,0.35
									c0.51,0.31,0.18,0.93-0.28,0.96c-0.03,0.05-0.03,0.05-0.06,0.09c-0.01,0.12-0.02,0.24-0.05,0.29
									c0.32-0.12,0.77-0.03,0.93,0.44c0.2,0.5,2.14,1.25,2.61,1.6c0.43,0.33,0.61,0.75,0.94,1.15c0.05,0.03,0.05,0.03,0.06,0.1
									c0.06-0.09,0.11-0.18,0.23-0.17c0.07-0.02,0.15-0.04,0.22-0.05c0.64-0.11,0.61,0.75,0.2,0.81c0.61,0.44,1.27,0.4,2.23,0.17
									c0.89-0.21,1.73-0.57,2.53-1.03c0.44-0.3,0.95,0.4,0.54,0.77c-0.16,0.15-0.36,0.28-0.6,0.45c1.07,3.49,3.34,5.77,5.4,8.67
									c1.53,2.14,2.69,4.36,3.51,6.82c0.1,0.25-0.33,0.43-0.43,0.18c-1.4-3.57-3.9-6.49-6.32-9.43c-1.42-1.69-2.88-3.53-2.99-5.81
									c-0.73,0.36-1.6,0.66-2.48,0.74c1.88,5.57,3.58,11.22,5.17,16.86c1.36,4.68,3.71,10.09,3.33,15.03
									c-0.02,0.24-0.38,0.21-0.36-0.03c0.12-2.77-0.98-5.59-1.77-8.21c-0.74-2.6-1.48-5.2-2.29-7.78
									c-1.61-5.28-3.35-10.57-5.11-15.81c0.02,0.07,0.02,0.07,0.03,0.15c-0.86,6.66-1.03,13.3-0.26,19.95
									c0.05,0.22-0.32,0.31-0.37,0.09c-1.01-6.67-1.2-13.35-0.35-20.08c0.04-0.17,0.09-0.26,0.2-0.32
									c-0.21-0.06-0.38-0.1-0.56-0.22c-0.53-0.26-0.42-0.44-0.82-0.82c-0.95-1.02-0.91-1.19-2.06-1.58
									c-0.98-0.35-1.55-0.76-1.83-1.75c-1.76,1.63-3.9,2.34-4.65,4.91c-0.55,1.93-0.7,3.6-1.89,5.33
									c-0.22,0.37-0.78,0.03-0.59-0.36c0.84-1.88,0.66-3.95,1.2-5.76c-1.99,2.31-4.07,4.38-5.03,7.38
									c-0.42,1.19-0.69,2.35-0.96,3.52c1.05-0.99,2.18-2.01,3.27-3.17c0.34-0.35,0.99,0.04,0.87,0.54
									c-1.1,3.55-5.4,4.69-5.72,8.72c-0.2,2.28,0.36,5.46,1.98,7.15c1.1,1.18,2.53,1.74,3.54,3.06c0.47,0.67,0.8,1.37,1.1,2.12
									c0.32-3.4,1.42-6.64,1.55-10.03c0-0.31,0.51-0.32,0.51,0c0.07,3.89-0.97,7.54-1.26,11.4c-0.01,0.12-0.04,0.17-0.1,0.26
									c1.04,2.02,2.72,3.37,4.57,4.69c1.04,0.76,2.03,1.31,3.07,1.57c-0.22-2.41,1.12-5.11,2.18-7.24
									c0.09-0.26,0.53-0.05,0.44,0.21c-0.46,1.17-0.76,2.38-1.1,3.55c-0.3,1.2-0.39,2.48-0.85,3.64c0.95,0.21,2.04,0.18,3.22-0.1
									c2.09-0.42,4.1-1.14,6.2-1.68c0.52-0.12,0.65,0.59,0.18,0.74c-4.64,1.51-8.71,3.61-13.21,0.98
									c-0.92-0.56-1.93-1.18-2.83-1.86c0,0.51-0.02,1.06-0.09,1.58c-0.05,0.6-0.01,1.26-0.09,1.9c0.09,0.06,0.19,0.11,0.28,0.17
									c2.98,2.96,4.73,6.37,5.67,10.29c0.07-0.02,0.15-0.04,0.24,0.02c0.16,0.04,0.33,0.08,0.49,0.12
									c0.12,0.01,0.27-0.03,0.41,0.06c4.2,0.75,8.49,1.17,12.73,0.94c5.09-0.28,9.14-2.46,13.61-4.7
									c0.28-0.15,0.48,0.23,0.22,0.45c-4.08,2.54-8.51,4.61-13.35,5.11c-3.51,0.37-7.09,0.25-10.65-0.23
									c1.65,1.01,3.33,1.98,5.13,2.64c2.71,1.04,5.58,0.97,8.45,1.03c5.42,0.11,10.77,1.06,15.82,3.21
									c0.21,0.07,0.1,0.44-0.1,0.38c-6.21-1.8-12.23-2.27-18.61-2.46c-5.27-0.15-9.28-2.55-13.68-5.24
									c-0.17-0.04-0.29-0.05-0.45-0.09c0.05,0.22,0.1,0.44,0.08,0.68c0.2-0.13,0.56-0.09,0.71,0.18
									c2.63,4.77,6.67,7.31,10.19,11.24c2.44,2.7,3.89,5.79,3.47,9.44c-0.02,0.24-0.41,0.26-0.39,0.02
									c0.42-9.2-10.8-11.99-13.89-19.49c-0.06,0.09-0.18,0.08-0.25,0.1c0.02,0.58-0.42,1.2-0.94,1.63
									c1.96,3.79,5.39,6.65,6.11,11.01c0.07,0.3-0.4,0.45-0.44,0.1c-0.89-4.2-4.47-6.9-6.36-10.59c-0.18,0.08-0.35,0.16-0.5,0.2
									c-0.72,0.25-1.76,0.18-2.39-0.33c-1,2.35,2.04,6.55,3.41,8.21c1.11,1.38,2.48,2.53,3.49,3.97
									c2.38,3.22,1.88,10.1,6.56,11.09c0.33,0.08,0.22,0.57-0.09,0.57c-2.21-0.1-3.7-1.27-4.61-3.28
									c-1.34-2.84-1.61-5.59-3.47-8.12c0.52,1.01,0.85,2.1,1.19,3.19c0.99,3.83,1.61,7.55,3.63,11.05
									c0.13,0.21-0.2,0.32-0.31,0.19c-1.51-2.38-2.63-4.77-3.31-7.45c-0.74-2.79-1.34-5.43-2.87-7.76
									c0.11,0.95,0.07,1.94-0.04,2.94c-0.21,1.89-0.79,3.74-0.91,5.69c-0.09,1.39,0.19,2.77,0.22,4.17
									c0.02,0.9-0.04,2.12-0.29,3.35c1.22,1.82,3.21,2.98,5.04,4.22c1.96,1.33,3.76,1.48,6.05,1.25c0.6-0.07,1.23-0.06,1.86-0.06
									c-0.33-1.21-0.58-2.44-1.14-3.59c-0.1-0.25,0.21-0.44,0.38-0.21c0.74,1.15,1.45,2.46,1.58,3.8
									c2.04,0.18,4.04,0.71,5.97,1.27c0.47,0.17,0.24,0.84-0.21,0.76c-2.3-0.46-4.62-1.01-6.97-0.87
									c-3.74,1.68-5.39,7.04-9.93,6.83c-1.61-0.05-3.03-1.23-4.51-1.7c-0.94-0.32-1.78-0.39-2.59-1.02
									c-0.9-0.68-1.57-2.16-2.9-2.16c-0.44-0.01-0.67-0.35-0.71-0.69c-0.12-0.01-0.29-0.05-0.41-0.06c-0.6-0.05-1.14,0-1.71-0.29
									c-1.26-0.52-1.8-1.8-2.84-2.56c-0.42,0.06-0.85,0.05-1.32-0.11c-1.57-0.52-2.35-2.14-2.94-3.64
									c-3.17,4.04-8.28-1.93-10.5-4.36c-2.91-3.17-9.67-8.39-5.45-13.11C9.21,87.11,10.08,87.65,9.86,88.21z M78.06,99.66
									c-1.72,3.11-1.26,6.17-5.01,8.16c-2.81,1.49-5.8,2.05-8.89,2.36c-0.54,0.05-0.8,0.9-0.14,1.05
									c3.32,0.65,6.84-0.46,9.78-2.07c4.12-2.2,3.8-5.17,4.95-9.2C78.86,99.59,78.29,99.3,78.06,99.66z M78.15,88.74
									c-0.81,0.7-1.08,1.35-1.6,2.3c-0.09,0.14-0.2,0.32-0.28,0.46c-1.04-1.39-3.16-2.56-4.54-3.6c-1.95-1.44-3.95-2.61-6.24-3.39
									c-0.17-0.04-0.26,0.22-0.13,0.3c1.9,0.91,3.67,1.93,5.34,3.21c0.91,0.68,1.78,1.41,2.66,2.14c0.34,0.27,2.25,1.57,2.27,1.96
									c-0.01,0.12,0.1,0.25,0.19,0.3c-1.03,1.58-1.88,1.82-4.29,2.67c-1.8,0.66-2.31,1.8-3.78,2.97c-2.46,1.96-5.39,0.04-8.1-0.05
									c-1.93-0.05-3.51,0.68-4.7,2.22c-0.39,0.52,0.34,1.29,0.89,0.92c0.94-0.61,1.85-1.07,2.83-1.22
									c0.85,1.28,1.26,2.67,1.91,4.07c0.63,1.33,1.47,2.54,2.41,3.69c0.11,0.13,0.39-0.02,0.26-0.22
									c-1.07-1.54-1.94-3.21-2.53-5.02c-0.3-0.94-0.59-1.81-1.07-2.67c0.51-0.01,0.98,0.04,1.51,0.1c1.06,0.21,2.12,0.55,3.2,0.64
									c1.68,0.15,3.2-0.18,4.51-1.27c0.39-0.33,0.71-0.76,1.02-1.14c0.25,0.41,0.54,0.77,0.74,1.15c0.44,0.72,0.91,1.51,1.28,2.24
									c0.13,0.2,0.45,0.08,0.4-0.14c-0.45-1.22-0.96-2.86-1.88-3.93c0.24-0.29,0.5-0.51,0.85-0.68c1.07-0.6,2.29-0.55,3.32-1.3
									c0.97-0.66,1.54-1.58,2.05-2.52c0.78,0.47,1.48,0.97,2.15,1.63c0.22,0.26,0.6,0.56,0.79,0.86c0.71,1.01,0.23,1.47-0.18,2.35
									c-0.23,0.49,0.41,0.88,0.69,0.42c0.8-1.09,0.83-2.27,0.03-3.32c-0.8-1.06-1.88-2.29-3.17-2.64
									c0.49-1.02,0.92-2.02,1.68-2.95C78.97,88.93,78.53,88.41,78.15,88.74z M80.36,66.01c0.86,0.34,1.74,0.76,2.49,1.28
									c-2.9,2.06-5.68,4.02-9.33,4.42c-0.19,0.01-0.18,0.4,0.04,0.34c1.84-0.13,3.66-0.53,5.39-1.17
									c1.72-0.65,3.23-1.99,4.66-3.07c0.36,0.35,0.69,0.73,0.99,1.17c0.65,1.09,0.72,2.21,1.06,3.3c0.15,0.47,0.41,0.88,0.51,1.32
									c0.38,1.44-0.06,2.87-0.26,4.32c-0.04,0.48-0.06,1.03-0.06,1.54c-0.26-0.09-0.47-0.16-0.68-0.22
									c-0.8-0.24-1.64-0.31-2.51-0.34c-0.31-0.01-0.35,0.47,0.01,0.51c0.79,0.05,1.56,0.33,2.26,0.63c0.3,0.13,0.63,0.32,0.9,0.49
									c0,0.82-0.09,1.58-0.49,2.34c-1.14,2.27-3.8,2.91-5.8,4.2c-0.64,0.43-0.34,1.49,0.52,1.32c2.48-0.56,5.15-2.02,6.52-4.26
									c0.53-0.87,0.9-1.78,0.97-2.81c0.13-1.76,0.26-3.31,0.51-5.05c0.15-0.85,0.07-1.35-0.28-2.13c-0.59-1.5-1.56-3.1-2.23-4.59
									c-1.08-2.24-2.8-3.35-5.06-4.18C80.16,65.32,80.02,65.86,80.36,66.01z M64.09,59.43c-0.88,0.6-1.43,1.4-2.1,2.18
									c-1.61,1.91-3.6,3.72-5.79,5.03c-3.41,2.06-7.93,1.31-11.68,2.17c-0.73,0.18-0.59,1.28,0.16,1.29
									c3.03,0.09,6.68-0.19,9.61-0.97c2.57-0.69,4.85-2.45,6.81-4.21c2.73-2.49,4.44-6.1,8.79-5.27c3.6,0.7,5.13,4.6,8.55,5.69
									c0.47,0.16,0.77-0.54,0.36-0.79c-3-1.59-4.53-5.05-7.77-6.16C68.73,57.62,66.02,58.04,64.09,59.43z M147.58,41.87
									c0.06-0.09,0.08-0.14,0.11-0.19c0.03-0.04,0.04-0.17,0.06-0.21c-1.83,0.01-3.65,0.41-5.52,0.46
									c-2.32,0.09-4.52-0.44-6.72-0.97c-2.95-0.74-5.89-1.41-8.94-1.57c-2.81-0.15-5.58,0.36-8.38,0.28
									c-0.46,0.35-0.93,0.69-1.39,1.04c3.45-0.59,7.31,0.52,10.63,0.97c5.6,0.73,11.22,0.83,16.79,1.42
									c0.24,0.02,0.26,0.41-0.01,0.43c-5.04-0.01-10.16-0.31-15.18-0.74c-4.74-0.39-9.19-1.48-13.9-0.58
									c-0.69,0.71-1.24,1.51-1.69,2.43c-0.08,0.14-0.15,0.35-0.23,0.49c1.36-0.17,2.79-0.12,4.12,0.07
									c1.65,0.19,3.65,1.04,5.28,0.34c0.24-0.1,0.41,0.25,0.21,0.38c-1.32,0.7-2.58,0.5-4.03,0.3c-2.06-0.25-4.02-0.14-6.06,0
									c-0.72,1.58-1.48,2.82-3.23,3.82c0.41,0.06,0.84,0.07,1.2,0.1c1.3,0.04,2.61-0.04,3.78-0.52c0.26-0.1,0.46,0.28,0.21,0.38
									c-1.08,0.53-2.36,0.88-3.7,1.01c3.01,0.33,5.58,1.28,8.09,3.26c0.05,0.03,0.09,0.06,0.14,0.08
									c2.77,0.43,5.46-0.68,8.03-1.57c2.92-1.05,5.75-2.28,8.52-3.6c0.32-0.11,0.57,0.29,0.27,0.48
									c-3.01,1.81-6.17,3.27-9.48,4.46c-1.84,0.64-3.77,1.41-5.75,1.45c0.94,0.64,1.9,1.23,2.91,1.53
									c1.09,0.29,2.24,0.05,3.3,0.07c0.55,0.03,1.06,0.02,1.56,0.14c2.76-2.03,6.04-2.85,8.91-4.56c2.4-1.43,3.56-3.74,5.35-5.73
									C144.45,45.12,146.58,44.22,147.58,41.87z M126.53,60.04c0.87-0.6,1.6-1.16,2.41-1.67c-0.19,0.01-0.33-0.07-0.44-0.21
									c-1.27-0.08-2.45,0.08-3.83-0.02c-1.32-0.11-2.64-0.74-3.77-1.36c-2.01-1.05-3.73-2.86-5.9-3.55
									c-1.53-0.49-3.18-0.57-4.8-0.81c0.38,0.42,0.67,0.86,1.07,1.23c1.33,1.32,3.11,1.91,4.81,2.44c0.26,0.09,0.15,0.47-0.1,0.38
									c-1.61-0.36-3.15-0.73-4.51-1.7c-0.99-0.73-1.82-1.75-2.64-2.69l-0.05-0.03c-0.17-0.04-0.23-0.14-0.32-0.19
									c0.97,1.92,1.94,3.83,3.18,5.6c2.31,1.99,6.14,2.64,9.02,2.57c0.24,0.02,0.24,0.33-0.03,0.36
									c-1.98,0.04-4.76,0.04-7.05-0.73c1.57,1.34,3.35,1.93,5.64,2.01C121.78,61.92,124.3,61.51,126.53,60.04z M107.41,53.29
									c-0.02-0.08-0.08-0.18-0.1-0.25c-0.67,0.16-1.51,0.08-2.13,0.08c-1.09,0.03-2.2,0.1-3.29,0.13
									c-0.27,0.03-0.29-0.36-0.06-0.42c1.08-0.22,2.1-0.35,3.18-0.45c0.61-0.07,1.32-0.2,1.95-0.19c-0.12-0.32,0.01-0.63,0.24-0.8
									c-0.05-0.03-0.05-0.03-0.07-0.1c-0.8,0.07-1.58,0.1-2.38,0.18c-1.51,0.21-3.07,0.39-4.59,0.59
									c-0.19,0.01-0.26-0.29-0.07-0.3c1.74-0.38,3.49-0.76,5.26-1.06c0.56-0.1,1.18-0.28,1.84-0.32c0.04-0.17,0.1-0.38,0.14-0.54
									c-2.45,0.7-5.09,0.28-7.47,1.28c-1.38,0.61-2.3,1.81-3.51,2.64c0.7-0.01,1.39-0.09,2.1-0.04c1.08,0.1,2.13,0.43,3.3,0.39
									C103.67,54.02,105.54,53.34,107.41,53.29z M108.25,51.6l0.02,0.07c-0.04-0.15,0-0.31,0.01-0.44
									c-0.06,0.09-0.11,0.19-0.14,0.23C108.19,51.49,108.21,51.57,108.25,51.6z M110.08,43.58c0.86-0.99,2-1.93,2.43-2.73
									c0.14-0.23,0.54-0.05,0.4,0.18c-0.38,1.03-1.01,1.65-1.73,2.41c-0.89,1.03-1.24,1.82-1.55,3.15
									c-0.04,0.17-0.19,0.2-0.35,0.16c-0.24,1.11-0.41,2.21-0.64,3.2c0.12,0.01,0.31,0,0.43,0.01c-0.02-0.07-0.01-0.19,0.07-0.21
									c3.2-2.14,2.79-5.67,5.12-8.34c1.42-1.59,3.29-3.41,5.35-4.41c-0.46-0.16-0.91-0.37-1.52-0.49c-2.03-0.3-5.1,2.55-6.43,4
									C110.95,41.33,110.45,42.35,110.08,43.58z M125.36,36.56c-1.24,0.69-2.64,1.22-4,1.58c0.54-0.05,1.07-0.1,1.63-0.08
									c0.03-0.05,0.03-0.05,0.1-0.06c1.38-0.6,3.04-0.84,4.5-0.96c1.41-0.14,2.77,0.32,4.18,0.18c0.27-0.03,0.36,0.34,0.09,0.37
									c-1.33,0.31-2.73,0.03-4.05,0.22c-0.61,0.07-1.18,0.28-1.78,0.43c2.28,0.19,4.58,0.66,6.71,1.09
									c0.84-0.24,1.81-0.28,2.66-0.32c1.23-0.06,2.54-0.02,3.81,0.06c0.19-0.01,0.19,0.31-0.01,0.31
									c-1.11,0.07-2.28,0.11-3.38,0.27c-0.34,0.04-0.68,0.08-1.03,0.13c2.15,0.5,4.32,1.08,6.54,1.17
									c-0.65-0.9-0.66-1.92-1.09-3.06c-1.34-3.47-5.29-3.81-8.39-2.88c0.22,0.26,0.45,0.59,0.61,0.94
									c0.22,0.58-0.57,1.04-0.83,0.44C130.03,33.37,127.27,35.52,125.36,36.56z M149.44,40.8c0.38,0.1,0.35,0.66,0.06,0.73
									c-0.1,0.57-0.54,1.19-0.64,1.76c-0.19,0.83-0.09,1.58,0.3,2.39c0.19,0.3-0.3,0.7-0.54,0.36c-0.52-0.7-0.88-1.55-1.05-2.41
									c-0.69,1.03-1.72,1.78-2.82,2.75c-0.39,0.33-0.69,0.71-1.04,1.07c0.34-0.04,0.64-0.11,0.93-0.19
									c0.64-0.11,1.26-0.3,1.91-0.34c0.19-0.01,0.27,0.29,0.09,0.37c-1.05,0.48-2.3,0.67-3.45,0.91c-0.57,0.72-1.09,1.47-1.67,2.2
									c0.69-0.21,1.36-0.36,2.05-0.57c1.68-0.48,4.38-0.66,4.91-2.66c0.17-0.59,1.02-0.32,0.92,0.25
									c-0.33,1.56-1.71,2.17-3.11,2.51c-1.82,0.4-3.64,0.79-5.44,1.26c-0.27,0.34-0.58,0.65-0.9,0.96c-2.74,2.61-6.5,3.7-9.7,5.53
									c0.05,0.03,0.09,0.05,0.14,0.08c0.07-0.02,0.12,0.01,0.14,0.08c0.09,0.06,0.23,0.14,0.35,0.15
									c0.27,0.17,0.07,0.61-0.27,0.53c-0.21-0.06-0.42-0.13-0.66-0.16c-2.07,1.01-3.54,3-5.85,3.79c-2.14,0.7-4.78,1.1-7.03,0.86
									c-4.49-0.49-7.36-4.96-9.29-8.92c-2.08,0.42-4.26,0.98-6.38,0.94c-1.42-0.05-2.76-0.43-4.19-0.36
									c-0.85,0.05-1.56,0.18-2.41-0.09c-0.05-0.03-0.05-0.03-0.05-0.03c-0.29,0.07-0.54-0.15-0.57-0.41
									c-8.05,1.61-17.39-0.33-24.97-3.28c-0.85,1.69-1.9,3.31-3.05,4.87c-2.6,3.52-5.99,1.24-9.41,2.8
									c-0.88,0.41-1.64-0.94-0.76-1.34c1.23-0.57,2.38-0.69,3.7-0.69c1.91-0.03,3.19-0.06,4.38-1.16
									c-0.17-0.04-0.28-0.17-0.28-0.36c0.17-1.41-0.2-2.77-0.49-4.14c-0.37-1.55-0.81-3.09-1.41-4.59
									c-0.06-0.22,0.22-0.36,0.3-0.19c0.72,1.7,1.42,3.45,1.96,5.23c0.31,0.94,0.86,2.3,0.56,3.31c0.11-0.18,0.24-0.3,0.35-0.48
									c0.82-1.14,1.93-2.72,2.74-4.37c0.02-0.24,0.11-0.49,0.32-0.63c0.58-1.15,0.97-2.3,1.01-3.29c0.08-2.09-0.6-4.47-1.05-6.51
									c-1.17-5.39-3.73-9.04-8.28-12.2c-2.68-1.9-5.67-3.92-6.33-7.35c-0.05-0.22,0.3-0.39,0.42-0.18
									c2.48,5.62,8.55,6.83,12.08,11.45c2.62,3.44,3.7,7.95,4.43,12.11c0.35,2.1,0.08,4.08-0.57,5.96
									c3.94,0.78,7.77,2.24,11.68,3.06c4.41,0.94,8.51,1.44,12.95,1.2c1.79-1.17,3.29-2.9,5.33-3.55
									c2.21-0.72,5.32-0.96,7.56-0.71l0.05,0.03c0.52-2.08,1.01-4.11,1.41-6.2c0.3-1.71,1.14-2.46,2.49-3.65
									c1.43-1.2,3.42-3.2,5.22-3.67c1.58-0.42,2.63,0.85,4.16,0.72c0.07-0.02,0.12,0.01,0.12,0.01c0.07-0.02,0.17-0.08,0.29-0.07
									c0.45-0.1,0.73,0.45,0.42,0.77c-0.16,0.15-0.32,0.31-0.52,0.43c1.39-0.41,2.67-0.95,3.91-1.64
									c1.07-0.61,2.05-1.58,3.24-1.99c1.09-0.34,2.13-0.08,2.94,0.55c1.82-0.9,4.94-1.26,6.78-0.26c0.99,0.55,1.92,1.49,2.49,2.41
									c0.83,1.33,0.9,2.95,2.04,4.09c0.09,0.05,0.11,0.13,0.13,0.2c0.05,0.03,0.07-0.02,0.12,0.01c1.96-0.12,3.83-0.49,5.79-0.29
									c0.34-0.04,0.63,0.01,0.83,0.19C149.32,40.79,149.39,40.77,149.44,40.8z M70.2-33.05c4.34-0.49,8.74,0.76,12.04,3.6
									c3.39,2.9,4.95,6.83,5.47,11.11c0.14,1.41,0.24,2.8,0.72,4.17c0.4,1.19,1.22,2.33,1.45,3.6c0.3,1.57-0.14,3.01-1,4.3
									c0,0,0,0-0.03,0.05c3.6,0.2,7.1,3.03,8.99,5.9c1.36,2.09,1.92,4.58,2.97,6.87c1.04,2.21,2.35,4.28,3.11,6.64
									c1.32,4.02,0.76,8.72-2.06,11.98c-1.69,1.93-3.81,2.71-6.11,3.69c-3.08,1.32-4.72,3.79-6.27,6.62
									c-0.55,0.99-2.01,0.09-1.46-0.9c1.27-2.38,2.57-4.29,4.43-5.79c-3.33-0.21-6.57-1.01-9.68-2.41
									c-0.21-0.07-0.06-0.42,0.15-0.35c2.12,0.86,4.19,1.5,6.54,1.68c1.39,0.1,2.76,0.12,4.17,0.29c0.51-0.32,1.09-0.66,1.69-0.92
									c4.54-1.94,7.67-4.88,7.67-10.24c-1.88-0.33-3.77-0.54-5.63-0.8c-0.24-0.02-0.26-0.41-0.02-0.39
									c1.03,0.06,2.06,0.13,3.14,0.22c0.8,0.05,1.69,0.03,2.44,0.23c-0.09-0.88-0.23-1.78-0.47-2.62
									c-1.03-1.01-4.79-1.24-5.89-1.41c-1.7-0.22-3.45-0.35-5.14-0.57c-0.24-0.02-0.24-0.33,0.01-0.31
									c2.52-0.09,5.1,0.11,7.63,0.52c0.69,0.1,2.08,0.2,3.04,0.6c-0.93-2.59-2.33-5.15-3.09-7.7c-0.41-1.39-0.98-2.81-1.74-4.16
									c-0.64-0.08-1.31-0.23-2.01-0.22c-0.82,0-1.7,0.09-2.49,0.36c-0.32,0.11-0.4-0.38-0.13-0.52c1.22-0.45,2.72-0.73,4.1-0.51
									c-0.3-0.44-0.55-0.85-0.88-1.23c-0.06,0.09-0.2,0.13-0.4,0.13c-1.88-0.33-3.6,0.32-5.35,0.82
									c-1.91,0.53-3.86,0.84-5.36,2.26c-0.16,0.15-0.42-0.14-0.26-0.29c1.45-1.44,3.3-1.89,5.18-2.49
									c1.82-0.59,3.68-1.28,5.6-1.11c-2.22-2.44-5.26-3.86-8.99-2.81c-0.44,0.11-0.56-0.53-0.16-0.67
									c0.72-0.25,1.43-0.38,2.18-0.36c-0.06-0.1-0.09-0.25-0.04-0.34c0.83-1.45,0.9-2.6,0.64-3.71c-1.63,1.53-3.58,2.66-5.73,3.29
									c-0.15,0.04-0.25-0.21-0.12-0.32c2.08-0.93,3.98-2.17,5.57-3.83c-0.32-0.83-0.72-1.7-1.12-2.7
									c-0.52-1.52-0.67-3.13-0.89-4.71c-0.27-1.61-0.76-3.18-1.46-4.61c-1.9,2.68-4.18,4.75-6.72,6.85
									c-0.23,0.17-0.49-0.11-0.27-0.29c2.42-2.3,4.68-4.64,6.51-7.42c-1.11-1.89-2.61-3.56-4.48-4.83
									c-0.05-0.03-0.05-0.03-0.09-0.06c-1.01,1.33-2.09,2.69-3.01,4.08c-0.17,0.28-0.58,0.03-0.41-0.25
									c0.9-1.46,1.77-2.89,2.81-4.27c-3.46-2.06-7.77-2.55-11.63-1.4c-0.99,0.28-1.95,0.82-3.03,1.04
									c-2.07,1.82-3.04,5.26-4.07,7.66c-0.07,0.21-0.4,0.13-0.38-0.1c0.67-2.11,1.33-4.23,2.28-6.18
									c0.23-0.48,0.52-0.94,0.81-1.32c-1.52-0.3-3.27-1.57-4.5-0.69c-0.74,0.49-1.44-0.63-0.84-1.2c1.04-1.07,2.21-1.04,3.55-0.54
									C64.77-31.08,67.11-32.73,70.2-33.05"/>
							</g>
						</g>
					</g>
				</g>
			</g>
		</g>
	</g>
</g>
</svg>
