<?xml version="1.0" encoding="utf-8"?>
<!-- Generator: Adobe Illustrator 23.0.1, SVG Export Plug-In . SVG Version: 6.00 Build 0)  -->
<svg version="1.1" id="Layer_1" xmlns="http://www.w3.org/2000/svg" xmlns:xlink="http://www.w3.org/1999/xlink" x="0px" y="0px"
	 viewBox="0 0 105.33 269" style="enable-background:new 0 0 105.33 269;" xml:space="preserve">
<style type="text/css">
	.st0{clip-path:url(#SVGID_2_);}
	.st1{fill:#907D4F;}
</style>
<g>
	<defs>
		<rect id="SVGID_1_" width="105.33" height="269"/>
	</defs>
	<clipPath id="SVGID_2_">
		<use xlink:href="#SVGID_1_"  style="overflow:visible;"/>
	</clipPath>
	<g class="st0">
		<path class="st1" d="M96.66,95.06c0.1-0.05,0.16,0.16,0.05,0.21c-0.54,0.16-1.02,0.43-1.45,0.76c-0.43,0.27-0.75,0.69-1.13,0.96
			c-0.16,0.11-0.32-0.11-0.27-0.27c0.27-0.43,0.8-0.8,1.23-1.07C95.53,95.44,96.07,95.22,96.66,95.06z M66.58,79.52
			c-0.21-0.06-0.16-0.38,0.06-0.32c1.71,0.21,3.1-0.8,4.77-0.96c1.55-0.11,2.95,0.75,4.5,0.91c0.27,0,0.38,0.43,0.06,0.48
			c-1.82,0.32-3.32-1.07-5.26-0.69C69.21,79.14,68.08,79.83,66.58,79.52z M-18.57,231.46c-0.85,3.17-2.35,6.06-3.27,9.22
			c-0.85,3.01-0.75,6.11-1.61,9.11c-0.91,3.01-2.52,5.9-3.8,8.74c-1.29,2.9-2.47,5.95-3.97,8.74c0.11,0.11,0.21,0.21,0.32,0.38
			c0.27,0.38-0.21,0.91-0.59,0.81c-0.75-0.22-1.39-0.86-1.98-1.34c-0.59-0.48-1.12-0.96-1.71-1.45c-0.21,0.38-0.86,0.16-0.7-0.27
			c1.4-4.45,2.9-8.9,4.45-13.3c-0.16-0.27-0.06-0.7,0.27-0.76c3.32-9.11,7.13-18.07,11.42-26.75c0.16-0.38,0.7-0.06,0.54,0.32
			c-4.13,8.68-7.83,17.53-11.15,26.48c0.54,0.05,1.07,0.05,1.55-0.06c0.38-0.1,0.54,0.48,0.16,0.59c-0.43,0.16-0.8,0.27-1.23,0.32
			c-0.27,0.05-0.54,0.05-0.8,0c-1.56,4.18-3.01,8.42-4.29,12.71c0.7,0.43,1.45,0.8,2.15,1.23c0.21,0.16,0.48,0.27,0.7,0.43
			c1.02-2.79,2.41-5.47,3.65-8.15c1.5-3.32,3.54-6.81,4.18-10.4c1.07-5.9,1.88-11.64,5.2-16.79
			C-18.89,230.98-18.46,231.2-18.57,231.46z M81.86,124.02c0,0.38-0.54,0.43-0.64,0.11c-0.59-1.55-3.81-2.68-5.26-2.9
			c-0.97-0.16-2.09,0-3.22,0.27c0.27,0.1,0.48,0.21,0.59,0.48c0.16,0.32,0.1,0.38,0.05,0.81c-0.05,0.38-0.05,0.64-0.11,0.96
			c0.06-0.06,0.11-0.06,0.16-0.11c1.98-0.21,3.97-0.16,5.95,0.16c0.16,0.05,0.16,0.32-0.05,0.32c-1.98-0.16-3.97-0.16-5.9,0.05
			c-0.05,0-0.16,0-0.16-0.05c0,0.21,0.06,0.43,0.11,0.64c0.59,0.11,1.13,0.16,1.71,0.06c0.21-0.06,0.27,0.27,0.11,0.32
			c-0.54,0.11-1.13,0.16-1.66,0.11c0.05,0.11,0.05,0.21,0.1,0.32c0.38,0.16,0.96,0.16,1.23,0.16c0.59,0.05,1.13,0.05,1.71,0.05
			c0.27,0,0.22,0.38,0,0.38c-0.8,0.05-1.66,0.05-2.46,0c-0.06,0-0.16,0-0.22,0c0.16,0.43,0.22,0.86-0.05,1.29
			c-0.1,0.21-0.38,0.32-0.48,0.54c-0.05,0.16-0.05,0.32-0.11,0.48c0.27,0.05,0.59,0.05,0.96,0.1c2.52,0.05,4.56-1.44,6.44-2.95
			c0.21-0.16,0.48,0.11,0.32,0.32c-2.09,2.36-5.57,3.86-8.42,3.32c-0.1,0.05-0.21,0-0.32-0.05c-1.88-0.43-3.43-1.77-4.13-4.29
			c-0.11-0.48,0.54-0.75,0.75-0.32c0.96,1.72,1.93,3.11,3.65,3.7c0.27-0.38,0.54-0.91,0.65-1.13c0.21-0.43,0.1-0.91-0.06-1.34
			c0,0,0-0.05-0.05-0.05c0-0.05,0-0.05,0-0.11c-0.05-0.16-0.16-0.38-0.21-0.54c-0.05-0.05-0.16-0.05-0.21-0.1
			c-0.16-0.05-0.11-0.38,0.1-0.32c-0.1-0.48-0.1-0.91-0.1-1.45c0-0.32,0.16-0.85-0.16-1.07c-0.11-0.05-0.38-0.16-0.65-0.21
			c-1.07,0.38-2.04,0.91-2.73,1.55c-0.27,0.22-0.7-0.16-0.43-0.43c0.69-0.59,1.6-1.18,2.52-1.6c0.05-0.06,0.1-0.11,0.21-0.11h0.05
			c1.66-0.7,3.59-1.07,5.26-0.75C78.21,120.8,81.86,121.88,81.86,124.02z M87.7,86.38c-1.07-1.93-0.75-4.02-0.64-6.17
			c0.1-1.45-0.21-3.76,0.7-4.94c0.91-1.23,3.59-2.3,4.98-2.73c1.02-0.32,1.93-0.43,2.41,0.59c0.11,0.21-0.16,0.48-0.38,0.27
			c-1.29-1.29-3.86,0.32-4.93,1.13c-1.66,1.23-1.93,2.42-2.04,4.29c-0.05,1.07-0.16,2.15-0.21,3.22c0.43-0.32,0.85-0.06,1.34,0.16
			h0.05c0.05-1.98,0.65-3.97,1.66-5.69c0.11-0.21,0.48-0.05,0.32,0.22c-0.91,1.82-1.34,3.59-1.45,5.63c0.21,0.05,0.43,0.1,0.59,0.16
			c0.06,0,0.06,0.06,0.11,0.06c-0.11-1.02,0.32-2.04,0.75-2.95c0.11-0.16,0.38-0.05,0.32,0.11c-0.38,1.02-0.32,2.04-0.48,3.11
			c0,0,0,0,0,0.06c0.27,0.16,0.54,0.32,0.81,0.21c0.54-0.21,0.8-0.81,1.45-0.54c0.05,0.05,0.1,0.05,0.16,0.1
			c0.96-1.93,1.98-3.81,3-5.73c0.11-0.16,0.38-0.06,0.32,0.1c-0.81,2.09-1.77,4.18-2.9,6.17c0.1,0.32,0.16,0.65,0.16,0.91
			c0.96-0.69,1.88-1.61,2.73-2.63c1.29-1.45,1.61-2.26,1.4-4.23c-0.06-0.48-0.59-5.36-2.52-3.43c-0.27,0.27-0.65-0.11-0.38-0.38
			c3-3.06,3.75,3.38,3.75,5.26c0,1.82-1.82,3.48-3,4.72c-1.29,1.39-2.95,2.89-4.99,2.63c-0.32-0.06-0.43-0.54-0.05-0.59
			c1.02-0.21,1.88-0.54,2.68-1.02c-0.11-0.06-0.16-0.11-0.16-0.27c0-0.16,0-0.32-0.05-0.48c-0.16,0-0.32-0.16-0.27-0.38
			c-0.1-0.05-0.21-0.11-0.38-0.16c-0.1,0.11-0.27,0.21-0.38,0.32c-0.1,0.1-0.21,0.16-0.32,0.27c-0.27,0.16-0.54,0.21-0.8,0.11
			c-0.7-0.21-0.97-0.81-1.77-0.91c-0.05,0-1.23-0.21-1.18-0.32c-0.11,0.16-0.27,0.21-0.43,0.16c0,1.13,0.16,2.2,0.59,3.27
			C88.35,86.48,87.86,86.65,87.7,86.38z M100.2,97.74c-1.45,0.86-5.42,2.73-6.7,0.91c0,0,0,0.05-0.05,0.05
			c-1.23,1.02-2.84,1.29-4.34,1.5c-1.23,0.16-2.31,0.32-3.43,0.81c-0.59,0.21-1.07,0.48-1.72,0.54c-0.37,0.05-0.32-0.54,0-0.54
			c1.51-0.16,2.9-1.07,4.4-1.29c1.77-0.27,3.22-0.81,4.93-1.29c0.05,0,0.1,0,0.1,0c0-0.11,0.06-0.21,0.16-0.32
			c0-0.1,0.06-0.16,0.16-0.21c2.15-0.91,4.24-1.5,6.17-2.95c0.11-0.11,0.32,0.1,0.16,0.21c-1.61,1.29-3.65,2.63-5.74,3.06
			c1.34,0.85,4.34-0.48,5.53-1.07c2.15-1.07,4.23-2.73,3.81-5.42c-0.06-0.27,0.32-0.38,0.38-0.11
			C104.92,94.26,102.18,96.57,100.2,97.74z M96.23,90.83c2.73-1.77,5.15-2.25,7.67,0c0.32,0.27-0.16,0.7-0.48,0.48
			c-2.14-1.72-4.34-1.4-6.54,0c-1.29,0.8-2.95,2.3-3.38,3.91c1.34-1.55,3.38-2.57,5.36-2.84c0.16,0,0.22,0.21,0.06,0.27
			c-2.41,0.48-4.02,1.77-5.53,3.59c0,0.21,0.06,0.48,0.16,0.7c0.11,0.27-0.21,0.38-0.43,0.27c0,0,0,0.05-0.05,0.05
			c-1.34,1.02-3.06,1.45-4.61,2.04c-1.34,0.48-2.68,1.13-4.07,0.54c-0.27-0.1-0.11-0.59,0.16-0.54v-0.05
			c0.32-1.29,0.7-2.63,1.23-3.81c0.43-1.02,1.18-1.82,1.5-2.89c0.7-2.2,1.18-4.24,2.68-6.01c0.27-0.38,0.8,0.11,0.59,0.48
			c-0.75,1.34-1.56,2.57-2.09,3.97c-0.27,0.8-0.38,1.71-0.75,2.52c-0.32,0.64-0.85,1.18-1.23,1.82c-0.76,1.23-1.18,2.63-1.56,4.02
			v0.05c1.4,0.32,2.95-0.43,4.29-0.86c1.29-0.43,2.58-0.75,3.76-1.44c-0.05-0.11-0.16-0.27-0.21-0.38c-0.05-0.05-0.1-0.1-0.05-0.21
			C92.1,94.26,94.67,91.85,96.23,90.83z M67.76,125.46c-3.59-0.21-7.72-0.48-11.05,0.97c0.05,0.1,0.05,0.27-0.11,0.38
			c-4.98,3-8.31,7.77-12.97,11.1c-0.05,0.05-0.1,0.05-0.1,0.05c-0.7,0.59-1.34,1.23-2.04,1.82c-0.48,0.43-0.96,0.91-1.55,1.29
			c0,0.16-0.06,0.27-0.27,0.32c-0.16,0-0.32,0.05-0.43,0.1c0,0-0.05,0-0.05,0.06c-0.05,0-0.11,0.05-0.16,0.05
			c-2.36,0.7-4.18,2.9-6.11,4.34c-1.88,1.45-3.86,2.95-6.01,4.02c1.23,0.48,2.47,0.96,3.65,1.39c1.93,0.76,3.7,1.56,4.83,3.33
			c0.16,0.32-0.27,0.64-0.48,0.38c-2.09-2.2-4.72-2.95-7.51-3.86c-2.73-0.86-5.47-2.04-8.31-2.53c-3.11-0.48-5.36,0.7-8.2,1.61
			c-2.3,0.7-4.72,0.97-7.08,0.97c-0.43,0-0.54-0.7-0.1-0.75c3.38-0.48,6.38-0.97,9.54-2.2c1.88-0.75,3.54-0.97,5.36-0.81
			c1.93-1.34,4.18-1.13,6.32-1.88c3.22-1.07,4.72-3.48,6.28-6.28c0.48-0.91,1.13-1.5,1.66-2.3c1.07-1.56,1.29-3.01,1.23-4.82
			c0-1.29-0.05-2.58-0.27-3.86c-1.45,1.56-4.02,1.88-5.79,3.06c-0.16,0.11-0.38-0.16-0.22-0.27c0.86-0.7,1.82-1.13,2.79-1.56
			c1.07-0.48,2.04-1.07,3.01-1.71c0.06-0.06,0.11-0.06,0.11-0.06c-0.32-1.82-0.97-3.59-2.2-5.15c-0.27-0.38,0.21-0.86,0.48-0.48
			c1.82,2.26,2.47,4.88,2.68,7.72c0,0.16,0,0.32,0.05,0.48c0.16-0.8,0.38-1.66,0.7-2.46c0.91-2.36,1.61-4.56,2.09-7.08
			c-0.54,0.32-1.13,0.48-1.83,0.43c-0.27,0-0.38-0.27-0.32-0.48c-0.06,0-0.16,0-0.22-0.06c0.11,0.06,0.16,0.16,0.16,0.32
			c-0.16,0.65-0.38,1.29-0.48,1.93c-0.16,0.64-0.21,1.34-0.38,1.93c-0.11,0.43-0.8,0.32-0.75-0.1c0.05-1.34,0.54-2.84,1.13-4.02
			c0.05-0.11,0.16-0.16,0.27-0.16c-0.75-0.32-0.96-1.29-1.23-2.04c-0.54-1.71-1.18-3.54-0.97-5.31c0.06-0.37,0.54-0.37,0.59,0
			c0.27,2.47,0.75,5.04,2.3,7.03c0.05,0.05,0.05,0.11,0.05,0.16c0.11,0,0.16,0,0.27-0.05c-1.07-2.26-1.4-4.88-0.75-7.29
			c0.05-0.16,0.38-0.16,0.32,0.05c-0.32,2.46-0.05,4.72,1.07,6.97c0,0.05,0,0.05,0,0.11c0.32-0.11,0.59-0.27,0.81-0.43
			c0.38-1.6,0.96-3.11,0.91-4.82c0-0.21,0.32-0.21,0.32,0c0.1,1.18,0.16,2.47-0.16,3.65c1.66-2.52,1.66-6.97,1.6-9.28
			c0-0.06,0-0.11,0-0.11c-4.88,0.91-8.04,6.86-13.56,4.4c-2.41-1.07-2.9-2.25-5.95-2.35c-1.34-0.06-2.57,0-3.86-0.32
			c-2.95-0.7-5.79-2.36-8.31-4.02c-0.22-0.11,0-0.43,0.16-0.32c3.32,1.77,6.7,3.86,10.56,3.97c2.73,0.1,3.91-0.11,6.27,1.39
			c6.65,4.29,9.11-3.59,15.12-3.43c0.38,0,0.38,0.48,0.05,0.59c0.05,0.05,0.05,0.05,0.05,0.1c0.7,2.79,0,9.22-3,11.31
			c0.43,2.47-0.54,4.78-1.34,7.08c-0.65,1.72-1.18,3.33-1.4,5.15c-0.16,1.07-0.11,1.71-0.59,2.68c-0.05,0.11-0.11,0.16-0.16,0.16
			c-0.21,0.54-0.43,1.02-0.8,1.5c-0.86,1.13-1.56,2.47-2.31,3.7c0.05,0,0.05-0.05,0.1-0.05c4.78-2.26,8.95-4.99,12.92-8.47
			c2.73-2.41,5.47-4.51,8.74-6.01c0.91-1.77,2.09-3.32,3.7-4.56c1.77-1.4,3.75-1.88,5.31-3.59c1.45-1.55,2.79-3,4.4-4.4
			c1.77-1.5,3.16-3.27,4.77-4.83c0.21-0.21,0.43-0.38,0.7-0.53c0.86-0.11,1.51-0.54,1.93-1.23c0.38-0.48,0.8-0.96,1.23-1.45
			c1.88-2.09,3.17-4.23,4.61-6.6c2.52-4.13,6.38-7.45,7.99-12.11c0.05-0.21,0.38-0.1,0.32,0.11c-1.45,4.56-4.67,7.72-7.24,11.58
			c-0.97,1.5-1.67,3.22-2.73,4.61c-1.34,1.82-3.33,3.59-4.99,5.15c-3.06,2.9-6.43,5.79-9.28,8.95c-1.55,1.71-2.14,2.68-4.18,3.76
			c-2.73,1.4-4.61,3.32-5.95,6.06c-0.21,0.48-0.86,0.21-0.91-0.21c-3.76,2.04-6.76,4.61-9.92,7.56c-3.22,3.06-7.03,5.2-11.1,6.97
			c-0.38,0.16-0.64-0.16-0.64-0.43c-0.81,1.34-1.66,2.63-2.9,3.59c-2.63,2.09-5.74,1.82-8.63,2.9c0.37,0.05,0.8,0.16,1.23,0.27
			c0.48,0.11,0.96,0.27,1.45,0.43c0-0.06,0-0.11,0-0.16c0.16-0.81,0.96-1.29,1.72-1.56c0.32-0.1,0.48,0.38,0.21,0.54
			c-0.54,0.32-0.65,0.96-0.86,1.5c0,0,0,0,0,0.05c1.02,0.32,2.04,0.7,3.06,1.07c-0.06-0.16-0.06-0.32,0.1-0.43
			c2.47-1.88,5.09-3.48,7.56-5.42c1.5-1.18,2.84-2.52,4.67-3c0.54-0.75,1.39-1.34,2.14-1.93c0.7-0.54,1.34-1.07,2.04-1.6
			c0.05-0.11,0.1-0.22,0.21-0.32c4.61-3.22,8.15-7.89,13.08-10.61c-0.16-0.16-0.16-0.43,0.06-0.54c3.21-1.51,8.2-1.77,11.58-0.81
			C68.03,125.09,68.03,125.52,67.76,125.46z M83.52,101.93c-3.81,3.76-7.72,7.29-11.2,11.31c-1.77,2.04-3.97,3.22-5.9,5.04
			c-1.82,1.71-3.48,3.59-5.26,5.31c2.36,0.43,4.51,0.05,6.92-0.43c0.21-0.06,0.32,0.32,0.1,0.37c-1.4,0.32-2.84,0.76-4.23,0.97
			c-1.29,0.16-2.52-0.11-3.76-0.43c-0.43-0.1-0.21-0.75,0.16-0.64c0.11,0.05,0.21,0.05,0.32,0.05c1.82-2.04,3.65-4.13,5.68-6
			c1.82-1.67,3.91-2.79,5.58-4.72c3.43-4.08,6.86-8.1,11.1-11.48C83.31,101.02,83.9,101.55,83.52,101.93z M16.5,28.2
			c-0.38-3.54,6.06-3.65,8.26-3.06c0.16,0.06,0.1,0.27-0.06,0.27c-1.93-0.11-7.72-0.16-7.51,2.84C17.25,28.63,16.55,28.63,16.5,28.2
			z M57.57,3.27C57.41,3.16,57.63,2.9,57.79,3c1.4,0.76,2.9,1.77,3.27,3.38c0.1,0.48-0.65,0.7-0.75,0.21
			C59.93,5.09,58.75,4.18,57.57,3.27z M32.74,110.72c0.43-0.05,0.43,0.65,0,0.7c-1.77,0.16-3.05-0.48-4.5-1.45
			c-0.81-0.54-1.56-1.34-2.47-1.71c-1.34-0.54-2.04-0.21-3.32-0.27c-2.04-0.16-3.81-1.39-5.74-1.93c-2.79-0.76-5.36-0.43-8.04,0.43
			c-0.27,0.05-0.43-0.32-0.16-0.43c3.7-1.72,7.4-1.07,11.05,0.38c1.71,0.7,3,0.64,4.83,0.75c0.32,0,0.64,0.11,0.96,0.16
			C28.19,108.15,29.48,111.04,32.74,110.72z M-11.86,85.95c-0.43-0.8-0.59-1.13-0.27-2.04c0.1-0.38,0.64-0.21,0.59,0.16
			c-0.27,1.29,1.45,2.57,1.98,3.65c0.54,1.02,0.54,2.25,1.18,3.27c0.91,1.45,2.47,2.41,3.7,3.65c0.96,0.16,1.88,0.7,2.84,0.96
			c0.97,0.27,1.98,0.48,3.01,0.59c0.16,0,0.1,0.27-0.06,0.27c-1.55-0.16-3.54-0.32-5.04-1.02c0.05,0.06,0.05,0.11,0.1,0.11
			c1.67,2.31,2.84,4.93,5.47,6.27c2.63,1.34,5.74,1.29,8.58,1.23c0.16,0,0.27,0.06,0.38,0.16c1.66-0.96,3.81-1.29,5.41-2.31
			c2.36-1.5,5.63-2.09,7.94-0.21c0.21,0.21,0,0.54-0.27,0.48c-1.34-0.32-2.52-0.86-3.97-0.75c-1.88,0.16-2.9,1.18-4.51,1.93
			c-1.55,0.7-3.22,0.7-4.56,1.45c-0.05,0.16-0.21,0.27-0.43,0.27c-0.48,0.38-0.91,0.8-1.29,1.5c-0.11,0.16-0.38,0.05-0.32-0.11
			c0.21-0.54,0.54-1.02,0.91-1.39c-2.68,0-5.47-0.06-7.94-1.23c-2.57-1.18-3.97-3.43-5.47-5.73c-1.02-1.61-2.09-2.79-3.48-4.02
			c-0.91-0.81-1.56-1.51-1.98-2.68c-0.38-1.02-0.48-1.77-1.07-2.79C-10.73,87.34-11.65,86.38-11.86,85.95z M-12.03,81.71
			c0.43-2.09,1.29-4.23,3.32-5.26c1.07-0.54,2.26-0.59,3.44-0.86c1.5-0.38,2.89-1.02,4.4-1.39c2.57-0.7,5.2-0.43,7.67,0.64
			c2.95,1.23,5.09,3.92,8.26,4.61c0.21,0.06,0.11,0.32-0.1,0.32c-4.72-0.85-7.72-5.2-12.92-5.04c-2.52,0.06-4.61,1.4-7.03,1.93
			c-0.21,0.06-0.48,0.11-0.7,0.11c1.77,0.43,3.43,1.23,5.04,1.98c1.6,0.69,4.72,1.6,5.73,3.06c0.06,0.05,0,0.16-0.05,0.16
			c-0.05,0-0.05,0.06-0.1,0.06c-0.06,0-0.11,0-0.16,0l-0.05-0.06c-0.11-0.1,0.05-0.27,0.16-0.16c-0.64-0.65-2.46-1.18-3.32-1.61
			c-1.07-0.48-2.15-0.97-3.22-1.4c-1.88-0.7-3.75-1.4-5.73-1.71c-0.43,0.1-0.91,0.27-1.29,0.48c-0.74,0.48-1.18,1.13-1.55,1.82
			c2.2,0.48,4.4,1.13,6.54,1.72c0.21,0.05,0.1,0.38-0.11,0.32c-2.2-0.48-4.5-0.91-6.7-1.5c-0.27,0.7-0.48,1.4-0.7,2.04
			C-11.33,82.57-12.13,82.3-12.03,81.71z M16.82,78.18c0.05,0,0.05,0,0.1,0C16.93,78.18,16.88,78.18,16.82,78.18z M18.22,80.27
			c3.38,0.21,4.88,3.32,5.95,6.17c0.11,0.21,0.43,0.1,0.32-0.11c-0.16-0.48-0.38-1.02-0.59-1.61c1.13,1.88,2.36,3.59,3.75,5.47
			c1.45,1.98,2.52,4.08,3.48,6.22c-1.88-2.95-3.59-6.06-6.16-8.53c0-0.27-0.16-0.54-0.43-0.7c-0.16-0.11-0.43-0.11-0.64,0
			c-0.16,0-0.27,0.05-0.38,0.16c-0.27,0.32-0.38,0.75-0.11,1.13c0.21,0.32,0.59,0.38,0.91,0.21c0.11-0.05,0.21-0.1,0.32-0.21
			c3,3.43,4.61,8.64,7.67,12.12c-3.97-1.45-7.83-4.56-9.97-7.72C19.93,89.48,19.18,84.61,18.22,80.27z M33.55,91.58
			c-2.9-4.02-5.04-8.31-6.86-12.92c0.11-0.1,0.21-0.27,0.21-0.48c0-0.11,0-0.22-0.05-0.32c0-0.11-0.05-0.21-0.11-0.27
			c-0.1-0.27-0.48-0.38-0.75-0.32c0.05-0.06,0.05-0.11,0.11-0.16c0.38-3.38-0.48-6.81,0.38-10.03c0.1,0.21,0.27,0.38,0.48,0.43
			c0.1,0.11,0.27,0.16,0.43,0.21c1.82,5.53,3.7,10.94,5.47,16.46c0.65,2.04,1.34,4.08,1.88,6.17c0.05,0.7,0.11,1.34,0.16,2.04
			c0,0.21,0.21,0.27,0.38,0.21c0.16,0.91,0.27,1.77,0.38,2.68C35.05,93.99,34.41,92.81,33.55,91.58z M40.25,100.1
			c0.32-0.32,0.65-0.65,0.97-0.97c0.05,0.11,0.21,0.16,0.32,0.16c-0.06,0.22,0.21,0.43,0.48,0.27c0.16-0.11,0.27-0.27,0.43-0.38
			v0.05c-0.06,0.21,0.05,0.43,0.16,0.54c-0.48,0.59-1.02,1.18-1.61,1.66c-0.06,0-0.11,0.06-0.16,0.11
			c-0.11,0.05-0.16,0.11-0.27,0.21c-0.85,0.59-1.93,0.86-3,1.02c0.21-0.32,0.48-0.7,0.7-1.02C38.97,101.23,39.66,100.69,40.25,100.1
			z M43.04,99.03c0-0.05,0-0.05,0-0.05V99.03z M30.87,101.98c-1.55-0.1-3.11-0.43-4.56-0.91c0-0.21-0.11-0.38-0.21-0.54
			c0-0.05-0.06-0.05-0.11-0.05c1.29,0.38,2.68,0.59,4.18,0.65c0.11,0,0.16-0.06,0.21-0.11c0.75,0.38,1.4,0.75,2.04,1.07
			C31.94,102.04,31.41,102.04,30.87,101.98z M25.19,101.13C25.24,101.13,25.13,101.13,25.19,101.13z M25.72,98.12
			c1.02,0.8,2.09,1.5,3.27,2.09c-0.59-0.1-1.18-0.21-1.77-0.32C26.69,99.3,26.2,98.71,25.72,98.12z M52.05,74.69
			c0.22-0.05,0.43-0.27,0.32-0.59c-1.4-2.95-0.8-6.43-0.75-9.6c0.05-2.73,0.05-5.46,0.11-8.2c0.16,0.06,0.32,0.11,0.48,0
			c0.06-0.05,0.11-0.05,0.16-0.1c0.06,6.54,0.48,13.14,0.27,19.68c-0.11,0.05-0.21,0.05-0.27,0.1
			C52.27,75.55,52.21,75.12,52.05,74.69z M49.96,50.34c0.16,0.06,0.38,0.06,0.54,0.11c-0.11,1.07,0.1,2.31,0.32,3.33
			c0.05,0.21,0.43,0.16,0.43-0.06c-0.11-0.7-0.16-1.34-0.21-2.04c0-0.38,0-0.81,0-1.18c0.48,0.06,0.96,0.11,1.45,0.11
			c0.1,0,0.16,0,0.21-0.05c-0.21,0.8-0.32,1.66-0.54,2.46c-0.05,0.22,0.27,0.32,0.32,0.11c0.32-0.91,0.7-1.88,0.86-2.84
			c0.59-0.05,1.13-0.16,1.6-0.38c-0.32,1.07-0.75,2.15-1.34,3.06c-0.54,0.91-1.4,1.61-1.98,2.46
			C50.06,54.37,49.85,52.22,49.96,50.34z M43.58,44.88c-0.16-0.27-0.27-0.54-0.38-0.75c0-0.06,0-0.16-0.05-0.22
			c0-0.05-0.06-0.05-0.06-0.1c-0.85-2.09-1.07-4.45-2.68-6.22c-0.91-1.02-2.19-1.5-3.21-2.35c-1.66-1.4-2.47-3.22-3.16-5.2
			c-0.91-2.73-3.49-8.36-1.83-11.42c0.16-0.05,0.32-0.21,0.27-0.38c0.43-0.59,1.07-1.02,1.93-1.34c0.32-0.11,0.16-0.54-0.11-0.48
			c-0.86,0.21-1.5,0.59-1.98,1.02c-0.7-3.27,1.29-6.81,2.68-9.6c1.18-2.41,3.06-4.4,4.13-6.81c0.91,0.85,1.88,1.07,3.11,1.44
			c2.2,0.65,4.34,1.51,6.38,2.63c4.29,2.36,6.43,5.2,8.04,9.7c-2.15,5.2-3.22,10.99-4.45,16.35c-0.16-0.32-0.32-0.59-0.48-0.91
			c0.1-0.05,0.21-0.16,0.16-0.38c-0.97-3.81-1.07-7.45-1.4-11.31c-0.21-2.95-1.5-5.09-3.16-7.45c-0.11-0.16-0.38,0-0.27,0.16
			c2.2,3.38,2.79,6.27,2.95,10.24c0.11,2.36,0.21,4.72,0.81,6.97c-0.27-0.54-0.54-1.13-0.81-1.71c-1.13-2.73-2.52-4.88-4.93-6.65
			c-0.16-0.11-0.38-0.27-0.54-0.38c-0.91-2.2-1.98-4.34-2.68-6.65c-0.05-0.27-0.48-0.16-0.43,0.1c0.48,1.83,1.02,3.92,1.88,5.74
			c-2.15-1.4-4.78-2.68-7.03-2.63c-0.32,0-0.32,0.48,0,0.54c2.9,0.38,6.22,2.68,8.47,4.51c2.58,2.09,3.65,4.61,4.93,7.56
			c1.34,3,2.68,5.58,3.38,8.84c0.38,1.67,0.65,3.32,0.81,5.04c0,0.32,0,0.65,0.05,0.96v0.06c0.05,1.77-0.05,3.54-0.48,5.26
			c-0.05,0.1,0,0.21,0,0.27c-0.16,0.05-0.38,0.16-0.54,0.21c-0.05,0-0.1,0.06-0.16,0.11c-0.05,0-0.05,0-0.1-0.05
			c-0.48,0-0.97-0.06-1.45-0.11c-0.16-0.86-0.43-1.5-0.81-2.36c-0.91-2.09-0.91-3.81-1.18-6.01c-0.38-2.95-1.5-5.68-2.68-8.36
			c-0.05-0.16-0.38-0.05-0.32,0.11c1.4,3.32,2.63,6.54,2.63,10.19c0,2.52,1.13,4.02,1.82,6.38c-0.54-0.11-1.07-0.21-1.61-0.38
			c-0.8-1.51-1.61-3.01-2.36-4.56c-0.91-1.93-0.81-3.92-1.5-5.85c-0.97-2.68-3.01-4.71-5.04-6.59c-0.16-0.16-0.43,0.11-0.27,0.27
			c1.34,1.23,2.68,2.57,3.65,4.13c1.34,2.09,1.28,3.76,1.82,6.06c0.48,2.2,1.77,4.29,2.84,6.32C46.15,47.93,44.59,46.7,43.58,44.88z
			 M33.66,37.96c-2.31-2.73-4.4-5.53-5.95-8.69c-1.72-3.38-2.52-6.44-2.58-10.24c-0.05-3.38,0.38-6.7,0.59-10.08
			c0.7,3.54,3.81,6.33,5.36,9.55c0.05,0.16,0.16,0.21,0.27,0.21c-0.7,1.61-0.54,3.7-0.11,5.52c0.91,3.76,1.82,8.85,4.83,11.58
			c0.59,0.54,1.29,0.91,1.93,1.34c1.72,1.18,2.47,2.31,3.17,4.29c0.1,0.27,0.21,0.59,0.27,0.85c-0.75-0.64-1.61-1.13-2.52-1.71
			c-2.63-1.61-4.4-3.43-6.01-6.06c-1.34-2.2-2.68-4.45-3.86-6.76c-1.45-2.9-1.82-5.9-2.2-9.11c0-0.16-0.32-0.22-0.32,0
			c0.27,5.79,2.26,9.92,5.09,14.9c1.18,2.09,2.47,4.13,4.29,5.74c1.88,1.66,4.18,2.63,5.95,4.45c0,0.06,0.06,0.11,0.06,0.16
			C38.91,42.25,35.96,40.69,33.66,37.96z M26.9,33.3c-1.45-0.65-2.95-1.18-4.5-1.66c1.82,0,3.75-0.43,5.47,0.16c0.05,0,0.1,0,0.16,0
			c0.8,1.29,1.6,2.46,2.46,3.65C29.32,34.69,28.19,33.83,26.9,33.3z M65.83,33.78c1.13-0.7,2.15-1.72,3.11-2.63
			c1.23-1.18,2.36-2.46,3.43-3.76c0.11-0.16-0.05-0.32-0.21-0.21c-1.07,1.18-2.2,2.36-3.43,3.48c0,0,0,0-0.05,0.06
			c2.3-3.01,3.97-6.65,4.67-10.4c0,0,0,0.05,0.05,0.05c2.73,2.09,3.16,4.45,2.52,6.76c-1.29,1.88-2.68,3.54-4.5,4.93
			c-1.67,1.29-3.59,2.04-5.36,3.22c-1.5,1.02-2.84,2.41-4.02,3.91c0.48-1.02,1.07-1.98,1.72-2.9
			C64.33,35.33,65.08,34.53,65.83,33.78z M70.39,34.42c-3.16,2.79-6.27,6.17-10.03,8.2c1.23-1.56,2.41-3.11,3.7-4.61
			c1.45-1.66,3.11-2.68,4.99-3.76c2.25-1.34,4.23-3,5.9-4.98C73.77,31.2,71.99,33.03,70.39,34.42z M16.18,78.23
			c0.11,0.16,0.32,0.27,0.48,0.27s0.32-0.05,0.48-0.1c0.48,3.38,1.39,6.81,2.31,10.08c0.64,2.36,1.39,4.4,2.89,6.33
			c-4.07-3.65-8.84-6.7-13.24-9.49c-0.11-0.11-0.27,0.1-0.11,0.21c3.37,2.25,6.59,4.82,9.65,7.45c2.52,2.14,4.72,4.61,7.24,6.76
			c-1.29-0.27-2.52-0.65-3.76-1.23c-2.15-1.07-4.23-2.2-6.49-3.11c-5.15-2.2-10.51-4.07-15.76-5.74c-0.21-0.05-0.32,0.27-0.11,0.38
			c5.84,1.99,11.58,3.76,17.16,6.44c3.06,1.5,5.74,3.06,8.8,3.97c-0.11,0-0.22,0.05-0.32,0.1h-0.05c-0.43-0.05-0.81,0.38-0.81,0.75
			c-0.05,0.43,0.27,0.81,0.65,0.92c0.43,0.1,0.8-0.11,0.96-0.43c1.4,0.65,2.9,1.13,4.4,1.34c-0.96,1.07-1.77,2.3-2.3,3.54
			c-0.06,0.11,0.05,0.27,0.16,0.21c0.21,0,0.43,0,0.59,0c0.16,0,0.16-0.27,0-0.27c-0.11,0-0.21-0.06-0.32-0.06
			c0.43-0.64,0.75-1.29,1.23-1.88c0.38-0.54,0.8-1.02,1.23-1.5c1.29,0.16,2.63,0.16,3.92-0.05c0.1,0.05,0.21,0.1,0.38,0.16
			c-0.05,0.27,0.16,0.59,0.48,0.54c0.21-0.05,0.43-0.1,0.59-0.1c0,0.96,0.16,1.98,0.27,2.9c0,0.1,0.22,0.1,0.22,0
			c-0.11-1.02-0.06-1.98,0-3.01c1.34-0.27,2.79-0.54,3.86-1.34c0.1-0.05,0.16-0.16,0.27-0.21c1.88-0.22,3.81-0.7,5.69-0.06
			c1.45,0.48,2.73,1.29,4.23,1.56c0.1,0,0.21-0.16,0.05-0.21c-1.71-0.38-3.11-1.45-4.77-1.93c-1.45-0.43-3-0.27-4.51-0.05
			c0.43-0.43,0.81-0.97,1.18-1.45c0.21-0.06,0.43-0.16,0.64-0.32c0.16-0.05,0.32-0.16,0.38-0.38c0.06-0.21,0-0.43-0.1-0.59
			l0.05-0.06c0.11-0.16-0.1-0.27-0.21-0.16l-0.05,0.05c-0.06,0-0.11-0.05-0.11-0.05c2.3-2.2,4.51-4.13,7.72-4.83
			c1.72-0.38,3.54-0.43,5.31-0.43c0.76,0,1.45,0.05,2.2,0.1c0.96,0.38,1.28,0.32,0.96-0.05c0.38,0.11,0.75,0.21,1.13,0.27
			c0.32,0.05,0.43-0.43,0.16-0.48c-3.38-0.86-7.08-0.91-10.46-0.16c-1.55,0.32-2.89,0.96-4.13,1.82c0.1-0.16,0.27-0.32,0.38-0.54
			c0.8-1.13,1.5-2.36,2.52-3.32c1.34-1.29,3.16-1.93,4.93-2.57c0.16-0.06,0.1-0.32-0.06-0.27c-2.41,0.75-4.5,1.66-6.16,3.65
			c-1.45,1.77-2.84,3.48-4.29,5.2c-0.32,0.32-0.7,0.59-1.02,0.91c-0.16,0.1-0.16,0.27-0.16,0.43c-0.27,0.32-0.54,0.65-0.81,0.91
			c0.05-0.21,0.16-0.48,0.21-0.7c2.42-2.79,4.34-6.17,6.01-9.33c1.45-2.79,2.73-4.56,6.11-5.31c2.95-0.65,5.9-0.54,8.85,0.16
			c0.16,0.05,0.21-0.21,0.05-0.27c-3.27-0.85-8.15-1.45-11.53,0.21c0.43-0.53,0.86-1.07,1.29-1.6c0.1,0.05,0.21,0.05,0.38,0
			c0.43-0.11,0.54-0.65,0.43-1.02c-0.05-0.16-0.21-0.38-0.43-0.43c-0.43-0.11-0.81,0-1.13,0.32c-0.32,0.27-0.1,0.7,0.16,0.81
			l0.06,0.05c-2.79,2.84-4.99,6.11-7.14,9.44c-0.59,0.91-1.18,1.93-1.77,2.95c1.39-4.13,2.9-8.15,4.98-12.11
			c0.11-0.22-0.16-0.38-0.27-0.16c-2.74,4.5-5.31,9.86-6.49,15.12c-0.54,0.8-1.18,1.55-1.82,2.2c1.98-3.54,3.54-7.29,4.45-11.26
			c0.54-2.31,0.86-4.61,0.97-6.92c2.2-2.15,4.98-3.7,8.04-4.45c0.11,0,0.21,0,0.27-0.06c1.44-0.32,2.95-0.48,4.45-0.43
			c2.14,0.05,3.81,0.7,5.95,0.48c1.98-0.22,3.81-0.65,5.84-0.43c3.06,0.32,6.22,1.34,7.24,4.56c0.43,1.29,0.97,2.84,1.18,4.13
			c0.21,1.23,0.05,2.15-0.32,2.95c-0.75-0.1-1.55,0-2.31-0.05c-0.91-0.05-1.88-0.11-2.79-0.16c-0.21,0-0.21,0.32,0,0.32
			c1.02,0.1,1.98,0.21,3.01,0.32c0.64,0.05,1.29,0.16,1.88,0c-1.02,1.6-3.06,2.41-4.88,3.32c-2.04,1.02-6.11,3.48-8.36,1.77
			c-0.43-0.32-1.07,0.21-0.64,0.64c0.85,0.91,1.88,1.07,2.9,0.96c-0.11,0.16-0.16,0.38,0,0.54c1.18,1.34,0,3.32-1.29,4.93
			c-1.29-0.75-2.68-1.29-4.18-1.4c-1.93-0.1-3.8-0.48-5.73-0.64c-0.21,0-0.21,0.27,0,0.32c1.61,0.21,3.17,0.75,4.77,0.85
			c1.77,0.11,3.17,0.65,4.77,1.29c-0.48,0.64-0.96,1.18-1.23,1.61c-1.56,2.25-3.11,4.29-5.68,5.47c-4.56,2.14-9.81,1.44-14.69,0.85
			c-0.21,0-0.21,0.32-0.05,0.32c6,1.13,12.92,2.09,17.96-2.2c2.26-1.93,4.18-4.93,5.79-7.4c1.02-1.55,1.4-3.16,0.11-4.66l-0.06-0.06
			c0.75-0.16,1.51-0.48,2.25-0.75c2.74-1.13,5.63-2.36,8.05-4.07c1.77-1.23,2.63-2.57,1.93-4.72c-0.43-1.4-0.96-2.57-1.29-4.02
			c-0.27-1.13-0.59-2.25-1.29-3.22c-3.86-4.88-11.85-1.88-16.89-2.68c-2.09-0.32-4.18-0.27-6.16,0.22
			c-0.48-6.65-0.32-13.3-0.59-19.95c1.5-1.45,2.31-4.02,2.47-5.95V49.7c2.04-1.13,3.27-3.7,4.29-5.84c0.11,0.05,0.27,0.05,0.43,0
			c2.84-1.4,5.04-3.54,7.34-5.68c2.47-2.26,5.2-4.45,7.29-7.08c2.79-3.59,3.33-8.85-1.07-11.36c-0.1-0.06-0.16-0.06-0.21,0
			c0.86-5.2-0.1-10.62-3.7-14.74c-0.16-0.22-0.48,0.05-0.32,0.27c1.29,2.09,2.68,4.02,3.27,6.43c0.65,2.57,0.38,5.26-0.21,7.83
			c-0.96,4.45-2.73,8.8-5.84,12.12c-2.47,2.63-4.4,4.82-6.06,8.09c-1.6,3.27-2.89,7.13-6.06,9.01c0.11-0.59,0.21-1.18,0.27-1.77
			c0.11,0.21,0.43,0.32,0.54,0.05c1.45-2.79,3.06-5.57,4.18-8.52c1.23-3.22,1.29-6.76,2.84-9.87c0.11-0.16-0.16-0.32-0.27-0.16
			c-1.4,2.57-1.72,5.36-2.52,8.1c-1.07,3.54-3.11,6.81-4.72,10.08c0.16-1.88,0.1-3.7-0.16-5.58c0.91-4.71,2.63-8.9,4.51-13.51
			c1.82-4.5,2.2-11.1,6.11-14.31c0.16-0.11-0.05-0.38-0.21-0.27c-3.97,2.95-4.29,8.69-5.95,13.03c-1.55,3.97-3.91,8.15-4.88,12.49
			c0-0.06,0-0.06,0-0.11c-0.43-1.98-0.81-4.13-1.61-5.95c-0.05-0.1-0.11-0.16-0.11-0.27c0.16-0.06,0.32-0.11,0.38-0.38
			c1.34-5.36,2.09-11.21,4.13-16.41c0.27,0,0.59-0.21,0.48-0.54c-0.06-0.11-0.06-0.21-0.11-0.32c0.21-0.54,0.43-1.02,0.7-1.56
			c1.23-2.46,2.95-4.66,4.56-6.86c0.43-0.58,0.86-1.23,1.34-1.82c0.86-1.07,2.42-1.98,3.92-1.45c0.7,0.27,0.85,0.96,1.66,1.18
			c0.27,0.05,0.38-0.32,0.1-0.43c-1.88-0.75-2.3-2.73-4.61-1.51c-1.07,0.59-1.82,1.93-2.52,2.84c-1.13,1.5-2.3,3.01-3.32,4.61
			c-0.48,0.75-0.91,1.5-1.34,2.3c0.1-1.45,0.1-3,0-4.34c0-0.16-0.27-0.21-0.27-0.05c-0.27,1.71-0.43,3.81-0.27,5.52
			c-0.05,0.16-0.16,0.32-0.21,0.48c-0.91-2.36-1.98-4.45-3.81-6.17c0.05-0.05,0.05-0.16,0.05-0.27c-0.16-0.75,1.18-1.88,1.66-2.25
			c0.75-0.64,1.56-1.13,2.41-1.61c0.11-0.05,0-0.16-0.1-0.16c-1.07,0.48-2.15,0.97-3.11,1.72c-0.59,0.48-1.4,1.18-1.61,1.98
			c-0.27-0.22-0.48-0.43-0.75-0.59c-1.77-1.23-3.65-2.3-5.63-3.11c-2.31-0.96-4.88-1.34-6.97-2.68c-0.16-0.11-0.32,0-0.37,0.16
			c-0.06,0-0.11,0.05-0.16,0.1c-2.36,4.99-8.37,10.46-7.24,16.52c-1.72-3.11-4.4-5.42-5.04-9.11c-0.05-0.43-0.75-0.32-0.75,0.1
			c0,0.06,0,0.16,0.05,0.22c-0.1-0.06-0.21,0-0.27,0.1c-1.88,6.54-2.15,14.69,1.23,20.75c0.05,0.06,0.05,0.11,0.1,0.16
			c-0.43-0.1-0.96-0.16-1.45-0.16c-1.02-0.1-4.77,0.06-4.88-1.13c0-0.11-0.16-0.11-0.16,0c0,0.27,0,0.54,0,0.86
			c0,0.05,0.06,0.1,0.11,0.1c2.15,0.43,5.04,0.11,6.92,1.23c0.11,0.21,0.27,0.43,0.38,0.64c-0.96-0.37-1.98-0.05-3.06,0
			c-2.79,0.11-4.82-0.32-7.18-1.82c-0.21-0.16-0.48,0.21-0.27,0.38c1.13,0.91,2.36,1.77,3.81,2.04h0.06c0,0.05,0.05,0.1,0.1,0.16
			c1.98,0.91,4.18,1.55,6.17,2.57c1.51,0.75,2.68,2.04,4.29,2.52c0.05,0,0.1,0,0.16,0c2.79,3.32,6.11,6.06,10.34,7.99
			c0.16,0.05,0.32,0.05,0.43-0.06c0.32,0.7,0.64,1.4,1.18,2.04c1.5,1.88,3.59,2.95,5.84,3.49c-0.16,1.82-0.16,5.47,1.82,6.01
			c-0.05,3.54-0.27,7.08-0.38,10.61c-0.05,1.61-0.1,3.22,0.06,4.72c-0.48-0.96-1.02-1.82-1.61-2.68c-0.75-1.07-1.66-1.93-2.52-2.9
			c-1.4-1.66-1.93-3.54-2.52-5.63c-0.54-1.77-1.23-3.59-2.84-4.66c-2.04-1.34-4.07,0.21-6.22-0.65c-0.21-0.05-0.27,0.21-0.1,0.32
			c0.43,0.27,0.85,0.43,1.29,0.48c0.59,3.16,1.18,6.27,1.29,9.49c0,0.16,0.21,0.16,0.21,0c0.05-3.11-0.16-6.43-1.07-9.49
			c1.56,0,3.11-0.76,4.77,0.75c2.04,1.82,1.98,4.93,3.06,7.29c0.7,1.55,1.77,2.63,2.9,3.91c2.2,2.52,2.9,5.31,4.02,8.36
			c-2.41,0.86-4.66,2.26-6.43,4.13c0.1-3.06,0-6.11-0.11-9.22c0.21-0.48,0-1.13-0.59-1.18c-0.16,0-0.27,0-0.32,0
			c-0.1,0-0.16,0.05-0.27,0.05c-0.11,0.05-0.16,0.05-0.27,0.16c-0.1,0.1-0.21,0.21-0.32,0.32c-0.27,0.43,0.1,0.85,0.53,0.91
			c0.06,0.05,0.06,0.05,0.11,0.1c0.11,0.06,0.27,0.11,0.38,0.11c-0.05,5.52,0.1,10.67-1.23,16.14c-1.18,4.82-3.22,9.28-5.84,13.46
			c-0.05,0-0.05,0.05-0.1,0.05c0-0.21,0-0.38,0-0.59c0.64-2.41,1.61-4.72,2.35-7.08c2.84-6.06,3.11-13.57,1.77-19.95
			c-0.05-0.16-0.32-0.1-0.27,0.06c0.75,4.77,0.48,9.11-0.43,13.51c0.11-1.82,0-3.65-0.38-5.42c0.06-0.05,0.16-0.05,0.21-0.11
			c0.7-0.59-0.16-1.61-0.85-1.55c-0.48,0-0.86,0.43-0.75,0.91c0.05,0.32,0.27,0.43,0.48,0.54c0.06,0.05,0.11,0.1,0.16,0.16
			c0.05,0.05,0.16,0.05,0.21,0.05h0.06c0.1,3.43,0.27,6.76-0.38,10.14c-0.32,0.96-0.65,1.98-0.96,3c-0.06,0.11,0,0.16,0.1,0.21
			c-0.43,1.23-0.91,2.42-1.34,3.59c-0.11-5.04-0.32-10.03-0.43-15.07c-0.05-3.11,0.32-5.68,1.82-8.42c0.91-1.66,1.93-3.16,2.47-4.99
			c0.27-0.05,0.43-0.27,0.48-0.59c0-0.1,0-0.1,0.06-0.21c0.16-0.59-0.65-1.07-1.02-0.59c-0.21,0.27-0.27,0.54-0.27,0.86
			c0,0.21,0.1,0.38,0.21,0.48c-0.91,2.2-2.31,4.08-3.38,6.22c-0.96,1.99-1.29,4.08-1.29,6.28c0,2.73,0.05,5.47,0.11,8.26
			c-0.11-0.54-0.27-1.07-0.38-1.61c0.16-8.63-0.43-17.37-0.86-25.95c0-0.21-0.32-0.21-0.32,0c0,7.45-0.1,15.02,0.21,22.52
			c-0.1-0.32-0.21-0.7-0.32-1.02c-1.88-5.9-4.08-11.64-6.28-17.43c0.16-0.1,0.27-0.32,0.27-0.54c0-0.21,0-0.48-0.05-0.7
			c-0.06-0.32-0.38-0.48-0.7-0.54c-0.16,0-0.32,0-0.54,0.06c0.16-0.32,0.27-0.65,0.48-0.97c0.65-1.18,1.29-2.19,1.72-3.48
			c0.85-2.68,1.18-6.01,4.77-6.38c0.27-0.05,0.32-0.48,0-0.48c-4.56,0-4.77,6.01-6.49,8.95c-2.41,4.13-2.73,9.01-1.88,13.78
			c0.05,0.16,0.16,0.21,0.27,0.21c-0.1,0.05-0.16,0.16-0.21,0.21c-0.05,0.05-0.1,0.11-0.16,0.16c-0.05,0.11-0.1,0.21-0.1,0.38
			c0,0.05,0,0.05,0,0.11c0,0.43,0.43,0.85,0.85,0.75c1.13,3.86,2.95,7.61,5.15,10.99c1.07,1.66,2.52,3.22,3.38,4.98
			c0.81,1.61,0.97,3.43,1.13,5.2c-2.35-4.13-2.95-9.33-6.91-12.33c0.05-0.43-0.21-0.96-0.7-1.02c-0.75-0.11-1.29,0.8-0.86,1.39
			c0.16,0.22,0.38,0.32,0.7,0.27c0.05,0,0.11,0,0.16-0.05c0.05,0,0.1,0,0.16,0c0.1-0.06,0.21-0.06,0.27-0.11
			c1.02,1.02,2.09,1.98,2.79,3.27c0.81,1.56,1.23,3.32,1.77,4.98c0.54,1.72,1.18,3.59,2.31,4.99c-0.16,0-0.27-0.06-0.43-0.06
			c-0.27-0.27-0.54-0.54-0.8-0.85c-1.18-3.38-2.95-6.81-4.98-9.6c-2.63-3.7-5.68-6.86-7.19-11.21c0.05-0.1,0.11-0.21,0.16-0.32
			c0.16-0.32,0.05-0.69-0.27-0.85c-0.16-0.16-0.38-0.27-0.65-0.21c-0.65,0.1-0.96,0.91-0.75,1.44c0.1,0.38,0.64,0.7,1.02,0.43
			c0.06-0.05,0.16-0.11,0.22-0.16c0.27,0.75,0.54,1.45,0.85,2.15c-1.07-1.56-2.46-2.79-4.4-2.52c-0.05,0-0.1,0-0.1,0.05
			c-0.16-0.59-0.27-1.18-0.43-1.71c0-0.11-0.05-0.16-0.1-0.16c0.1-0.21,0.1-0.48,0-0.75c-0.27-0.54-1.07-0.65-1.4-0.11
			c-0.11,0.16-0.11,0.32,0,0.48C16.07,77.74,16.07,78.02,16.18,78.23z M35.32,155.92c1.4,2.2,2.52,4.99,2.04,7.61
			c-0.48,2.57-2.73,4.02-4.99,4.98c-2.84,1.18-5.95,1.51-8.95,1.88c-2.04,0.27-4.5,0.97-6.59,0.43c-1.45,2.3-3,4.56-4.67,6.7
			c-1.77,2.31-4.02,4.34-5.57,6.81c-1.4,2.15-2.09,4.67-3.43,6.81c-1.34,2.2-3.11,4.08-4.56,6.17c-6.86,9.54-9.55,21.07-15.6,31.1
			c-0.32,0.54-1.18,0.05-0.86-0.48c5.84-10.14,8.8-21.5,15.66-31.05c1.56-2.19,3.43-4.23,4.83-6.54c1.29-2.2,2.04-4.67,3.54-6.76
			c1.34-1.88,3.06-3.43,4.56-5.2c2.09-2.41,3.97-4.99,5.74-7.61c-0.43-0.16-0.86-0.38-1.23-0.65c-0.32-0.21-0.16-0.85,0.27-0.64
			c3.81,1.5,9.49,0.16,13.35-0.59c2.15-0.43,5.52-1.23,6.92-3.16c0.38-0.54,0.64-1.07,0.8-1.61c-1.34,0.43-2.73-0.54-3.81-1.23
			c-0.21-0.11,0-0.38,0.16-0.32c0.59,0.27,1.23,0.48,1.82,0.7c0.65,0.16,1.23,0.16,1.88,0.21c0.05,0,0.05,0,0.1,0
			c0.16-0.81,0.16-1.61,0.11-2.41c-0.06,0.05-0.16,0.05-0.27,0c-3.96-1.34-8.04-1.98-12.28-1.88c-0.27,0-0.27-0.43,0-0.43
			c4.29-0.32,8.36,0.16,12.44,1.56c-0.27-1.45-0.91-2.84-1.56-4.08C34.89,155.86,35.21,155.7,35.32,155.92z M-20.23,181.17
			c0.59-0.16,1.13-0.27,1.72-0.27c-0.11-0.11-0.11-0.21-0.06-0.38c1.77-2.31,3.28-4.4,4.56-6.97c0.06-0.16,0.38-0.05,0.27,0.11
			c-0.86,2.57-2.36,5.31-4.34,7.18c1.77,0,3.48,0.32,5.26,0.27c3.32-0.1,5.26-1.77,7.99-3.27c0.32-0.16,0.64,0.16,0.48,0.48
			c-1.13,1.98-3.59,3.05-5.74,3.59c-3.48,0.86-6.65-0.91-10.08-0.32C-20.39,181.71-20.55,181.23-20.23,181.17z M-9.66,154.36
			c-0.22-0.11-0.48-0.16-0.7-0.27c0.1,0,0.16,0,0.27,0C-9.98,154.15-9.82,154.26-9.66,154.36z M-18.83,133.56c0,0,0.05,0,0.1-0.06
			C-18.78,133.56-18.83,133.56-18.83,133.56z M-3.23,147.93c-0.06,0.91-0.11,1.88-0.11,2.79c0,0.05,0,0.16,0,0.27
			c-0.21-1.02-0.38-2.09-0.48-3.17C-3.66,147.93-3.45,147.98-3.23,147.93z M-2.64,144.23c-0.11,0.32-0.21,0.7-0.32,1.02
			c0-0.38-0.05-0.81-0.05-1.18C-2.91,144.23-2.75,144.29-2.64,144.23z M2.45,134.42c0,0.05,0,0.11,0,0.16
			c-0.21,0.06-0.38,0.21-0.43,0.43c-0.22,0.27-0.22,0.7-0.06,0.97l0.06,0.05c-0.38,3.54-0.92,7.08-1.67,10.62
			c-0.53,2.63-1.02,5.31-2.25,7.72c0.21-1.18-0.05-2.47-0.21-3.65c-0.11-1.13-0.21-2.26-0.27-3.38c0.06-0.05,0.11-0.16,0.16-0.27
			c1.93-6.06,3.97-12.44,4.61-18.82C2.51,130.29,2.56,132.38,2.45,134.42z M2.88,169.86c0.97,3.11,1.18,6.33,1.88,9.49
			c-0.54,0.81-1.23,1.5-1.98,2.2c0-0.05,0-0.05,0-0.1c-1.56-3.92-1.51-7.94-1.98-12.01c-0.06-0.38-0.11-0.7-0.16-1.07
			c0-2.68-0.86-5.36-2.47-8.04c0.06,0,0.06,0,0.11,0c0.32-0.06,0.48-0.27,0.48-0.54h0.05c0,0.05,0,0.16,0.05,0.21
			C0.52,163.16,1.81,166.48,2.88,169.86z M-2.16,154.95c-0.06-0.05-0.06-0.11-0.11-0.11c0.05,0,0.16-0.05,0.21-0.1
			C-2.1,154.79-2.1,154.9-2.16,154.95z M-1.78,157.37c-0.06,0.1-0.16,0.27-0.22,0.37c-0.69-0.21-1.39-0.59-1.98-1.02
			c0.32,0.05,0.59,0.11,0.91,0.16c0.11,0.16,0.27,0.27,0.48,0.21c0.38-0.11,0.7-0.27,1.02-0.38
			C-1.62,156.94-1.68,157.15-1.78,157.37z M-5,156.56c0.05,0,0.05,0,0.11,0c0,0.06,0,0.11,0,0.16v0.05
			C-4.95,156.72-4.95,156.67-5,156.56z M-26.55,138.01C-26.55,137.96-26.61,137.96-26.55,138.01z M-9.56,127.66
			C-9.56,127.66-9.61,127.66-9.56,127.66c-0.05,0-0.05-0.05-0.05-0.05C-9.61,127.66-9.61,127.66-9.56,127.66z M-25.32,159.62
			c-1.77,1.82-3.96,3.8-4.98,6.17c-1.13,2.57-0.59,6.17-0.65,8.84c0,2.09-0.05,3.92,1.67,5.36c1.82,1.61,4.45,1.82,6.76,1.71
			c0.59,0,0.59-0.86,0-0.91c-1.02-0.1-2.15-0.1-3.22-0.27c0.05,0,0.05-0.05,0.05-0.11c0.81-1.5,1.56-2.9,2.79-4.13
			c0.16-0.16-0.05-0.37-0.21-0.21c-1.34,1.07-2.57,2.47-3.16,4.08c-0.05,0.1,0,0.21,0.05,0.27c-1.39-0.27-2.63-0.86-3.43-2.15
			c-1.13-1.82-0.59-4.88-0.59-6.91c0-2.74-0.43-5.31,1.5-7.56c1.23-1.45,2.84-2.73,4.19-4.18c0.05-0.11,0.1-0.16,0.05-0.27
			c0.16-0.05,0.27-0.05,0.43-0.1c4.61-1.45,8.95-2.79,13.78-3.43c0.16,0,0.27-0.16,0.32-0.32c0.38,0.16,0.75,0.27,1.13,0.43
			c-3.7,1.34-7.72,2.95-10.24,5.9c-0.16,0.21,0.1,0.48,0.27,0.27c2.9-3.22,7.4-4.13,11.31-5.79c0.32,0.1,0.65,0.16,0.96,0.21
			c-2.15,2.3-4.5,4.02-6.97,6.01c-2.9,2.3-3.81,4.88-5.36,8.15c-0.11,0.22,0.21,0.38,0.32,0.17c1.07-1.88,1.77-3.97,3.22-5.63
			c1.18-1.4,2.73-2.47,4.23-3.54c1.82-1.29,3.97-2.57,5.2-4.51v0.06c-1.77,2.36-3.16,4.98-4.61,7.56c-0.11,0.21,0.21,0.38,0.32,0.21
			c1.49-2.36,3.16-4.56,4.66-6.92c0.54,0.97,1.5,1.88,2.57,2.15c0,0.05,0,0.11,0.05,0.16c0.43,1.02,0.97,1.98,1.4,3
			c0.54,1.83,1.02,3.65,1.34,5.53c-0.11,3.06-1.72,5.57-3.49,7.88c-0.21,0.27,0.21,0.59,0.48,0.38c1.71-1.82,2.79-3.76,3.32-5.73
			c0,0.16,0.06,0.32,0.06,0.48c0.21,3.32,0.38,6.65,1.5,9.81c0.05,0.21,0.27,0.32,0.43,0.32c-0.75,0.69-1.45,1.34-2.04,2.15
			c-1.61,2.3-2.9,4.88-4.18,7.34c-2.52,4.77-4.29,10.03-6.97,14.74c-3.11,5.31-6.44,10.72-8.85,16.41
			c-0.21,0.59,0.48,1.07,0.86,0.48c0.54-0.86,1.07-1.77,1.61-2.68c0,0,0,0.05,0.05,0.05c0.32,0.22,0.7,0.11,1.07,0.06
			c0.43-0.06,0.91-0.11,1.34-0.11c0.38-0.05,0.38-0.59,0-0.59c-0.48,0.05-0.96,0.05-1.45,0.1c-0.27,0-0.54,0-0.8,0.11
			c2.47-4.34,4.66-8.9,7.13-13.24c0.91-1.61,1.66-3.22,2.41-4.88c0,0,0,0,0.05,0c0.27,0.06,0.43-0.05,0.65-0.1
			c0.27-0.11,0.48-0.16,0.75-0.27c0.32-0.1,0.16-0.53-0.1-0.48c-0.27,0.05-0.48,0.1-0.76,0.21c-0.1,0.05-0.21,0.05-0.32,0.11
			c1.39-3.33,2.68-6.7,4.4-9.87c0.1-0.16,0.16-0.32,0.27-0.54c0.21,0.22,0.65,0.22,0.97,0.17c0.48,0,1.02-0.11,1.5-0.27
			c0.27-0.11,0.21-0.54-0.05-0.48c-0.48,0.05-0.97,0.05-1.4,0.05c-0.21,0-0.48-0.05-0.7,0c1.07-1.98,2.09-4.02,3.43-5.84
			c1.29-1.77,3.27-2.89,4.51-4.66c0.05,0,0.16,0,0.21,0c0.38,0,0.75-0.05,1.07-0.05c0.38,0,0.38-0.54,0-0.54c-0.16,0-0.32,0-0.48,0
			c0-0.06,0.05-0.11,0.05-0.11c0-0.27,0-0.48,0-0.75c1.07-1.88,2.2-3.43,3.7-5.15c1.18-1.34,2.15-2.63,2.46-4.4
			c0-0.16-0.16-0.27-0.27-0.1c-1.07,2.09-2.52,3.7-4.07,5.42c-0.76,0.8-1.34,1.66-1.83,2.52c-0.27-3.76-1.5-7.51-3.21-10.99
			c1.29,0.38,2.68,0.43,3.91,0.8c2.09,0.59,4.02,1.61,6.11,2.2c0.32,0.11,0.43-0.38,0.11-0.48c-1.93-0.65-3.76-1.61-5.63-2.41
			c-1.67-0.7-3.54-0.7-5.2-1.4c-0.91-1.72-1.88-3.32-2.9-4.88c0-0.05-0.05-0.05-0.05-0.05c0.1-0.11,0.21-0.27,0.32-0.43
			c0.16,0.32,0.59,0.43,1.02,0.43c1.4,0.16,2.73,0.21,4.13,0.38c0.32,0.05,0.32-0.43,0-0.48c-0.8-0.11-1.61-0.21-2.41-0.32
			c-0.43-0.05-1.98-0.1-2.26-0.54c-0.05-0.05-0.1-0.1-0.16-0.1c0-0.05,0.06-0.11,0.06-0.16c0.16-0.43,0.38-0.86,0.48-1.34
			c1.45,0.64,3.11,0.32,4.72,0.21s3.22-0.38,4.83,0.05c1.77,0.48,3.48,1.55,5.15,2.36c0.16,0.05,0.27-0.16,0.1-0.21
			c-1.88-1.02-3.91-2.47-6.06-2.84c-2.9-0.54-5.79,0.53-8.63-0.22c0-0.05,0-0.05,0-0.1c0-0.21-0.06-0.7-0.27-1.07
			c0.38-0.43,0.75-0.92,1.07-1.45c0.86,0.11,1.66-0.1,2.63-0.32c2.36-0.59,4.66-0.38,6.86,0.54c0.21,0.05,0.32-0.27,0.16-0.32
			c-1.39-0.7-2.84-1.13-4.4-1.13c-1.55-0.05-3.27,0.69-4.88,0.64c1.34-2.36,2.42-4.77,4.02-6.92c0.16,0,0.32-0.05,0.48-0.16
			c0.05-0.06,0.11-0.11,0.16-0.11c0.21-0.05,0.43-0.21,0.54-0.38c0.21-0.27,0.32-0.65,0.21-0.97c-0.05-0.21-0.21-0.43-0.48-0.48
			c-0.48-0.06-0.85,0-1.23,0.38c-0.32,0.32-0.48,0.75-0.37,1.18c0.05,0.11,0.05,0.22,0.16,0.27c-1.18,1.34-2.14,2.79-3,4.34
			c-0.54,0.91-0.97,1.82-1.51,2.63c-0.05,0-0.1,0-0.1-0.05c-0.32-0.11-0.54,0.43-0.21,0.54c-0.43,0.59-0.86,1.13-1.4,1.56
			c0.38-0.7,0.65-1.45,0.91-2.26c0.11-0.05,0.21-0.1,0.32-0.27c1.07-1.93,1.98-3.97,2.79-6.01c1.18-1.4,2.52-2.63,4.08-3.7
			c2.68-1.88,8.58-5.95,11.85-4.82c0.11,0.05,0.21-0.16,0.11-0.21c-1.45-0.65-2.63-0.38-4.08,0.21c-2.68,1.07-5.36,2.41-7.78,4.02
			c-1.23,0.8-2.36,1.71-3.38,2.68c0.32-0.85,0.75-1.77,1.18-2.68c0.11-0.16,0.21-0.27,0.38-0.43c1.88-2.04,4.34-3.11,6.49-4.72
			c2.04-1.51,3.32-3.7,5.47-5.15c2.52-1.72,6.92-4.18,10.03-2.74c0.16,0.06,0.32-0.16,0.16-0.27c-4.51-2.31-10.89,2.52-13.78,5.63
			c-2.3,2.47-5.52,3.65-7.99,5.95c0.32-0.97,0.54-1.93,0.54-2.84c0,0,0.06,0,0.06-0.05c0.32,0,0.59-0.16,0.8-0.48
			c0.16-0.27,0.16-0.59,0.11-0.86c0-0.21-0.06-0.43-0.22-0.59c-0.27-0.43-0.8-0.48-1.18-0.16c-0.05,0.05-0.11,0.16-0.16,0.21
			c-0.11,0.05-0.21,0.16-0.32,0.32c-0.27,0.43-0.21,1.02,0.16,1.4c0.05,0.05,0.11,0.11,0.21,0.16c-0.1,1.39-0.64,2.9-1.28,4.34
			c-1.23,1.56-2.2,3.27-3.11,5.09c0.54-3.32,0.91-6.7,1.13-10.02c0.11,0,0.22,0,0.27-0.11c0.11-0.11,0.16-0.27,0.27-0.43
			c0,0,0,0,0.06,0c0.05-0.06,0.1-0.11,0.1-0.17c0.22-0.16,0.32-0.48,0.27-0.75c0-0.05,0-0.05,0-0.05c1.88-2.09,3.81-4.13,5.73-6.17
			c0.86-0.86,1.72-1.88,2.84-2.41c1.02-0.54,2.04-0.54,3.06-0.96c2.2-0.91,3.7-2.84,6.01-3.65c3-1.07,6.22-0.86,9.11,0.38
			c0.48,0.21,0.91-0.48,0.43-0.75c-4.34-2.09-9.22-1.67-13.14,1.13c-1.66,1.18-3.06,1.88-4.93,2.57c-0.86,0.32-1.56,0.8-2.26,1.34
			c-2.57,2.15-4.88,5.09-6.97,7.78v-0.06c0.06-3.05-0.05-6.11-0.59-9.11c0-0.11-0.05-0.16-0.16-0.16c0-0.48,0-0.97,0-1.51
			c0.21-0.1,0.38-0.32,0.43-0.59c0-0.1,0-0.21,0.06-0.27c0.05-0.16,0.1-0.32,0.1-0.48c0-0.38-0.21-0.7-0.48-0.85
			c-1.4-3.43-3.01-6.65-5.9-9.01c-1.23-1.02-2.57-1.71-3.75-2.84c-0.7-0.64-1.23-1.44-1.99-2.09c-1.23-1.02-2.25-1.4-3.8-1.18
			c-0.32,0.06-0.22,0.54,0.05,0.54c0.11,0,0.21,0,0.32,0c0.05,1.77,0.91,3.33,1.4,5.04c0.75,2.63,0.69,5.36,0.64,8.04
			c0,0.16,0.27,0.16,0.27,0c0.1-2.25,0.27-4.56-0.11-6.81c-0.32-2.15-1.23-4.13-1.66-6.22c2.09,0.38,3.21,2.09,4.72,3.54
			c1.07,1.02,2.36,1.72,3.48,2.68c2.57,2.09,4.34,5.04,5.31,8.2c-0.91,0.38-0.81,1.93,0.05,2.41c0.11,0.05,0.21,0.11,0.27,0.11
			c-0.86,6.27-2.25,12.28-4.02,18.28c1.34-6.54-0.16-13.78-1.77-20.1c-0.06-0.21-0.43-0.16-0.38,0.1
			c1.34,7.45,2.52,14.27,1.13,21.77c-0.43-10.35-2.52-20.8-5.9-30.56c0.27-0.05,0.48-0.11,0.65-0.32c0.81-0.8-0.05-2.09-1.07-1.88
			c-0.43,0.11-0.8,0.43-0.91,0.86c-0.1,0.43,0.11,0.86,0.48,1.07c0.05,0.05,0.05,0.05,0.11,0.1c1.34,5.52,3.11,10.94,4.07,16.57
			c0.65,3.7,0.86,7.4,1.07,11.15c-0.05-0.27-0.11-0.59-0.16-0.86c-0.75-4.23-1.93-8.36-3.81-12.22c0-0.06,0.05-0.11,0.05-0.22
			c0-0.1,0-0.16,0-0.21c0.05-0.16,0-0.38-0.1-0.54c-0.16-0.21-0.32-0.38-0.59-0.48c-0.27-0.11-0.53,0.05-0.74,0.21
			c-0.32,0.27-0.38,0.64-0.27,1.02c0,0.16,0.05,0.38,0.11,0.54c0.1,0.27,0.48,0.32,0.75,0.21c0.1,0,0.16,0,0.27,0
			c2.15,4.78,3.32,9.71,3.92,14.85c0.21,1.82,0.21,3.7,0.32,5.58c-0.16-0.7-0.32-1.4-0.48-2.09c-0.75-3.22-1.61-6.43-2.52-9.6
			c-1.72-6.06-3.81-12.01-6.01-17.91c0.32-0.16,0.54-0.48,0.54-0.8c0,0,0,0,0-0.06c0.16-0.43,0.05-0.91-0.32-1.18
			c-0.43-0.32-1.02-0.27-1.39,0.11c0,0,0,0,0,0.05c-0.11,0.05-0.16,0.11-0.22,0.16c-0.05,0.05-0.1,0.1-0.1,0.21
			c0,0,0,0.05-0.06,0.05c-0.1,0.21-0.1,0.38,0,0.65c0.06,0.16,0.16,0.32,0.32,0.43c0.16,0.21,0.32,0.43,0.59,0.48
			c1.45,6.86,4.18,13.56,6.01,20.32c0.91,3.32,1.72,6.65,2.58,10.03c0.05,0.16,0.1,0.32,0.16,0.54c-0.16-0.16-0.38-0.38-0.54-0.54
			c-1.34-3.91-3.27-7.61-4.61-11.53c-1.45-4.23-2.41-8.63-2.57-13.14c0-0.21-0.38-0.21-0.32,0c0.05,7.88,2.57,16.24,6.28,23.38
			c-4.18-4.4-8.04-9.06-10.57-14.69c0.11-0.43-0.16-0.96-0.64-1.07c-0.21-0.11-0.48-0.16-0.64,0c-0.48,0.32-0.7,1.02-0.22,1.5
			c0.27,0.27,0.7,0.32,1.07,0.16c1.88,4.34,4.34,8.04,7.19,11.53c-0.91-0.86-1.88-1.72-2.73-2.63c-2.79-2.84-5.42-5.95-8.15-8.9
			c0.1-2.63-0.16-5.26,0.1-7.94c0.32-3.21,1.02-6.27,2.2-9.22c1.66-4.18,6.38-6.06,6.91-10.78c0.06-0.27-0.43-0.32-0.48-0.05
			c-0.81,3.38-3.11,4.72-5.2,7.19c-1.34,1.55-2.04,3.54-2.68,5.46c-1.4,4.24-2.63,9.44-2.04,14.05c-1.23-1.29-2.46-2.52-3.75-3.65
			c0.38-0.27,0.54-0.81,0.27-1.23c-0.16-0.27-0.48-0.43-0.8-0.48c0,0,0,0-0.06,0c-0.75-0.21-1.18,0.65-0.96,1.23
			c0.16,0.43,0.54,0.7,0.96,0.7c0.92,1.23,1.88,2.41,2.84,3.54c-3.16,1.18-6.65,0.54-10.03,1.18c-2.79,0.54-6.06,0.1-8.74,1.13
			c-1.13,0.43-1.88,1.23-2.9,1.82c-1.02,0.59-2.25,0.59-3.21,1.29c-1.45,1.02-2.09,2.95-2.15,4.67c0,0.32,0.48,0.37,0.59,0.05
			c0.38-1.5,0.65-3.17,1.98-4.13c0.38-0.27,0.91-0.38,1.5-0.48c0.05,0.1,0.16,0.21,0.32,0.21c2.09,0,4.23,0.1,6.33,0.64
			c0.16,0.05,0.27-0.21,0.05-0.27c-1.61-0.48-3.16-0.86-4.83-0.97c0.06,0,0.11-0.05,0.11-0.05c0.96-0.48,1.61-1.29,2.68-1.71
			c1.5-0.54,3.16-0.38,4.71-0.48c2.58-0.16,4.99-1.13,7.56-1.18c2.68-0.06,4.4,0.1,6.76-0.86c3.17,3.54,6.54,6.97,9.71,10.45
			c1.88,2.09,4.07,3.81,5.9,5.9c1.23,1.4,2.31,2.95,3.48,4.29c-3.54-1.66-6.06-4.23-8.85-6.86c0.27-0.11,0.43-0.32,0.43-0.7
			c0-0.16,0-0.32,0-0.43c0.16-0.27,0.16-0.65-0.11-0.86c-0.48-0.43-1.07-0.54-1.66-0.21c-0.48,0.32-0.7,0.91-0.48,1.45
			c0.16,0.38,0.48,0.59,0.8,0.64c0.05,0.05,0.16,0.11,0.21,0.16c0.06,0,0.06,0,0.11,0.05c1.5,1.98,3.06,3.92,4.93,5.47
			c-0.16-0.05-0.32-0.11-0.43-0.21c-2.26-1.39-4.29-3.16-6.06-4.72c-3.38-3-6.27-6.43-9.22-9.86c-0.06-0.05-0.11-0.11-0.11-0.11
			c-0.05-0.27-0.21-0.53-0.43-0.8c0-0.05-0.06-0.05-0.06-0.1c-0.54-0.59-1.39,0.05-1.61,0.64c-0.21,0.59,0.06,1.23,0.7,1.45
			c0.38,0.11,0.81,0,1.07-0.27c2.63,3.06,5.26,6.11,8.1,8.9c-0.22-0.1-0.43-0.16-0.59-0.27c-2.2-0.91-4.23-2.63-6.59-3.01
			c-0.16,0-0.27,0.21-0.05,0.27c2.15,0.38,4.02,2.25,6.01,3.16c1.39,0.65,2.57,1.34,3.76,2.09c0.16,0.16,0.32,0.32,0.48,0.43
			c0.38,0.32,0.75,0.65,1.13,0.96c-0.91-0.27-1.82-0.43-2.73-0.64c-3-0.59-6.27-0.43-9.17-1.29c-2.95-0.81-4.98-3.06-7.78-4.29
			c-2.09-0.96-4.29-1.39-6.59-1.34c-0.21,0-0.21,0.38,0,0.38c3.22,0.21,6.06,1.13,8.74,2.95c1.93,1.34,3.59,2.63,5.9,3.16
			c2.68,0.65,5.47,0.59,8.15,1.13c1.82,0.38,3.59,0.91,5.42,1.39c0.16,0.11,0.27,0.21,0.43,0.32c-1.34-0.32-2.63-0.86-3.96-1.02
			c-1.61-0.16-3.33,0.1-4.93,0.27c-3.33,0.32-6.49,0.85-9.71,1.88c-0.16,0.05-0.1,0.32,0.11,0.32c3.48-0.86,7.07-1.18,10.67-1.5
			c1.4-0.11,2.73-0.16,4.08,0c-0.05,0.05-0.05,0.16-0.11,0.21c0,0.05,0,0.11,0,0.16c-0.16,0.21-0.27,0.43-0.27,0.7
			c0,0.54,0.38,1.02,0.85,1.13c0.54,0.1,1.07-0.11,1.34-0.59c0.1-0.16,0.1-0.32,0.16-0.54c0.7,0.16,1.4,0.38,2.04,0.64
			c-3.01,0.43-5.95,0.97-8.9,1.93c-3.92,1.34-7.99,2.9-12.17,1.98c-2.04-0.43-3.91-1.4-5.79-2.2c-1.98-0.86-4.18-1.45-5.73-3.01
			c-1.07-1.07-1.88-2.25-3.01-3.27c-2.04-1.82-4.18-3.16-4.34-6.22c0-0.38-0.64-0.38-0.64,0c0.21,3.81,3.65,5.52,5.9,8.15
			c1.18,1.39,1.93,2.46,3.59,3.38c2.15,1.18,4.51,2.14,6.76,3.1C-32.03,160.42-28.81,160.47-25.32,159.62"/>
	</g>
</g>
</svg>
