<?xml version="1.0" encoding="utf-8"?>
<!-- Generator: Adobe Illustrator 23.0.1, SVG Export Plug-In . SVG Version: 6.00 Build 0)  -->
<svg version="1.1" id="Layer_1" xmlns="http://www.w3.org/2000/svg" xmlns:xlink="http://www.w3.org/1999/xlink" x="0px" y="0px"
	 viewBox="0 0 85.29 206.1" style="enable-background:new 0 0 85.29 206.1;" xml:space="preserve">
<style type="text/css">
	.st0{clip-path:url(#SVGID_2_);}
	.st1{fill:#907D4F;}
</style>
<g>
	<defs>
		<rect id="SVGID_1_" width="85.29" height="206.1"/>
	</defs>
	<clipPath id="SVGID_2_">
		<use xlink:href="#SVGID_1_"  style="overflow:visible;"/>
	</clipPath>
	<g class="st0">
		<path class="st1" d="M101.19,144.43c-0.11,0.1-0.21,0.27-0.32,0.38c-0.05,0.05-0.05,0.1-0.05,0.16c-0.65,1.02-1.24,2.09-1.78,3.17
			c-0.48,0.91-0.86,1.88-0.59,2.9c0.05,0.32,0.54,0.21,0.54-0.05c0-2.36,1.67-4.25,2.53-6.34
			C101.63,144.48,101.35,144.21,101.19,144.43z M79.64,100.24c-5.48,1.67-10.97,3.01-16.77,2.74c-0.65-0.05-0.65,0.97,0,0.97
			c5.91,0.38,11.34-1.4,16.88-3.22C80.07,100.62,79.96,100.14,79.64,100.24z M55.61,103.63c0-0.54-0.43-0.97-0.97-0.97
			c-0.05,0-0.16,0-0.21,0c-0.48,0-0.97,0.43-0.97,0.97c0,0.16,0.05,0.32,0.11,0.43c-0.06,0-0.11,0-0.11,0
			c-0.48,0-0.86,0.38-0.86,0.86c0,0.38,0.27,0.7,0.65,0.8c-0.11,0.48,0.16,1.02,0.65,1.13c0.05,0,0.16,0.05,0.21,0.05
			c0.48,0.11,0.97-0.16,1.13-0.64c0.16-0.48-0.16-0.92-0.59-1.08c0.05-0.1,0.05-0.21,0.05-0.32c0-0.1,0-0.21-0.05-0.32h0.05
			C55.13,104.6,55.61,104.17,55.61,103.63z M50.83,107.61c0.27-0.38,0.33-0.76,0.16-1.18v-0.06c-0.16-0.38-0.64-0.48-1.02-0.43
			c-0.16,0.05-0.27,0.11-0.38,0.16c0,0,0,0-0.05,0.05h-0.06c-0.16-0.38-0.48-0.65-0.91-0.65c-0.54,0-1.02,0.43-0.97,0.97
			c0,0.32,0.16,0.59,0.38,0.75c0,0.06,0,0.06,0,0.11c0,0.38,0.27,0.75,0.65,0.91c0.11,0.06,0.16,0.11,0.27,0.11s0.21,0,0.32,0
			c0.05,0.81,1.4,0.65,1.18-0.21c-0.05-0.11-0.11-0.16-0.16-0.21C50.4,107.93,50.67,107.82,50.83,107.61z M57.28,107.82
			C57.28,107.82,57.23,107.82,57.28,107.82C57.23,107.82,57.23,107.82,57.28,107.82C57.23,107.82,57.28,107.82,57.28,107.82z
			 M56.36,108.84c0-0.05,0-0.05,0-0.11C56.31,108.73,56.31,108.79,56.36,108.84C56.36,108.79,56.36,108.84,56.36,108.84z
			 M57.28,107.82c0.1,0.05,0.16,0.11,0.27,0.16c0.22,0.21,0.27,0.43,0.32,0.7c0,0.43-0.38,0.75-0.75,0.75
			c-0.32,0-0.59-0.21-0.7-0.54c-0.06-0.1-0.11-0.21-0.11-0.32c-0.86-0.05-1.02-1.23-0.38-1.61c-0.21-0.43-0.11-0.91,0.32-1.18
			c0.38-0.22,0.97-0.11,1.18,0.32c0.05,0,0.1-0.05,0.16-0.05c0.16-0.27,0.43-0.43,0.7-0.59c0.38-0.16,0.81-0.11,0.97,0.27
			c0.11,0.16,0.11,0.43,0.05,0.65c0.21,0.54,0.16,1.18-0.38,1.51c-0.32,0.21-0.7,0.11-0.91-0.1
			C57.71,107.88,57.49,107.88,57.28,107.82z M57.77,103.9c-0.06-0.11-0.06-0.27-0.06-0.43c0,0-0.05,0-0.05,0.05
			c-0.05,0-0.11,0.06-0.16,0.06c0.05,0.1,0.05,0.16,0.05,0.27C57.6,103.84,57.71,103.9,57.77,103.9z M60.13,104.33
			c0,0.21,0,0.38-0.16,0.54c-0.21,0.27-0.48,0.32-0.76,0.27c-0.1,0-0.16-0.05-0.27-0.11c-0.27-0.1-0.48-0.32-0.54-0.59
			c-0.06,0-0.06,0-0.11-0.06c-0.05,0-0.05-0.05-0.11-0.05c0,0.05,0.06,0.11,0.06,0.16c0.16,0.48-0.38,1.02-0.86,0.86
			c-0.05,0-0.1-0.05-0.16-0.05c-0.27-0.11-0.43-0.27-0.54-0.54c-0.43,0.16-0.92-0.11-1.08-0.54c-0.21-0.43,0-0.85,0.38-1.13
			c0.05-0.06,0.11-0.06,0.11-0.11c0.05-0.05,0.16-0.11,0.21-0.11c-0.27-0.21-0.38-0.54-0.32-0.91c0.11-0.43,0.59-0.75,1.08-0.59
			c0.05,0,0.16,0.06,0.21,0.06c0.16,0.05,0.32,0.16,0.43,0.27c0.16,0.11,0.27,0.27,0.33,0.48c0.05,0.16,0.05,0.27,0.05,0.43
			c0,0.05,0,0.1,0,0.16c0.27-0.16,0.54-0.16,0.8,0c0.06,0.05,0.11,0.05,0.16,0.1c0.06,0.06,0.11,0.11,0.16,0.16
			c0.06,0,0.11,0,0.17,0C60.02,103.15,60.45,103.79,60.13,104.33z M56.31,99.97c0.38,0.38,1.07,0.32,1.29-0.16c0,0,0-0.05,0.05-0.05
			c0.27-0.54-0.11-1.13-0.59-1.18v-0.05c-0.11-0.32-0.32-0.54-0.65-0.7c-0.32-0.22-0.81-0.11-1.02,0.27
			c-0.16,0.32-0.11,0.86,0.27,1.02c0.16,0.05,0.27,0.11,0.43,0.16C56.04,99.49,56.1,99.81,56.31,99.97z M51.47,105.46
			c0.06,0,0.16-0.06,0.22-0.06c0.48-0.1,0.75-0.69,0.54-1.13c-0.11-0.32-0.38-0.43-0.7-0.48c-0.16-0.16-0.43-0.27-0.65-0.21
			c-0.06,0-0.11,0.05-0.16,0.05c-0.59,0.16-0.76,0.91-0.32,1.29c0.05,0.05,0.1,0.1,0.16,0.1C50.78,105.4,51.1,105.56,51.47,105.46z
			 M53.95,110.51c0.06,0.27,0,0.54-0.21,0.7c-0.54,0.48-1.4,0.43-1.67-0.32c-0.11-0.27,0.05-0.54,0.27-0.7
			c0-0.05-0.05-0.05-0.05-0.11c-0.38-0.54,0.27-1.29,0.86-1.07c0.05,0,0.11,0,0.11,0.05c0.16-0.21,0.43-0.32,0.76-0.27
			c0.16-0.11,0.32-0.11,0.54-0.06c0.21,0.06,0.38,0.16,0.54,0.32c0.05,0.06,0.1,0.11,0.16,0.22c0.21-0.11,0.48-0.11,0.7,0
			c0.43,0.21,0.48,0.8,0.16,1.18c-0.32,0.27-0.7,0.38-1.08,0.16c-0.16-0.06-0.21-0.22-0.27-0.38c-0.06,0-0.11,0-0.16,0.06
			c-0.05,0-0.11,0-0.16,0C54.22,110.4,54.11,110.46,53.95,110.51z M53.73,99.55c-0.06,0-0.06,0.05-0.11,0.05
			C53.68,99.6,53.68,99.6,53.73,99.55C53.73,99.6,53.73,99.6,53.73,99.55z M47.28,101.27h0.06c0,0-0.06,0-0.06-0.05V101.27
			C47.28,101.32,47.28,101.27,47.28,101.27z M46.05,105.51c0.05-0.05,0.11-0.11,0.11-0.11c-0.06,0-0.11,0-0.16-0.05
			c0,0.11-0.06,0.27-0.06,0.38C45.99,105.62,45.99,105.56,46.05,105.51z M55.29,85.95c0.16,1.98,0.54,3.6,1.13,5.38
			c0.27-2.1,0.75-4.19,1.07-6.23c0.48-2.96,0.86-5.97,1.89-8.82c1.13-3.11,2.36-5.7,1.61-9.08c-0.59-2.64-2.04-4.78-4.08-6.56
			c0.48,1.23,0.32,2.74-0.27,4.08c-1.67,3.93-5.7,5.92-5.48,10.75c0.1,2.58,1.5,4.09,2.9,6.13C55.08,83.05,55.18,84.28,55.29,85.95z
			 M47.82,110.24c0.06,0.11,0.11,0.22,0.11,0.32c0.11,0.16,0.16,0.38,0.11,0.65c-0.76,2.53-2.53,4.3-4.73,5.65
			c-1.72,1.02-3.6,1.72-5.38,2.58c-1.45,0.75-2.85,1.72-4.41,2.31c-1.34,0.54-2.74,0.59-4.14,1.02c-1.99,0.59-2.96,2.26-4.79,2.95
			c-1.51,0.54-3.01,0.32-4.57,0.97c-3.33,1.34-2.85,4.73-1.77,7.53c0.1,0.32-0.32,0.43-0.48,0.21c-1.45-2.2-1.99-4.94-0.43-7.26
			c0.65-0.97,1.45-1.45,2.53-1.88c0.92-0.32,1.88-0.38,2.8-0.59c1.61-0.38,2.53-1.13,3.71-2.04c1.23-0.97,2.42-1.23,3.97-1.56
			c2.26-0.48,3.98-1.45,5.97-2.53c3.76-2.04,8.33-3.28,10.16-7.53c-3.92,0.43-7.04,0.86-10.37,3.33c-2.15,1.61-4.08,3.44-6.51,4.62
			c-4.63,2.21-10.43,2.31-15.21,0.54c-0.27-0.11-0.22-0.54,0.05-0.48c3.49,0.16,6.83,0.59,10.32-0.06c3.44-0.64,6.08-2.42,8.71-4.57
			c3.17-2.58,7.26-5.27,11.51-4.94c-0.32-0.43-0.59-0.92-0.76-1.45c-2.2-0.32-4.94,0.54-6.88,1.02c-2.04,0.48-4.03,1.13-5.96,1.83
			c-3.82,1.45-7.47,4.14-11.51,4.79c-0.27,0.05-0.38-0.33-0.1-0.38c3.01-0.75,5.64-2.58,8.44-3.87c1.93-0.86,3.87-1.67,5.91-2.31
			c2.42-0.81,6.88-2.53,9.99-2.05c0-0.21,0-0.38,0.06-0.59c0.1-0.65,0.27-1.34,0.48-2.1c-6.02,1.34-12.15,2.26-18.17,3.71
			c-0.32,0.11-0.43-0.38-0.17-0.48c5.76-2.1,12.42-3.93,18.6-3.98c0.11-0.32,0.21-0.7,0.38-1.02c-2.53-0.43-4.89-1.34-7.42-1.56
			c-1.77-0.11-3.49,0.05-5.27,0.21c-3.49,0.38-7.09,1.07-10.59,0.38c-0.21-0.05-0.16-0.43,0.05-0.43c4.14,0.16,8.01-0.48,12.09-0.86
			c4.03-0.32,7.42,0.59,11.34,1.34c0.05,0,0.05,0,0.05,0.06c0.32-0.76,0.65-1.51,1.02-2.15c-2.64-1.61-6.61-1.94-9.57-2.26
			c-0.38-0.05-0.38-0.59,0-0.59c3.06,0.27,7.31,0.27,10,2.04c0.11-0.16,0.21-0.32,0.32-0.48c-0.16,0-0.32-0.1-0.48-0.21
			c-2.96-2.42-6.45-4.19-10.38-4.03c-2.64,0.11-5.21,1.18-7.85,0.54c-1.72-0.43-3.28-1.51-4.24-3.01c-1.67-2.58-0.7-6.5-3.71-8.22
			c-0.32-0.16-0.05-0.59,0.27-0.43c2.1,0.91,2.58,2.69,3.07,4.78c0.48,2.05,1.13,4.09,3.11,5.11c2.1,1.07,4.46,0.43,6.61,0
			c3.44-0.65,6.51-0.32,9.41,0.91c-2.31-1.93-4.73-3.76-7.36-5.32c-0.21-0.11,0-0.43,0.16-0.33c4.52,2.05,9.14,5.43,12.63,9.09
			c0.48-0.32,1.02-0.65,1.56-0.86c-1.29-1.02-2.09-2.31-3.11-3.7c-1.51-2.05-3.12-3.93-4.95-5.76c-3.55-3.49-7.69-6.23-11.72-9.14
			c-0.16-0.11,0-0.43,0.16-0.32c3.77,2.47,7.36,5.1,10.81,8.01c3.66,3.18,6.29,6.88,9.46,10.43c0,0.05,0.05,0.05,0.05,0.1
			c0.06,0,0.11-0.05,0.16-0.05c-1.51-3.17-2.58-6.56-4.19-9.73c-1.72-3.44-3.76-6.72-5.91-9.89c-0.16-0.27,0.21-0.48,0.43-0.27
			c2.42,3.22,4.57,6.61,6.45,10.16c1.51,2.85,3.22,6.13,4.03,9.35h0.05c0.16-0.06,0.38-0.11,0.54-0.16
			c-0.7-5.48-3.82-10.96-6.4-15.75c-2.58-4.68-5.54-9.19-8.87-13.39c-0.16-0.21,0.1-0.54,0.32-0.32c3.55,4.3,6.72,8.87,9.46,13.76
			c2.64,4.73,5.65,10.16,6.4,15.59c0.21,0,0.38,0,0.59,0c-0.59-3.92-1.02-7.74-2.31-11.56c-0.11-0.27,0.32-0.38,0.43-0.1
			c1.45,3.71,2.69,7.79,2.64,11.82c0.43,0.11,0.86,0.27,1.24,0.54c-0.27-3.11-1.99-5.8-2.21-8.97c-0.21-2.91-0.7-3.82-2.26-6.07
			c-0.7-1.08-1.29-2.15-1.56-3.39c-0.65-2.53-0.22-5.27,1.18-7.47c1.88-3.01,8.33-7.2,3.81-10.8c-0.32-0.27,0.11-0.75,0.43-0.54
			c0.48,0.27,0.86,0.64,1.13,1.02c4.24,2.2,6.61,7.31,5.8,11.98c-0.59,3.6-2.31,6.88-2.9,10.54c-0.65,3.92-0.86,8.17-1.99,11.98
			c0,0,0,0,0,0.05c0.16,0.92,0.21,1.78-0.05,2.8c-0.16,0.76-1.29,0.54-1.29-0.16c0-0.05,0-0.16,0-0.21
			c-1.18-0.65-2.26-0.65-3.28-0.27c0.05,0.06,0.05,0.06,0.1,0.11c0.11,0.11,0.16,0.21,0.22,0.27c0.1-0.32,0.43-0.59,0.8-0.59
			c0.43,0,0.81,0.38,0.81,0.81c0,0.43-0.38,0.81-0.81,0.81c-0.38,0-0.65-0.22-0.75-0.54c-0.05,0.16-0.11,0.27-0.21,0.38
			c0.1,0.11,0.16,0.22,0.21,0.38c0.1-0.05,0.16-0.05,0.27-0.05c0.27,0,0.48,0.1,0.65,0.32c0.16-0.05,0.38-0.05,0.59,0
			c0.27,0.11,0.43,0.43,0.43,0.76c0,0.32-0.21,0.59-0.48,0.65c0.05,0.05,0.1,0.05,0.16,0.1c0.22,0.27,0.22,0.59,0.06,0.86
			c-0.06,0.1-0.11,0.16-0.21,0.27c0.1-0.05,0.21-0.05,0.32-0.05c0.11,0,0.22,0,0.32,0c1.13,0,1.13,1.77,0,1.77c-0.1,0-0.21,0-0.32,0
			c-0.27,0-0.48-0.1-0.64-0.27c-0.16,0.16-0.43,0.32-0.7,0.32c-0.16,0-0.27,0-0.43,0c-0.54,0-0.92-0.43-0.92-0.91
			c0-0.43,0.32-0.81,0.76-0.91c-0.05-0.11-0.11-0.16-0.11-0.27c-0.05-0.38,0.16-0.75,0.48-0.86c-0.43,0-0.75-0.32-0.86-0.7
			c-0.21,0.05-0.48,0.05-0.65-0.06c-0.05-0.05-0.1-0.05-0.1-0.1c-0.32-0.22-0.48-0.65-0.32-1.02c0.05-0.11,0.1-0.22,0.16-0.27
			c-0.06-0.16-0.11-0.27-0.11-0.43c-0.11,0.05-0.16,0.1-0.27,0.16c-0.06,0.06-0.11,0.06-0.17,0.11c0.22,0.16,0.32,0.48,0.27,0.76
			c-0.1,0.38-0.48,0.59-0.91,0.48c-0.11,0-0.16-0.05-0.27-0.05c-0.05,0.21-0.16,0.48-0.38,0.65c-0.38,0.32-0.92,0.32-1.23-0.05
			c-0.06,0.05-0.11,0.11-0.17,0.16c0.48,0,0.92,0.32,0.97,0.8c0.21-0.1,0.43-0.21,0.65-0.21c0.05,0,0.16,0.05,0.21,0.05
			c0.43-0.21,0.92-0.1,1.13,0.32c0.21,0.38,0.11,0.97-0.32,1.13c-0.05,0-0.11,0.05-0.16,0.05c-0.11,0.06-0.27,0.11-0.43,0.11
			c-0.06,0.05-0.11,0.05-0.22,0.11c-0.38,0.27-0.86,0.21-1.18-0.11c-0.1-0.11-0.21-0.27-0.21-0.43c0,0,0,0.05-0.05,0.05
			c-0.11,0.1-0.27,0.21-0.43,0.27c0.22,0.27,0.32,0.59,0.11,0.92c-0.06,0.11-0.11,0.21-0.16,0.27c-0.32,0.48-0.97,0.59-1.4,0.16
			l-0.05-0.05c-0.05,0.11-0.05,0.27-0.11,0.38c0.27,0.11,0.54,0.32,0.54,0.7c0,0.32,0,0.59-0.11,0.86
			c-0.05,0.21-0.21,0.38-0.38,0.54h0.05c0.43,0.05,0.59,0.65,0.43,1.02c-0.22,0.32-0.65,0.43-0.97,0.27
			c-0.21-0.11-0.32-0.38-0.32-0.59c-0.05,0.54-0.05,1.02,0,1.56c0.16,0,0.27,0,0.43,0.06c0.05,0,0.05,0,0.05,0.05
			c0.16,0.11,0.38,0.32,0.32,0.59c0,0.11,0,0.22-0.06,0.27c-0.05,0.21-0.1,0.32-0.27,0.43c0.27,0.38,0.59,0.75,1.02,1.07
			c-0.05-0.11-0.11-0.27-0.11-0.43c-0.16-0.7,0.59-1.23,1.24-0.91c0.32,0.16,0.54,0.54,0.48,0.91c-0.06,0.48-0.38,0.86-0.86,0.86
			C48.09,110.35,47.93,110.3,47.82,110.24z M57.87,100.68c0.22,0.43,0.81,0.59,1.18,0.21c0.06-0.06,0.06-0.06,0.11-0.11
			c0.22-0.21,0.22-0.59,0.05-0.86c0.06,0,0.17-0.05,0.22-0.05c0.21,0,0.43-0.11,0.54-0.32c0.16-0.27,0.1-0.65-0.11-0.92
			c-0.38-0.38-0.97-0.32-1.34,0s-0.27,0.76-0.05,1.02C58.04,99.71,57.66,100.14,57.87,100.68z M53.19,107.61
			c0.38-0.38,0.38-0.81,0-1.18c-0.54-0.48-1.45-0.16-1.45,0.59C51.74,107.77,52.66,108.09,53.19,107.61z M48.04,104.28
			c0,0.54,0.43,1.02,1.02,1.02c0.54,0,1.07-0.48,1.02-1.02c0-0.54-0.43-1.02-1.02-1.02C48.57,103.26,48.04,103.74,48.04,104.28z
			 M145.54,62.08c0.16-0.65,0.32-1.34,0.32-2.1c0-1.56-0.65-4.19-1.13-5.75c-1.02-3.44-4.84-2.9-7.69-3.92
			c0.7,0.75,1.4,1.56,1.61,2.53c0.11,0.54,0.11,1.18,0.05,1.77c0.38-0.48,0.92-0.86,1.4-1.13c0.16-0.11,0.43,0.16,0.21,0.32
			c-0.38,0.32-0.7,0.7-0.97,1.08c-0.16,0.27-0.32,0.59-0.43,0.92c0.27,0.16,0.48,0.32,0.7,0.54c1.02,0.21,2.09,0.27,2.95-0.38
			c0.16-0.1,0.38,0.16,0.22,0.27c-0.7,0.54-1.61,0.81-2.53,0.81c0.11,0.11,0.27,0.21,0.38,0.32c0.54,0.32,1.18,0.54,1.67,0.91
			c1.02,0.76,1.18,1.94,1.18,3.12C144.3,61.39,145,61.65,145.54,62.08z M138.01,60.74c0.65-0.22,1.29-0.43,1.94-0.76
			c0.32-0.16,0.59,0.27,0.27,0.48c-0.59,0.43-1.29,0.81-1.99,1.02c0.81-0.16,1.61-0.27,2.36-0.16c0.7-0.05,1.51-0.1,2.26-0.05
			c0-0.59-0.05-1.18-0.32-1.72c-0.48-0.97-1.18-1.02-2.1-1.24c-0.86-0.21-1.61-0.7-2.04-1.45c-0.1,0.54-0.16,1.02-0.16,1.56
			C138.22,59.23,138.17,59.98,138.01,60.74z M114.2,80.2c-0.27,0-0.59,0-0.91-0.06c-0.43-0.1-0.48-0.43-0.43-0.75c0,0,0-0.06,0-0.11
			c0-0.48-0.05-0.97-0.21-1.34c0,0.05-0.05,0.11-0.05,0.21c-2.31,3.12-5.27,5.81-8.06,8.49c-0.21,0.21-0.48-0.11-0.32-0.32
			c2.53-2.85,5.38-5.54,7.58-8.65c0.16-0.22,0.43-0.22,0.59-0.16c-0.11-0.11-0.27-0.27-0.43-0.38c-0.05-0.05-0.16-0.05-0.21-0.1
			c-0.22,0.16-0.48,0.05-0.65-0.11c-0.11,0-0.22,0-0.32,0.05c-0.43,0.7-1.29,1.24-1.83,1.78c-0.81,0.86-1.56,1.88-2.09,2.9
			c-0.11,0.16-0.38,0.06-0.32-0.1c0.43-1.13,0.96-2.1,1.66-3.07c0.33-0.43,0.76-0.96,1.24-1.4c-0.27-0.05-0.38-0.32-0.32-0.54
			c-1.61,1.56-2.96,3.49-4.03,5.48c-0.65,1.19-1.13,2.42-1.56,3.71c-0.11,0.27-0.7,2.58-0.97,2.36c0,0,0,0,0.05,0.06
			c1.94,0.16,4.57-2.04,5.76-3.12c1.51-1.4,3.01-3.01,4.19-4.62c0.27-0.38,0.8-0.05,0.59,0.38c-0.16,0.27-0.27,0.54-0.43,0.81
			C113.23,81,113.72,80.63,114.2,80.2z M129.73,87.67c-2.58-2.36-5.86-3.17-9.24-3.17c0.21,0.06,0.43,0.16,0.65,0.27
			c0.97,0.48,1.66,1.4,2.47,2.15c1.08,1.02,2.31,1.98,3.55,2.85c0.16,0.1,0,0.32-0.16,0.27c-1.61-0.7-3.01-1.51-4.35-2.69
			c-0.92-0.81-1.61-1.67-2.85-1.99c-0.86-0.21-1.78-0.16-2.64,0c1.23,0.54,2.36,1.34,3.44,2.36c1.93,1.78,5.64,7.8,8.6,7.2
			c0.27-0.05,0.38,0.32,0.1,0.38c-2.31,0.54-3.76-1.4-5.27-2.91c-2.53-2.53-4.68-4.89-7.8-6.29c2.31,1.93,3.02,5.8,4.09,8.65
			c0.91,2.42,1.99,3.92,4.68,4.35c2.47,0.43,4.67,0.59,6.4-1.67c1.02-1.4,1.77-2.69,3.28-3.44
			C133.6,91.65,131.61,89.33,129.73,87.67z M109.9,85.41c0.16-0.05,0.32-0.1,0.54-0.16c-0.11-0.05-0.16-0.1-0.21-0.21
			C110.17,85.19,110.06,85.3,109.9,85.41z M72.65,135.4c-0.75,5.59-1.4,10.8-0.54,16.45c0.38,2.31,0.81,4.57,0.81,6.93
			c0.05,2.96-0.22,5.91,0.38,8.82c1.02,4.72,1.99,9.62,3.33,14.29c0.86,3.12,2.26,5.97,3.55,8.87c0.38-1.72,0.75-3.49,1.13-5.21
			c-1.29-2.53-2.26-5.16-2.69-7.95c-0.65-4.41,0.05-9.08,0.27-13.49c0-0.16,0.16-0.27,0.27-0.27c-0.16-0.21,0.16-0.59,0.43-0.43
			c1.78,1.18,3.82,1.66,5.76,2.47c0-0.05,0-0.05,0-0.11c0-0.16,0.16-0.21,0.32-0.16c0.43-0.75,0.7-1.82,0.97-2.52
			c0.32-0.81,0.64-1.67,0.96-2.47c-0.05-0.11-0.05-0.27,0-0.43c0.43-1.07,0.92-2.15,1.4-3.17c0.22-1.18,0.48-2.42,0.7-3.65
			c-0.06,0.05-0.16,0.05-0.27,0.05c0.05,0.32-0.43,0.48-0.59,0.16c-0.05,0-0.16,0-0.21,0c-0.86-0.21-1.07-0.32-1.45-1.13
			c-0.43-0.91-0.48-2.04-0.97-3.01c-0.43-0.86-1.08-1.61-1.51-2.47c-1.4-2.8-2.04-6.08-1.45-9.14
			C79.69,138.35,75.77,137.39,72.65,135.4z M88.13,147.17c-1.02-1.67-1.67-4.63-3.76-4.89c0.27,1.56,0.7,3.06,1.56,4.63
			c0.54,0.96,1.24,1.82,1.67,2.84c0.27,0.65,0.32,1.78,0.86,2.42C87.97,150.5,88.03,148.83,88.13,147.17z M84.16,137.65
			c-0.06,1.45,0,2.85,0.16,4.19c1.02,0.06,1.77,0.65,2.31,1.45c0.43,0.65,0.8,1.4,1.18,2.09c0.11,0.22,0.27,0.43,0.38,0.65
			c0-0.1,0-0.16,0-0.27c0.16-1.67,0.16-3.28,0.16-4.9c-0.48-0.32-0.97-0.69-1.45-1.07c-0.7-0.54-1.56-1.4-2.53-1.23
			c-0.21,0.05-0.32-0.32-0.11-0.38c0.86-0.16,1.51,0.16,2.15,0.65c0.65,0.43,1.29,0.85,1.88,1.29c0-1.45-0.05-2.9,0-4.41
			c0-0.11,0.16-0.11,0.16,0c0.48,1.61,0.59,3.28,0.59,4.94c0.05,0,0.05,0.06,0.1,0.06c0.17,0.16,0.06,0.38-0.1,0.43
			c-0.06,1.94-0.22,3.87-0.27,5.81c0.38-2.69,1.29-5.32,2.47-7.74c0.1-0.22,0.43-0.06,0.32,0.16c-1.24,3.76-2.74,7.2-2.58,11.29
			c0,0.05,0,0.1-0.05,0.1c0.05,0.22,0.05,0.48,0.11,0.7c1.18-6.45,4.19-12.26,2.53-18.92c-0.32,1.02-0.65,2.04-0.97,3.11
			c-0.43,1.4-1.23,3.02-0.91,4.52c0.05,0.16-0.22,0.21-0.27,0.05c-0.32-1.24,0.11-2.31,0.43-3.55c0.32-1.19,0.64-2.42,0.96-3.6
			c-1.45,1.51-2.9,3.17-4.94,3.92C85.34,137.33,84.74,137.49,84.16,137.65z M92.16,131.9c0.54,1.56,0.92,3.22,1.08,4.89
			c0.32,0.11,0.59,0.27,0.96,0.32c0.38,0.05,0.76-0.11,1.08,0c0.05,0,0.1,0.05,0.1,0.05c0.06-0.1,0.11-0.27,0.22-0.32
			c2.31-1.61,3.6-3.65,4.46-5.85c-1.51,1.72-3.06,3.55-4.94,4.83c-0.27,0.22-0.54-0.21-0.32-0.43c1.72-1.78,3.71-3.22,5.38-5
			c0.05-0.05,0.11-0.05,0.11-0.05c0.64-1.94,1.07-3.98,1.56-6.07c-0.59,0.97-1.18,1.88-1.83,2.74c-1.13,1.56-2.64,2.69-3.82,4.19
			c-0.21,0.27-0.54-0.05-0.43-0.32c0.81-1.61,2.63-2.74,3.76-4.19c0.97-1.23,1.83-2.53,2.74-3.82c0.16-0.54,0.32-1.07,0.54-1.61
			c0.91-2.53,1.13-5,0.96-7.64c-1.34,3.66-3.17,7.04-5.43,10.21c0.05,0.81-0.11,1.56-0.54,2.31c-0.38,0.59-0.86,1.18-1.34,1.78
			c-0.86,2.79-1.56,5.64-1.78,8.65c-0.05,0.38-0.59,0.38-0.59,0c0-0.81,0.05-1.67,0.16-2.47c-0.38-0.59-0.38-1.34-0.48-2.04
			c-0.05-0.48-0.11-0.91-0.11-1.4C93.08,131.09,92.59,131.53,92.16,131.9z M93.99,130.23c0.05,0.65,0.16,1.34,0.27,1.99
			c0.05,0.16,0.05,0.32,0.1,0.48c0.22-1.24,0.54-2.42,0.86-3.6C94.85,129.48,94.42,129.86,93.99,130.23z M97.81,112.77
			c0.11,0.59,0.11,1.24,0.11,1.89c0.1,0.75,0.27,1.5,0.43,2.26c0.11,0.38,0.27,0.81,0.38,1.18c0.32-1.23,0.59-2.47,0.86-3.71
			c-0.05,0.05-0.16,0.11-0.27,0c-0.54-0.59-0.65-1.51-0.76-2.31c-0.1-0.59-0.1-1.13-0.1-1.72c-0.22,0.75-0.43,1.45-0.54,2.2
			C97.86,112.66,97.86,112.71,97.81,112.77z M98.83,109.17c0.05,0.05,0.05,0.11,0.05,0.16c0,0.91,0.11,1.83,0.27,2.74
			c0.11,0.54,0.32,1.02,0.38,1.56c0.05-0.21,0.16-0.38,0.21-0.54c0.54-2.79,0.97-5.64,1.4-8.55c-0.06-0.1-0.06-0.27-0.11-0.38
			C100.33,105.78,99.47,107.45,98.83,109.17z M101.63,105.99c-0.16,1.88-0.48,3.76-0.81,5.65c0.16-0.16,0.27-0.38,0.43-0.54
			c0.54-0.7,1.02-1.4,1.56-2.04C102.43,108.04,102,107.02,101.63,105.99z M99.64,113.95c0,0,0,0.06,0,0.11
			C99.64,114.01,99.64,114.01,99.64,113.95z M97.92,121.15c0-0.05,0-0.05,0.05-0.1c0.21-0.65,0.38-1.29,0.54-1.94
			c-0.32-0.43-0.54-1.02-0.7-1.61c-0.05,1.19-0.11,2.37,0.11,3.49C97.86,120.99,97.86,121.1,97.92,121.15z M103.72,112.66
			c-0.11-1.13-0.38-2.2-0.75-3.17c-0.48,0.7-0.97,1.34-1.4,2.04c-0.38,0.59-0.65,1.23-1.07,1.83c-0.43,2.09-0.92,4.19-1.51,6.29
			c-0.27,0.97-0.54,1.94-0.86,2.85c0,0.11,0.05,0.22,0.05,0.32c2.15-3.11,3.98-6.45,5.54-9.94
			C103.72,112.77,103.72,112.71,103.72,112.66z M94.04,141.63c0.27-0.43,0.59-0.81,0.92-1.18c-0.05-0.05-0.05-0.11-0.11-0.16
			c-0.16-0.54,0.16-0.97,0.43-1.45c0.16-0.33,0.32-0.59,0.48-0.92c-0.11-0.05-0.22-0.11-0.32-0.21c0,0,0,0.05-0.06,0.05
			c-0.48,0.48-1.45,0.38-2.15,0.05c0.05,1.4-0.11,2.85-0.43,4.25c-0.38,1.61-1.07,3.06-1.56,4.62c0.1-0.11,0.27-0.21,0.38-0.32
			C92.27,144.69,93.02,143.08,94.04,141.63z M92.11,147.54c-0.91,2.42-1.45,5-2.04,7.58c3.39-5.86,8.28-10.43,14.62-13.49
			c0.32-0.16,0.59,0.32,0.27,0.48c-3.17,1.61-6.02,3.71-8.49,6.18c0.05,0.05,0.05,0.16,0,0.21c-0.7,0.91-1.29,1.88-1.72,2.9
			c-0.43,0.92-0.59,1.88-0.97,2.8c0.81-0.43,1.61-0.86,2.42-1.24c3.12-1.61,6.13-3.33,8.87-5.43c-0.32-0.64-0.54-1.34-0.65-2.09
			c-0.05-0.32,0.11-2.26-0.16-2.31c-0.32-0.05-0.16-0.54,0.11-0.48c0.54,0.11,0.54,0.65,0.54,1.13c-0.05,1.23,0.11,2.31,0.59,3.39
			c1.23-1.02,2.42-2.1,3.44-3.28c-1.34-0.86-2.58-2.04-4.14-2.47c-0.1,0.05-0.27,0-0.32-0.06c-0.11,0-0.22-0.05-0.38-0.05
			c-0.05,0-0.05,0-0.05,0C100.39,144.1,95.49,144.32,92.11,147.54z M105.22,140.23c1.34-0.65,2.79-1.34,4.24-1.94
			c0.05-0.05,0.16-0.11,0.22-0.11c0.59-0.21,1.18-0.48,1.77-0.69c0-0.06,0-0.06,0.05-0.11c1.99-3.55,4.52-6.77,7.42-9.62
			c-2.79,1.02-5.43,2.36-7.68,4.19c-1.83,1.93-3.55,4.24-3.77,6.55c-0.05,0.48-0.75,0.48-0.75,0c0-0.75,0.21-1.56,0.54-2.26
			C106.52,137.49,105.82,138.78,105.22,140.23z M126.29,125.78c-0.1,0-0.16,0.05-0.27,0.05c0.11,0.11,0.11,0.21,0.05,0.38
			c-2.15,2.69-3.87,5.65-5.97,8.39c0.54-0.16,1.03-0.32,1.56-0.48c0-0.1,0.1-0.27,0.27-0.21c0.1,0,0.27,0,0.38,0
			c0.75-0.27,1.45-0.48,2.2-0.76c0.1-0.05,0.16-0.05,0.27-0.1c0-0.06-0.06-0.11,0-0.16c0.59-1.51,1.82-2.85,2.9-4.09
			c1.18-1.4,2.47-2.69,3.97-3.76C129.84,125.18,128.07,125.4,126.29,125.78z M132.05,124.97c0.05,0.05,0.05,0.16,0,0.21
			c-2.64,2.04-4.63,4.84-6.56,7.58c1.94-0.7,3.82-1.45,5.7-2.26c0,0,0,0,0-0.05c0.06-0.06,0.16-0.06,0.22-0.11c0-0.06,0-0.06,0-0.11
			c0.27-1.13,1.23-2.2,1.99-3.11c0.8-0.97,1.72-1.78,2.69-2.53C134.73,124.75,133.39,124.86,132.05,124.97z M138.33,124.32
			c-0.54,0.05-1.13,0.16-1.67,0.21v0.06c-1.02,0.86-1.93,1.83-2.8,2.9c-0.64,0.81-1.07,1.72-1.67,2.53
			c4.25-1.93,8.28-4.24,12.09-7.04c0.11-0.11,0.27,0.11,0.16,0.21c-2.26,1.83-4.67,3.44-7.15,4.84c1.93-0.1,3.87-0.16,5.8-0.27
			c0.16,0,0.22,0.27,0.06,0.32c-1.94,0.43-4.19,0.59-6.18,0.32c-0.05,0-0.11-0.05-0.11-0.1c-1.23,0.7-2.53,1.34-3.81,1.98
			c0.75,0.11,1.61,0.38,2.2,0.43c2.31,0.16,4.57,0,6.88-0.32h0.06c1.72-2.69,2.42-5.96,4.19-8.6
			C144.03,123.46,140.91,124,138.33,124.32z M141.88,130.67c-1.51,0.21-9.3,1.13-10.21,0.27c-1.5,0.7-3.01,1.34-4.57,1.94
			c-0.96,0.38-1.93,0.75-2.9,1.07c5.27,0.21,10.32,0.11,15.59-0.7C140.59,132.44,141.29,131.58,141.88,130.67z M112.64,137.11
			c2.15-0.75,4.3-1.45,6.45-2.15c1.51-3.28,4.2-6.29,6.56-8.97c-1.82,0.38-3.65,0.86-5.43,1.45
			C117.27,130.29,114.79,133.52,112.64,137.11z M139.63,133.57c-5.48,1.24-11.29,1.67-16.88,0.97c-3.98,1.4-7.95,2.63-11.88,4.19
			c4.63,2.09,9.52,3.06,14.62,2.95c1.45-0.81,2.74-1.83,4.25-2.47c0.38-0.16,0.81-0.32,1.18-0.48c-5.21,0.32-10.81,0.43-15.8-1.13
			c-0.22-0.05-0.16-0.43,0.05-0.43c5.75,0.38,11.29,1.34,17.09,1.08c1.67-0.54,3.22-1.08,4.73-2.26
			C137.9,135.18,138.77,134.38,139.63,133.57z M124.3,142.22c0.22-0.1,0.43-0.21,0.59-0.32c-5.21,0.32-10.21-0.65-14.94-2.91
			c-0.91,0.38-1.83,0.76-2.74,1.19c3.06,1.45,6.45,1.98,9.41,3.65c0.05,0.05,0.11,0.11,0.11,0.16
			C119.31,143.83,121.89,143.35,124.3,142.22z M116.14,144.05c-3.12-1.56-6.67-1.51-9.62-3.49c-0.27,0.1-0.54,0.27-0.81,0.43
			c1.13,0.43,2.04,1.02,3.17,1.78C111.08,144.1,113.61,144.16,116.14,144.05z M113.82,144.96c-1.23,0-2.47-0.11-3.55-0.48
			c-0.38-0.11-0.7-0.32-1.07-0.48c-1.08,1.34-2.26,2.58-3.55,3.66c-0.06,0.1-0.16,0.21-0.27,0.21c-1.4,1.18-2.9,2.26-4.52,3.28
			c2.85-0.06,5.65,0,8.49-0.16c0.11,0,0.16,0.05,0.16,0.1c0.97-1.34,1.83-2.79,2.85-4.19l-0.06,0.05c-2.09,0.8-4.3,1.4-6.56,1.56
			c-0.21,0-0.32-0.27-0.21-0.43c0.16-0.27,0.16-0.27,0.43-0.38c0.1-0.05,0.27,0.05,0.21,0.21c2.09-0.27,4.03-0.64,6.02-1.34
			c0.17-0.05,0.27,0.11,0.22,0.27C112.91,146.2,113.34,145.56,113.82,144.96z M109.42,151.31c-3.06,0.27-6.13,0.43-9.19,0.43
			c-0.05,0-0.1,0-0.16-0.05c-0.16,0.1-0.27,0.16-0.43,0.27c-1.08,0.65-2.2,1.18-3.33,1.78c0.05-0.05,0.11-0.05,0.21,0
			c3.22,0.81,6.29,1.4,9.62,0.97c0.11,0,0.16,0.21,0.06,0.21c-3.28,0.48-6.67,0.48-9.78-0.7c-0.22-0.11-0.22-0.38-0.06-0.48
			c-1.61,0.86-3.28,1.72-4.62,2.9c3.28,1.02,6.66,1.45,10.1,1.34c0.48-0.27,1.02-0.54,1.45-0.81
			C106.03,155.6,107.86,153.56,109.42,151.31z M98.56,159.31c0.81-0.27,1.67-0.59,2.47-1.02c-3.33,0.16-6.61-0.21-9.83-1.23
			c-0.81,0.75-1.45,1.56-1.99,2.58c1.18-0.48,2.36-0.38,3.81-0.21C94.91,159.58,96.63,159.91,98.56,159.31z M93.13,154.58
			c0-0.05-0.05-0.05-0.05-0.11c-0.06-1.23,0.48-2.58,1.23-3.76c-1.4,1.72-2.69,3.66-3.71,5.65
			C91.35,155.66,92.22,155.07,93.13,154.58z M90.6,149.69c0.21-0.7,0.38-1.45,0.65-2.15c-0.05-0.05-0.11-0.16-0.16-0.21
			C90.88,148.14,90.71,148.94,90.6,149.69z M86.68,167.38c-0.27-0.16-0.54-0.32-0.81-0.48c0.38,4.08,0.48,8.49-0.05,12.64
			c0.1,0.27,0.21,0.59,0.32,0.85c0.06,0.06,0.11,0.06,0.16,0.11c0.22,0.16,0.27,0.43,0.16,0.59c0.11,0.27,0.27,0.59,0.38,0.86
			c0.54,1.13,1.13,2.2,1.72,3.28c-0.11-5.69,0.16-11.18-0.76-16.93C87.48,167.97,87.11,167.65,86.68,167.38z M88.45,168.94
			c0.92,5.38,1.61,11.23,0.92,16.66c0.05,0,0.05,0,0.1,0c0.38,0,0.43,0.48,0.16,0.64c-0.1,0.06-0.27,0.11-0.38,0.17
			c0.54,0.91,1.13,1.77,1.78,2.68c-0.16-2.42,0.38-5.1,0.43-7.47c0.05-2.09,0.05-4.24-0.05-6.34
			C90.6,172.97,90.07,170.76,88.45,168.94z M92.11,177.05c0.05,1.13,0.11,2.26,0.16,3.39c0,1.34,0,2.74-0.05,4.08
			c-0.06,0.92-0.7,4.41-0.11,5.11c0.21,0.27,0,0.64-0.32,0.59c0.48,0.7,0.97,1.34,1.51,2.04c-0.11-4.08,0.97-8.17,0.59-12.26
			c-0.48-0.86-1.19-1.61-1.61-2.53C92.22,177.32,92.16,177.16,92.11,177.05z M94.96,186.62c-0.11-1.61,0.05-3.49-0.38-5.11
			c0.21,3.98-0.38,7.96-0.32,11.88c0.54,0.7,1.07,1.34,1.56,2.04C95.28,192.53,95.12,189.52,94.96,186.62z M102.05,177.54
			c0.65-0.59,1.24-1.19,1.83-1.83c0.7-2.85,1.29-5.7,1.4-8.71c0-0.21,0.32-0.21,0.32,0c0.11,2.47,0,5.05-0.54,7.47
			c0.81-0.86,1.67-1.77,2.47-2.63c-0.06-0.06-0.06-0.16,0-0.27c1.23-3.66,1.98-7.36,2.2-11.23c-2.42,1.4-4.68,3.01-6.23,5.38
			c-0.21,0.32-0.43,0.7-0.65,1.02c0.05,0.06,0.11,0.11,0.11,0.16C103.13,170.6,102.81,173.98,102.05,177.54z M111.14,159.53
			c-0.38,0.21-0.7,0.38-1.02,0.59c0,0,0,0.05,0,0.1c-0.05,3.6-0.54,7.1-1.56,10.54c1.34-1.51,2.69-3.01,4.08-4.46
			c0-0.11,0-0.21,0.16-0.27c0.05-0.05,0.16-0.05,0.21-0.1c0,0,0,0,0.06-0.06c-0.06-0.05-0.11-0.11-0.11-0.21
			c0.27-2.58,0.65-5.1,0.86-7.69C112.91,158.45,112.05,158.99,111.14,159.53z M118.39,155.44c-0.05,0-0.1,0.06-0.1,0.06
			c0.05,0,0.1,0.05,0.1,0.16c0,1.99-0.27,4.03-1.18,5.86c-0.1,0.27-0.54,0.05-0.43-0.21c0.59-1.88,1.13-3.71,1.23-5.7
			c0-0.05,0-0.05,0.06-0.05c-1.29,0.59-2.53,1.29-3.77,2.04c0.11,2.47-0.05,5.16-0.7,7.58c1.07-1.07,2.15-2.15,3.28-3.17
			c-0.05-0.1-0.05-0.32,0.16-0.32c0.11-0.05,0.22-0.05,0.32-0.05c1.24-1.07,2.53-2.15,3.87-3.12c0.21-0.16,0.43,0.22,0.21,0.38
			c0,0-0.05,0-0.05,0.06c1.02-0.32,2.15-0.54,3.22-0.75c0.54-1.24,1.08-2.47,1.61-3.66C123.55,154.69,121.14,154.16,118.39,155.44z
			 M109.95,170.33c3.39-1.24,6.83-2.26,10.43-2.58c0.59-1.07,1.07-2.15,1.56-3.22c-2.96,0.06-5.81,0.65-8.49,1.88
			C112.27,167.7,111.08,169.04,109.95,170.33z M118.39,161.41c1.61-0.22,3.33-0.06,4.84,0.1c0.43-1.02,0.86-2.04,1.29-3.01
			c-1.13,0.38-2.26,0.76-3.44,0.97c-0.1,0-0.16-0.05-0.21-0.1C120.06,160.01,119.2,160.71,118.39,161.41z M114.47,165.28
			c2.42-0.92,5-1.29,7.64-1.13c0.38-0.81,0.69-1.56,1.02-2.36c-0.91,0-1.88,0-2.79,0.05c-0.91,0.06-1.78,0.22-2.69,0.22
			C116.57,163.13,115.49,164.2,114.47,165.28z M119.15,169.85c0.32-0.54,0.65-1.13,0.96-1.72c-3.87,0.54-7.47,1.88-11.13,3.28
			c-0.86,1.02-1.72,1.99-2.63,2.96c3.33-1.18,6.77-1.72,10.38-1.61c0.1,0,0.21,0.11,0.21,0.22
			C117.8,171.94,118.55,170.87,119.15,169.85z M100.28,193.5c-0.43,1.34-0.65,2.79-0.33,3.92c0.81-0.16,1.56-0.32,2.31-0.59
			c-0.97-0.96,0-3.17,0.32-4.3c0.43-1.72,1.02-3.33,1.72-4.95C102.7,189.41,101.35,191.4,100.28,193.5z M106.62,185.38
			c-0.48,0.43-0.96,0.86-1.4,1.29c-0.54,1.4-1.02,2.8-1.45,4.24c-0.21,0.7-1.67,4.95-0.8,5.54c0.05,0.05,0.05,0.05,0.1,0.11
			c0.16-0.06,0.32-0.16,0.48-0.21c0.7-0.43,1.4-0.92,1.99-1.51c-0.43-1.51,0.05-3.17,0.32-4.68c0.43-1.94,1.02-3.82,1.77-5.65
			C107.27,184.79,106.94,185.06,106.62,185.38z M108.29,184.04c-1.13,3.17-2.09,6.67-2.09,10.1c0.75-0.75,1.45-1.61,2.15-2.42
			c-0.22,0-0.43-0.21-0.33-0.48c1.03-3.33,2.53-6.29,4.36-9.19C110.97,182.48,109.58,183.13,108.29,184.04z M115.22,181.46
			c-0.92,0.11-1.83,0.27-2.64,0.48c0.05,0.05,0.16,0.1,0.11,0.21c-1.61,2.8-2.8,5.86-3.77,8.92c0.05-0.05,0.05-0.05,0.11-0.1
			c1.23-1.34,2.42-2.96,3.71-4.46c-0.21,0.11-0.48-0.1-0.32-0.38c0.96-1.61,2.04-3.12,3.11-4.68
			C115.39,181.46,115.33,181.46,115.22,181.46z M119.04,183.93c-2.09,1.51-4.3,2.85-6.5,4.14c0,0,0,0.06-0.06,0.06
			c-0.05,0-0.1,0.05-0.16,0.05c-0.7,0.81-1.4,1.61-2.09,2.42c2.74-0.65,5.27-1.83,7.52-3.49c0.11-0.1,0.27,0.11,0.17,0.22
			c-2.37,1.93-5,3.28-8.01,4.03c-0.11,0-0.21,0-0.27-0.06c-0.32,0.38-0.7,0.81-1.02,1.18c2.69-0.27,5.43-0.48,8.12-0.91
			c0.05,0,0.05,0,0.05,0C117.8,189.04,118.13,186.41,119.04,183.93z M116.03,193.55c0.27-0.54,0.54-1.08,0.76-1.67
			c-2.9,0.54-5.75,1.02-8.71,1.29c0,0,0,0.05-0.06,0.05c-0.54,0.65-1.13,1.29-1.72,1.88v0.05c0,0.11-0.05,0.22-0.16,0.27
			c2.91-0.32,5.86-0.32,8.76-0.7c0.11,0,0.22,0.11,0.22,0.21C115.44,194.52,115.76,194.04,116.03,193.55z M114.95,195.11
			c-3.01,0.43-6.13,0.97-9.19,0.86c-0.1,0-0.21-0.05-0.21-0.16c-0.48,0.43-1.07,0.86-1.67,1.23c-0.97,0.54-1.99,0.81-3.01,1.03
			c2.42,0.86,4.95,1.56,7.53,2.04c0.05-0.05,0.11-0.05,0.16-0.11c1.13-0.75,2.36-1.51,3.49-2.31c-2.53,0.64-6.23,1.29-8.49-0.16
			c-0.16-0.11-0.05-0.38,0.16-0.32c2.85,0.59,5.64,0.7,8.49,0.05c0.11,0,0.22,0.05,0.22,0.16
			C113.34,196.72,114.2,195.97,114.95,195.11z M99.1,197.69c-0.11-0.32-0.16-0.65-0.16-1.03c-0.16,0.38-0.27,0.81-0.38,1.18
			C98.67,197.8,98.88,197.74,99.1,197.69z M108.07,200.32c-2.64-0.38-5.16-1.02-7.74-1.88c0.11,0.27-0.21,0.59-0.43,0.38
			c-0.16-0.16-0.32-0.27-0.48-0.48c-0.38,0.11-0.7,0.22-1.07,0.38l0.05,0.05c0.16,0,0.32,0.11,0.32,0.27
			c1.23,1.13,2.47,2.47,4.14,2.84C104.95,202.42,106.52,201.4,108.07,200.32z M91.79,192.21c-1.29,0-2.74-0.97-3.71-1.56
			c-1.23-0.76-2.42-1.56-3.55-2.42c1.02,1.56,2.2,3.12,3.39,4.52c0.27,0.32,0.54,0.59,0.81,0.81c1.72,0.7,3.49,1.13,5.27,1.56
			C93.29,194.2,92.54,193.23,91.79,192.21z M94.85,196.08c-1.34-0.16-2.69-0.48-3.97-0.97c1.51,0.86,3.11,1.4,4.89,2.04
			C95.44,196.83,95.12,196.45,94.85,196.08z M81.15,181.62c0.38,1.02,0.8,2.04,1.29,3.06c0.38,0.7,0.75,1.4,1.18,2.1
			c0.97,0.59,1.99,1.23,2.96,1.82c1.29,0.81,2.85,1.99,4.41,2.47c-1.07-1.56-2.09-3.11-3.06-4.78c-0.86-0.27-1.67-0.92-2.26-1.29
			C84.1,183.98,82.6,182.8,81.15,181.62z M79.96,176.67c0.21,1.34,0.48,2.64,0.91,3.93c1.23,0.97,2.53,1.88,3.87,2.74
			c0.81,0.54,1.61,1.18,2.53,1.61c-0.38-0.7-0.7-1.4-1.02-2.1c-0.21-0.54-0.48-1.02-0.65-1.56c0,0.05,0,0.11,0,0.16
			c-0.05,0.32-0.59,0.27-0.59-0.05c0-0.22,0-0.48,0-0.7C83.08,179.69,81.41,178.23,79.96,176.67z M79.58,164.15
			c-0.05,0-0.05-0.05-0.1-0.05c0,0,0,0,0,0.05c-0.06,2.36-0.11,4.63-0.06,6.93c1.13,0.59,2.31,1.29,3.28,2.15
			c-0.91-3.01-1.83-6.02-3.17-8.82C79.58,164.26,79.58,164.2,79.58,164.15z M80.13,164.53c1.45,2.58,2.42,5.38,3.33,8.17
			c0.06-0.86,0.16-1.72,0.16-2.58c0-1.4-0.1-2.85-0.27-4.25C82.27,165.49,81.15,165.12,80.13,164.53z M79.8,175.55
			c1.56,1.4,3.22,2.64,4.94,3.87c-0.59-1.61-1.07-3.28-1.56-4.95c-0.05,0-0.16,0-0.21-0.05c-1.18-0.81-2.26-1.78-3.44-2.53
			C79.53,173.13,79.64,174.36,79.8,175.55z M83.89,166.03c0.43,2.47,0.91,5.54,0.06,7.85c0.38,1.13,0.69,2.2,1.07,3.28
			c0.1-3.55,0.32-7.04,0.38-10.59C84.91,166.41,84.37,166.25,83.89,166.03z M97.92,200c-0.27-0.32-0.48-0.65-0.7-0.91
			c-0.05-0.05-0.1-0.11-0.16-0.16c-0.05,0-0.1,0-0.16,0c-7.2-0.92-11.5-6.18-14.89-12.2c-0.06-0.1-0.11-0.21-0.16-0.27
			c-0.11,0.91-0.27,1.88-0.43,2.79c-0.16,0.92-0.21,1.88-0.7,2.69c0.59,1.29,1.13,2.53,1.67,3.82c0.06,0.05,0.06,0.16,0.06,0.21
			c0.1,0.22,0.27,0.48,0.38,0.7c0.75,0.43,1.56,0.92,2.2,1.45c0.48,0.32,0.96,0.76,1.23,1.23c0.27,0.54,0.27,1.29,0.32,1.89
			c0.11,0.8,0.21,1.56-0.27,2.26c-0.1,0.16-0.27,0.27-0.43,0.27l-0.05,0.06c0.16,0.38,0.32,0.75,0.48,1.13
			c1.4,3.11,3.28,6.34,4.36,9.62c1.4,2.09,2.68,4.3,4.08,6.34c0.1,0.16,0.27,0.38,0.38,0.54c0.32-1.24,1.02-2.31,1.4-3.44
			c0.27-0.75,0.32-1.5,0.48-2.26c-0.11-1.61-0.32-3.17-0.48-4.78C96.14,207.1,97,203.6,97.92,200z M97.05,221.07
			C97,221.29,97,221.5,97,221.71C97,221.5,97,221.29,97.05,221.07z M108.93,119.59c-0.48,2.04-0.92,4.08-1.34,6.13
			c0.86-0.75,1.61-1.56,2.42-2.42c0.05-0.05,0.05-0.11,0.16-0.16c0,0,0,0,0.06,0c0.54-0.59,1.02-1.13,1.56-1.72
			c0.76-4.03,2.42-8.01,4.68-11.45c-1.34,0.91-2.58,1.93-3.71,3.17C111.03,114.92,109.9,117.23,108.93,119.59z M126.4,105.51
			c-1.67,0.54-3.28,1.08-4.89,1.78c-1.94,2.95-3.44,6.07-4.78,9.3c0.75-0.65,1.45-1.29,2.2-1.88c0.49-0.38,0.97-0.76,1.45-1.13
			C122.05,110.72,123.77,107.45,126.4,105.51z M120.49,114.49c-0.11,0.21-0.27,0.43-0.38,0.59c-0.1,0.21-0.32,0.21-0.48,0.11
			c-0.11,0.1-0.21,0.16-0.32,0.27c3.28-1.29,6.88-1.83,10.32-1.77c0,0,0,0,0.05,0c0.7-0.81,1.34-1.67,1.94-2.58
			c-3.12-0.16-6.13,0.38-8.97,1.78c-0.11,0.05-0.22,0.05-0.27,0C121.72,113.46,121.14,114.01,120.49,114.49z M129.41,114.11
			c-4.24,0.27-7.96,1.4-11.88,3.01c-0.59,0.54-1.18,1.08-1.77,1.67c-0.06,0.16-0.11,0.32-0.22,0.48c0,0,0,0.05-0.05,0.05
			c3.06-1.18,6.61-1.23,9.78-0.96C126.67,116.96,128.12,115.56,129.41,114.11z M124.84,118.73c0.05-0.05,0.1-0.11,0.16-0.16
			c-4.09,0.11-7.69,0.43-11.4,2.36h-0.06c-0.32,0.32-0.59,0.65-0.91,0.97c2.74-0.86,5.91-0.81,8.6-0.43c0.06,0,0.06,0.05,0.11,0.05
			C122.58,120.78,123.77,119.86,124.84,118.73z M110.6,124.21c2.31-0.91,5.48-0.81,7.36-0.65c0.05,0,0.05,0.06,0.11,0.06
			c1.02-0.59,1.98-1.18,2.95-1.83c-3.06-0.27-6.72,0-9.52,1.4c-0.27,0.32-0.54,0.59-0.86,0.92
			C110.6,124.16,110.6,124.16,110.6,124.21z M115.06,119.48c0.05,0,0.1-0.05,0.1-0.05h-0.05L115.06,119.48z M116.89,109.81
			c-1.82,3.44-3.11,6.82-4.14,10.48c0.86-0.86,1.72-1.72,2.64-2.58c1.29-3.66,3.22-7.04,5.48-10.21c-1.4,0.59-2.74,1.29-4.03,2.09
			C116.94,109.65,116.94,109.76,116.89,109.81z M116.14,124.75c0.48-0.27,0.97-0.54,1.4-0.8c-3.01-0.16-6.67,0.54-8.92,2.53
			c-0.1,0.05-0.16,0.11-0.27,0.05c-0.65,0.59-1.29,1.07-2.05,1.51C109.9,128.03,112.96,126.64,116.14,124.75z M106.89,126.26
			c0.05-0.8,0.16-1.56,0.27-2.36c-0.49,1.13-1.03,2.26-1.61,3.33C106.03,126.9,106.46,126.58,106.89,126.26z M112.75,217.2
			c0.7,1.94,1.51,3.88,2.2,5.81c-1.29-5.43-2.53-10.43-6.4-15.05c-0.21-0.1-0.43-0.16-0.59-0.27
			C110.22,210.59,111.51,213.87,112.75,217.2z M116.19,218.7c0-0.43-0.05-0.85-0.11-1.23c0,1.56-0.1,3.12-0.16,4.63
			c0.05,0.32,0.1,0.7,0.16,1.02C116.14,221.61,116.24,220.16,116.19,218.7z M119.31,221.5c-0.7,1.99-0.81,3.98-0.86,5.91
			c0.32-0.54,0.64-1.07,0.91-1.67c-0.05,0-0.05-0.05-0.05-0.1c-0.43-0.65-0.38-1.4-0.27-2.15c0.11-0.86,0.27-1.67,0.43-2.53
			C119.42,221.13,119.36,221.34,119.31,221.5z M121.67,216.45c0.32,1.56,0.16,3.39,0.1,4.94c0,0.49-0.7,0.49-0.7,0
			c0-1.23-0.1-2.63,0.06-3.92c-0.43,0.81-0.86,1.67-1.24,2.53c0.11,0,0.21,0.11,0.21,0.21c-0.1,0.86-0.16,1.72-0.27,2.64
			c-0.05,0.76-0.21,1.45-0.05,2.2c1.77-3.06,3.55-6.18,4.89-9.41c0,0,0-0.05-0.06-0.05c-0.21-1.4-0.38-2.8-0.43-4.19
			c-0.16,0.54-0.38,1.02-0.65,1.51C123.02,214.08,122.37,215.27,121.67,216.45z M126.56,202.31c-0.76,2.36-1.13,4.94-1.77,7.42
			c0.1,1.56,0.27,3.06,0.43,4.63c0.21-0.59,0.43-1.19,0.59-1.78c0.16-0.59,0.33-1.13,0.43-1.72c0-0.05,0.05-0.11,0.05-0.16
			c0.06-0.27,0.11-0.59,0.22-0.86c-0.06-0.05-0.11-0.11-0.11-0.21C126.19,207.1,126.45,204.68,126.56,202.31z M127.1,210.48
			c-0.21,1.03-0.48,2.1-0.81,3.12c0.06-0.05,0.06-0.05,0.11-0.11c0.32-0.32,0.65-0.64,0.91-0.96c0.7-0.81,1.34-1.67,1.94-2.58
			c1.02-1.72,1.77-3.6,2.53-5.48c-0.11-0.7-0.27-1.4-0.48-2.15C130.97,205.54,128.6,207.85,127.1,210.48z M131.89,206.02
			c0-0.27-0.06-0.48-0.06-0.76c-0.7,2.15-1.51,4.25-2.79,6.13c-0.65,0.92-1.99,3.11-3.23,3.55c-0.43,1.23-0.96,2.47-1.51,3.66
			c2.37-2.04,4.57-4.19,6.45-6.72c0.16-0.21,0.54,0,0.38,0.21c-2.15,2.91-4.62,5.7-7.47,7.85c-0.38,0.7-0.76,1.45-1.13,2.15
			c2.64-1.72,5.43-3.71,7.26-6.13c0.05-0.05,0.11-0.05,0.16-0.05C131.34,212.85,132.05,209.41,131.89,206.02z M129.36,217.09
			c-1.83,2.42-4.84,4.41-7.36,6.07c-0.16,0.32-0.32,0.59-0.54,0.91c0.49-0.16,0.92-0.38,1.4-0.59c0.81-0.38,1.51-0.86,2.26-1.34
			c0.06-0.05,0.16,0,0.22,0.05C126.83,220.64,128.23,219.03,129.36,217.09z M124.25,223.17c-0.96,0.7-2.09,1.4-3.22,1.67
			c-0.7,1.18-1.34,2.36-2.04,3.55C120.6,226.5,122.42,224.83,124.25,223.17z M116.3,226.55c0.05,0.11,0.05,0.21,0.1,0.32
			C116.4,226.77,116.4,226.6,116.3,226.55C116.35,226.5,116.35,226.5,116.3,226.55z M114.73,216.98c0,0.06-0.05,0.11-0.1,0.16
			c0.27,0.86,0.54,1.72,0.76,2.58c-0.11-1.72-0.22-3.44-0.16-5.11c-0.43-0.96-0.97-1.88-1.61-2.74
			C114.2,213.55,114.63,215.32,114.73,216.98z M109.95,208.66c1.67,1.93,3.01,4.19,3.98,6.61c-0.43-1.56-0.92-3.06-1.4-4.63
			C111.78,209.89,110.92,209.24,109.95,208.66z M75.07,226.34c-0.86-0.11-1.72-0.16-2.58-0.21c2.64,2.31,5.43,4.73,7.2,7.74
			c0.06,0.05,0.06,0.1,0.06,0.16c0.64,0.05,1.23,0.1,1.88,0.16c-1.45-3.17-3.55-5.86-6.51-7.8
			C75.13,226.39,75.07,226.39,75.07,226.34z M74.21,233.01c1.51,0.38,3.01,0.64,4.57,0.86c-2.31-2.64-4.57-5.27-7.04-7.8
			c-1.23,0-2.47,0.11-3.71,0.22c1.18,0.75,2.2,1.66,3.22,2.58c1.45,1.23,2.9,2.42,4.35,3.6c0.27,0.22,0,0.7-0.32,0.59
			c-1.45-0.48-2.53-1.78-3.6-2.8c-1.4-1.23-2.85-2.9-4.41-3.87c-1.23,0.16-2.53,0.38-3.71,0.59c1.29,0.65,2.31,1.4,3.44,2.26
			c1.13,0.86,2.42,1.61,3.55,2.47C71.69,232.3,72.92,232.68,74.21,233.01z M62.98,228.65c1.34,0.59,2.74,1.23,4.08,1.83
			c-1.23-1.08-2.42-2.26-3.82-3.07c-0.1-0.05-0.1-0.16-0.05-0.27c-0.65,0.11-1.23,0.27-1.88,0.38c0.05,0.05,0.16,0.11,0.21,0.16
			C62.01,227.95,62.49,228.27,62.98,228.65z M63.3,230.1c-1.29-0.65-2.47-1.4-3.44-2.26c-0.05-0.05-0.05-0.05-0.05-0.11
			c-3.92-2.58-7.96-5.05-11.99-7.53c0.32,6.02,5.97,10.27,10.76,13.22c2.42,1.51,4.94,2.1,7.58,2.42
			c-7.1-3.28-13.17-8.71-18.11-14.57c-0.16-0.16,0.1-0.43,0.27-0.27c6.02,6.72,13.33,11.13,21.18,15.16
			c0.59,0.06,1.19,0.16,1.78,0.22c-0.43-0.27-0.81-0.59-1.18-0.97C67.87,233.7,65.67,231.82,63.3,230.1z M63.79,184.95
			C63.79,184.95,63.79,185.01,63.79,184.95C63.79,185.01,63.79,185.01,63.79,184.95C63.79,185.01,63.79,185.01,63.79,184.95z
			 M43.04,184.9c-0.54,0.11-1.07,0.22-1.56,0.38c-0.16,1.13-0.65,2.31-1.07,3.44C41.37,187.58,42.18,186.3,43.04,184.9z
			 M39.6,189.52c0.38-1.4,0.75-2.85,1.4-4.08c-0.54,0.16-1.02,0.38-1.51,0.59c-0.86,1.78-1.61,3.66-2.69,5.27
			C37.88,190.81,38.79,190.22,39.6,189.52z M32.29,192.26c1.51-1.23,2.58-2.69,3.55-4.3c-0.59,0.32-1.23,0.7-1.88,1.02
			c-0.16,0.1-0.38,0.16-0.54,0.27c-0.22,0.59-0.81,1.13-1.18,1.61c-0.43,0.54-0.97,1.02-1.45,1.45
			C31.27,192.32,31.75,192.32,32.29,192.26z M32.72,188.44c-0.43-0.1-0.86-0.27-1.29-0.38c-0.92-0.21-1.88-0.38-2.8-0.48
			c-0.27,0.27-0.59,0.59-0.86,0.86c0.65,0.27,1.29,0.54,1.99,0.76c0.32,0.11,0.65,0.16,1.02,0.27
			C31.43,189.09,32.07,188.77,32.72,188.44z M32.18,189.84C32.13,189.84,32.13,189.84,32.18,189.84
			C32.13,189.9,32.13,189.9,32.18,189.84C32.13,189.9,32.18,189.84,32.18,189.84z M26.7,189.41c0.43,0.22,0.86,0.43,1.34,0.59
			c0.27,0.1,0.54,0.1,0.86,0.16c0.32-0.11,0.65-0.27,0.97-0.43c-0.16-0.05-0.27-0.1-0.38-0.16c-0.7-0.27-1.34-0.54-1.99-0.91
			C27.18,188.98,26.97,189.2,26.7,189.41z M23.31,192.16c1.4,0,2.85,0.1,4.24,0.16c0-0.06,0-0.11,0.05-0.11
			c0.38-0.38,0.86-0.7,1.29-1.02c0.05-0.06,0.16-0.11,0.27-0.21c-1.23,0.38-2.52,0.7-3.81,0.91c-0.27,0.05-0.38-0.32-0.11-0.43
			c0.92-0.27,1.83-0.59,2.69-0.91c-0.59-0.21-1.13-0.54-1.56-0.81C25.46,190.65,24.44,191.51,23.31,192.16z M30.08,192.37
			c0.65-0.59,1.23-1.24,1.72-1.94c0-0.05,0.05-0.05,0.05-0.1c-0.21,0-0.43,0-0.64-0.06c-0.27,0.11-0.48,0.22-0.76,0.27
			c0,0.05,0,0.05,0,0.11c-0.21,0.43-0.75,0.7-1.13,0.96c-0.38,0.27-0.76,0.54-1.18,0.76C28.85,192.32,29.44,192.37,30.08,192.37z
			 M29.11,187.1c0.76,0,1.51,0.11,2.31,0.27c0.7,0.16,1.51,0.27,2.1,0.65c0.43-0.21,0.85-0.48,1.29-0.76
			c-0.59-0.27-1.23-0.54-1.88-0.75s-1.56-0.59-2.31-0.7C30.14,186.19,29.6,186.62,29.11,187.1z M33.09,184.36
			c-0.59,0.27-1.18,0.54-1.72,0.92c0.48,0.05,0.97,0.27,1.4,0.38c0.97,0.27,1.94,0.65,2.85,1.07c0.32-0.21,0.65-0.38,0.97-0.59
			c0.21-0.11,0.43-0.27,0.64-0.38c-0.27-0.16-0.59-0.32-0.91-0.48c-0.86-0.43-1.83-0.76-2.74-0.97c-0.05,0-0.05-0.05-0.11-0.05
			C33.36,184.31,33.26,184.31,33.09,184.36z M35.99,191.51c1.13-1.56,1.61-3.44,2.58-5.1c-0.59,0.32-1.23,0.64-1.82,0.96
			c-0.7,1.88-2.1,3.49-3.66,4.73c0.86-0.1,1.67-0.27,2.53-0.48C35.78,191.61,35.89,191.56,35.99,191.51z M34.6,183.98
			c1.18,0.21,2.53,0.59,3.49,1.29c0.75-0.43,1.51-0.81,2.31-1.08C38.52,184.04,36.53,183.66,34.6,183.98z M26.27,183.55
			c-1.45-0.21-2.74-0.27-4.14-0.1c-0.59,1.93-2.04,3.65-3.66,5.1C21.21,187.21,23.53,185.01,26.27,183.55z M16.54,189.31
			c0.11-0.06,0.27-0.11,0.38-0.11c0.75-0.7,1.51-1.45,2.2-2.2c0.91-1.08,1.56-2.26,2.31-3.39c-0.7,0.11-1.4,0.32-2.15,0.59
			c-0.22,0.06-0.43,0.16-0.7,0.21v0.06c-1.02,2.42-3.33,4.08-5.54,5.54C14.23,189.84,15.41,189.63,16.54,189.31z M8.26,189.63
			c1.24,0.32,2.53,0.48,3.77,0.43c1.07-0.75,2.09-1.56,3.06-2.36c1.07-0.91,1.88-1.94,2.74-3.01c-1.51,0.54-2.95,1.02-4.52,1.45
			c-1.34,1.61-3.39,2.79-5.38,3.44C8.05,189.52,8.16,189.57,8.26,189.63z M1.54,184.84c0.05-0.16,0.21-0.32,0.43-0.21
			c1.51,0.7,3.01,1.07,4.57,1.18c-0.16-0.11-0.32-0.21-0.48-0.32c-0.48-0.32-0.86-0.65-1.23-1.08c-0.06-0.05-0.06-0.16,0-0.21
			c-1.4,0.11-2.91,0-4.41-0.43C0.79,184.15,1.17,184.47,1.54,184.84z M3.96,186.62c0.7,0.1,1.4,0.05,2.09-0.06
			c-1.34-0.21-2.69-0.59-3.97-1.23c0.54,0.54,1.07,1.02,1.66,1.51C3.69,186.72,3.8,186.62,3.96,186.62z M10.2,182.75
			c-0.86,0.38-1.72,0.7-2.58,0.91c0.48,0.43,0.96,0.86,1.5,1.18c0.48,0.32,1.08,0.43,1.61,0.7c0.7-0.1,1.4-0.27,2.09-0.43
			c-0.32-0.11-0.59-0.22-0.8-0.32c-0.81-0.38-1.45-1.02-1.78-1.83C10.14,182.91,10.14,182.8,10.2,182.75z M7.62,185.81
			c0.54,0,1.13,0,1.66-0.06c-0.86-0.48-1.61-1.23-2.09-1.88c0,0,0-0.05-0.06-0.05c-0.7,0.16-1.4,0.32-2.15,0.38
			c0.43,0.32,0.86,0.65,1.34,0.92c0.38,0.21,0.86,0.32,1.23,0.59C7.62,185.76,7.62,185.81,7.62,185.81z M7.29,189.25
			c1.13-0.38,2.21-0.81,3.23-1.45c0.7-0.43,1.29-0.97,1.88-1.51c-0.06,0-0.06,0-0.11,0c-1.51,0.32-3.01,0.43-4.52,0.43
			c-1.18,0.54-2.42,0.65-3.71,0.43C5.04,188.02,6.11,188.77,7.29,189.25z M10.46,182.64c0.06,0,0.11,0.05,0.11,0.11
			c0.43,0.8,1.18,1.34,2.09,1.61c0.48,0.16,1.13,0.21,1.61,0.38c0.59-0.16,1.23-0.38,1.83-0.59c-0.38-0.16-0.7-0.38-0.97-0.54
			c-0.86-0.59-1.56-1.4-2.2-2.15c-0.27,0.11-0.48,0.21-0.75,0.38C11.59,182.1,11.06,182.38,10.46,182.64z M19.39,182.96
			c-1.18-0.43-2.2-1.61-2.79-2.69c-1.02,0.16-2.1,0.48-3.22,0.97c0.59,0.64,1.18,1.29,1.93,1.77c0.59,0.43,1.23,0.54,1.88,0.76
			c0.22-0.11,0.48-0.16,0.7-0.27C18.36,183.34,18.91,183.13,19.39,182.96z M17.13,180.17c0.32,0.43,0.65,0.81,1.07,1.18
			c0.59,0.54,1.34,0.76,1.99,1.24c0.06,0,0.06,0.05,0.11,0.1c0.81-0.27,1.61-0.48,2.47-0.65c-0.22-0.27-0.32-0.64-0.49-0.86
			c-0.16-0.27-0.38-0.54-0.64-0.81C20.09,180.01,18.64,179.95,17.13,180.17z M27.82,182.85c-1.77-0.97-3.49-1.77-5.16-2.26
			c0.27,0.32,0.65,0.86,0.75,1.29c1.56-0.16,3.01,0.06,4.19,1.03C27.72,182.91,27.77,182.85,27.82,182.85z M50.94,175.97
			c0-0.1-0.05-0.21,0-0.38c0.16-0.91,0.27-1.83,0.32-2.74c-0.05,0.11-0.16,0.21-0.32,0.21c-1.99,0.21-4.14-0.21-6.13-0.86
			C46.58,174.36,48.68,175.97,50.94,175.97z M42.34,170.97c-0.54-0.8-0.97-1.61-1.29-2.31c-0.27-0.54-0.48-1.07-0.7-1.61
			c0,0-0.05,0-0.05-0.05c-0.43-0.38-0.86-0.75-1.29-1.13c1.07,2.8,1.94,5.54,1.18,8.55c0.65,0.75,1.23,1.61,1.78,2.47
			c0.38-0.97,0.38-2.31,0.43-3.23C42.39,172.75,42.39,171.89,42.34,170.97z M40.83,177.91c-0.21-0.32-0.38-0.65-0.59-0.91
			c-0.59,0.38-1.51,0.48-2.21,0.64c-1.77,0.48-3.55,0.92-5.27,1.29C35.51,179.79,38.41,179.79,40.83,177.91z M25.68,175.49
			c1.88,1.23,4.14,2.52,6.45,3.33c1.24-0.43,2.42-0.81,3.66-1.18c0.75-0.27,2.95-0.54,3.97-1.23c-0.48-0.7-1.02-1.34-1.56-1.94
			c-3.97,1.08-8.54,1.78-12.73,0.92C25.57,175.39,25.63,175.44,25.68,175.49z M20.63,171.24c2.2,0,4.35-0.65,6.56-0.54
			c2.53,0.05,5.1,0.16,7.63,0.43c-0.91-0.8-1.93-1.51-2.96-2.26c-3.28-0.1-6.55,0.27-9.83,0c-1.67-0.1-3.98-0.1-5.38-1.18
			C17.72,169.31,19.17,169.96,20.63,171.24z M16.27,167.05c0.05-0.05,0.1-0.05,0.21,0c3.87,2.36,9.52,0.81,14.08,0.92
			c-1.4-0.92-2.85-1.83-4.35-2.8c0,0.05,0,0.05-0.05,0.11c-1.34,1.07-3.28,0.86-4.95,0.81c-2.09-0.06-4.03-0.43-6.02-0.97
			C15.52,165.76,15.9,166.41,16.27,167.05z M8.31,151.79c0.81,0.92,1.45,1.94,2.05,3.01c0.05-0.1,0.1-0.16,0.21-0.16
			c0.54,0,1.07,0.11,1.67,0.16c-0.27-0.21-0.54-0.43-0.81-0.64c-0.27-0.22,0.11-0.65,0.38-0.48c0.76,0.43,1.45,0.96,2.15,1.51
			c0.05,0,0.05,0.05,0.11,0.05c0.05,0,0.05,0.05,0.1,0.11c0.54,0.43,1.02,0.85,1.51,1.29c-0.65-1.56-1.18-3.28-2.2-4.52
			c-0.16,0-0.38-0.05-0.54-0.05C11.32,151.84,9.71,152.27,8.31,151.79z M17.78,152.92c0.97,2.47,1.99,4.89,3.06,7.31
			c0.05,0.11,0.05,0.22,0,0.33c0.97,0.64,1.99,1.23,3.01,1.82c-0.76-2.69-1.51-5.43-2.26-8.17
			C20.35,153.72,19.06,153.29,17.78,152.92z M12.19,158.94c0.32,0.81,0.7,1.61,1.07,2.42c2.8,0.48,5.75,1.08,8.6,1.02
			c-1.23-0.81-2.42-1.66-3.6-2.53c-0.06,0-0.06,0.06-0.11,0c-1.02-0.05-1.99-0.38-3.01-0.54C14.17,159.26,13.15,159.1,12.19,158.94z
			 M16.81,157.54c1.02,0.86,2.04,1.72,3.12,2.47c-1.02-2.36-1.94-4.78-2.74-7.26c-1.02-0.27-2.04-0.48-3.06-0.65
			c0.38,0.59,0.65,1.24,0.97,1.89c0.54,1.18,1.18,2.31,1.72,3.49V157.54z M12.4,155.44c-0.65-0.1-1.29-0.21-1.94-0.38
			c0.43,0.91,0.86,1.83,1.24,2.74c0.1,0.22,0.16,0.43,0.27,0.59c0.92,0.05,1.83,0.16,2.8,0.32c0.81,0.16,1.72,0.21,2.58,0.38
			c-1.45-1.13-2.74-2.36-4.14-3.55C12.94,155.55,12.67,155.5,12.4,155.44z M14.82,164.53c3.66,0.76,7.26,0.76,10.96,0.38
			c-0.91-0.59-1.88-1.19-2.79-1.78c-1.18,0.43-2.36,0.21-3.66-0.05c-1.99-0.38-3.92-0.92-5.86-1.29
			C13.91,162.7,14.33,163.61,14.82,164.53z M22.29,154.53c1.08,2.58,1.89,5.43,2.26,8.11c0,0.05,0,0.11,0,0.16
			c0.97,0.54,1.88,1.07,2.85,1.67c-0.59-2.96-1.4-5.86-2.42-8.71c-0.38-0.16-0.69-0.32-1.07-0.48
			C23.36,154.96,22.83,154.74,22.29,154.53z M25.57,155.98c1.13,2.9,2.04,5.86,2.64,8.93c0.16,0.1,0.38,0.21,0.54,0.32
			c1.23,0.76,2.42,1.51,3.6,2.26c-0.43-1.67-1.34-3.07-1.99-4.73c-0.69-1.78-0.96-3.66-1.98-5.22
			C27.51,157,26.54,156.52,25.57,155.98z M37.18,171.24c-0.43-1.77-1.02-3.33-1.83-5.05c-0.81-1.61-1.45-3.22-1.82-5
			c-1.45-1.13-2.91-2.2-4.46-3.17c0.75,1.23,1.13,2.58,1.67,3.97c0.75,2.04,2.42,3.87,2.47,6.13
			C34.6,169.09,35.94,170.12,37.18,171.24z M24.66,174.74c2.42,0.48,5.05,0.05,7.47,0c1.88-0.05,3.66-0.81,5.48-0.97
			c-0.65-0.7-1.29-1.34-1.99-1.93c-0.05,0.05-0.16,0.1-0.27,0.1c-2.74,0-5.48-0.32-8.28-0.48c-2.04-0.16-4.03,0.27-6.07,0.21
			C22.29,172.75,23.42,173.82,24.66,174.74z M39.44,169.09c-0.27-1.29-0.7-2.53-1.13-3.81c-1.4-1.24-2.8-2.47-4.19-3.6
			c1.07,3.44,4.19,6.72,3.92,10.43c0.48,0.48,0.97,0.97,1.4,1.51C39.6,172.1,39.81,170.66,39.44,169.09z M40.46,164.69
			c0.1,0.32,0.27,0.65,0.43,1.02c3.22,1.02,6.34,1.89,9.62,2.64c0.06-0.16,0.06-0.32,0.06-0.54c-0.21-0.7-0.48-1.4-0.81-2.05
			c-0.65-0.27-1.18-0.59-1.83-0.85c-0.97-0.43-1.99-0.7-3.01-1.08c-1.72-0.7-3.39-1.61-4.94-2.64c-0.32-0.21,0-0.7,0.27-0.48
			c1.72,1.07,3.54,1.98,5.54,2.63c1.18,0.38,2.26,0.91,3.38,1.34c-0.16-0.27-0.32-0.59-0.54-0.86c-0.1,0-0.16-0.05-0.21-0.16
			c-0.05-0.1-0.11-0.27-0.16-0.38c-0.16-0.21-0.32-0.48-0.48-0.7c-0.32-0.43-0.64-0.86-0.91-1.24c-0.11,0.06-0.22,0.11-0.32,0.11
			c-3.44-0.54-5.97-3.12-8.92-4.68C38.47,159.47,39.49,162.11,40.46,164.69z M38.84,153.24c1.72,1.13,3.6,1.94,5.16,3.28
			c-0.43-0.92-0.81-1.94-1.13-3.01C41.59,153.67,40.19,153.61,38.84,153.24z M45.4,153.03c-0.7,0.21-1.4,0.38-2.04,0.48
			c0.7,1.61,1.34,3.06,2.15,4.41c0.05-1.29,0.21-2.64,0.43-3.92C45.72,153.72,45.56,153.4,45.4,153.03z M37.56,156.14
			c3.11,1.24,5.59,3.55,8.81,4.41c-0.27-0.38-0.54-0.81-0.81-1.18c-0.05-0.06-0.11-0.11-0.11-0.22c-0.43-0.65-0.8-1.34-1.13-2.04
			c-0.11,0.16-0.27,0.27-0.48,0.16c-2.2-1.4-4.78-2.74-6.67-4.62c-0.16-0.06-0.32-0.16-0.48-0.22
			C36.91,153.67,37.18,154.91,37.56,156.14C37.5,156.14,37.5,156.14,37.56,156.14z M46.21,154.42c-0.11,1.51-0.16,2.96-0.21,4.46
			c0.54,0.81,1.13,1.67,1.77,2.47l0.05,0.06c-0.32-1.83-0.21-3.71,0.06-5.48c0-0.05,0.05-0.11,0.1-0.11
			c-0.21-0.16-0.43-0.27-0.59-0.43C46.96,155.07,46.53,154.74,46.21,154.42z M51.31,158.13c-0.16,3.01,0.54,6.13,0.11,9.14
			c0.43,1.18,0.7,2.36,0.91,3.6c1.24-2.9,1.29-6.56,1.56-9.68c-0.06-0.1-0.11-0.21-0.16-0.27
			C53.04,159.74,52.23,158.88,51.31,158.13z M55.35,167.48c-0.43-1.99-0.33-3.71-1.03-5.48c-0.16,2.15-0.27,4.35-0.54,6.51
			c-0.16,1.34-0.48,2.69-1.29,3.76c0.06,1.13,0,2.26-0.1,3.39c0.05,0,0.16-0.06,0.21-0.06c1.18-2.26,3.17-4.63,2.9-7.26
			c0-0.11,0.06-0.16,0.11-0.21C55.51,167.91,55.4,167.75,55.35,167.48z M56.15,169.2c-0.05-0.16-0.11-0.27-0.16-0.38
			c0.05,1.99-0.97,4.52-2.2,6.23C55.72,173.93,56.74,171.46,56.15,169.2z M50.56,165.22C50.61,165.22,50.61,165.22,50.56,165.22
			c0.1,0.06,0.16,0.11,0.21,0.16c0.11-2.47-0.05-4.99,0.16-7.52c-0.86-0.65-1.78-1.24-2.69-1.89c-0.21,2.31,0.22,4.46,0.65,6.72
			C49.54,163.51,50.08,164.31,50.56,165.22z M44.22,171.52c2.2,0.54,4.41,0.65,6.72,0.91c0.16,0,0.27,0.11,0.32,0.21
			c0-1.23-0.1-2.47-0.38-3.65h-0.06c-3.28-0.05-6.66-1.4-9.67-2.69C41.91,167.97,42.98,169.85,44.22,171.52z M139.57,97.77
			c1.56-0.21,2.64-0.7,3.44-1.56c-0.48-0.38-0.97-0.81-1.34-1.18c-0.92-0.86-1.67-1.88-2.42-2.91c-0.16-0.27,0.22-0.59,0.43-0.32
			c0.75,0.91,1.67,1.66,2.58,2.42c0.43,0.32,1.02,0.65,1.51,1.02c0.32-0.54,0.65-1.23,0.92-1.99c0.54-1.45,0.91-3.01,1.34-4.46
			c0.1-0.38,0.21-0.76,0.32-1.13c-0.7,0.05-1.34-0.65-1.99-1.08c-1.24-0.75-2.53-1.29-3.93-1.66c-0.38-0.11-0.21-0.59,0.16-0.54
			c2.1,0.32,4.35,1.07,6.02,2.47c0.32-1.02,0.65-2.04,0.97-3.06c0.32-0.91,1.02-2.64,0.81-3.49c-0.27-0.97-1.78-2.63-2.9-3.17
			c-0.54,0.32-1.24-0.38-0.92-0.96c0.65-1.18,1.29-1.78,1.45-3.07c-2.15,0.81-4.46,1.18-6.67,1.72c-0.32,0.1-0.48-0.43-0.16-0.54
			c2.31-0.7,4.57-1.45,6.83-2.2c-0.11-0.91-0.7-1.29-1.34-2.2c-0.92-1.23-1.34-2.58-1.4-4.14c0-0.43,0.7-0.54,0.76-0.11
			c0.27,1.56,0.91,2.58,1.77,3.66c0.16-0.43,0.43-0.86,0.48-1.34c0.22-1.29-0.38-1.78-0.75-2.74c-0.43-1.13-0.54-2.15-1.78-2.69
			c-0.32-0.11-0.65-0.22-1.02-0.27c0.32,0.32,0.54,0.75,0.7,1.23c0.16,0.48-0.54,0.97-0.91,0.54c-3.01-3.76-9.19,1.24-11.98,2.8
			c-3.12,1.72-7.15,1.93-9.57,4.52c-0.06,0.16-0.11,0.32-0.16,0.54c-0.05,0.21-0.27,0.32-0.48,0.27c-0.16,0.21-0.32,0.48-0.43,0.75
			c-0.05,0.11-0.1,0.16-0.21,0.16c-0.54,1.45-1.23,2.85-2.15,4.19c-0.27,0.43-0.59,0.86-0.91,1.23c1.13-0.64,2.26-1.18,3.39-1.67
			c4.08-1.66,8.65-2.26,11.77-5.64c0.11-0.16,0.32,0.05,0.21,0.21c-2.26,2.58-5.21,3.82-8.33,5.05c-3.77,1.45-6.78,3.17-9.73,5.48
			c3.01-1.18,6.23-1.78,9.46-1.67c2.9,0.11,5.54,0.54,8.39,0c2.8-0.54,5.54-1.4,8.22-2.31c0.11-0.05,0.21,0.16,0.11,0.21
			c-4.09,1.78-8.55,3.66-13.12,3.39c-4.94-0.27-9.08,0.05-13.38,1.77c2.79-0.59,5.65-0.59,8.55-0.27c4.03,0.43,8.17,1.02,11.88,2.69
			c0.16,0.05,0.06,0.38-0.1,0.32c-1.99-0.75-4.09-1.13-6.23-1.4c2.26,0.97,4.03,2.69,5.59,4.52c0.81,0.97,1.72,1.94,2.36,3.01
			c0.91,1.51,1.07,3.66,2.74,4.68c0.65,0.38,0.22,1.4-0.48,1.18c-1.88-0.54-2.31-1.78-2.95-3.49c-2.26,1.61-2.85,4.84-5.43,6.02
			c-1.77,0.8-4.41,0-6.18-0.43c-2.26-0.59-3.12-1.93-3.92-3.98c-0.7-1.77-1.29-3.6-2.05-5.38c-1.13-2.63-1.88-3.86-4.62-4.57
			c-0.27-0.05-0.38-0.27-0.43-0.43c-1.23,0.32-2.36,0.65-3.49,1.02c-0.05,0-0.16,0-0.21,0c-0.21,0.16-0.38,0.32-0.59,0.48
			c-1.56,1.18-4.08,2.95-6.13,2.31c-0.48,0.59-1.18,1.02-1.72,1.51c-0.7,0.7-1.51,1.4-2.47,1.72c-0.1,0.05-0.16,0.05-0.27,0.05
			c-0.7,2.2-2.69,3.77-3.28,6.02c-0.65,2.42-0.16,4.35-1.77,6.5c-1.03,1.34-2.37,2.47-3.77,3.39c-0.75,0.48-1.45,0.8-2.2,0.96
			c-0.11,0.11-0.27,0.22-0.48,0.22c-3.55,0.38-6.88,1.83-10.43,1.99c-0.65,0.05-1.29,0.05-1.99,0c3.6,1.4,7.2,2.84,10.27,4.99
			c0.21,0.16,0.05,0.48-0.22,0.38c-4.68-2.58-10.16-3.49-14.72-6.24c-0.65-0.21-1.24-0.43-1.83-0.75c-0.06,0-0.06-0.05-0.11-0.11
			c-0.21,0-0.43,0-0.65,0c-1.07-0.1-2.2-0.43-3.17-0.91c5.48,4.62,10.75,9.46,17.31,12.63c0.27,0.1,0.06,0.54-0.21,0.38
			c-7.2-3.28-13.65-8.17-19.46-13.6c0.76,4.25,5.11,7.9,8.49,10c0.21,0.1,0,0.43-0.16,0.32c-3.49-1.83-7.95-4.89-9.19-8.98
			c-0.16,0.48-0.38,0.92-0.75,1.24c0,0.05-0.06,0.05-0.06,0.1c0.11,0.06,0.16,0.16,0.22,0.32c1.07,3.33,3.01,5.86,5.8,7.9
			c1.61,1.18,3.66,2.1,4.52,3.98c0.54,1.23,0.54,2.31,1.34,3.55c0.54,0.86,1.18,1.56,1.56,2.53c0.48,1.23,0.48,2.58,0.21,3.87
			c0.11,0,0.17,0.05,0.27,0.11c3.39,2.31,7.74,3.44,11.77,2.2c0.32-0.11,0.65-0.22,0.97-0.38c-1.67-0.43-3.11-1.77-4.46-2.84
			c-1.78-1.34-3.77-2.69-4.9-4.63c-0.16-0.27,0.21-0.48,0.43-0.27c1.29,1.67,3.28,2.85,5,4.08c1.5,1.13,3.01,2.53,4.89,2.9
			c0.05,0,0.1,0.06,0.16,0.06c2.31-1.56,4.35-4.19,6.18-6.03c0.97-0.96,1.83-1.72,2.47-2.63c-1.34-0.54-2.53-1.4-3.76-2.15
			c-1.94-1.18-3.98-1.88-6.18-2.42c-0.21-0.06-0.11-0.38,0.11-0.32c1.88,0.43,3.76,0.8,5.54,1.67c1.61,0.75,3.17,1.67,4.78,2.47
			c0.38-0.81,0.59-1.72,0.54-2.96c-0.05-1.4-0.43-2.74-0.38-4.19c0-0.22,0-0.43,0.05-0.65c-1.72-0.81-3.49-1.61-5.27-2.42
			c-0.27-0.11-0.05-0.48,0.21-0.43c1.78,0.32,3.6,0.97,5.16,1.93c0.16-1.5,0.43-3.11,0.05-4.51c-0.97-3.55-4.41-2.9-7.04-1.99
			c-0.38,0.11-0.59-0.43-0.27-0.65c3.06-1.67,6.93-2.04,8.39,1.45c0.75-2.58,2.2-5,3.33-7.36c0.16-0.27,0.48-0.21,0.59,0
			c0.16-0.05,0.27,0,0.32,0.16v0.05c0.11,0.06,0.16,0.11,0.16,0.21c0,0.11,0,0.16,0,0.27c0.8,2.64,1.99,4.84,2.47,7.47
			c0.05,0,0.16,0,0.1,0.1c0,0.06-0.05,0.16-0.05,0.21c0.05,0.38,0.11,0.76,0.16,1.13c0.21,2.9,0,5.21-0.7,7.85
			c0.05,0.05,0.05,0.11,0,0.16c-0.06,0.05-0.06,0.11-0.11,0.16c-0.11,0.38-0.21,0.75-0.32,1.13c-1.77,5.75-1.61,11.23-6.72,15.05
			c-0.16,0.54-0.27,1.02-0.38,1.56c1.02-1.02,2.09-1.99,2.96-3.17c1.77-2.26,3.22-4.84,4.72-7.31c-0.43-0.05-0.38-0.65-0.05-0.81
			c0-0.1,0-0.21,0.11-0.32c3.28-5.05,4.24-11.55,8.71-15.8c3.98-3.76,9.24-5.32,14.4-6.72l0.06-0.05c0.05-0.05,0.1-0.05,0.1,0
			c0.38-0.11,0.7-0.21,1.08-0.32c0.1-0.05,0.16,0.16,0.05,0.21c-0.32,0.11-0.7,0.22-1.02,0.32l-0.05,0.06
			c-1.78,1.07-2.8,2.79-3.87,4.51c-0.54,0.86-1.13,1.78-1.67,2.64c4.03-3.01,8.33-5.59,12.84-7.85c0.16-0.05,0.27,0.17,0.16,0.22
			c-3.71,2.04-7.26,4.3-10.64,6.82c2.47-0.81,5.05-1.07,7.69-0.75c1.34-2.2,2.2-4.57,3.92-6.51c-1.94-0.43-4.08-0.43-5.97,0.21
			c-0.05,0-0.05-0.05,0-0.05c2.1-0.81,4.09-1.02,6.24-0.48h0.05c0.05-0.05,0.05-0.05,0.1-0.1c0.22-0.22,0.48,0.1,0.32,0.32
			c-2.36,2.91-3.6,6.51-5.96,9.41c-2.2,2.74-4.84,5.81-7.64,7.96c-5.05,3.92-11.23,7.85-17.79,7.26c0,0,0,0,0,0.05
			c-1.4,2.31-2.64,4.79-4.19,6.99c-1.4,1.93-3.33,3.28-4.89,4.99c-1.24,1.4-2.15,2.91-2.91,4.52c3.33-1.98,7.58-2.26,10.8-4.62
			c0.06-0.11,0.11-0.16,0.22-0.16c0.11-0.05,0.16-0.16,0.27-0.21c-0.06-0.11-0.11-0.21-0.06-0.38c2.47-6.82,8.55-11.5,15.38-13.49
			c0.38-0.1,0.75-0.21,1.07-0.32c0.05-0.05,0.11-0.11,0.16-0.16c0.11-0.1,0.21-0.05,0.32,0c3.66-0.91,7.42-1.51,11.13-1.83
			c4.95-0.43,10.75-0.16,14.78-3.6c0.05,0,0.05-0.05,0.11-0.05c0.05-0.06,0.1-0.16,0.21-0.22c0.16-0.16,0.43,0.11,0.27,0.27
			c-3.17,3.76-3.55,8.87-6.78,12.58c-1.4,1.61-3.06,3.28-4.89,4.46c-2.09,1.29-4.52,1.45-6.72,2.58c-1.93,1.02-3.55,2.36-5.64,3.17
			c-2.15,0.81-4.41,1.23-6.72,1.4c-0.81,0.05-1.61,0.1-2.47,0.16c0,0,0,0.05-0.05,0.05c-3.28,4.3-5.11,9.35-9.84,12.31
			c-2.31,1.45-5.1,3.12-7.9,3.39c-2.69,0.21-5.21-0.86-7.9-0.16c-0.11,0.27-0.38,0.38-0.65,0.32c-0.38,1.07-0.75,2.15-1.13,3.17
			c-0.22,0.65-0.38,1.51-0.76,2.15c0.86,0.38,1.67,0.81,2.42,1.45c1.4,1.13,2.21,2.42,2.8,3.82c0.11,0,0.16,0.1,0.16,0.21
			c0,0.1,0,0.21,0.05,0.32c0.38,1.02,0.76,2.09,1.13,3.22c0.7,1.99,2.04,3.39,2.8,5.27c0.48,1.18,0.43,2.47,0.48,3.77
			c0.16,4.03,0.8,8.01,1.13,11.98c0.16-2.31,0.92-4.57,1.34-6.83c0.59-2.85,0-5.69,0.81-8.49c-0.32-0.11-0.48-0.48-0.27-0.76
			c-0.22-1.23,0.16-2.69,0.43-3.87c0.05-0.32,0.59-0.27,0.59,0.05c-0.06,0.97-0.11,1.94-0.16,2.91c0,0.05,0,0.1,0,0.16
			c0.43-0.38,0.86-0.76,1.29-1.13c0-1.56,0.54-3.12,0.81-4.68c0.32-2.04,0.43-4.08,0.43-6.18c-1.02,1.98-1.61,4.19-2.09,6.39
			c-0.16,0.76-1.29,0.43-1.13-0.32c1.29-6.4,4.25-10.97,10-14.14c2.9-1.61,5.86-3.28,8.92-4.57c2.96-1.23,5.38-0.64,8.33-0.75
			c0,0,0-0.05,0.05-0.05c0.27-0.48,1.13-0.16,0.91,0.38c-2.42,6.23-4.99,13.28-9.14,18.6c-2.04,2.58-4.68,4.62-7.42,6.45
			c-2.36,1.61-5,2.79-7.85,1.93c-0.27-0.05-0.21-0.48,0.06-0.48c5.1,0.17,10.21-3.55,13.7-7.68c0,0,0,0-0.05,0
			c-3.93,0.16-7.64,0.97-11.29,2.26c-0.27,0.32-0.59,0.65-0.86,0.91c-0.05,0.16-0.1,0.32-0.16,0.49c1.66-0.54,3.38-0.92,5.1-1.24
			c0.21-0.05,0.32,0.27,0.11,0.32c-2.26,0.48-4.41,1.23-6.56,2.04h-0.06c-0.86,0.81-1.72,1.61-2.58,2.42c0.16,0.16,0.1,0,0.43,0.06
			c0.27,0.05,0.32,0.05,0.54,0.27c0.21,0.27,0,0.59-0.33,0.54c-0.32-0.06-0.59,0.05-0.85,0.05c-0.54,2.47-0.22,4.84-0.59,7.26
			c-0.21,1.67-0.59,3.39-0.81,5.05c1.56-3.17,3.66-6.07,6.34-8.44c1.83-1.61,3.92-3.01,6.29-3.76c3.01-1.03,6.34-0.22,9.24-1.51
			c0.22-0.11,0.43,0.21,0.22,0.38c-1.61,0.81-3.22,0.97-4.95,1.13c-0.96,1.61-1.93,3.22-2.95,4.83c1.77-2.04,3.71-3.97,5.96-5.1
			c0.16-0.05,0.27,0.11,0.11,0.21c-2.31,1.24-3.92,3.55-5.59,5.54c1.93-1.13,3.81-2.26,5.7-3.44c0.05,0,0.05,0,0.05,0
			c0.48-1.13,1.07-2.26,1.93-3.22c0.27-0.32,0.65,0.1,0.43,0.43c-2.64,3.33-2.69,7.58-3.92,11.45c-0.86,2.64-2.31,4.52-4.52,6.18
			c-2.42,1.83-5.8,5.05-9.03,5.05c-2.2,0-4.14-1.18-5.65-2.74c-0.38,1.67-0.75,3.39-1.02,5.05c-0.38,2.53,0.16,4.89,0.48,7.42
			c0.48,3.6,1.18,8.28,0.32,11.82c-0.05,0.22-0.21,0.38-0.32,0.43c1.51,2.04,3.06,4.03,4.57,6.07c2.58,3.49,4.84,7.2,6.99,10.96
			c2.09,3.6,4.46,7.09,6.45,10.75c0.65,0.27,1.23,0.65,1.72,1.07c-0.43-4.24,0.32-8.49-0.11-12.79c-0.32-3.28-0.59-6.56-0.06-9.78
			c0,0,0,0,0-0.05c-0.05,0-0.05-0.05-0.1-0.05c-0.16,0-0.27,0-0.32-0.16c-3.49-7.64-4.68-16.83-9.94-23.6
			c-0.27-0.32,0.21-0.8,0.48-0.48l0.05,0.06c0.05-0.11,0.16-0.21,0.32-0.16c1.83,0.59,3.49,1.56,4.89,2.74
			c1.13,0.97,2.04,2.09,2.74,3.44c0.06,0,0.11,0.06,0.16,0.16c0,0.06,0,0.06,0,0.11c0.16,0.27,0.27,0.54,0.38,0.81
			c0.92,2.15,1.02,4.3,1.02,6.67c0,1.07,0.06,2.09,0.16,3.17c0.86-3.76,2.96-7.42,4.73-10.58c0.91-1.67,1.51-3.55,2.04-5.48
			c0-0.05,0-0.11,0.05-0.11c1.13-4.35,1.94-8.87,5.48-11.77c0.27-0.21,0.65,0.16,0.38,0.38c-1.72,1.45-2.74,3.28-3.44,5.27
			c0.11-0.06,0.27,0,0.27,0.16c0,1.61,0.11,3.22,0.11,4.78c0.38-1.83,0.75-3.6,1.23-5.38c-0.27-1.07-0.05-2.31,0.38-3.28
			c0.05-0.16,0.32-0.06,0.27,0.1c-0.16,0.65-0.21,1.24-0.16,1.78c0.32-0.92,0.7-1.78,1.13-2.64c0.11-0.16,0.38-0.05,0.32,0.11
			c-0.48,1.34-0.92,2.74-1.24,4.14v0.05c0,0.1,0,0.21-0.05,0.27c-0.54,2.21-0.97,4.46-1.4,6.72c1.56-2.15,3.33-4.19,3.49-6.98
			c0-0.11,0.06-0.11,0.11-0.16c-0.48-1.72-0.91-3.39-0.86-5.16c0-0.32,0.48-0.32,0.48,0c0.1,3.55,1.94,6.77,1.99,10.43
			c0.05,3.01-0.54,5.97-1.67,8.76c-2.64,6.45-8.82,9.68-12.42,15.38c0,0.05,0,0.1,0.05,0.16c0.11,0.43-0.27,0.7-0.59,0.7
			c-0.32,3.55,0.16,7.04,0.64,10.64c0.54,3.98,0.54,7.9,0.86,11.88c0.05,0.54-0.32,0.86-0.76,0.86c0.65,0.76,1.13,1.67,1.51,2.64
			c0.76,1.88,1.4,3.44,2.58,5.1c1.02,1.45,2.15,2.9,2.96,4.52c0.43,0.86-0.65,1.72-1.34,1.02c-4.08-3.98-5.7-9.14-8.6-13.76
			c-0.11,0-0.21-0.05-0.27-0.16c-1.93-1.72-3.49-3.82-4.83-6.02c0,0,0,0-0.06,0c-2.47-0.21-6.02-1.34-7.74-3.28
			c-0.16-0.16-0.16-0.38-0.1-0.59c0,0-0.06,0-0.06-0.05c-2.85-1.34-4.46-4.35-7.15-6.02c-0.22-0.16-0.22-0.43-0.06-0.59
			c-0.32-0.27-0.59-0.48-0.91-0.7c-0.05,0.27-0.38,0.48-0.65,0.32c-2.8-1.88-6.56,0.7-9.41,1.61c-2.15,0.7-3.87,0.65-6.02,0
			c-0.32-0.11-0.16-0.54,0.16-0.48c4.35,0.76,7.04-0.86,11.02-2.42c0.91-0.32,1.72-0.54,2.53-0.43c-1.45-0.75-2.9-1.45-4.19-2.42
			c-1.4-1.02-2.74-2.15-4.08-3.22c0.16,0.21,0.27,0.38,0.43,0.59c0.59,0.86,1.51,1.83,1.51,2.96c0,0.54-0.81,0.54-0.81,0
			c0-0.97-1.18-2.31-1.72-3.12c-0.32-0.54-0.7-1.07-1.07-1.56c-0.27-0.21-0.59-0.38-0.86-0.54c-1.67-0.97-3.44-1.61-5.27-1.94
			c2.85,1.89,5.11,4.41,6.4,7.58c0.11,0,0.22,0.06,0.27,0.11c0.05,0,0.16,0,0.21,0c1.18,0.05,2.31,0.05,3.44,0.11
			c0.16-0.11,0.32-0.22,0.54-0.27c0.27-0.11,0.54,0.11,0.48,0.38c0.96,0.11,1.93,0.27,2.85,0.65c0.16,0.05,0.1,0.27-0.05,0.21
			c-1.03-0.32-2.05-0.54-3.07-0.59c-2.15,1.88-4.78,3.11-7.53,3.87c-0.32,0.1-0.48-0.43-0.16-0.48c1.45-0.43,2.74-1.02,4.03-1.88
			c0.75-0.48,1.5-1.08,2.31-1.56c-1.02,0-2.04,0-3.11,0.06c-0.06,0.05-0.11,0.05-0.16,0.1c-2.74,1.13-5.65,1.83-8.6,1.51
			c-0.27-0.05-0.27-0.43,0-0.38c2.31,0.05,4.46-0.59,6.61-1.23c-1.78-0.11-3.49-0.38-5.27-0.7c0.1,0.1,0,0.38-0.16,0.43
			c-1.02,0.38-2.31,0.21-3.33,0.05c-0.54-0.05-1.56-0.05-1.61-0.8c0-0.11,0.11-0.11,0.16-0.06c0.48,0.48,1.88,0.32,2.58,0.27
			c0.54,0,1.13-0.05,1.66-0.05c-0.59-0.11-1.18-0.27-1.77-0.43c-1.78-0.48-3.77-1.02-5.75-1.72c0.27,0.21,0.48,0.38,0.75,0.59
			c2.47,2.1,4.41,4.19,7.69,5c0.43,0.11,0.32,0.76-0.11,0.76c-0.05,0-0.05,0-0.1,0c-0.06,0.05-0.11,0.05-0.22,0.05
			c-6.45-0.16-13.33-0.7-18.59-4.68c-4.52-3.44-9.3-7.58-9.41-13.76c0-0.38,0.48-0.43,0.64-0.16c4.52,1.78,8.82,4.79,12.9,7.53
			c0.06,0,0.06-0.05,0.11-0.05c6.18-1.51,13.33-2.96,19.4-0.27c0.48,0.21,0.97,0.48,1.45,0.76c0.05,0,0.16,0,0.21,0.05
			c0.05,0.05,0.05,0.05,0.11,0.11c2.36,1.4,4.35,3.28,6.61,4.89c2.47,1.77,5.59,2.69,7.79,4.83c0.32,0.27,0.16,0.65-0.16,0.81
			c2.79,1.88,4.67,5.05,8.11,5.86c1.4,0.32,2.74,0.43,4.08,0.76c-0.1-0.16-0.16-0.33-0.27-0.48c-2.21-3.71-4.41-7.47-6.94-10.97
			c-2.53-3.55-5.27-6.88-7.74-10.48c-1.34-1.99-2.42-4.14-3.44-6.29c-0.06-0.06-0.06-0.06-0.11-0.11c-0.96-1.18-1.77-2.53-2.53-3.98
			c-0.16,0-0.27-0.05-0.38-0.16c-0.32-0.32-0.75-0.38-1.02-0.76c-0.22-0.27-0.32-0.54-0.38-0.86c-0.27-1.02-0.43-2.2-0.43-3.22
			v-0.06c-0.27-0.7-0.54-1.34-0.86-2.04c-0.75-1.72-1.45-3.39-2.09-5.1c-0.16,0.1-0.38,0.16-0.59,0.05
			c-2.96-1.34-4.84-3.87-7.04-6.07c-0.05,0.05-0.16,0.05-0.27,0c-2.21-1.13-3.88-3.55-5.81-5.1c-1.94-1.56-4.24-2.58-6.13-4.14
			c-0.64,0-1.23-0.05-1.88-0.16c-1.93-0.27-3.39-1.61-5.38-1.51c-0.05,0-0.05,0-0.1,0c-0.27,0.22-0.54,0.43-0.76,0.65
			c-0.48,0.54-0.91,1.07-1.34,1.67c-0.81,0.97-1.88,1.94-3.22,1.88c-0.27,0-0.38-0.48-0.05-0.54c1.72-0.27,2.74-1.56,3.76-2.9
			c0.32-0.38,0.59-0.81,0.97-1.19c-1.67,0.11-3.28,0.06-4.94,0.16c-1.45,0.06-3.02,0.65-4.46,0.65c0,0.06-0.06,0.11-0.06,0.16
			c0.32,0.22,0.16,0.81-0.32,0.86c-1.4,3.33-3.82,6.34-7.2,7.69c-4.57,1.88-10.16,0.97-14.89,0.32c-0.16,0-0.21-0.16-0.21-0.27
			c-0.11-0.1-0.16-0.27,0-0.38c1.99-1.67,4.08-3.17,5.91-5.1c1.29-1.34,2.2-2.47,3.87-3.33c-1.02,0.05-2.1,0-3.06-0.16
			c-1.45,0.97-3.12,1.61-4.63,2.53c-1.23,0.76-2.31,1.78-3.55,2.58c-1.88,1.34-4.14,1.99-6.4,2.31c-6.51,0.97-10.48-2.42-14.72-6.93
			c-0.27-0.32,0.1-0.7,0.43-0.43c-0.11-0.22,0.11-0.49,0.38-0.43c4.03,0.65,7.15-0.16,10.64-2.15c1.88-1.02,3.71-2.04,5.86-2.36
			c4.24-0.65,8.76,0.97,11.93,3.76l0.05,0.06c0.11,0.05,0.21,0.1,0.27,0.21c1.34,0,2.74,0.11,4.08,0c0.59-0.05,1.18-0.11,1.72-0.05
			c3.01-0.48,6.13,0.27,9.3,0c0.06,0,0.11,0,0.16,0c0.27-0.06,0.54,0.1,0.59,0.38c1.4-0.11,2.9-0.43,4.24-0.54
			c1.61-0.11,3.28-0.38,4.94-0.48c-0.38-0.38-0.69-0.92-0.96-1.29c-0.7-1.07-1.02-2.53-1.89-3.49c-0.05-0.05-0.05-0.05-0.05-0.1
			c-0.1,0.16-0.27,0.27-0.54,0.27c-3.06,0.06-5.86-2.53-7.79-5.27c0.05,1.07,0.05,2.2,0,3.28c-0.06,0.85,0,1.82-0.54,2.47
			c0.1,0.38-0.22,0.76-0.54,0.86c-0.05,0.06-0.05,0.11-0.1,0.11c-7.31,5.75-16.72-1.88-22.26-6.67c-1.18-1.02-2.85-1.67-3.76-2.95
			c-0.59-0.81-0.86-2.04-1.34-2.96c-0.59-1.07-1.24-2.04-1.78-3.17c-1.93-4.19-2.9-8.6-6.18-12.09c-0.21-0.27-0.05-0.59,0.22-0.59
			c0-0.22,0.21-0.38,0.43-0.27c1.98,1.29,4.03,0.81,6.18,1.02c1.51,0.11,2.96,0.48,4.35,0.86c1.23,0.32,2.42,0.7,3.6,1.13
			c0.11-0.11,0.27-0.11,0.32,0c0,0.05,0.06,0.05,0.06,0.11c1.5,0.54,2.95,1.13,4.35,1.83c4.67,2.26,9.56,5.21,13.22,9.14
			c-0.43-1.29-0.8-2.64-1.23-3.92c-0.91-2.74-1.94-5.48-2.26-8.33c-1.78-0.81-3.44-1.29-5.32-1.88c-1.08-0.32-2.04-0.86-2.9-1.61
			c-2.36-2.15-2.64-5.1-4.25-7.58c-1.34-2.04-4.14-2.31-4.99-4.78c-0.22-0.59,0.7-0.81,0.91-0.27c0.38,1.02,1.23,1.56,2.2,2.1
			c0.05-2.58,2.9-5.16,4.63-6.83c2.36-2.42,5.05-4.41,7.95-6.18c0.21-0.11,0.43,0.22,0.21,0.32c-2.31,1.51-4.46,3.28-6.4,5.21
			c-1.88,1.88-5.21,4.89-5.48,7.58c0,0.11-0.06,0.21-0.11,0.27c0.75,0.38,1.51,0.81,2.04,1.4c1.45,1.67,1.72,4.14,3.01,5.91
			c2.09,2.96,4.94,2.58,7.9,3.93c1.4,0.64,2.64,1.18,3.87,1.61c-0.86-1.67-0.48-3.76-0.27-5.59c0.32-2.96,1.08-5.81,2.74-8.28
			c0.16-0.27,0.59,0,0.43,0.21c-1.34,2.26-1.77,4.57-1.98,7.15c-0.16,1.98-0.81,5.1,0.64,6.82c0.05,0.05,0.05,0.05,0.05,0.11
			c1.51,0.27,3.12,0.21,4.95-0.48c0.97-0.32,1.4,1.02,0.65,1.56c1.45,2.53,5.8,4.14,7.63,6.45c0.16,0.21,0.32,0.38,0.43,0.59
			c0.05,0,0.16,0.11,0.1,0.21c1.45,2.21,1.56,4.35,2.21,6.93c0.64,2.58,1.82,3.71,0.32,6.4c-1.02,1.82-2.47,3.22-4.51,3.55
			c-0.06,0.11-0.16,0.11-0.27,0.05c-0.11,0-0.16,0.06-0.27,0.06c0.76,0.38,1.02,1.66,1.34,2.31c0.33,0.7,0.76,1.4,1.29,1.94
			c0.38,0.32,0.76,0.54,1.07,0.91h0.06c0.27-0.05,0.48,0.27,0.27,0.48c-0.05,0.05-0.1,0.05-0.1,0.11c1.23,0,1.88,0.54,3.28,0.91
			c1.88,0.54,4.03,0.16,5.97,0.27c0.48,0,0.59,0.7,0.1,0.86c-0.21,0.05-0.43,0.1-0.64,0.16c3.22,1.51,6.18,3.97,8.86,6.29
			c1.72,1.45,3.01,3.17,4.46,4.84c1.13,1.29,2.53,2.15,3.87,3.17c-0.38-1.08-0.76-2.1-1.07-3.17c-2.53-4.35-4.52-9.35-5.81-14.19
			c-0.7-2.58-1.02-5.21-1.67-7.79c-0.65-2.47-1.72-4.84-2.15-7.42c-0.48-2.58-0.21-5.21-0.21-7.8c0-3.01-0.65-5.91-0.81-8.86
			c-0.27-4.46,0.54-9.14,1.45-13.55c-0.97,1.51-2.26,2.58-3.49,3.98c-1.77,1.99-2.36,4.62-4.57,6.23c-1.83,1.4-4.03,2.04-6.18,2.64
			c-3.33,0.91-6.61,1.93-9.94,2.79c-0.48,0.11-0.7-0.59-0.21-0.75c2.9-1.02,5.85-1.88,8.76-2.85c2.42-0.81,5.1-1.51,7.04-3.28
			c0.16-0.16,0.32-0.32,0.48-0.48c-0.7-3.55-0.97-6.67-3.01-9.84c-0.16-0.21,0.21-0.48,0.38-0.27c2.31,2.63,3.06,5.64,3.49,8.92
			c0.8-1.29,1.34-2.69,2.36-3.88c1.34-1.5,2.85-2.74,3.81-4.41c0,0,0,0,0-0.05c-1.23-2.53-3.22-4.78-5.75-6.07
			c-0.27-0.16-0.05-0.54,0.27-0.43c2.64,1.18,4.67,2.96,6.02,5.48c0.11-0.32,0.22-0.65,0.33-0.97c0.7-3.06-1.13-4.24-2.26-6.61
			c-0.54-1.13-0.54-2.58-1.4-3.6c-0.81-0.97-2.31-1.61-3.33-2.36c-2.9-2.15-5.43-4.94-6.23-8.55c-0.05,0-0.11,0.06-0.16,0.06
			c-0.43,0.1-0.86-0.11-1.29-0.06c-0.32,0.06-0.59,0.16-0.81,0.27c0.54,2.53,0.27,5.05,0.22,7.64c-0.11,3.65,0.65,7.15,2.2,10.43
			c0.1,0.21-0.21,0.43-0.32,0.21c-3.12-5.81-2.42-11.56-3.01-17.79c-0.48,0.21-1.02,0.32-1.51,0.32c-0.7,3.39-3.06,6.4-4.08,9.73
			c-1.4,4.57-2.69,9.73-2.31,14.51c0,0.27-0.43,0.27-0.43,0c-0.48-4.52,0.43-8.92,1.51-13.28c0.43-1.83,1.02-3.66,1.77-5.38
			c0.86-1.93,1.99-3.6,2.53-5.64c-0.27-0.06-0.48-0.11-0.7-0.22c-0.7,1.45-1.99,2.64-3.06,3.87c-1.83,2.1-3.49,4.25-3.93,7.04
			c-0.05,0.27-0.48,0.22-0.43-0.05c0.21-2.31,1.02-4.24,2.36-6.13c1.23-1.72,2.63-3.71,4.19-5.16c-0.11-0.06-0.16-0.11-0.27-0.16
			c-0.05,0-0.16,0.05-0.21,0.05c-0.43,0-0.65-0.16-0.91-0.48c-0.17-0.05-0.38-0.05-0.54-0.05c-0.43,0-0.48-0.65-0.11-0.76
			c0.27-0.1,0.48-0.1,0.65-0.16c0,0,0,0,0-0.05c0.16-0.16,0.38-0.32,0.59-0.32c0-0.05-0.05-0.05-0.05-0.1
			c-0.32-0.43,0.1-1.03,0.59-1.08c0.05,0,0.11,0,0.16,0c0.59,0,0.97,0.65,0.65,1.18c-0.11,0.16-0.27,0.27-0.38,0.32
			c0.05,0.11,0.1,0.21,0.16,0.32c0,0.05,0,0.11,0,0.16c0.54,0.21,1.07,0.43,1.56,0.48c0.16-0.05,0.32-0.05,0.48,0
			c0.27,0,0.48-0.05,0.75-0.16c0-0.16,0.06-0.32,0.11-0.43c0.11-0.21,0.32-0.32,0.54-0.38c0,0,0.05,0,0.05-0.05h0.06
			c0.27-0.06,0.54,0,0.75,0.16c0.21-0.11,0.48-0.22,0.81-0.22c0.81-0.1,1.4-0.21,2.09-0.54l0.06-0.05
			c-0.92-0.16-0.86-1.61,0.16-1.61c0.32,0,0.59,0.16,0.7,0.43c0.11-0.21,0.16-0.38,0.27-0.59c0-0.27-0.06-0.48-0.06-0.75
			c0-0.59,0.7-0.65,0.97-0.27c0.05,0,0.05,0,0.11,0c0.1-0.05,0.21-0.1,0.27-0.1c-0.27-0.22-0.43-0.65-0.1-1.02
			c0.32-0.43-0.06-2.47,0-3.07c0.05-0.54,0.32-0.91,0.48-1.4c0-0.05,0-0.05,0.06-0.11c-0.11,0-0.22,0-0.27-0.1
			c-0.05-0.06-0.1-0.11-0.16-0.16c-0.43-0.48,0.32-0.92,0.59-0.59c0.05-0.75-0.32-1.29-1.02-1.99c-0.65-0.64-1.4-1.18-2.2-1.61
			c-0.48-0.21-0.16-1.02,0.38-0.86c0.21,0.05,0.43,0.16,0.7,0.27c2.42-2.74,3.17-5.86,4.57-9.14c1.02-2.42,2.31-4.57,3.98-6.56
			c0.16-0.21,0.54,0.05,0.38,0.27c-2.31,3.07-3.49,6.72-4.73,10.32c-0.7,2.09-1.51,4.3-3.39,5.59c0.7,0.43,1.4,1.02,1.93,1.72
			c3.77-4.51,7.69-8.92,11.66-13.22c3.28-3.6,6.67-8.44,11.07-10.7c0.22-0.1,0.38,0.22,0.17,0.32c-2.42,1.34-4.25,3.77-6.08,5.81
			c-1.83,1.99-3.65,3.97-5.43,6.02c-3.66,4.14-7.26,8.38-10.8,12.63c0.05-0.06,0.05-0.06,0.1-0.11c6.13-2.74,11.88-6.07,17.15-10.21
			c0.16-0.16,0.43,0.11,0.27,0.27c-5.16,4.35-10.75,8.01-16.93,10.8c-0.16,0.05-0.27,0.05-0.38,0c0.05,0.22,0.11,0.38,0.11,0.59
			c0.05,0.59-0.16,0.59-0.27,1.13c-0.38,1.34-0.54,1.4-0.27,2.58c0.22,1.02,0.16,1.72-0.54,2.47c2.31,0.65,4.03,2.1,6.61,1.4
			c1.93-0.54,3.44-1.29,5.54-1.18c0.43,0,0.43,0.64,0,0.7c-2.05,0.27-3.71,1.51-5.54,1.99c3.01,0.48,5.86,1.18,8.92,0.43
			c1.23-0.27,2.36-0.65,3.49-1.02c-1.4-0.38-2.85-0.81-4.41-1.13c-0.48-0.1-0.48-0.86,0-1.02c3.6-0.91,6.83,2.15,10.43,0.32
			c2.05-1.02,4.46-3.17,5.05-5.43c0.43-1.56,0.16-3.06,0.76-4.63c0.32-0.75,0.75-1.4,1.23-2.04c-3.06,1.51-6.4,2.26-9.35,3.93
			c-0.27,0.16-0.54-0.27-0.27-0.43c3.28-2.09,6.93-3.12,10.38-4.89c0.1-0.05,0.16-0.05,0.27-0.05c1.18-1.94,1.45-4.09,1.61-6.34
			c0.1-1.29,0.05-2.42-0.27-3.44c-1.93,1.45-4.94,1.72-7.31,1.93c-0.27,0.05-0.32-0.43-0.05-0.48c1.23-0.21,2.42-0.59,3.6-0.91
			c1.18-0.38,2.31-0.97,3.55-1.18c-0.32-0.92-0.92-1.83-1.78-2.69c-1.45-1.56-3.11-2.91-4.68-4.41c-0.38-0.38,0.16-0.86,0.54-0.54
			c3.71,3.17,7.63,5.54,7.74,10.75c0,1.07,0,2.26-0.11,3.39c0.43-0.27,0.92-0.54,1.4-0.75c0.54-0.27,1.08-0.65,1.67-0.91
			c0-0.11,0-0.22,0-0.32c0.97-4.09,2.96-7.36,5.81-10.21c-0.05-0.06-0.11-0.11-0.11-0.21c-0.05-0.16-0.1-0.32-0.16-0.48
			c-0.05-0.11-0.16-0.22-0.16-0.38c-1.56-3.97-3.44-7.84-5.86-11.34c-2.9-4.19-6.88-6.51-11.13-9.14c-0.27-0.16-0.05-0.54,0.27-0.43
			c4.3,2.15,8.39,4.84,11.34,8.71c2.15,2.79,3.93,5.91,5.38,9.19c0-1.93-0.05-3.87-0.43-5.75c-0.54-2.85-2.1-5.27-3.55-7.74
			c-2.74-4.67-4.72-9.73-5.53-15.16c-0.06-0.21,0.32-0.32,0.38-0.11c1.72,6.23,4.46,11.61,7.63,17.15
			c2.64,4.57,2.69,9.24,2.69,14.41c0.06,0.16,0.11,0.27,0.16,0.43c0.16-0.16,0.32-0.32,0.54-0.43c-0.22-0.11-0.38-0.43-0.22-0.7
			c2.69-4.73,2.74-9.52,4.25-14.57c1.02-3.49,2.9-6.34,6.23-7.9c0.22-0.1,0.43,0.21,0.22,0.32c-8.06,4.46-4.57,15.48-9.35,22.04
			c0.11,0,0.16,0.11,0.22,0.16c0.48-0.32,1.23-0.27,1.88-0.05c2.2-3.66,2.85-8.06,6.18-10.96c0.21-0.22,0.59,0.11,0.32,0.32
			c-3.11,2.95-3.55,7.42-5.69,10.96c0.16,0.11,0.32,0.21,0.43,0.32c0.59,0.48,1.08,1.4,0.97,2.2c2.53-0.38,4.52-5.16,5.21-7.2
			c0.59-1.67,0.86-3.44,1.56-5.05c1.51-3.71,7.63-6.88,6.02-11.4c-0.11-0.32,0.38-0.48,0.54-0.21c1.07,1.94,0.86,3.82-0.38,5.64
			c-1.72,2.64-3.93,4.3-5.11,7.2c0.59-0.96,1.34-1.83,2.1-2.68c2.74-2.85,5.59-5.32,7.53-8.87c0.11-0.22,0.38,0,0.32,0.16
			c-1.24,2.53-2.69,4.73-4.63,6.72c-1.99,2.1-3.92,3.98-5.1,6.51c0.75-0.59,1.61-1.07,2.53-1.51c1.72-0.81,3.6-1.29,5.32-2.2
			c1.24-0.65,2.26-1.61,3.44-2.36c0.75-0.48,1.83-1.07,3.01-1.51c0.91-1.99,0.86-4.3,0.97-6.5c0.1-2.37-0.7-3.98-2.1-5.81
			c-0.38-0.48-0.7-1.02-1.02-1.56c-0.86,0.91-1.78,1.77-2.47,2.84c-0.16,0.22-0.48,0.06-0.38-0.21c0.59-1.23,1.34-2.53,2.42-3.33
			c-0.91-1.83-1.51-3.82-2.04-5.76c-0.1-0.48,0.59-0.65,0.76-0.21c0.81,2.2,1.56,4.46,2.9,6.4c3.39,2.31,8.82,0.92,11.02,4.89
			c0.8,1.4,0.54,3.22,0.91,4.73c0.21,0.97,0.59,1.72,0.48,2.74c-0.11,1.13-1.02,2.47-0.32,3.6c0.21,0.38,0.05,0.75-0.21,0.97
			c0.05,0.1,0.1,0.27,0.16,0.38c0.27,0.54,0.59,0.97,0.65,1.61c0.21,1.34-0.59,2.47-0.7,3.76c0.27,0.32,0.48,0.7,0.59,1.18
			c0.38,1.61-0.59,3.12-1.56,4.41c5.1,0.59,2.68,8.06,1.77,11.23c-1.18,4.14-2.09,12.63-8.33,11.5
			C138.98,98.9,138.98,97.88,139.57,97.77z M113.66,33.65c3.55-0.16,5.91-2.15,9.57,0c2.74,1.61,4.79,3.88,6.67,6.34
			c0.32,0.43,1.18,0.22,0.96-0.43c-1.18-3.17-3.97-5.59-6.88-7.26c-4.03-2.36-6.4-0.54-10.43,0.59
			C113.18,33.01,113.23,33.65,113.66,33.65z M104.31,39.29c1.02,0.32,1.72,0.22,2.79,0.16c0.16,0,0.38,0,0.54,0
			c-0.64,1.61-0.54,4.03-0.7,5.75c-0.21,2.42-0.16,4.73,0.38,7.1c0.05,0.16,0.32,0.1,0.32-0.06c-0.21-2.09-0.27-4.14-0.05-6.23
			c0.11-1.13,0.27-2.26,0.43-3.39c0.06-0.43,0.16-2.74,0.49-2.95c0.1-0.06,0.16-0.22,0.16-0.32c1.88,0.05,2.53,0.64,4.51,2.26
			c1.51,1.18,2.74,1.02,4.52,1.67c2.96,1.07,2.85,4.57,4.19,6.93c0.97,1.67,2.42,2.64,4.35,2.85c0.65,0.06,0.91-0.97,0.32-1.23
			c-1.02-0.48-1.88-1.02-2.53-1.78c0.65-1.4,1.61-2.47,2.47-3.76c0.8-1.23,1.4-2.58,1.88-3.98c0.05-0.16-0.22-0.32-0.32-0.1
			c-0.76,1.72-1.72,3.33-2.96,4.78c-0.65,0.76-1.23,1.45-1.72,2.31c-0.27-0.43-0.48-0.86-0.7-1.34c-0.38-1.02-0.65-2.1-1.13-3.06
			c-0.75-1.51-1.83-2.64-3.44-3.18c-0.48-0.16-1.02-0.21-1.51-0.27c0.21-0.43,0.38-0.86,0.59-1.23c0.38-0.76,0.81-1.56,1.24-2.26
			c0.1-0.21-0.16-0.43-0.32-0.27c-0.81,1.03-1.94,2.31-2.36,3.66c-0.38-0.05-0.7-0.16-1.03-0.38c-1.07-0.59-1.66-1.67-2.84-2.15
			c-1.08-0.48-2.15-0.48-3.22-0.43c0-0.92,0.05-1.78,0.27-2.69c0.11-0.32,0.16-0.81,0.32-1.13c0.48-1.13,1.13-0.97,2.1-1.07
			c0.54-0.06,0.54-0.81,0-0.81c-1.34-0.11-2.37,0.48-2.85,1.72c-0.49,1.24-0.97,2.8-0.59,4.08c-1.13,0.11-2.2,0.27-3.39,0.11
			C104.04,38.48,103.83,39.13,104.31,39.29z M83.78,49.29c-0.17-0.92-0.27-1.88-0.22-2.8c3.28,1.4,6.4,2.74,8.66,5.65
			c0.1,0.16,0.43-0.06,0.27-0.22c-1.07-1.5-2.36-2.84-3.82-3.97c-1.45-1.13-3.38-1.72-5.05-2.36c0.11-0.48,0.27-0.97,0.48-1.45
			c0.59-1.13,1.51-1.77,2.26-2.64c0.32-0.38,0.54-0.8,0.86-1.13c1.02-1.07,2.47-1.45,3.82-2.04c0.43-0.22,0.91-0.48,1.34-0.76
			c0.05,0.27,0.1,0.48,0.16,0.7c0.21,0.81,0.59,1.56,1.02,2.31c0.16,0.27,0.59,0.05,0.43-0.27c-0.38-0.7-0.54-1.51-0.65-2.26
			c-0.05-0.32-0.05-0.7-0.05-1.02c0.7-0.43,1.4-0.76,2.26-0.81c2.53-0.21,4.46,1.72,6.61,2.74c0.7,0.32,1.45-0.48,0.86-1.13
			c-1.78-1.83-4.41-3.33-7.04-3.33c-1.02,0-1.99,0.16-2.9,0.65c-1.56,0.8-2.96,1.51-4.57,2.2c-0.81,0.32-1.19,0.65-1.67,1.34
			c-0.97,1.29-1.83,2.95-2.74,4.3c-1.34,2.1-1.4,4.14-0.91,6.51C83.29,49.83,83.83,49.67,83.78,49.29z M86.68,66.6
			c0.96,0.43,1.93,0.48,2.95,0.64c2.47,0.38,5.05,1.13,7.31,2.31c3.55,1.83,5.27,6.07,7.95,8.82c0.54,0.54,1.4-0.16,1.02-0.81
			c-1.51-2.64-3.66-5.59-5.86-7.69c-1.93-1.83-4.62-2.85-7.15-3.6c-3.55-1.02-7.53-0.59-9.08-4.73c-1.29-3.44,1.23-6.78,0.38-10.27
			c-0.11-0.48-0.86-0.38-0.86,0.11c0.21,3.39-1.94,6.51-1.18,9.84C82.7,63.59,84.48,65.68,86.68,66.6z M28.04,4.63
			c-0.11,0-0.16,0-0.22,0c-0.05,0-0.16,0.05-0.21,0.05c0.97,1.56,2.26,2.9,3.28,4.46c1.29,1.93,1.99,4.08,2.69,6.23
			c0.91,2.9,1.88,5.75,3.33,8.44c1.34,2.47,3.22,4.57,4.62,6.99c0.54,0.21,1.07,0.43,1.61,0.65c-2.31-2.64-3.39-6.51-4.73-9.57
			c-2.31-5.16-5.16-10-7.57-15.05c-0.11-0.21,0.21-0.43,0.38-0.21c2.63,4.3,5.05,8.81,7.31,13.33c2.15,4.24,3.55,8.6,6.77,12.15
			c0.97,0.22,1.94,0.27,2.96,0.16c0.16,0,0.38-0.05,0.54-0.05c-0.86-1.07-1.56-2.31-2.09-3.55c-0.7-1.51-1.02-3.66-2.47-4.68
			c-0.21-0.16,0-0.48,0.22-0.38c1.29,0.76,1.77,1.93,2.36,3.28c0.86,1.89,1.99,3.49,3.17,5.16c1.72-0.21,3.17-0.21,4.95,0.76
			c-0.16-0.38-0.38-0.76-0.54-1.08c-0.65-1.13-1.4-2.2-2.42-2.95c-0.21-0.16,0-0.54,0.21-0.38c1.02,0.65,1.99,1.56,2.8,2.64
			c-1.29-2.74-1.83-5.43-1.45-8.6c0-0.06,0-0.11,0-0.16c-1.07-2.58-3.44-4.3-5.54-6.02c-2.42-1.94-4.94-3.71-7.52-5.38
			c-0.27-0.21-0.05-0.65,0.27-0.48c3.12,1.61,6.02,3.55,8.76,5.76c1.51,1.23,3.17,2.47,4.25,4.14c0.05-1.13,0.05-2.26-0.22-3.28
			c-0.32-1.07-1.13-1.93-1.67-2.84c-0.27-0.48-0.54-0.92-0.69-1.4c-3.18-1.29-5.59-3.66-8.55-5.21c-2.47-1.29-5.05-1.07-7.68-1.56
			C32.45,5.59,30.57,4.25,28.04,4.63z M54.54,13.06c-0.97-0.43-1.83-0.75-2.69-1.18c0.11,0.16,0.11,0.32,0.06,0.48
			c0.59,1.13,1.34,2.04,1.99,3.28c0.59,1.19,0.75,2.64,0.8,3.93c0.16,2.26-0.48,4.68,0.06,6.88c0.38,1.56,1.18,3.01,1.83,4.52
			c0.16-0.54,0.38-1.02,0.48-1.56c0.43-1.82,0-3.65-0.43-5.38c-0.05-0.27,0.32-0.38,0.38-0.1c0.54,1.56,1.03,3.06,0.92,4.73
			c-0.11,1.23-0.54,2.47-0.92,3.66v0.05c0.06,0.16,0,0.27,0,0.38c1.13-1.83,2.26-3.66,3.12-5.64c0.48-3.01-0.97-6.61-2.53-9.03
			c-0.11-0.21,0.16-0.38,0.32-0.16c1.07,1.67,2.53,4.03,3.06,6.4c0.32-2.04-0.11-3.87-1.23-5.86
			C58.63,16.13,56.96,14.19,54.54,13.06z M58.79,32.9c-0.06,0.06-0.11,0.16-0.16,0.21c0.48,0.48,0.86,1.24,1.18,1.78
			c0.59,0.91,1.23,1.83,1.83,2.74c0.16,0.22-0.16,0.43-0.32,0.27c-0.76-0.81-1.4-1.61-2.04-2.47c-0.38-0.48-0.86-1.02-1.18-1.56
			c-0.22,0.27-0.54,0.32-0.81,0.21c0,0.06,0,0.06-0.05,0.11c0.48,0.65,0.91,1.29,1.4,1.93c0.97,1.18,1.93,2.42,2.9,3.6
			c0.11,0.16-0.11,0.38-0.21,0.21c-1.24-1.29-2.47-2.58-3.66-3.92c-0.38-0.43-0.86-0.86-1.23-1.4c-0.16,0.06-0.38,0.11-0.54,0.16
			c1.88,1.72,2.9,4.19,4.99,5.7c1.24,0.86,2.74,1.02,4.09,1.61c-0.38-0.59-0.81-1.13-1.13-1.78c-0.48-0.96-0.76-2.04-1.4-3.01
			C61.36,35.69,59.81,34.45,58.79,32.9z M56.91,33.06l0.05-0.05c-0.11,0.1-0.27,0.16-0.38,0.21c0.11,0,0.21,0,0.27,0
			C56.85,33.17,56.91,33.11,56.91,33.06z M49.11,35.69c-1.29-0.21-2.69-0.7-3.6-0.65c-0.27,0-0.32-0.43-0.06-0.43
			c1.08-0.21,1.94,0,2.96,0.22c1.34,0.21,2.2,0.1,3.49-0.32c0.16-0.06,0.27,0.05,0.32,0.21c1.07-0.38,2.09-0.81,3.06-1.13
			c-0.05-0.1-0.16-0.27-0.21-0.38c-0.06,0.05-0.16,0.11-0.22,0.05c-3.49-1.61-6.29,0.59-9.78,0c-2.09-0.38-4.62-1.02-6.56-2.26
			c0.11,0.48,0.16,0.97,0.38,1.56c0.8,1.88,4.83,3.01,6.77,3.39C46.74,36.12,47.88,36.02,49.11,35.69z M35.14,26.34
			c1.24,0.7,2.42,1.61,3.44,2.58c-0.32-0.43-0.64-0.86-0.91-1.34c-0.05,0-0.05,0-0.1-0.06c-1.24-0.86-2.31-2.15-3.18-3.33
			c-0.85-1.13-1.18-2.52-2.04-3.65c-0.16-0.21,0.1-0.48,0.27-0.27c0.97,0.97,1.45,2.31,2.31,3.33c0.38,0.48,0.86,0.86,1.29,1.29
			c-1.03-2.05-1.83-4.25-2.58-6.29c-0.65-0.59-1.18-1.4-1.67-2.09c-0.7-1.02-1.34-2.15-1.93-3.28c-0.11-0.16,0.16-0.32,0.27-0.16
			c0.65,0.92,1.29,1.89,1.99,2.74c0.21,0.27,0.43,0.54,0.65,0.81c-0.7-2.09-1.34-4.24-2.42-6.18c-0.43,1.03-1.29,1.56-2.04,2.53
			c-2.26,2.96-0.48,6.51,1.94,8.66c0.1-0.32,0.27-0.7,0.48-1.02c0.38-0.48,1.18-0.05,0.8,0.48C29.97,24.03,33.26,25.27,35.14,26.34z
			 M26.16,3.6c-0.11-0.38,0.38-0.65,0.59-0.43c0.54-0.21,1.29-0.16,1.83-0.38c0.81-0.27,1.4-0.75,1.88-1.51
			c0.16-0.32,0.76-0.1,0.59,0.27c-0.32,0.8-0.86,1.56-1.51,2.15c1.23,0.06,2.42,0.54,3.82,0.97c0.48,0.16,0.96,0.21,1.45,0.32
			c-0.21-0.27-0.43-0.48-0.65-0.7c-0.43-0.48-0.91-0.91-1.29-1.45c-0.11-0.16,0.1-0.38,0.27-0.27c0.97,0.65,1.78,1.61,2.58,2.47
			c0.92,0.11,1.83,0.17,2.74,0.27c-0.54-0.48-1.02-0.97-1.56-1.45c-1.29-1.18-2.85-3.39-4.84-2.8c-0.59,0.16-0.81-0.7-0.27-0.91
			c1.51-0.54,2.74,0.32,3.77,1.34c1.29,1.34,2.58,2.69,3.92,3.97c0.43,0.06,0.86,0.16,1.29,0.27c3.66,0.97,6.56,3.6,9.78,5.38
			c0-0.06,0-0.11,0-0.16c-0.06-0.05-0.06-0.11,0-0.16c0-0.11,0-0.27-0.06-0.38c0-0.32,0.48-0.38,0.59-0.05
			c0.06,0.21,0.11,0.43,0.21,0.65c1.94,1.24,4.41,1.45,6.29,3.01c1.72,1.45,3.44,3.49,4.41,5.54c1.94,4.08-0.38,8.87-2.74,12.58
			c1.45,1.56,3.06,3.11,4.14,4.94c0.7,1.24,1.08,2.58,1.89,3.77c0.48,0.7,0.96,1.23,1.18,2.09c0,0.05,0,0.05,0,0.05
			c0.21,0.21,0.16,0.54-0.06,0.7c5.59,6.02,8.81,14.99,10.27,23c1.89-0.16,3.82-0.1,5.76,0.06c4.35,0.38,4.19,4.46,7.31,6.56
			c0.81,0.54,0.05,1.88-0.76,1.34c-1.13-0.76-1.82-1.67-2.53-2.8c-1.02-1.61-1.72-2.69-3.28-3.12c0.05,0.16,0,0.32-0.16,0.43
			c-1.29,0.59-2.26,1.61-3.28,2.58c-1.13,1.13-2.21,2.31-3.18,3.6c-0.16,0.16-0.43,0-0.32-0.16c1.07-1.51,2.2-3.01,3.44-4.41
			c0.65-0.76,1.51-1.94,2.53-2.21c-0.21,0-0.38-0.05-0.59-0.05c-1.4-0.1-3.33-0.21-5.16-0.05c-0.21,0.1-0.48,0.16-0.7,0.05
			c-1.29,0.11-2.47,0.38-3.33,0.86c-1.83,1.02-3.49,2.85-5,4.3c-3.97,3.82-5.75,7.9-6.07,13.44c-0.21,3.28-0.38,6.88-2.95,9.24
			c-0.16,0.16-0.48-0.06-0.38-0.27c3.49-5.05,1.34-10.86,3.44-16.29c1.56-4.03,4.84-7.31,8.01-10.1c1.61-1.4,3.44-2.2,5.38-2.63
			c-1.4-3.77-2.15-7.8-3.49-11.56c-1.5-4.25-3.22-8.01-5.75-11.67c-1.93-0.91-4.19-1.29-5.8-2.69c-1.77-1.5-3.6-4.03-4.57-6.07
			v-0.05c-2.05,0.65-4.03,1.29-6.02,2.04c-1.61,0.65-2.69,0.32-4.41-0.21c-1.78-0.59-4.52-1.23-5.86-2.53
			c-1.18-1.13-0.65-2.69-1.56-3.93c-0.05-0.05-0.05-0.1-0.05-0.1c-0.05-0.05-0.16-0.11-0.21-0.21c-0.32-0.32,0-0.86,0.43-0.76
			c0.21,0.05,0.43,0.11,0.64,0.21c-1.07-0.96-2.2-1.77-3.44-2.47c-1.07-0.59-2.42-0.92-3.39-1.72c-0.86-0.75-1.18-1.77-1.08-2.79
			c-1.72-1.08-3.65-3.55-3.76-5.65c-0.05-1.13,0.27-2.42,0.75-3.39c0.7-1.4,2.05-2.31,2.42-3.87c0-0.1,0.05-0.16,0.1-0.21
			c0-0.05-0.05-0.05-0.05-0.11c-1.13-1.61-2.42-3.01-3.28-4.78c-0.22-0.27-0.32-0.54-0.27-0.81C26.21,3.71,26.16,3.66,26.16,3.6z
			 M4.66,109.76c-2.69-3.44-3.92-7.84-3.22-12.15c0.7-4.41,3.22-7.79,6.61-10.48c1.13-0.86,2.26-1.67,3.17-2.8
			c0.81-0.97,1.34-2.26,2.31-3.12c1.18-1.07,2.63-1.45,4.19-1.4c0,0,0,0,0.06,0c-1.72-3.17-1.13-7.63,0.32-10.75
			c1.07-2.26,2.9-4.03,4.3-6.13c1.34-2.04,2.42-4.24,4.03-6.13c2.74-3.22,7.04-5.21,11.29-4.51c2.53,0.43,4.3,1.82,6.34,3.28
			c2.74,1.94,5.7,2.04,8.92,1.88c1.13-0.05,1.13,1.67,0,1.72c-2.69,0.16-5,0.06-7.26-0.75c1.56,2.96,2.58,6.13,3.01,9.52
			c0.05,0.21-0.32,0.27-0.38,0.05c-0.38-2.26-0.92-4.35-1.99-6.45c-0.65-1.24-1.34-2.42-1.93-3.71c-0.54-0.27-1.13-0.59-1.67-0.96
			c-4.03-2.85-8.17-3.98-12.73-1.18c0.7,1.77,1.51,3.49,2.26,5.21c0.11,0.21-0.21,0.43-0.32,0.21c-0.48-0.91-0.96-1.83-1.45-2.8
			c-0.38-0.7-0.85-1.45-1.07-2.2c-0.7,0.54-1.4,1.13-1.99,1.78c-0.32,1.4,1.45,4.73,1.89,5.75c0.7,1.56,1.51,3.12,2.2,4.68
			c0.1,0.21-0.16,0.38-0.27,0.16c-1.4-2.1-2.58-4.41-3.55-6.77c-0.27-0.65-0.91-1.88-1.07-2.91c-1.72,2.15-3.17,4.68-4.95,6.67
			c-0.97,1.07-1.88,2.31-2.64,3.66c0.27,0.59,0.48,1.23,0.86,1.83c0.43,0.7,0.96,1.4,1.61,1.93c0.27,0.21-0.1,0.54-0.38,0.38
			c-1.02-0.8-2.04-1.93-2.58-3.22c-0.22,0.48-0.43,0.92-0.59,1.4c0.11,0,0.21,0.11,0.32,0.27c0.7,1.78,2.15,2.9,3.49,4.14
			c1.45,1.34,2.74,2.85,4.73,3.39c0.21,0.05,0.11,0.43-0.11,0.38c-1.99-0.48-3.33-1.83-4.83-3.11c-1.45-1.24-3.01-2.47-3.88-4.19
			c-0.91,3.17-0.54,6.5,2.31,9.14c0.32,0.32-0.16,0.75-0.48,0.48c-0.59-0.48-1.07-1.02-1.45-1.67c-0.06,0.11-0.16,0.21-0.27,0.21
			c-1.67,0.06-2.69,0.59-3.49,1.4c2.15,0.59,4.14,1.66,5.81,3.17c0.11,0.11-0.05,0.32-0.21,0.27c-1.89-1.29-3.93-2.26-6.18-2.74
			c-0.54,0.7-1.08,1.51-1.72,2.37c-1.03,1.23-2.31,2.2-3.55,3.22c-1.23,1.07-2.31,2.31-3.17,3.66c3.28,0.21,6.23,1.07,9.35,2.15
			c0.27,0.1,0.16,0.48-0.1,0.38c-3.23-0.86-6.4-1.56-9.73-1.67c-1.02,1.93-1.67,4.08-1.78,6.34c0,0.06,0,0.06,0,0.11
			c1.67,0.16,3.39,0.38,5.05,0.43c0.32,0,0.32,0.48,0,0.48c-1.72,0-3.39,0-5.1-0.16c0.05,4.03,1.88,7.95,4.89,10.64
			c0.75,0.7,1.72,1.23,2.47,2.04c2.63,0.81,6.07-0.16,8.65-0.54c0.21-0.05,0.32,0.27,0.11,0.38c-2.15,0.54-4.3,1.07-6.45,1.29
			c-0.54,0.05-1.07,0.05-1.56,0c0.54,1.45,0.38,3.6,1.78,4.19c0.8,0.38,0.21,1.56-0.59,1.34c-1.45-0.32-2.04-1.34-2.31-2.74
			C9.18,113.36,6.54,112.23,4.66,109.76"/>
	</g>
</g>
</svg>
