<?xml version="1.0" encoding="utf-8"?>
<!-- Generator: Adobe Illustrator 23.0.1, SVG Export Plug-In . SVG Version: 6.00 Build 0)  -->
<svg version="1.1" id="Layer_1" xmlns="http://www.w3.org/2000/svg" xmlns:xlink="http://www.w3.org/1999/xlink" x="0px" y="0px"
	 viewBox="0 0 50.67 17.33" style="enable-background:new 0 0 50.67 17.33;" xml:space="preserve">
<style type="text/css">
	.st0{clip-path:url(#SVGID_2_);}
	.st1{clip-path:url(#SVGID_4_);}
	.st2{clip-path:url(#SVGID_6_);}
	.st3{fill:#907D4F;}
</style>
<g>
	<defs>
		<rect id="SVGID_1_" width="50.67" height="17.33"/>
	</defs>
	<clipPath id="SVGID_2_">
		<use xlink:href="#SVGID_1_"  style="overflow:visible;"/>
	</clipPath>
	<g class="st0">
		<g>
			<defs>
				
					<rect id="SVGID_3_" x="3.77" y="-2.73" transform="matrix(0.8988 -0.4383 0.4383 0.8988 -1.7947 12.7718)" width="46" height="26"/>
			</defs>
			<clipPath id="SVGID_4_">
				<use xlink:href="#SVGID_3_"  style="overflow:visible;"/>
			</clipPath>
			<g class="st1">
				<g>
					<defs>
						
							<rect id="SVGID_5_" x="3.77" y="-2.73" transform="matrix(0.8988 -0.4383 0.4383 0.8988 -1.7947 12.7718)" width="46" height="26"/>
					</defs>
					<clipPath id="SVGID_6_">
						<use xlink:href="#SVGID_5_"  style="overflow:visible;"/>
					</clipPath>
					<g class="st2">
						<path class="st3" d="M10.18,7.98c0.34,0.06,0.69,0.1,1.03,0.11c0.4,0.01,0.8,0.06,1.2,0.09c0.51,0.04,1.02,0.04,1.51,0.16
							c0.68,0.17,1.38,0.21,2.07,0.32c1.19,0.18,2.4,0.24,3.59,0.46c0.11,0.02,0.21,0.01,0.31-0.03c0.61-0.21,1.21-0.47,1.81-0.71
							c0.96-0.39,1.88-0.86,2.8-1.33c0.47-0.24,0.93-0.51,1.4-0.77c0.3-0.17,0.62-0.29,0.93-0.42c0.16-0.06,0.29-0.16,0.41-0.28
							c0.44-0.4,0.86-0.81,1.28-1.23c0.42-0.42,0.96-0.66,1.51-0.85c0.53-0.18,1.08-0.33,1.62-0.48c0.27-0.08,0.54-0.1,0.82-0.06
							c0.13,0.02,0.26,0.05,0.38,0.11c0.31,0.16,0.38,0.48,0.16,0.75c-0.14,0.17-0.31,0.31-0.48,0.43c-0.45,0.32-0.92,0.63-1.41,0.9
							c-0.58,0.32-1.2,0.45-1.84,0.51c-0.28,0.02-0.55,0.03-0.82,0.04c-0.17,0.01-0.33,0.04-0.48,0.1C27.09,6.16,26.22,6.51,25.42,7
							c-0.2,0.12-0.41,0.21-0.62,0.32c-0.33,0.17-0.66,0.32-0.97,0.52c-0.17,0.11-0.36,0.19-0.56,0.26
							c-0.09,0.03-0.19,0.07-0.28,0.11c-0.7,0.36-1.44,0.66-2.17,0.95c-0.06,0.03-0.13,0.04-0.17,0.1c0.04,0.06,0.11,0.05,0.18,0.05
							c1.45,0.1,2.89,0.35,4.32,0.62c0.59,0.11,1.18,0.22,1.77,0.33c0.6,0.1,1.21,0.13,1.82,0.08c0.27-0.02,0.53-0.01,0.8,0.01
							c1.09,0.1,2.19,0.12,3.29,0.05c0.41-0.03,0.81,0.02,1.22,0.05c0.25,0.02,0.5,0.02,0.74,0.04c0.21,0.02,0.38-0.06,0.55-0.19
							c0.75-0.56,1.38-1.25,2.01-1.93c0.16-0.17,0.32-0.33,0.48-0.51c0.03-0.02,0.05-0.04,0.07-0.07c0.21-0.39,0.53-0.7,0.76-1.08
							c0.05-0.08,0.08-0.16,0.11-0.25c0.06-0.17,0.12-0.35,0.23-0.49c0.26-0.33,0.36-0.73,0.44-1.13c0.1-0.48,0.38-0.82,0.76-1.1
							c0.14-0.1,0.29-0.19,0.45-0.27c0.16-0.09,0.31-0.19,0.44-0.33c0.12-0.14,0.27-0.23,0.44-0.27c0.61-0.1,1.22-0.14,1.82,0.06
							c0.45,0.15,0.63,0.42,0.54,0.9c-0.15,0.79-0.59,1.37-1.26,1.78c-0.41,0.25-0.86,0.41-1.32,0.52c-0.44,0.1-0.84,0.29-1.2,0.57
							c-0.07,0.05-0.14,0.1-0.21,0.14c-0.66,0.29-1.15,0.82-1.71,1.23c-0.16,0.11-0.28,0.26-0.41,0.4
							c-0.61,0.68-1.24,1.34-1.95,1.92c0.05,0.05,0.1,0.02,0.15,0.02c1.56-0.14,3.11-0.32,4.64-0.67c0.42-0.09,0.83-0.22,1.24-0.38
							c0.26-0.1,0.51-0.19,0.78-0.26c0.5-0.13,0.92-0.37,1.26-0.76c0.07-0.08,0.15-0.16,0.21-0.24c0.4-0.54,0.95-0.84,1.57-1.06
							c0.35-0.12,0.68-0.27,0.96-0.52c0.43-0.4,0.94-0.61,1.51-0.72c0.3-0.05,0.6-0.13,0.91-0.16c0.23-0.03,0.47-0.03,0.69,0.05
							c0.47,0.16,0.56,0.42,0.43,0.82c-0.19,0.55-0.48,1.02-0.99,1.34c-0.16,0.09-0.29,0.22-0.43,0.34
							c-0.29,0.24-0.61,0.4-0.97,0.47c-0.4,0.08-0.79,0.2-1.18,0.31c-0.89,0.25-1.79,0.35-2.71,0.35c-0.09,0-0.18-0.01-0.27-0.03
							c-0.08-0.02-0.17-0.02-0.24,0.01c-0.5,0.13-1,0.25-1.47,0.46c-0.43,0.19-0.89,0.29-1.33,0.41c-1.23,0.3-2.49,0.44-3.75,0.56
							c-0.24,0.03-0.49,0.04-0.74,0.07c-0.69,0.07-1.39,0.1-2.09,0.03c-0.52-0.06-1.03-0.06-1.55-0.03
							c-0.53,0.03-1.06,0.05-1.59,0.02c-0.09-0.01-0.18-0.03-0.27,0.01c-0.02,0.05,0.01,0.07,0.04,0.08
							c0.79,0.32,1.52,0.76,2.29,1.11c0.11,0.05,0.22,0.11,0.34,0.15c0.7,0.26,1.34,0.62,1.99,0.98c0.41,0.23,0.85,0.38,1.27,0.58
							c0.39,0.19,0.77,0.2,1.18,0.08c0.76-0.22,1.52-0.2,2.27,0.03c0.93,0.29,1.79,0.72,2.51,1.38c0.29,0.27,0.5,0.58,0.65,0.94
							c0.08,0.18,0.11,0.37,0.1,0.56c-0.02,0.31-0.19,0.47-0.5,0.46c-0.17,0-0.33-0.04-0.49-0.1c-0.27-0.12-0.55-0.24-0.82-0.36
							c-0.32-0.15-0.66-0.24-1-0.31c-0.99-0.19-1.88-0.62-2.72-1.14c-0.33-0.2-0.6-0.49-0.86-0.79c-0.25-0.28-0.56-0.46-0.9-0.61
							c-0.33-0.15-0.67-0.31-0.98-0.48c-0.56-0.31-1.11-0.6-1.7-0.83c-0.73-0.29-1.41-0.69-2.11-1.03c-0.55-0.27-1.12-0.5-1.71-0.69
							c-0.27-0.08-0.55-0.13-0.83-0.11c-0.72,0.04-1.43-0.05-2.14-0.16c-1.34-0.22-2.69-0.47-4.04-0.66
							c-0.48-0.07-0.96-0.12-1.44-0.15c-0.45-0.03-0.89-0.11-1.33-0.2c-0.47-0.1-0.95-0.17-1.43-0.22c-0.1-0.02-0.21-0.02-0.32,0.01
							c0.23,0.1,0.48,0.2,0.71,0.32c1.27,0.65,2.53,1.3,3.71,2.09c0.19,0.13,0.39,0.18,0.61,0.15c0.23-0.03,0.46-0.05,0.69-0.09
							c0.46-0.09,0.9-0.02,1.31,0.18c0.65,0.32,1.32,0.6,2.01,0.83c0.41,0.14,0.74,0.4,1.01,0.74c0.24,0.31,0.5,0.62,0.77,0.92
							c0.31,0.34,0.36,0.78,0.34,1.21c-0.01,0.23-0.15,0.34-0.4,0.36c-0.52,0.04-1.02-0.02-1.49-0.22c-0.41-0.17-0.8-0.38-1.17-0.62
							c-0.3-0.2-0.61-0.36-0.96-0.47c-0.44-0.14-0.81-0.38-1.15-0.69c-0.27-0.25-0.55-0.49-0.85-0.69
							c-0.39-0.27-0.62-0.67-0.82-1.08c-0.07-0.15-0.15-0.24-0.28-0.33c-0.78-0.53-1.63-0.94-2.44-1.4
							c-0.46-0.27-0.94-0.5-1.43-0.72c-0.71-0.32-1.47-0.49-2.21-0.68c-1.33-0.35-2.69-0.51-4.07-0.55
							c-0.34-0.02-0.68,0.02-1.02,0.04c-0.7,0.04-1.38-0.01-2.05-0.19C7.99,8.26,7.3,8.18,6.58,8.23c-0.42,0.03-0.83,0-1.24,0.03
							C5.24,8.27,5.16,8.28,5.06,8.3c0.02,0.08,0.09,0.08,0.14,0.09c0.59,0.16,1.14,0.42,1.66,0.74c0.33,0.21,0.71,0.33,1.06,0.49
							c0.07,0.03,0.15,0.05,0.2,0.09c0.51,0.32,1.08,0.51,1.62,0.76c0.08,0.04,0.15,0.08,0.22,0.12c0.85,0.57,1.7,1.14,2.56,1.7
							c0.42,0.28,0.75,0.63,1,1.06c0.13,0.22,0.31,0.41,0.51,0.58c0.45,0.4,0.84,0.86,1.18,1.35c0.27,0.39,0.42,0.83,0.46,1.3
							c0.01,0.05,0.01,0.1,0,0.15c-0.02,0.22-0.17,0.32-0.39,0.27c-0.06-0.01-0.11-0.04-0.16-0.06c-0.56-0.26-1.08-0.58-1.54-1
							c-0.65-0.59-1.19-1.26-1.67-1.98c-0.22-0.35-0.5-0.65-0.82-0.9c-0.3-0.23-0.58-0.47-0.84-0.74c-0.34-0.35-0.6-0.75-0.71-1.23
							c-0.03-0.15-0.11-0.25-0.24-0.32c-0.15-0.07-0.3-0.15-0.44-0.24C8.34,10.2,7.8,9.95,7.23,9.74c-0.22-0.08-0.42-0.2-0.62-0.32
							C6.04,9.09,5.43,8.84,4.8,8.66C4.72,8.64,4.64,8.63,4.56,8.59C4.21,8.42,3.85,8.43,3.47,8.51C2.61,8.67,1.76,8.81,0.89,8.96
							c-0.05,0.01-0.11,0.01-0.17,0C0.63,8.96,0.54,8.93,0.51,8.82s0.03-0.18,0.1-0.24c0.06-0.05,0.13-0.08,0.2-0.1
							C1.06,8.39,1.32,8.32,1.59,8.3c1.48-0.16,2.96-0.42,4.46-0.53c0.57-0.05,1.13-0.01,1.69,0.06c0.41,0.05,0.81,0.05,1.22,0.05
							c0.32,0,0.64-0.11,0.93-0.26c0.77-0.36,1.54-0.74,2.31-1.13c0.3-0.15,0.56-0.36,0.84-0.54c0.24-0.16,0.5-0.3,0.75-0.45
							c0.09-0.05,0.17-0.1,0.23-0.19c0.31-0.46,0.7-0.84,1.15-1.16c0.45-0.33,0.9-0.67,1.37-0.96c0.04-0.03,0.08-0.06,0.11-0.09
							c0.55-0.55,1.24-0.9,1.88-1.31c0.35-0.24,0.72-0.45,1.15-0.51c0.31-0.05,0.63-0.05,0.95-0.03c0.02,0,0.05,0.01,0.07,0.01
							c0.33,0.06,0.42,0.24,0.24,0.53c-0.17,0.27-0.34,0.54-0.56,0.77c-0.29,0.31-0.64,0.53-1.04,0.68c-0.28,0.1-0.55,0.2-0.82,0.31
							c-0.31,0.12-0.58,0.32-0.86,0.49c-0.23,0.15-0.47,0.27-0.75,0.32c-0.1,0.02-0.19,0.05-0.28,0.09c-0.41,0.2-0.82,0.41-1.23,0.6
							c-0.24,0.11-0.46,0.27-0.69,0.41c-0.22,0.15-0.46,0.27-0.7,0.39c-0.45,0.2-0.85,0.48-1.27,0.75
							c-0.38,0.24-0.76,0.47-1.18,0.64c-0.45,0.18-0.9,0.39-1.31,0.66C10.23,7.91,10.19,7.93,10.18,7.98z"/>
					</g>
				</g>
			</g>
		</g>
	</g>
</g>
</svg>
