<?xml version="1.0" encoding="utf-8"?>
<!-- Generator: Adobe Illustrator 23.0.1, SVG Export Plug-In . SVG Version: 6.00 Build 0)  -->
<svg version="1.1" id="Layer_1" xmlns="http://www.w3.org/2000/svg" xmlns:xlink="http://www.w3.org/1999/xlink" x="0px" y="0px"
	 viewBox="0 0 53 53" style="enable-background:new 0 0 53 53;" xml:space="preserve">
<style type="text/css">
	.st0{clip-path:url(#SVGID_2_);}
	.st1{fill:#FFFFFF;}
	.st2{clip-path:url(#SVGID_4_);}
	.st3{clip-path:url(#SVGID_6_);}
	.st4{clip-path:url(#SVGID_8_);}
	.st5{clip-path:url(#SVGID_10_);}
	.st6{clip-path:url(#SVGID_12_);}
</style>
<g>
	<defs>
		<rect id="SVGID_1_" x="8.9" width="36" height="22.17"/>
	</defs>
	<clipPath id="SVGID_2_">
		<use xlink:href="#SVGID_1_"  style="overflow:visible;"/>
	</clipPath>
	<g class="st0">
		<path class="st1" d="M31.63,11.66c3.42-0.31,6.76-1.15,9.99-2.29c0.76-0.28,1.62-0.49,2.15-1.17c0.63-0.75,0.7-1.86,0.25-2.72
			c-0.69-1.39-1.36-2.78-2.08-4.16C41.57,0.59,40.83,0.19,40.07,0H39.6c-1.05,0.13-2.1,0.26-3.12,0.53
			c-2.95,0.79-5.65,2.64-7.34,5.19c0.7,0.2,1.29,0.66,1.65,1.3c2.09-1.11,4.39-2.05,6.81-2.01c0.71,0.06,0.9,1.15,0.31,1.49
			C37.47,6.68,37,6.68,36.55,6.75c-2.07,0.24-4.01,1.13-5.76,2.23c-0.02,0.89-0.02,1.78-0.02,2.66c-0.55,0.01-1.1,0.01-1.65,0.01
			c-0.05-1.17,0.06-2.34-0.05-3.51c-0.03-0.5-0.56-0.68-0.99-0.65c-1.1,0-2.21-0.06-3.31,0.04c-0.41,0.02-0.65,0.42-0.64,0.8
			c-0.06,1.1,0.02,2.21-0.02,3.32c-0.55,0.01-1.1,0.01-1.65,0c0-0.89-0.01-1.78-0.02-2.67c-2.03-1.33-4.37-2.19-6.8-2.37
			c-0.88-0.04-0.88-1.52-0.01-1.59c2.41-0.05,4.72,0.9,6.82,2.01c0.38-0.63,0.96-1.09,1.66-1.31c-1.39-2.11-3.47-3.72-5.81-4.68
			C16.82,0.43,15.22,0.17,13.64,0h-0.47c-0.66,0.18-1.32,0.47-1.69,1.07c-0.55,0.88-0.94,1.83-1.42,2.74
			C9.7,4.56,9.24,5.27,9.01,6.07c-0.32,1.18,0.41,2.51,1.57,2.9c3.54,1.36,7.25,2.33,11.03,2.68c0.06,3.32-0.01,6.65,0.03,9.97
			c3.32,0.02,6.64,0.01,9.96,0C31.63,18.3,31.58,14.97,31.63,11.66z"/>
	</g>
</g>
<g>
	<defs>
		<rect id="SVGID_3_" y="11.51" width="20.9" height="10.67"/>
	</defs>
	<clipPath id="SVGID_4_">
		<use xlink:href="#SVGID_3_"  style="overflow:visible;"/>
	</clipPath>
	<g class="st2">
		<path class="st1" d="M19.96,21.62c0.01-3.32,0.02-6.65,0-9.97c-5.83-0.01-11.65-0.01-17.47,0C1.3,11.61,0.35,12.53,0,13.59v6.08
			c0.35,1.07,1.3,1.99,2.48,1.95C8.31,21.63,14.13,21.63,19.96,21.62z"/>
	</g>
</g>
<g>
	<defs>
		<rect id="SVGID_5_" x="32.9" y="11.51" width="20.1" height="10.67"/>
	</defs>
	<clipPath id="SVGID_6_">
		<use xlink:href="#SVGID_5_"  style="overflow:visible;"/>
	</clipPath>
	<g class="st3">
		<path class="st1" d="M50.75,11.65c-5.82-0.01-11.65-0.01-17.47,0c-0.01,3.32-0.01,6.65,0,9.97c5.83,0.02,11.65,0.02,17.47,0
			c1.18,0.04,2.13-0.88,2.48-1.94V13.6C52.89,12.53,51.93,11.61,50.75,11.65z"/>
	</g>
</g>
<g>
	<defs>
		<rect id="SVGID_7_" x="2.23" y="22.17" width="20" height="30.83"/>
	</defs>
	<clipPath id="SVGID_8_">
		<use xlink:href="#SVGID_7_"  style="overflow:visible;"/>
	</clipPath>
	<g class="st4">
		<path class="st1" d="M3.33,23.3c-0.01,9.15-0.01,18.3,0,27.45c-0.04,1.18,0.88,2.13,1.94,2.48h16.35c0-9.98,0.01-19.96-0.01-29.94
			C15.53,23.29,9.43,23.29,3.33,23.3z"/>
	</g>
</g>
<g>
	<defs>
		<rect id="SVGID_9_" x="22.23" y="22.17" width="8" height="30.83"/>
	</defs>
	<clipPath id="SVGID_10_">
		<use xlink:href="#SVGID_9_"  style="overflow:visible;"/>
	</clipPath>
	<g class="st5">
		<path class="st1" d="M23.3,23.3c-0.02,9.98-0.01,19.96-0.01,29.94h6.65c0-9.98,0.01-19.96,0-29.94
			C27.72,23.28,25.51,23.29,23.3,23.3z"/>
	</g>
</g>
<g>
	<defs>
		<rect id="SVGID_11_" x="31.57" y="22.17" width="18.67" height="30.83"/>
	</defs>
	<clipPath id="SVGID_12_">
		<use xlink:href="#SVGID_11_"  style="overflow:visible;"/>
	</clipPath>
	<g class="st6">
		<path class="st1" d="M31.61,23.3c-0.02,9.98,0,19.96-0.01,29.94h16.34c1.07-0.35,1.99-1.3,1.95-2.48c0.01-9.15,0.01-18.3,0-27.45
			C43.8,23.29,37.71,23.29,31.61,23.3z"/>
	</g>
</g>
</svg>
