<?xml version="1.0" encoding="utf-8"?>
<!-- Generator: Adobe Illustrator 23.0.1, SVG Export Plug-In . SVG Version: 6.00 Build 0)  -->
<svg version="1.1" id="Layer_1" xmlns="http://www.w3.org/2000/svg" xmlns:xlink="http://www.w3.org/1999/xlink" x="0px" y="0px"
	 viewBox="0 0 86.69 56.97" style="enable-background:new 0 0 86.69 56.97;" xml:space="preserve">
<style type="text/css">
	.st0{fill:#FFFFFF;}
	.st1{clip-path:url(#SVGID_2_);}
</style>
<g>
	<path class="st0" d="M76.24,55.96H10.07c-5.14,0-9.31-4.18-9.31-9.31c0-3.91,2.47-7.43,6.14-8.76l36.34-13.17
		c0.24-0.09,0.5-0.09,0.74,0l35.49,13.15c3.64,1.34,6.08,4.85,6.08,8.73v0.04C85.55,51.78,81.38,55.96,76.24,55.96z M43.6,26.87
		L7.63,39.9C4.8,40.92,2.9,43.63,2.9,46.64c0,3.95,3.22,7.17,7.17,7.17h66.17c3.96,0,7.17-3.22,7.17-7.17V46.6
		c0-2.98-1.88-5.69-4.68-6.72L43.6,26.87z"/>
</g>
<g>
	<defs>
		<rect id="SVGID_1_" x="32.1" y="0.62" width="22.67" height="20.34"/>
	</defs>
	<clipPath id="SVGID_2_">
		<use xlink:href="#SVGID_1_"  style="overflow:visible;"/>
	</clipPath>
	<g class="st1">
		<path class="st0" d="M44.15,20.66c-0.59,0-1.07-0.48-1.07-1.07c0-0.59,0.48-1.07,1.07-1.07c2.13,0,4.13-0.84,5.61-2.36
			c1.49-1.53,2.28-3.54,2.23-5.68c-0.05-2.01-0.86-3.91-2.3-5.34c-1.43-1.44-3.33-2.26-5.34-2.31c-3.5-0.09-6.57,2.07-7.67,5.39
			c-0.23,0.72-0.76,1.32-1.44,1.66l-1.55,0.76c-0.53,0.26-1.17,0.04-1.43-0.49s-0.05-1.17,0.48-1.43l1.55-0.76
			c0.17-0.08,0.29-0.23,0.35-0.41c0.66-1.99,1.96-3.77,3.68-5c1.78-1.28,3.88-1.92,6.08-1.86c2.56,0.07,4.97,1.11,6.8,2.94
			c1.83,1.83,2.86,4.24,2.93,6.8c0.06,2.72-0.94,5.28-2.84,7.22S46.86,20.66,44.15,20.66z"/>
	</g>
</g>
<path class="st0" d="M43.6,26.79c-0.59,0-1.07-0.48-1.07-1.07V19.6c0-0.59,0.48-1.07,1.07-1.07c0.59,0,1.07,0.48,1.07,1.07v6.13
	C44.68,26.32,44.2,26.79,43.6,26.79z"/>
</svg>
