<?xml version="1.0" encoding="UTF-8" standalone="no"?>
<!-- Created with Inkscape (http://www.inkscape.org/) -->

<svg
   version="1.1"
   id="svg2"
   width="1158.5601"
   height="1403.3333"
   viewBox="0 0 1158.5601 1403.3333"
   sodipodi:docname="L Y H vectores.eps"
   xmlns:inkscape="http://www.inkscape.org/namespaces/inkscape"
   xmlns:sodipodi="http://sodipodi.sourceforge.net/DTD/sodipodi-0.dtd"
   xmlns="http://www.w3.org/2000/svg"
   xmlns:svg="http://www.w3.org/2000/svg">
  <defs
     id="defs6" />
  <sodipodi:namedview
     id="namedview4"
     pagecolor="#ffffff"
     bordercolor="#000000"
     borderopacity="0.25"
     inkscape:showpageshadow="2"
     inkscape:pageopacity="0.0"
     inkscape:pagecheckerboard="0"
     inkscape:deskcolor="#d1d1d1" />
  <g
     id="g8"
     inkscape:groupmode="layer"
     inkscape:label="ink_ext_XXXXXX"
     transform="matrix(1.3333333,0,0,-1.3333333,0,1403.3333)">
    <g
       id="g10"
       transform="scale(0.1)">
      <path
         d="m 5518.31,4701.55 h 599.41 v 369.18 c 0,65.96 -4.12,109.41 -12.35,130.34 -6.36,15.85 -19.68,29.51 -39.96,40.91 -27.29,15.24 -56.14,22.84 -86.59,22.84 h -45.68 v 35.2 H 6485 v -35.2 h -45.68 c -30.44,0 -59.31,-7.29 -86.58,-21.88 -20.3,-10.16 -34.1,-25.54 -41.38,-46.16 -7.31,-20.61 -10.94,-62.63 -10.94,-126.05 v -832.54 c 0,-65.33 4.11,-108.47 12.36,-129.4 6.34,-15.85 19.35,-29.51 39.02,-40.92 27.89,-15.23 57.08,-22.83 87.52,-22.83 H 6485 v -35.2 h -551.86 v 35.2 h 45.68 c 52.64,0 91,15.54 115.13,46.63 15.85,20.28 23.77,69.14 23.77,146.52 v 392.95 h -599.41 v -392.95 c 0,-65.33 4.11,-108.47 12.36,-129.4 6.34,-15.85 19.66,-29.51 39.96,-40.92 27.28,-15.23 56.14,-22.83 86.58,-22.83 h 46.64 v -35.2 h -552.81 v 35.2 h 45.67 c 53.29,0 91.96,15.54 116.08,46.63 15.23,20.28 22.83,69.14 22.83,146.52 v 832.54 c 0,65.96 -4.13,109.41 -12.37,130.34 -6.35,15.85 -19.36,29.51 -39.01,40.91 -27.91,15.24 -57.08,22.84 -87.53,22.84 h -45.67 v 35.2 h 552.81 v -35.2 h -46.64 c -30.44,0 -59.3,-7.29 -86.58,-21.88 -19.67,-10.16 -33.3,-25.54 -40.9,-46.16 -7.62,-20.61 -11.42,-62.63 -11.42,-126.05 v -369.18"
         style="fill:#e0cb9d;fill-opacity:1;fill-rule:nonzero;stroke:none"
         id="path12" />
      <path
         d="m 4537,2420.54 c 801.6,29.16 1390.91,323.76 1626.01,513.38 235.61,190.02 481.14,364.93 675.65,594.48 199.5,235.47 362.87,490.45 485.51,757.85 123.16,268.47 204.91,556.01 242.99,854.6 37.32,292.6 31.86,595.35 -16.25,899.82 -55.09,348.76 -139.44,617.93 -265.44,847.09 -102.33,186.12 -194.41,361.95 -310.13,527.52 -45.41,64.96 -93.61,129.81 -130.72,189.63 l -21.04,33.91 28.94,-27.46 c 371.87,-352.84 648.56,-849.52 779.08,-1398.53 151.61,-637.71 96.22,-1311.81 -160.21,-1949.44 -236.67,-588.52 -653.78,-1077.31 -1206.24,-1413.52 -474.81,-288.94 -1024.9,-444.23 -1565.4,-444.23 -54.19,0 -108.26,1.56 -162.17,4.7 l -44.57,2.61 z m -1114,194.93 c 523.96,-236.99 1073.03,-321.21 1631.97,-250.22 782.68,99.39 1459.99,470.38 2013.14,1102.67 958.65,1095.78 881.11,2517.29 379,3439.99 C 7020.83,7691.29 6371.23,8225.89 5516.34,8496.86 4996.28,8661.71 4515.97,8703.51 4048.01,8624.67 2558.23,8373.62 1533.17,7235.6 1436.55,5725.41 c -0.52,-8.11 0.68,-16.37 2.5,-24.89 40.87,413.67 141.75,795.47 300,1135.28 168.17,361.15 407.04,687.62 709.97,970.34 609.12,568.49 1350.35,841.89 2203.32,812.28 l 0.1,-10.28 c -899.4,-46.9 -1644.07,-362.97 -2213.33,-939.45 -592.86,-600.33 -889.09,-1342.73 -880.49,-2206.5 l 34.18,-7.79 10.23,89.57 c 5.22,45.13 9.82,91.17 14.28,135.69 9.65,96.35 19.61,195.98 36.42,292.86 122.97,708.49 521.55,1386.13 1093.55,1859.13 617.6,510.72 1394.17,750.26 2186.61,674.29 571.53,-54.76 1029.3,-217.58 1399.5,-497.75 736.29,-557.22 1140.33,-1311.51 1200.87,-2241.9 57.81,-888.15 -195.35,-1646.32 -752.43,-2253.44 -887.13,-966.87 -1994.31,-1258.68 -3290.84,-867.46 -28.06,8.46 -57.81,13.6 -86.56,18.58 -12.28,2.13 -24.56,4.26 -36.76,6.63 l -5.05,-17.29 c 5.72,-3.74 11.39,-7.63 17.03,-11.53 13.86,-9.57 28.2,-19.47 43.35,-26.31"
         style="fill:#e0cb9d;fill-opacity:1;fill-rule:nonzero;stroke:none"
         id="path14" />
      <path
         d="m 3999.76,6226.4 c 0,-134.73 0,-269.47 0,-411.54 -320.57,0 -656.03,0 -945.49,0 51.68,25.62 81.6,69.61 83.21,216.78 7.02,315.02 4.31,630.28 2.55,945.44 -0.42,76.43 -6.29,155.52 -107.16,182.5 145.56,0 291.12,0 436.69,0 -147.97,-41.96 -119.57,-162.14 -119.91,-267.36 -1,-308.32 -0.36,-616.65 -0.36,-924.98 0,-36.81 0,-53.05 0,-122.8 150,0 289.17,20.66 418.69,62.88 146.86,47.87 176.65,193.69 203.56,332.38 9.41,-4.43 18.82,-8.87 28.22,-13.3"
         style="fill:#e0cb9d;fill-opacity:1;fill-rule:nonzero;stroke:none"
         id="path16" />
      <path
         d="m 4502,5461.95 c 84.97,21.6 149.72,49.56 194.25,83.84 44.53,34.28 66.8,73.04 66.8,116.27 0,22.72 -7.54,41.37 -22.64,55.9 -15.09,14.53 -34.37,21.81 -57.85,21.81 -25.35,0 -50.41,-9.42 -75.18,-28.24 -24.79,-18.82 -47.43,-45.75 -67.92,-80.77 -13.42,-23.48 -23.39,-46.59 -29.91,-69.31 -6.52,-22.74 -9.78,-45.66 -9.78,-68.77 0,-4.1 0.09,-8.09 0.28,-12.01 0.18,-3.91 0.84,-10.16 1.95,-18.72 z m 149.81,-448.88 c -48.82,66.33 -88.04,133.04 -117.66,200.13 -29.63,67.07 -51.15,137.31 -64.57,210.73 -76.02,-24.97 -133.87,-60.85 -173.56,-107.6 -39.69,-46.78 -59.54,-102.58 -59.54,-167.42 0,-60.01 20.41,-107.79 61.21,-143.38 40.81,-35.59 95.87,-53.39 165.19,-53.39 35.4,0 68.56,4.94 99.5,14.81 30.92,9.88 60.73,25.24 89.43,46.12 z m 16.21,-25.7 c -30.93,-22.74 -64.84,-39.79 -101.73,-51.16 -36.9,-11.36 -76.4,-17.04 -118.51,-17.04 -82.73,0 -150.09,23.57 -202.07,70.71 -51.99,47.13 -77.98,107.78 -77.98,181.94 0,72.3 24.68,131.93 74.07,178.89 49.37,46.95 123.81,81.24 223.31,102.85 -1.87,17.14 -3.07,29.81 -3.63,38.01 -0.56,8.19 -0.84,15.83 -0.84,22.91 0,76.4 20.03,137.42 60.09,183.07 40.06,45.65 93.26,68.48 159.59,68.48 45.46,0 80.87,-10.15 106.21,-30.47 25.34,-20.31 38.01,-48.35 38.01,-84.12 0,-45.48 -24.69,-85.25 -74.06,-119.34 -49.39,-34.11 -131.46,-67.17 -246.24,-99.22 9.69,-73.05 28.6,-142.92 56.74,-209.63 28.13,-66.71 65.68,-131.17 112.63,-193.4 20.5,20.86 36.34,41.55 47.52,62.04 11.18,20.49 16.77,39.49 16.77,57.02 -0.38,8.57 -1.59,15.65 -3.63,21.24 -2.06,5.59 -4.39,8.39 -6.99,8.39 -0.38,0 -1.5,-0.75 -3.35,-2.24 -10.82,-8.94 -22.18,-13.41 -34.11,-13.41 -13.04,0 -23.57,4.09 -31.58,12.3 -8.02,8.18 -12.01,19 -12.01,32.41 0,14.16 4.75,25.71 14.25,34.66 9.5,8.95 22.26,13.41 38.29,13.41 20.87,0 38.29,-9.13 52.27,-27.39 13.97,-18.26 20.96,-41.55 20.96,-69.87 0,-27.21 -6.81,-53.29 -20.4,-78.26 -13.61,-24.97 -34.2,-49.75 -61.78,-74.35 l 26.28,-34.09 0.56,-0.56 c 8.57,-12.68 12.85,-21.61 12.85,-26.83 0,-2.99 -0.55,-5.31 -1.67,-6.98 -1.12,-1.68 -2.8,-2.52 -5.03,-2.52 -6.71,0 -13.42,3.91 -20.13,11.73 -1.49,1.86 -2.42,2.99 -2.79,3.36 l -31.87,37.46"
         style="fill:#e0cb9d;fill-opacity:1;fill-rule:nonzero;stroke:none"
         id="path18" />
      <path
         d="m 1257.11,5616.56 c 8.57,-164.66 243.01,-900.02 253.96,-901.54 -264.17,274.15 -290.07,903.76 -253.96,901.54 z m 2114.57,-1687.3 c -68.03,-151.51 -191.3,-914.98 -181.93,-921.19 -116.7,362.85 149.72,939.16 181.93,921.19 z m -522.15,211.82 c 77.98,146.64 251.88,900.19 242.95,907.01 92.24,-369.83 -212.01,-927.08 -242.95,-907.01 z M 1196.65,3742.36 c 143.38,-83.83 889.29,-287.99 896.48,-279.34 -373.25,-77.25 -917.78,249.24 -896.48,279.34 z m -570.197,732.12 c 281.488,73.1 919.557,-242.62 898.467,-272.87 -143.98,82.8 -891.35,281.57 -898.467,272.87 z M 2387.9,4206.29 c -10.03,217.94 -246.54,1146.35 -267.52,1187.75 248.29,-346.46 304.51,-1185.38 267.52,-1187.75 z m 1035.48,-781 c 5.91,232.47 4.71,465.11 5.8,697.67 0.02,4.17 -9.1,8.38 -24.35,21.52 -124.44,-155.57 -231.57,-319.02 -296.3,-508.15 -53.46,-156.17 -59.31,-313.48 -22.09,-475.59 37.77,-164.5 64.1,-331.65 95.44,-497.63 -173.17,274.2 -334.43,549.54 -283.4,888.94 6.55,43.63 3.86,89.15 1.23,133.56 -7.48,126.2 10.95,241.26 95.98,344.88 44.26,53.96 68.96,125.83 95,192.53 135.09,346.04 122.47,704.72 85.78,1064.92 -2.51,24.71 -11.19,48.8 -22.46,96.1 -78.31,-154.38 -148.43,-285.73 -212.13,-420.11 -67.33,-142.01 -139.1,-283.32 -189.6,-431.52 -56.63,-166.14 -65.9,-345.88 29.11,-498.41 72.9,-117.03 81,-233.1 79.52,-359.7 -1.34,-113.07 4.27,-226.21 5.72,-339.32 0.31,-23.75 -4.18,-47.56 -7.72,-84.56 -67.37,104.43 -134.42,188.97 -180.39,283.72 -93.41,192.52 -182.15,380.88 -158.09,613.68 42.68,412.99 18.81,822.09 -202.79,1195.25 -92.58,155.91 -173.64,318.63 -261.01,477.65 -6.43,11.7 -21.69,18.55 -21.7,18.55 -10.64,-294.21 -30.03,-589.69 -29.83,-885.16 0.24,-375.75 133.89,-700.38 401.57,-971.07 68.3,-69.07 108.48,-165.95 161.58,-250.04 -257.56,232.42 -498.58,471 -744.75,704.15 -96.41,91.32 -157.09,196.97 -179.59,325.99 -22.36,128.19 -48.15,256.02 -64.18,385.03 -38.45,309.51 -281.34,518.2 -387.19,828.37 -26.63,-63.82 -51.39,-98.52 -54.67,-135.15 -17.66,-196.94 -48.02,-395.07 -40.19,-591.45 14.09,-352.92 192.33,-610.83 504.05,-782.03 112.2,-61.61 217.65,-140.08 314.35,-224.41 184.23,-160.68 359.95,-331.12 550.2,-507.71 -28.73,-2.84 -36.66,-6.24 -40.56,-3.63 -309.16,207.18 -617.94,414.9 -926.89,622.39 -51.17,34.37 -101.29,70.73 -154.67,101.33 -289.41,165.88 -600,156.17 -929.812,119.96 19.875,-32.43 27.316,-51.64 40.574,-65.14 259.879,-264.92 573.518,-395.4 945.588,-359.04 134.26,13.12 259.65,9.15 376.05,-62.65 232.82,-143.61 469.34,-281.89 695.84,-434.93 241.94,-163.46 341.59,-433.17 476.9,-675.75 -275.27,188.16 -552.99,370.44 -808.87,579.41 -344.62,281.44 -760.46,275.13 -1165.543,334.98 -1.188,-15.94 -5.215,-26.9 -1.992,-34.98 8.808,-22.1 19.414,-43.73 31.515,-64.24 97.8,-165.65 241.46,-277.82 415.78,-353.42 222.81,-96.63 458.18,-114.56 695.87,-98.24 143.19,9.85 263.34,-28.76 388.1,-98.56 340.9,-190.71 609.3,-437.41 717.73,-826.88 5.42,-19.46 16.62,-37.67 27.08,-55.29 10.19,-17.17 22.9,-32.84 34.49,-49.16 12.38,19.87 14.25,34.51 8.42,44.8 -91.65,161.86 -97.95,340.75 -97.56,518.86 0.11,48.02 22.76,104.94 53.73,142.32 99.27,119.82 171.33,250.07 175.33,407.36"
         style="fill:#e0cb9d;fill-opacity:1;fill-rule:nonzero;stroke:none"
         id="path20" />
    </g>
  </g>
</svg>
