<?xml version="1.0" encoding="utf-8"?>
<!-- Generator: Adobe Illustrator 23.0.1, SVG Export Plug-In . SVG Version: 6.00 Build 0)  -->
<svg version="1.1"
	 id="svg2" sodipodi:docname="L Y H vectores.eps" xmlns:inkscape="http://www.inkscape.org/namespaces/inkscape" xmlns:sodipodi="http://sodipodi.sourceforge.net/DTD/sodipodi-0.dtd" xmlns:svg="http://www.w3.org/2000/svg"
	 xmlns="http://www.w3.org/2000/svg" xmlns:xlink="http://www.w3.org/1999/xlink" x="0px" y="0px" viewBox="0 0 600 600"
	 style="enable-background:new 0 0 600 600;" xml:space="preserve">
<style type="text/css">
	.st0{fill:#E0CB9D;}
</style>
<sodipodi:namedview  bordercolor="#000000" borderopacity="0.25" id="namedview4" inkscape:deskcolor="#d1d1d1" inkscape:pagecheckerboard="0" inkscape:pageopacity="0.0" inkscape:showpageshadow="2" pagecolor="#ffffff">
	</sodipodi:namedview>
<g id="g8" transform="matrix(1.3333333,0,0,-1.3333333,0,1403.3333)" inkscape:groupmode="layer" inkscape:label="ink_ext_XXXXXX">
	<g id="g10" transform="scale(0.1)">
		<path id="path12" class="st0" d="M2919.1,7955.2h341.7v210.5c0,37.6-2.3,62.4-7,74.3c-3.6,9-11.2,16.8-22.8,23.3
			c-15.6,8.7-32,13-49.4,13h-26v20.1h314.6v-20.1h-26c-17.4,0-33.8-4.2-49.4-12.5c-11.6-5.8-19.4-14.6-23.6-26.3
			c-4.2-11.7-6.2-35.7-6.2-71.9v-474.6c0-37.2,2.3-61.8,7-73.8c3.6-9,11-16.8,22.2-23.3c15.9-8.7,32.5-13,49.9-13h26v-20.1h-314.6
			v20.1h26c30,0,51.9,8.9,65.6,26.6c9,11.6,13.6,39.4,13.6,83.5v224h-341.7v-224c0-37.2,2.3-61.8,7-73.8c3.6-9,11.2-16.8,22.8-23.3
			c15.6-8.7,32-13,49.4-13h26.6v-20.1h-315.1v20.1h26c30.4,0,52.4,8.9,66.2,26.6c8.7,11.6,13,39.4,13,83.5v474.6
			c0,37.6-2.4,62.4-7.1,74.3c-3.6,9-11,16.8-22.2,23.3c-15.9,8.7-32.5,13-49.9,13h-26v20.1h315.1v-20.1h-26.6
			c-17.4,0-33.8-4.2-49.4-12.5c-11.2-5.8-19-14.6-23.3-26.3c-4.3-11.7-6.5-35.7-6.5-71.9L2919.1,7955.2"/>
		<path id="path14" class="st0" d="M2359.7,6654.9c457,16.6,792.9,184.6,926.9,292.7c134.3,108.3,274.3,208,385.2,338.9
			c113.7,134.2,206.9,279.6,276.8,432c70.2,153,116.8,317,138.5,487.2c21.3,166.8,18.2,339.4-9.3,513
			c-31.4,198.8-79.5,352.3-151.3,482.9c-58.3,106.1-110.8,206.3-176.8,300.7c-25.9,37-53.4,74-74.5,108.1l-12,19.3l16.5-15.7
			c212-201.1,369.7-484.3,444.1-797.3c86.4-363.5,54.9-747.8-91.3-1111.3c-134.9-335.5-372.7-614.1-687.6-805.8
			c-270.7-164.7-584.3-253.2-892.4-253.2c-30.9,0-61.7,0.9-92.4,2.7l-25.4,1.5L2359.7,6654.9z M1724.6,6766
			c298.7-135.1,611.7-183.1,930.3-142.6c446.2,56.7,832.3,268.1,1147.6,628.6c546.5,624.7,502.3,1435,216.1,1961
			c-243,446.6-613.3,751.3-1100.7,905.8c-296.5,94-570.3,117.8-837.1,72.9c-849.3-143.1-1433.6-791.9-1488.7-1652.8
			c-0.3-4.6,0.4-9.3,1.4-14.2c23.3,235.8,80.8,453.5,171,647.2c95.9,205.9,232,392,404.7,553.2c347.2,324.1,769.8,479.9,1256,463.1
			l0.1-5.9c-512.7-26.7-937.2-206.9-1261.8-535.6c-338-342.2-506.8-765.5-501.9-1257.9l19.5-4.4l5.8,51.1c3,25.7,5.6,52,8.1,77.4
			c5.5,54.9,11.2,111.7,20.8,167c70.1,403.9,297.3,790.2,623.4,1059.8c352.1,291.1,794.8,427.7,1246.5,384.4
			c325.8-31.2,586.8-124,797.8-283.8c419.7-317.7,650.1-747.7,684.6-1278c33-506.3-111.4-938.5-428.9-1284.6
			c-505.7-551.2-1136.9-717.5-1876-494.5c-16,4.8-33,7.8-49.3,10.6c-7,1.2-14,2.4-21,3.8l-2.9-9.9c3.3-2.1,6.5-4.3,9.7-6.6
			C1707.8,6775.5,1716,6769.9,1724.6,6766"/>
		<path id="path16" class="st0" d="M2053.4,8824.5c0-76.8,0-153.6,0-234.6c-182.7,0-374,0-539,0c29.5,14.6,46.5,39.7,47.4,123.6
			c4,179.6,2.5,359.3,1.5,539c-0.2,43.6-3.6,88.7-61.1,104c83,0,166,0,248.9,0c-84.4-23.9-68.2-92.4-68.4-152.4
			c-0.6-175.8-0.2-351.5-0.2-527.3c0-21,0-30.2,0-70c85.5,0,164.8,11.8,238.7,35.8c83.7,27.3,100.7,110.4,116,189.5
			C2042.7,8829.5,2048.1,8827,2053.4,8824.5"/>
		<path id="path18" class="st0" d="M2339.7,8388.7c48.4,12.3,85.4,28.3,110.7,47.8c25.4,19.5,38.1,41.6,38.1,66.3
			c0,13-4.3,23.6-12.9,31.9c-8.6,8.3-19.6,12.4-33,12.4c-14.5,0-28.7-5.4-42.9-16.1c-14.1-10.7-27-26.1-38.7-46
			c-7.7-13.4-13.3-26.6-17.1-39.5c-3.7-13-5.6-26-5.6-39.2c0-2.3,0.1-4.6,0.2-6.8C2338.7,8397.1,2339.1,8393.6,2339.7,8388.7
			L2339.7,8388.7z M2425.1,8132.8c-27.8,37.8-50.2,75.8-67.1,114.1c-16.9,38.2-29.2,78.3-36.8,120.1c-43.3-14.2-76.3-34.7-98.9-61.3
			c-22.6-26.7-33.9-58.5-33.9-95.4c0-34.2,11.6-61.4,34.9-81.7c23.3-20.3,54.7-30.4,94.2-30.4c20.2,0,39.1,2.8,56.7,8.4
			C2391.8,8112.1,2408.8,8120.9,2425.1,8132.8z M2434.4,8118.2c-17.6-13-37-22.7-58-29.2c-21-6.5-43.6-9.7-67.6-9.7
			c-47.2,0-85.6,13.4-115.2,40.3c-29.6,26.9-44.5,61.4-44.5,103.7c0,41.2,14.1,75.2,42.2,102c28.1,26.8,70.6,46.3,127.3,58.6
			c-1.1,9.8-1.8,17-2.1,21.7c-0.3,4.7-0.5,9-0.5,13.1c0,43.6,11.4,78.3,34.3,104.4c22.8,26,53.2,39,91,39c25.9,0,46.1-5.8,60.5-17.4
			c14.4-11.6,21.7-27.6,21.7-48c0-25.9-14.1-48.6-42.2-68c-28.2-19.4-74.9-38.3-140.4-56.6c5.5-41.6,16.3-81.5,32.3-119.5
			c16-38,37.4-74.8,64.2-110.3c11.7,11.9,20.7,23.7,27.1,35.4c6.4,11.7,9.6,22.5,9.6,32.5c-0.2,4.9-0.9,8.9-2.1,12.1
			c-1.2,3.2-2.5,4.8-4,4.8c-0.2,0-0.9-0.4-1.9-1.3c-6.2-5.1-12.6-7.6-19.4-7.6c-7.4,0-13.4,2.3-18,7c-4.6,4.7-6.8,10.8-6.8,18.5
			c0,8.1,2.7,14.7,8.1,19.8c5.4,5.1,12.7,7.6,21.8,7.6c11.9,0,21.8-5.2,29.8-15.6c8-10.4,11.9-23.7,11.9-39.8
			c0-15.5-3.9-30.4-11.6-44.6c-7.8-14.2-19.5-28.4-35.2-42.4l15-19.4l0.3-0.3c4.9-7.2,7.3-12.3,7.3-15.3c0-1.7-0.3-3-1-4
			c-0.6-1-1.6-1.4-2.9-1.4c-3.8,0-7.7,2.2-11.5,6.7c-0.8,1.1-1.4,1.7-1.6,1.9L2434.4,8118.2"/>
		<path id="path20" class="st0" d="M489.9,8476.8c4.9-93.9,138.5-513.1,144.8-513.9C484.1,8119.2,469.3,8478.1,489.9,8476.8z
			 M1695.4,7515c-38.8-86.4-109.1-521.6-103.7-525.1C1525.1,7196.7,1677,7525.2,1695.4,7515z M1397.7,7635.7
			c44.5,83.6,143.6,513.2,138.5,517.1C1588.8,7941.9,1415.3,7624.3,1397.7,7635.7z M455.4,7408.4c81.7-47.8,507-164.2,511.1-159.2
			C753.7,7205.1,443.3,7391.3,455.4,7408.4z M130.4,7825.8c160.5,41.7,524.2-138.3,512.2-155.6
			C560.5,7717.4,134.4,7830.7,130.4,7825.8z M1134.5,7672.9C1128.8,7797.1,994,8326.4,982,8350
			C1123.6,8152.5,1155.6,7674.2,1134.5,7672.9z M1724.8,7227.7c3.4,132.5,2.7,265.1,3.3,397.7c0,2.4-5.2,4.8-13.9,12.3
			c-70.9-88.7-132-181.9-168.9-289.7c-30.5-89-33.8-178.7-12.6-271.1c21.5-93.8,36.5-189.1,54.4-283.7
			c-98.7,156.3-190.6,313.3-161.6,506.8c3.7,24.9,2.2,50.8,0.7,76.1c-4.3,71.9,6.2,137.5,54.7,196.6c25.2,30.8,39.3,71.7,54.2,109.8
			c77,197.3,69.8,401.7,48.9,607.1c-1.4,14.1-6.4,27.8-12.8,54.8c-44.6-88-84.6-162.9-120.9-239.5c-38.4-81-79.3-161.5-108.1-246
			c-32.3-94.7-37.6-197.2,16.6-284.1c41.6-66.7,46.2-132.9,45.3-205.1c-0.8-64.5,2.4-129,3.3-193.4c0.2-13.5-2.4-27.1-4.4-48.2
			c-38.4,59.5-76.6,107.7-102.8,161.7c-53.3,109.8-103.8,217.1-90.1,349.8c24.3,235.4,10.7,468.6-115.6,681.4
			c-52.8,88.9-99,181.6-148.8,272.3c-3.7,6.7-12.4,10.6-12.4,10.6c-6.1-167.7-17.1-336.2-17-504.6c0.1-214.2,76.3-399.3,228.9-553.6
			c38.9-39.4,61.8-94.6,92.1-142.5c-146.8,132.5-284.2,268.5-424.6,401.4c-55,52.1-89.6,112.3-102.4,185.8
			c-12.7,73.1-27.4,145.9-36.6,219.5c-21.9,176.4-160.4,295.4-220.7,472.2c-15.2-36.4-29.3-56.2-31.2-77
			c-10.1-112.3-27.4-225.2-22.9-337.2c8-201.2,109.6-348.2,287.3-445.8c64-35.1,124.1-79.9,179.2-127.9
			c105-91.6,205.2-188.8,313.7-289.4c-16.4-1.6-20.9-3.6-23.1-2.1c-176.2,118.1-352.3,236.5-528.4,354.8
			c-29.2,19.6-57.7,40.3-88.2,57.8c-165,94.6-342,89-530.1,68.4c11.3-18.5,15.6-29.4,23.1-37.1c148.1-151,326.9-225.4,539.1-204.7
			c76.5,7.5,148,5.2,214.4-35.7c132.7-81.9,267.6-160.7,396.7-247.9c137.9-93.2,194.7-246.9,271.9-385.2
			c-156.9,107.3-315.2,211.2-461.1,330.3C797,7463.6,559.9,7460,329,7494.1c-0.7-9.1-3-15.3-1.1-19.9c5-12.6,11.1-24.9,18-36.6
			c55.8-94.4,137.6-158.4,237-201.5c127-55.1,261.2-65.3,396.7-56c81.6,5.6,150.1-16.4,221.2-56.2
			c194.3-108.7,347.3-249.4,409.2-471.4c3.1-11.1,9.5-21.5,15.4-31.5c5.8-9.8,13.1-18.7,19.7-28c7.1,11.3,8.1,19.7,4.8,25.5
			c-52.2,92.3-55.8,194.3-55.6,295.8c0.1,27.4,13,59.8,30.6,81.1C1681.5,7063.7,1722.6,7138,1724.8,7227.7"/>
	</g>
</g>
</svg>
