<?xml version="1.0" encoding="utf-8"?>
<!-- Generator: Adobe Illustrator 23.0.1, SVG Export Plug-In . SVG Version: 6.00 Build 0)  -->
<svg version="1.1" id="Layer_1" xmlns="http://www.w3.org/2000/svg" xmlns:xlink="http://www.w3.org/1999/xlink" x="0px" y="0px"
	 viewBox="0 0 31 47" style="enable-background:new 0 0 31 47;" xml:space="preserve">
<style type="text/css">
	.st0{clip-path:url(#SVGID_2_);}
	.st1{fill:#FFFFFF;}
</style>
<g>
	<defs>
		<rect id="SVGID_1_" y="0" width="31" height="47"/>
	</defs>
	<clipPath id="SVGID_2_">
		<use xlink:href="#SVGID_1_"  style="overflow:visible;"/>
	</clipPath>
	<g class="st0">
		<path class="st1" d="M15.5,43.95l12.87-24.03c0.24-0.7,0.43-1.43,0.55-2.16c0.13-0.74,0.19-1.51,0.19-2.29
			c0-3.76-1.53-7.16-3.98-9.61c-2.47-2.46-5.87-3.97-9.63-3.97S8.34,3.4,5.87,5.86c-2.46,2.45-3.98,5.85-3.98,9.61
			c0,0.79,0.06,1.55,0.19,2.29c0.13,0.73,0.31,1.46,0.55,2.16L15.5,43.95z M15.5,7.01c2.39,0,4.54,0.97,6.09,2.53
			c1.57,1.55,2.54,3.7,2.54,6.08c0,0.49-0.05,0.97-0.13,1.45c-0.08,0.48-0.2,0.94-0.36,1.4c-0.6,1.7-1.72,3.16-3.17,4.18
			c-1.41,0.99-3.12,1.57-4.97,1.57c-1.85,0-3.57-0.58-4.97-1.57c-1.45-1.02-2.56-2.47-3.16-4.18l-0.01,0.01
			C7.2,18.02,7.08,17.56,7,17.07c-0.09-0.48-0.13-0.96-0.13-1.45c0-2.38,0.97-4.53,2.54-6.08C10.96,7.98,13.11,7.01,15.5,7.01z
			 M20.27,10.86c-1.22-1.21-2.91-1.97-4.77-1.97s-3.55,0.76-4.77,1.97c-1.22,1.22-1.97,2.9-1.97,4.76c0,0.4,0.03,0.78,0.1,1.14
			c0.06,0.37,0.16,0.74,0.28,1.09c0.47,1.33,1.34,2.46,2.47,3.26c1.1,0.78,2.44,1.23,3.9,1.23s2.8-0.46,3.9-1.23
			c1.13-0.8,2-1.93,2.47-3.26c0.12-0.35,0.21-0.71,0.28-1.09c0.06-0.36,0.1-0.74,0.1-1.14C22.24,13.76,21.48,12.09,20.27,10.86z
			 M30.06,20.72L16.33,46.36c-0.08,0.17-0.21,0.31-0.39,0.39c-0.45,0.24-1.03,0.08-1.27-0.38L0.97,20.78
			c-0.03-0.06-0.06-0.12-0.08-0.19c-0.29-0.81-0.51-1.66-0.66-2.52C0.08,17.21,0,16.35,0,15.47c0-4.28,1.73-8.14,4.55-10.94
			C7.35,1.73,11.22,0,15.5,0s8.15,1.73,10.95,4.53C29.27,7.33,31,11.19,31,15.47c0,0.88-0.08,1.74-0.22,2.6
			c-0.15,0.86-0.38,1.71-0.66,2.52C30.1,20.63,30.08,20.68,30.06,20.72z"/>
	</g>
</g>
</svg>
