<?xml version="1.0" encoding="utf-8"?>
<!-- Generator: Adobe Illustrator 23.0.1, SVG Export Plug-In . SVG Version: 6.00 Build 0)  -->
<svg version="1.1" id="Layer_1" xmlns="http://www.w3.org/2000/svg" xmlns:xlink="http://www.w3.org/1999/xlink" x="0px" y="0px"
	 viewBox="0 0 64 32.99" style="enable-background:new 0 0 64 32.99;" xml:space="preserve">
<style type="text/css">
	.st0{clip-path:url(#SVGID_2_);}
	.st1{fill:#FFFFFF;}
</style>
<g>
	<defs>
		<rect id="SVGID_1_" width="64" height="33"/>
	</defs>
	<clipPath id="SVGID_2_">
		<use xlink:href="#SVGID_1_"  style="overflow:visible;"/>
	</clipPath>
	<g class="st0">
		<path class="st1" d="M63.26,20.64c-0.93-1.62-2.75-1.91-5.78-2.39c-0.72-0.11-1.54-0.24-2.42-0.41c-0.94-0.17-4.22-0.79-6.86-1.6
			c-0.2-0.06-0.41-0.13-0.61-0.19c-5.27-1.74-9.59-4.77-13.78-7.69c-0.49-0.35-1.01-0.68-1.51-0.99c-0.84-0.54-1.72-1.1-2.49-1.74
			c-0.47-0.39-0.88-0.76-1.24-1.09c-1.2-1.08-2.07-1.87-3.32-1.8c-0.28-0.92-0.93-2.52-2.17-2.65c-0.75-0.08-1.26,0.41-2.63,1.83
			c-2.15,2.23-2.89,3.04-3.05,3.72c-0.44,1.89,0.73,3.67,1.51,4.59c-1.93,1.08-4.64,1.39-6.37,0.52c-1.03-0.52-1.57-1.38-2.15-2.28
			C9.68,7.35,8.88,6.08,7.03,5.53C6.57,5.39,5.18,4.97,4.16,5.72C3.38,6.29,3.27,7.18,3.13,8.21C3.1,8.44,3.07,8.68,3.03,8.94
			C2.96,9.33,2.89,9.68,2.8,9.99c-0.13,0.44-0.27,0.77-0.45,1.2c-0.22,0.51-0.49,1.15-0.81,2.18c-0.6,1.95-1.51,4.9-1.2,7.89
			c0.11,1.05,0.36,2.05,0.76,2.96c0.35,0.82,0.81,1.59,1.39,2.3c-0.41,0.43-0.72,0.93-0.93,1.46c-0.44,1.15-0.52,2.78,0.3,3.85
			c0.85,1.1,2.37,1.25,3.31,1.25c0.21,0,0.4-0.01,0.54-0.01h0.04c6.55-0.26,13.22-0.19,19.68-0.11c1.6,0.02,3.21,0.04,4.81,0.05
			c1.46,0.01,2.95,0.02,4.45,0.02c5.42,0,11.05-0.1,16.63-0.53l0.08-0.01c1.42-0.1,5.73-0.43,9.1-3.34
			c0.71-0.61,2.59-2.25,3.07-4.94C63.73,23.33,63.98,21.9,63.26,20.64z M18.41,5.88c0.1-0.43,1.23-1.61,2.79-3.23
			c1.17-1.22,1.55-1.55,1.78-1.53c0.48,0.05,0.97,0.93,1.27,1.86c-0.68,0.29-1.17,0.78-1.46,1.06c-1.01,0.99-1.24,2.01-1.44,2.9
			c-0.12,0.53-0.23,1.02-0.49,1.49c-0.07,0.13-0.16,0.27-0.25,0.4c-0.23,0.3-0.51,0.58-0.82,0.83C19.13,8.91,18.05,7.39,18.41,5.88z
			 M2.54,13.67c0.3-0.97,0.55-1.56,0.77-2.07c0.14-0.31,0.26-0.6,0.36-0.92c0.91,0.1,1.69,0.38,2.34,0.84
			c1.55,1.1,1.94,2.97,2.48,5.55l0.07,0.36c0.26,1.24,0.54,2.5,0.83,3.77l-0.04-0.01c-2.66-0.31-5.35-0.47-8.03-0.5
			C1.18,18.07,1.96,15.54,2.54,13.67z M2.05,23.81c-0.28-0.65-0.47-1.35-0.6-2.08c2.59,0.03,5.21,0.19,7.79,0.49l0.77,0.09
			c6.76,0.78,10.88,1.38,14.57,4.1c-4.65-0.06-9.01-0.14-13.28-0.21c-2.67-0.05-5.31-0.1-7.86-0.16C2.86,25.35,2.4,24.6,2.05,23.81z
			 M62.56,24.01c-0.42,2.33-2.1,3.79-2.73,4.34c-3.11,2.69-7.17,2.99-8.5,3.09l-0.08,0.01c-7.09,0.54-14.28,0.57-20.99,0.51
			c-1.6-0.02-3.2-0.03-4.81-0.05c-6.47-0.07-13.16-0.15-19.73,0.11H5.67c-0.62,0.03-2.27,0.09-2.98-0.84
			c-0.58-0.74-0.49-1.99-0.16-2.84c0.19-0.47,0.48-0.91,0.87-1.28c2.56,0.06,5.21,0.11,7.89,0.16c4.72,0.09,9.55,0.17,14.77,0.24
			c4.34,0.06,8.27,0.1,11.73,0.14c4.41,0.05,8.21,0.09,11.07,0.15c0.25,0.01,0.54,0.01,0.85,0.01c1.66,0,4.08-0.08,6.3-0.72
			c1.78-0.52,3.48-1.41,5.06-2.66c0.22-0.18,0.26-0.5,0.08-0.72c-0.18-0.22-0.5-0.27-0.72-0.09c-1.47,1.17-3.06,2-4.71,2.47
			c-2.49,0.72-5.33,0.7-6.84,0.68c-2.85-0.06-6.66-0.1-11.07-0.15c-3.42-0.04-7.28-0.08-11.54-0.14c-0.16-0.14-0.32-0.28-0.48-0.41
			c-3.97-3.21-8.43-3.91-15.28-4.71c-0.32-1.38-0.63-2.76-0.92-4.11l-0.07-0.35C8.94,14.15,8.49,12,6.6,10.67
			c-0.76-0.53-1.65-0.86-2.66-1C3.98,9.49,4.02,9.3,4.05,9.1c0.04-0.27,0.07-0.52,0.1-0.76c0.13-0.95,0.21-1.5,0.61-1.79
			c0.41-0.3,1.07-0.31,1.97-0.04c1.47,0.45,2.08,1.4,2.78,2.51c0.63,0.98,1.27,1.99,2.56,2.65c0.84,0.43,1.86,0.63,2.91,0.63
			c2.45,0,5.11-1.08,6.44-2.86c0.13-0.17,0.23-0.34,0.33-0.51c0.33-0.6,0.46-1.19,0.59-1.76c0.19-0.83,0.38-1.61,1.16-2.39
			c0.33-0.32,0.82-0.81,1.48-0.96c0.09-0.02,0.18-0.04,0.28-0.04c0.81-0.06,1.42,0.45,2.62,1.53c0.37,0.33,0.79,0.71,1.28,1.11
			c0.41,0.34,0.83,0.66,1.27,0.95l-3.26,1.27c-0.27,0.1-0.4,0.41-0.29,0.67c0.08,0.2,0.27,0.33,0.48,0.33
			c0.06,0,0.13-0.01,0.19-0.03l3.94-1.54c0.09,0.06,0.18,0.11,0.27,0.17c0.49,0.31,0.99,0.64,1.47,0.97
			c0.09,0.06,0.19,0.13,0.28,0.19l-3.21,1.25c-0.27,0.1-0.4,0.4-0.29,0.67c0.08,0.2,0.28,0.33,0.48,0.33c0.06,0,0.13-0.01,0.19-0.04
			l3.85-1.5c0.71,0.49,1.42,0.98,2.15,1.47l-3.32,1.29c-0.27,0.1-0.4,0.41-0.3,0.67c0.08,0.2,0.28,0.33,0.48,0.33
			c0.06,0,0.13-0.01,0.19-0.04l3.98-1.55c0.01,0,0.01-0.01,0.02-0.01c0.81,0.52,1.63,1.03,2.46,1.51l-3.37,1.32
			c-0.27,0.1-0.4,0.4-0.29,0.67c0.08,0.2,0.28,0.33,0.48,0.33c0.06,0,0.13-0.01,0.19-0.03l3.98-1.56c0.06-0.02,0.1-0.05,0.15-0.08
			c1.58,0.85,3.23,1.63,4.98,2.27c-3.62,2.49-8.07,4.88-10.35,3.46c-0.58-0.36-0.94-0.9-1.39-1.59c-0.65-0.99-1.46-2.22-3.29-3.55
			c-0.71-0.52-1.79-1.1-3.73-2.15c-1.6-0.86-3.21-1.71-4.81-2.51c-0.26-0.13-0.57-0.03-0.69,0.23c-0.13,0.26-0.03,0.57,0.23,0.7
			c1.59,0.8,3.2,1.64,4.78,2.49c2.06,1.11,2.99,1.62,3.62,2.08c1.68,1.21,2.4,2.31,3.04,3.28c0.51,0.77,0.94,1.42,1.71,1.9
			c0.63,0.39,1.37,0.59,2.23,0.59c2.38,0,5.64-1.49,9.89-4.51c0.13,0.04,0.25,0.08,0.38,0.12c2.69,0.82,6.02,1.45,6.97,1.63
			c0.9,0.16,1.72,0.29,2.45,0.41c2.81,0.44,4.36,0.69,5.04,1.88C62.9,22.09,62.7,23.2,62.56,24.01z"/>
		<path class="st1" d="M63.26,20.64c-0.93-1.62-2.75-1.91-5.78-2.39c-0.72-0.11-1.54-0.24-2.42-0.41c-0.94-0.17-4.22-0.79-6.86-1.6
			c-0.2-0.06-0.41-0.13-0.61-0.19c-5.27-1.74-9.59-4.77-13.78-7.69c-0.49-0.35-1.01-0.68-1.51-0.99c-0.84-0.54-1.72-1.1-2.49-1.74
			c-0.47-0.39-0.88-0.76-1.24-1.09c-1.2-1.08-2.07-1.87-3.32-1.8c-0.28-0.92-0.93-2.52-2.17-2.65c-0.75-0.08-1.26,0.41-2.63,1.83
			c-2.15,2.23-2.89,3.04-3.05,3.72c-0.44,1.89,0.73,3.67,1.51,4.59c-1.93,1.08-4.64,1.39-6.37,0.52c-1.03-0.52-1.57-1.38-2.15-2.28
			C9.68,7.35,8.88,6.08,7.03,5.53C6.57,5.39,5.18,4.97,4.16,5.72C3.38,6.29,3.27,7.18,3.13,8.21C3.1,8.44,3.07,8.68,3.03,8.94
			C2.96,9.33,2.89,9.68,2.8,9.99c-0.13,0.44-0.27,0.77-0.45,1.2c-0.22,0.51-0.49,1.15-0.81,2.18c-0.6,1.95-1.51,4.9-1.2,7.89
			c0.11,1.05,0.36,2.05,0.76,2.96c0.35,0.82,0.81,1.59,1.39,2.3c-0.41,0.43-0.72,0.93-0.93,1.46c-0.44,1.15-0.52,2.78,0.3,3.85
			c0.85,1.1,2.37,1.25,3.31,1.25c0.21,0,0.4-0.01,0.54-0.01h0.04c6.55-0.26,13.22-0.19,19.68-0.11c1.6,0.02,3.21,0.04,4.81,0.05
			c1.46,0.01,2.95,0.02,4.45,0.02c5.42,0,11.05-0.1,16.63-0.53l0.08-0.01c1.42-0.1,5.73-0.43,9.1-3.34
			c0.71-0.61,2.59-2.25,3.07-4.94C63.73,23.33,63.98,21.9,63.26,20.64z M18.41,5.88c0.1-0.43,1.23-1.61,2.79-3.23
			c1.17-1.22,1.55-1.55,1.78-1.53c0.48,0.05,0.97,0.93,1.27,1.86c-0.68,0.29-1.17,0.78-1.46,1.06c-1.01,0.99-1.24,2.01-1.44,2.9
			c-0.12,0.53-0.23,1.02-0.49,1.49c-0.07,0.13-0.16,0.27-0.25,0.4c-0.23,0.3-0.51,0.58-0.82,0.83C19.13,8.91,18.05,7.39,18.41,5.88z
			 M2.54,13.67c0.3-0.97,0.55-1.56,0.77-2.07c0.14-0.31,0.26-0.6,0.36-0.92c0.91,0.1,1.69,0.38,2.34,0.84
			c1.55,1.1,1.94,2.97,2.48,5.55l0.07,0.36c0.26,1.24,0.54,2.5,0.83,3.77l-0.04-0.01c-2.66-0.31-5.35-0.47-8.03-0.5
			C1.18,18.07,1.96,15.54,2.54,13.67z M2.05,23.81c-0.28-0.65-0.47-1.35-0.6-2.08c2.59,0.03,5.21,0.19,7.79,0.49l0.77,0.09
			c6.76,0.78,10.88,1.38,14.57,4.1c-4.65-0.06-9.01-0.14-13.28-0.21c-2.67-0.05-5.31-0.1-7.86-0.16C2.86,25.35,2.4,24.6,2.05,23.81z
			 M62.56,24.01c-0.42,2.33-2.1,3.79-2.73,4.34c-3.11,2.69-7.17,2.99-8.5,3.09l-0.08,0.01c-7.09,0.54-14.28,0.57-20.99,0.51
			c-1.6-0.02-3.2-0.03-4.81-0.05c-6.47-0.07-13.16-0.15-19.73,0.11H5.67c-0.62,0.03-2.27,0.09-2.98-0.84
			c-0.58-0.74-0.49-1.99-0.16-2.84c0.19-0.47,0.48-0.91,0.87-1.28c2.56,0.06,5.21,0.11,7.89,0.16c4.72,0.09,9.55,0.17,14.77,0.24
			c4.34,0.06,8.27,0.1,11.73,0.14c4.41,0.05,8.21,0.09,11.07,0.15c0.25,0.01,0.54,0.01,0.85,0.01c1.66,0,4.08-0.08,6.3-0.72
			c1.78-0.52,3.48-1.41,5.06-2.66c0.22-0.18,0.26-0.5,0.08-0.72c-0.18-0.22-0.5-0.27-0.72-0.09c-1.47,1.17-3.06,2-4.71,2.47
			c-2.49,0.72-5.33,0.7-6.84,0.68c-2.85-0.06-6.66-0.1-11.07-0.15c-3.42-0.04-7.28-0.08-11.54-0.14c-0.16-0.14-0.32-0.28-0.48-0.41
			c-3.97-3.21-8.43-3.91-15.28-4.71c-0.32-1.38-0.63-2.76-0.92-4.11l-0.07-0.35C8.94,14.15,8.49,12,6.6,10.67
			c-0.76-0.53-1.65-0.86-2.66-1C3.98,9.49,4.02,9.3,4.05,9.1c0.04-0.27,0.07-0.52,0.1-0.76c0.13-0.95,0.21-1.5,0.61-1.79
			c0.41-0.3,1.07-0.31,1.97-0.04c1.47,0.45,2.08,1.4,2.78,2.51c0.63,0.98,1.27,1.99,2.56,2.65c0.84,0.43,1.86,0.63,2.91,0.63
			c2.45,0,5.11-1.08,6.44-2.86c0.13-0.17,0.23-0.34,0.33-0.51c0.33-0.6,0.46-1.19,0.59-1.76c0.19-0.83,0.38-1.61,1.16-2.39
			c0.33-0.32,0.82-0.81,1.48-0.96c0.09-0.02,0.18-0.04,0.28-0.04c0.81-0.06,1.42,0.45,2.62,1.53c0.37,0.33,0.79,0.71,1.28,1.11
			c0.41,0.34,0.83,0.66,1.27,0.95l-3.26,1.27c-0.27,0.1-0.4,0.41-0.29,0.67c0.08,0.2,0.27,0.33,0.48,0.33
			c0.06,0,0.13-0.01,0.19-0.03l3.94-1.54c0.09,0.06,0.18,0.11,0.27,0.17c0.49,0.31,0.99,0.64,1.47,0.97
			c0.09,0.06,0.19,0.13,0.28,0.19l-3.21,1.25c-0.27,0.1-0.4,0.4-0.29,0.67c0.08,0.2,0.28,0.33,0.48,0.33c0.06,0,0.13-0.01,0.19-0.04
			l3.85-1.5c0.71,0.49,1.42,0.98,2.15,1.47l-3.32,1.29c-0.27,0.1-0.4,0.41-0.3,0.67c0.08,0.2,0.28,0.33,0.48,0.33
			c0.06,0,0.13-0.01,0.19-0.04l3.98-1.55c0.01,0,0.01-0.01,0.02-0.01c0.81,0.52,1.63,1.03,2.46,1.51l-3.37,1.32
			c-0.27,0.1-0.4,0.4-0.29,0.67c0.08,0.2,0.28,0.33,0.48,0.33c0.06,0,0.13-0.01,0.19-0.03l3.98-1.56c0.06-0.02,0.1-0.05,0.15-0.08
			c1.58,0.85,3.23,1.63,4.98,2.27c-3.62,2.49-8.07,4.88-10.35,3.46c-0.58-0.36-0.94-0.9-1.39-1.59c-0.65-0.99-1.46-2.22-3.29-3.55
			c-0.71-0.52-1.79-1.1-3.73-2.15c-1.6-0.86-3.21-1.71-4.81-2.51c-0.26-0.13-0.57-0.03-0.69,0.23c-0.13,0.26-0.03,0.57,0.23,0.7
			c1.59,0.8,3.2,1.64,4.78,2.49c2.06,1.11,2.99,1.62,3.62,2.08c1.68,1.21,2.4,2.31,3.04,3.28c0.51,0.77,0.94,1.42,1.71,1.9
			c0.63,0.39,1.37,0.59,2.23,0.59c2.38,0,5.64-1.49,9.89-4.51c0.13,0.04,0.25,0.08,0.38,0.12c2.69,0.82,6.02,1.45,6.97,1.63
			c0.9,0.16,1.72,0.29,2.45,0.41c2.81,0.44,4.36,0.69,5.04,1.88C62.9,22.09,62.7,23.2,62.56,24.01z"/>
	</g>
</g>
</svg>
