<?xml version="1.0" encoding="utf-8"?>
<!-- Generator: Adobe Illustrator 23.0.1, SVG Export Plug-In . SVG Version: 6.00 Build 0)  -->
<svg version="1.1" id="Layer_1" xmlns="http://www.w3.org/2000/svg" xmlns:xlink="http://www.w3.org/1999/xlink" x="0px" y="0px"
	 viewBox="0 0 68 66.67" style="enable-background:new 0 0 68 66.67;" xml:space="preserve">
<style type="text/css">
	.st0{clip-path:url(#SVGID_2_);}
	.st1{clip-path:url(#SVGID_4_);}
	.st2{clip-path:url(#SVGID_6_);}
	.st3{fill:#FFFFFF;}
</style>
<g>
	<defs>
		<rect id="SVGID_1_" width="68" height="66.67"/>
	</defs>
	<clipPath id="SVGID_2_">
		<use xlink:href="#SVGID_1_"  style="overflow:visible;"/>
	</clipPath>
	<g class="st0">
		<g>
			<defs>
				
					<rect id="SVGID_3_" x="2.54" y="16.47" transform="matrix(0.5754 -0.8179 0.8179 0.5754 -15.5825 42.921)" width="62" height="40"/>
			</defs>
			<clipPath id="SVGID_4_">
				<use xlink:href="#SVGID_3_"  style="overflow:visible;"/>
			</clipPath>
			<g class="st1">
				<g>
					<defs>
						
							<rect id="SVGID_5_" x="2.54" y="16.47" transform="matrix(0.5754 -0.8179 0.8179 0.5754 -15.5825 42.921)" width="62" height="40"/>
					</defs>
					<clipPath id="SVGID_6_">
						<use xlink:href="#SVGID_5_"  style="overflow:visible;"/>
					</clipPath>
					<g class="st2">
						<path class="st3" d="M18.22,56.54c0.22,1.55-0.14,3.22-1.15,4.65c-0.31,0.45-0.21,1.07,0.24,1.39l5.52,3.88
							c0.01,0.01,0.02,0.01,0.02,0.01c0.01,0.01,0.01,0.01,0.02,0.01c0.03,0.02,0.05,0.03,0.07,0.04c0.01,0.01,0.01,0.01,0.01,0.01
							c0.03,0.02,0.05,0.03,0.08,0.04c0,0.01,0,0.01,0,0.01c0.18,0.07,0.38,0.09,0.56,0.05c0.03-0.01,0.06-0.01,0.09-0.02
							c0.01,0,0.01-0.01,0.01-0.01c0.03-0.01,0.05-0.02,0.08-0.03c0-0.01,0.01-0.01,0.01-0.01c0.03-0.01,0.06-0.03,0.08-0.04
							c0,0,0-0.01,0.01-0.01c0.03-0.02,0.05-0.03,0.08-0.05c0,0,0,0,0.01,0c0.03-0.02,0.05-0.04,0.08-0.06
							c0.03-0.03,0.05-0.05,0.07-0.07c0,0,0,0,0-0.01l42.89-42.77c0.05-0.05,0.1-0.1,0.15-0.16c0.31-0.45,0.2-1.07-0.24-1.38
							l-5.52-3.88c-0.39-0.28-0.92-0.24-1.27,0.11c-0.73,0.73-1.62,1.3-2.57,1.68c-0.32,0.14-0.66,0.24-1,0.33l2.04-2.89
							c0.31-0.45,0.2-1.07-0.24-1.38l-5.52-3.89c-0.45-0.31-1.07-0.2-1.38,0.24c-0.75,1.06-1.75,1.84-2.84,2.29
							c0.06-0.3,0.16-0.6,0.28-0.89c0.29-0.7,0.73-1.38,1.35-2c0.05-0.05,0.1-0.1,0.14-0.16c0.31-0.45,0.2-1.07-0.24-1.39
							l-5.52-3.88c-0.39-0.27-0.93-0.23-1.27,0.11l-2.74,2.73c0.03-1.23,0.42-2.49,1.2-3.61c0.31-0.45,0.21-1.07-0.24-1.38
							l-5.52-3.88c-0.45-0.32-1.07-0.21-1.38,0.24L0.29,49.39c-0.31,0.45-0.2,1.06,0.24,1.38l5.52,3.88
							c0.01,0.01,0.02,0.01,0.02,0.02c0.01,0,0.01,0.01,0.02,0.01c0.03,0.02,0.05,0.03,0.07,0.04c0,0.01,0.01,0.01,0.01,0.01
							c0.03,0.02,0.05,0.03,0.08,0.04c0.18,0.07,0.38,0.09,0.56,0.05c0.03-0.01,0.06-0.01,0.09-0.02c0.01,0,0.01,0,0.01,0
							c0.03-0.01,0.05-0.02,0.08-0.03c0,0,0.01,0,0.01-0.01c0.03-0.01,0.06-0.02,0.08-0.04c0,0,0,0,0.01,0
							c0.03-0.02,0.05-0.03,0.08-0.05c0-0.01,0-0.01,0.01-0.01c0.03-0.02,0.05-0.04,0.08-0.06c0.03-0.02,0.05-0.04,0.07-0.07
							c1.2-1.2,2.8-1.95,4.44-2.2c1.61-0.24,3.25-0.02,4.6,0.72C17.39,53.96,18.02,55.21,18.22,56.54z M58.28,21.77
							c0.93-0.38,1.82-0.9,2.6-1.55l3.91,2.74l-8.08,8.06l-0.94-0.66c-0.95-0.67-2.11,0.59-1.29,1.49c0.05,0.05,0.09,0.09,0.15,0.13
							l0.66,0.46L44.16,43.54L30.77,56.9l19.62-27.9l0.99,0.7c0.95,0.67,2.11-0.59,1.29-1.49c-0.05-0.05-0.09-0.09-0.15-0.13
							l-0.99-0.7l3.43-4.87C56.08,22.45,57.21,22.2,58.28,21.77z M47.03,13.01c-0.29,0.69-0.45,1.41-0.51,2.11
							c-0.03,0.01-0.06,0.01-0.09,0.01c-0.07,0-0.14,0-0.21,0c-0.05,0-0.1,0-0.15,0c-0.06-0.01-0.12-0.01-0.18-0.01
							c-0.06-0.01-0.11-0.01-0.17-0.01c-0.05-0.01-0.1-0.01-0.15-0.02c-0.12-0.02-0.23-0.03-0.35-0.05
							c-0.04-0.01-0.07-0.02-0.1-0.02c-0.56-0.11-1.09-0.3-1.6-0.58c-0.01-0.01-0.02-0.01-0.03-0.02c-0.07-0.04-0.14-0.08-0.21-0.13
							c-0.02-0.01-0.03-0.02-0.04-0.03c-0.08-0.05-0.17-0.1-0.24-0.16l-0.01-0.01c-0.08-0.05-0.15-0.11-0.22-0.17
							c-0.02-0.02-0.04-0.03-0.06-0.05c-0.05-0.05-0.1-0.09-0.16-0.14c-0.02-0.02-0.04-0.03-0.06-0.05
							c-0.06-0.05-0.11-0.1-0.16-0.15c-0.02-0.02-0.03-0.03-0.04-0.04c-0.14-0.14-0.27-0.27-0.39-0.42c0-0.01-0.01-0.01-0.01-0.01
							c-0.06-0.07-0.11-0.13-0.16-0.2c-0.02-0.02-0.02-0.03-0.04-0.05c-0.03-0.05-0.07-0.09-0.1-0.14c-0.04-0.05-0.07-0.1-0.1-0.16
							c-0.02-0.04-0.05-0.07-0.07-0.11c-0.04-0.06-0.07-0.12-0.1-0.18c-0.02-0.03-0.04-0.06-0.05-0.09
							c-0.05-0.09-0.09-0.18-0.13-0.27c-0.01-0.02-0.02-0.04-0.03-0.06c-0.04-0.08-0.07-0.16-0.1-0.24
							c-0.01-0.01-0.01-0.02-0.01-0.03l3.13-3.13l3.94,2.78C47.64,11.78,47.29,12.39,47.03,13.01z M17.01,51.05L17.01,51.05
							c-1.79-1.26-3.94-1.64-5.97-1.22h-0.01c-0.11,0.03-0.23,0.05-0.34,0.08c-0.04,0.01-0.08,0.02-0.11,0.03
							c-0.08,0.02-0.16,0.04-0.24,0.07c-0.04,0.01-0.08,0.03-0.13,0.04c-0.07,0.02-0.15,0.05-0.22,0.07
							c-0.04,0.02-0.09,0.03-0.13,0.04c-0.07,0.03-0.15,0.06-0.22,0.08c-0.04,0.02-0.08,0.04-0.13,0.05
							c-0.08,0.03-0.16,0.07-0.24,0.1c-0.03,0.02-0.06,0.03-0.09,0.04c-0.11,0.05-0.22,0.11-0.33,0.17
							c-0.02,0.01-0.04,0.02-0.05,0.03c-0.09,0.05-0.18,0.1-0.27,0.15c-0.04,0.02-0.07,0.04-0.11,0.07
							c-0.07,0.04-0.14,0.08-0.21,0.13C8.17,51,8.13,51.03,8.08,51.05c-0.06,0.04-0.13,0.09-0.19,0.13
							c-0.04,0.03-0.08,0.06-0.11,0.08c-0.07,0.05-0.13,0.1-0.19,0.15c-0.04,0.03-0.07,0.06-0.11,0.08
							c-0.07,0.06-0.15,0.13-0.22,0.18c-0.02,0.02-0.04,0.04-0.07,0.06c-0.09,0.08-0.19,0.17-0.28,0.26
							c-0.02,0.02-0.04,0.04-0.05,0.05c-0.07,0.07-0.15,0.15-0.22,0.22c-0.03,0.03-0.06,0.06-0.08,0.09
							c-0.04,0.04-0.08,0.08-0.12,0.13l-3.94-2.78L35.7,2.51l3.94,2.77c-0.9,1.66-1.2,3.51-0.95,5.24c0.05,0.35,0.13,0.7,0.22,1.04
							c0,0.01,0,0.01,0,0.02c0.01,0.01,0.01,0.01,0.01,0.02c0.02,0.06,0.04,0.13,0.06,0.2c0.02,0.05,0.03,0.09,0.05,0.14
							c0.02,0.06,0.05,0.13,0.07,0.19c0.02,0.05,0.04,0.09,0.05,0.14c0.03,0.06,0.05,0.13,0.08,0.19c0.02,0.05,0.04,0.1,0.06,0.15
							c0.03,0.06,0.05,0.11,0.08,0.18c0.03,0.06,0.06,0.11,0.09,0.17c0.05,0.09,0.09,0.18,0.15,0.28c0.03,0.05,0.06,0.1,0.08,0.16
							c0.04,0.06,0.07,0.11,0.11,0.17c0.03,0.04,0.05,0.08,0.08,0.12c0.04,0.07,0.08,0.13,0.13,0.19c0.01,0.02,0.02,0.03,0.03,0.04
							l0.01,0.01c0.01,0.02,0.02,0.03,0.03,0.04c0.04,0.07,0.09,0.13,0.14,0.19c0.02,0.02,0.04,0.05,0.06,0.07
							c0.16,0.2,0.33,0.4,0.51,0.58c0.04,0.04,0.07,0.07,0.11,0.11c0.04,0.04,0.09,0.08,0.13,0.13c0.05,0.04,0.09,0.08,0.14,0.13
							c0.04,0.04,0.08,0.07,0.13,0.11c0.06,0.05,0.11,0.1,0.18,0.15c0.03,0.03,0.07,0.06,0.1,0.09c0.09,0.07,0.19,0.15,0.29,0.21
							c0,0.01,0.01,0.01,0.01,0.01c0.01,0.01,0.02,0.01,0.03,0.02c0.1,0.07,0.2,0.14,0.3,0.2c0.06,0.04,0.12,0.07,0.18,0.1
							c0.05,0.03,0.1,0.06,0.15,0.09c0.08,0.05,0.16,0.08,0.24,0.13c0.03,0.02,0.06,0.04,0.1,0.05c0.09,0.05,0.19,0.09,0.28,0.13
							c0.02,0.01,0.04,0.02,0.06,0.03c0.1,0.04,0.2,0.08,0.31,0.12c0.01,0.01,0.03,0.02,0.04,0.02c0.11,0.04,0.22,0.07,0.33,0.11
							c0.01,0.01,0.02,0.01,0.03,0.01c0.11,0.04,0.22,0.07,0.33,0.1c0.01,0,0.02,0.01,0.03,0.01c0.11,0.03,0.22,0.06,0.33,0.08
							c0.01,0.01,0.02,0.01,0.03,0.01c0.01,0,0.01,0,0.01,0c0.11,0.02,0.22,0.04,0.33,0.06C44.98,17,45,17,45.02,17.01
							c0.1,0.02,0.21,0.03,0.31,0.04c0.03,0,0.05,0.01,0.07,0.01c0.1,0.01,0.2,0.02,0.3,0.02c0.03,0.01,0.06,0.01,0.09,0.01
							c0.09,0.01,0.18,0.01,0.28,0.01c0.04,0,0.07,0,0.11,0c0.09,0,0.18,0,0.27-0.01c0.04,0,0.08,0,0.13,0
							c0.08-0.01,0.17-0.01,0.25-0.02c0.05-0.01,0.09-0.01,0.14-0.01c0.08-0.01,0.16-0.02,0.23-0.03c0.05-0.01,0.1-0.01,0.15-0.02
							c0.07-0.01,0.15-0.02,0.23-0.04c0.03,0,0.06-0.01,0.09-0.01c0.01,0,0.01-0.01,0.02-0.01c0.05-0.01,0.09-0.02,0.14-0.03
							c1.72-0.35,3.35-1.26,4.61-2.67l3.94,2.78l-2.76,3.92l-0.44,0.62L39.77,40.66l-16.6,23.6l-3.94-2.77
							c0.9-1.66,1.2-3.51,0.95-5.24C19.88,54.2,18.8,52.3,17.01,51.05z M36.79,19.44l-1.63-1.14c-0.06-0.04-0.1-0.08-0.15-0.13
							c-0.82-0.9,0.34-2.17,1.29-1.49l1.63,1.14c0.06,0.04,0.1,0.08,0.15,0.13C38.9,18.84,37.74,20.11,36.79,19.44z M31.92,16.02
							l-1.63-1.14c-0.06-0.04-0.1-0.08-0.15-0.13c-0.82-0.9,0.34-2.17,1.29-1.49l1.63,1.14c0.06,0.04,0.1,0.08,0.15,0.13
							C34.03,15.42,32.88,16.69,31.92,16.02z M41.65,22.86l-1.63-1.14c-0.05-0.04-0.1-0.08-0.15-0.13c-0.82-0.9,0.34-2.17,1.29-1.49
							l1.62,1.14c0.06,0.04,0.1,0.08,0.15,0.13C43.76,22.27,42.6,23.53,41.65,22.86z M46.52,26.29l-1.62-1.15
							c-0.06-0.04-0.1-0.08-0.15-0.13c-0.82-0.9,0.34-2.17,1.29-1.49l1.62,1.14c0.06,0.04,0.1,0.08,0.15,0.13
							C48.63,25.69,47.47,26.95,46.52,26.29z M41.81,28.72c0.45,0.32,0.55,0.94,0.24,1.38l-7.27,10.33
							c-0.31,0.45-0.93,0.56-1.38,0.24c-0.45-0.31-0.55-0.93-0.24-1.38l7.27-10.33C40.74,28.51,41.36,28.41,41.81,28.72z
							 M17.36,46.23c-0.45-0.31-0.56-0.93-0.24-1.38l15.2-21.6c0.31-0.45,0.93-0.56,1.38-0.24c0.45,0.32,0.56,0.94,0.24,1.39
							l-15.19,21.6C18.42,46.44,17.81,46.55,17.36,46.23z M21.42,49.09c-0.45-0.32-0.56-0.93-0.24-1.38l15.2-21.6
							c0.31-0.45,0.93-0.56,1.38-0.24c0.45,0.32,0.56,0.94,0.24,1.39L22.8,48.85C22.48,49.3,21.86,49.4,21.42,49.09z M13.3,43.38
							c-0.45-0.31-0.56-0.93-0.24-1.38l15.19-21.6c0.32-0.45,0.93-0.56,1.38-0.24c0.45,0.31,0.56,0.93,0.24,1.38l-15.2,21.6
							C14.37,43.59,13.75,43.7,13.3,43.38z"/>
					</g>
				</g>
			</g>
		</g>
	</g>
</g>
</svg>
